<svg width="158" height="32" viewBox="0 0 158 32" fill="none" xmlns="http://www.w3.org/2000/svg">
<path d="M18.9606 12.824C20.8374 14.7314 22.3663 17.8425 21.4874 19.6943C19.1437 24.648 1.65731 33.3332 0.17417 31.824C-1.30897 30.324 7.27859 12.6295 12.1766 10.2591C13.9985 9.37951 17.0838 10.9258 18.9606 12.824C18.9606 12.8147 18.9606 12.824 18.9606 12.824Z" fill="#FF8200"/>
<path d="M28.2258 10.7407C28.2258 10.7315 28.2258 10.7315 28.2258 10.7407C27.9237 9.60186 27.1455 8.45371 25.9828 8.31482C23.8588 8.06482 20.508 11.8611 20.746 12.7685C20.9841 13.6667 25.7173 15.2593 27.4842 13.9722C28.3998 13.3056 28.5279 11.8796 28.2258 10.7407ZM21.6432 0.21297C23.2179 0.648155 24.8201 1.74075 25.0032 3.3889C25.3511 6.39815 20.0869 11.1482 18.8326 10.8148C17.5783 10.4722 15.3811 3.76853 17.1572 1.25927C18.0819 -0.0370301 20.0685 -0.222215 21.6432 0.21297C21.6432 0.203711 21.6432 0.203711 21.6432 0.21297Z" fill="#0AAD0A"/>
<path d="M68.7003 18.0462L67.1347 17.8055C65.6424 17.5832 64.7819 17.0925 64.7819 16.2036C64.7819 15.1851 65.9079 14.5555 67.565 14.5555C68.7369 14.5555 69.6982 14.9999 70.6137 15.4721L70.7968 15.5647C71.0074 15.6758 71.2363 15.7314 71.4743 15.7314C72.0144 15.7314 72.518 15.4351 72.7835 14.9536L72.9117 14.7221C73.1131 14.3518 73.1588 13.9258 73.0307 13.5184C72.9025 13.111 72.637 12.7869 72.2616 12.6018C70.925 11.9258 69.4785 11.324 67.5742 11.324C63.5917 11.324 61.0282 13.2684 61.0282 16.398C61.0282 18.9629 62.8501 20.574 66.3108 21.0555L67.8855 21.2592C69.5517 21.4999 70.3665 21.9906 70.3665 22.7869C70.3665 23.5184 69.9728 24.4906 67.3911 24.4906C65.9629 24.4906 64.5255 24.1295 63.3445 23.3703C63.1065 23.2221 62.841 23.1388 62.5663 23.1388C62.0536 23.1388 61.5592 23.4166 61.2937 23.861L61.2022 24.0092C60.9825 24.3703 60.9184 24.8055 61.0191 25.2129C61.1198 25.6203 61.3761 25.9536 61.7332 26.1573C63.7839 27.324 66.146 27.7314 67.3819 27.7314C71.5292 27.7314 74.1018 25.8888 74.1018 22.6573C74.1018 20.0462 72.2799 18.5647 68.7003 18.0462Z" fill="#0AAD0A"/>
<path d="M116.863 23.5278L116.744 23.3981C116.442 23.0555 116.012 22.8704 115.563 22.8704C115.261 22.8704 114.959 22.9537 114.702 23.1204C113.86 23.6667 112.935 23.9444 112.029 23.9444C109.539 23.9444 107.726 21.9537 107.726 19.213C107.726 16.4722 109.539 14.4815 112.029 14.4815C112.99 14.4815 113.842 14.7407 114.647 15.287C115.27 15.7037 116.167 15.6019 116.68 15.0463L116.817 14.9074C117.165 14.5278 117.339 14.0185 117.275 13.5C117.22 12.9907 116.945 12.537 116.524 12.2593C115.297 11.4352 113.778 11 112.13 11C107.342 11 104 14.3796 104 19.2222C104 24.0648 107.342 27.4444 112.13 27.4444C113.787 27.4444 115.316 27 116.552 26.1667C116.964 25.8889 117.238 25.4352 117.302 24.9352C117.357 24.4074 117.193 23.8981 116.863 23.5278Z" fill="#0AAD0A"/>
<path d="M39.5045 5.73145C38.2594 5.73145 37.2798 6.73144 37.2798 8.00922C37.2798 9.287 38.2319 10.2592 39.5045 10.2592C40.7679 10.2592 41.7567 9.26848 41.7567 8.00922C41.7567 6.73144 40.7679 5.73145 39.5045 5.73145Z" fill="#0AAD0A"/>
<path d="M40.1819 11.426H38.8727C38.2318 11.426 37.71 11.9538 37.71 12.602V26.1575C37.71 26.8057 38.2318 27.3334 38.8727 27.3334H40.1819C40.8227 27.3334 41.3446 26.8057 41.3446 26.1575V12.602C41.3354 11.9538 40.8227 11.426 40.1819 11.426Z" fill="#0AAD0A"/>
<path d="M83.2024 14.8518C83.8433 14.8518 84.3651 14.324 84.3651 13.6759V12.6018C84.3651 11.9537 83.8433 11.4259 83.2024 11.4259H80.0164V7.89809C80.0164 7.24995 79.4946 6.72217 78.8537 6.72217H77.4713C76.8304 6.72217 76.3086 7.24995 76.3086 7.89809V20.7407C76.3086 24.4351 79.0826 27.7129 82.9278 27.7129C83.3123 27.7129 83.6693 27.5648 83.944 27.287C84.2186 27.0092 84.3651 26.6481 84.3651 26.2592V25.3518C84.3651 24.6944 83.8341 24.1759 83.1933 24.1759C81.7193 24.1666 80.0164 23.0092 80.0164 20.9629V14.8518H83.2024Z" fill="#0AAD0A"/>
<path d="M51.4429 11.2964C46.7921 11.2964 44.2012 15.0556 44.2012 18.2779V26.1575C44.2012 26.8056 44.723 27.3334 45.3639 27.3334H46.6914C47.3322 27.3334 47.8541 26.8056 47.8541 26.1575V18.8705C47.8541 16.426 49.3189 14.8149 51.4521 14.8149C53.5852 14.8149 55.0501 16.4353 55.0501 18.8705V26.1575C55.0501 26.8056 55.5719 27.3334 56.2128 27.3334H57.5403C58.1811 27.3334 58.703 26.8056 58.703 26.1575V18.2779C58.6847 15.0556 56.0938 11.2964 51.4429 11.2964Z" fill="#0AAD0A"/>
<path d="M147.792 11.9353C147.636 11.6853 147.398 11.5186 147.115 11.4538C146.611 11.3427 145.348 11.2871 144.688 11.2871C144.633 11.2871 144.569 11.2871 144.514 11.2871C140.916 11.2871 137.584 14.2593 137.584 18.3519V18.3612V18.4353V26.1482C137.584 26.7964 138.106 27.3241 138.747 27.3241H140.074C140.715 27.3241 141.237 26.7964 141.237 26.1482V18.4816C141.237 16.2501 142.812 14.7964 144.734 14.7964C145.091 14.8056 145.467 14.8427 145.833 14.9167C145.934 14.9353 146.034 14.9445 146.135 14.9445C146.867 14.9445 147.508 14.4353 147.682 13.7038C147.774 13.3056 147.847 13.0093 147.911 12.7408C147.975 12.4723 147.948 12.1853 147.792 11.9353Z" fill="#0AAD0A"/>
<path d="M156.837 14.8518C157.478 14.8518 158 14.324 158 13.6759V12.6018C158 11.9537 157.478 11.4259 156.837 11.4259H153.651V7.89809C153.651 7.24995 153.129 6.72217 152.488 6.72217H151.106C150.465 6.72217 149.943 7.24995 149.943 7.89809V20.7407C149.943 24.4351 152.717 27.7129 156.563 27.7129C156.947 27.7129 157.304 27.5648 157.579 27.287C157.853 27.0092 158 26.6481 158 26.2592V25.3518C158 24.6944 157.469 24.1759 156.828 24.1759C155.354 24.1666 153.651 23.0092 153.651 20.9629V14.8518H156.837Z" fill="#0AAD0A"/>
<path d="M135.103 19.5093C135.103 16.4353 133.757 13.9538 131.551 12.5556C131.551 12.5556 131.551 12.5556 131.542 12.5556C130.315 11.7316 128.795 11.2964 127.147 11.2964C127.12 11.2964 127.092 11.2964 127.065 11.2964C127.037 11.2964 127.01 11.2964 126.982 11.2964C125.334 11.2964 123.815 11.7316 122.588 12.5556C122.588 12.5556 122.588 12.5556 122.579 12.5556C120.372 13.9631 119.026 16.4445 119.026 19.5093C119.026 22.7316 120.51 25.2964 122.899 26.6575C124.016 27.3242 125.343 27.7223 126.772 27.7223C129.381 27.7223 130.956 26.2316 131.459 25.5742V26.139C131.459 26.7871 131.981 27.3149 132.622 27.3149H133.949C134.59 27.3149 135.112 26.7871 135.112 26.139V19.5093H135.103ZM128.52 24.0001C128.099 24.139 127.66 24.2223 127.229 24.2408C127.202 24.2408 127.165 24.2408 127.138 24.2408C127.11 24.2408 127.083 24.2408 127.055 24.2408C127.028 24.2408 127.001 24.2408 126.973 24.2408C126.946 24.2408 126.909 24.2408 126.882 24.2408C126.451 24.2223 126.021 24.139 125.591 24.0001C123.879 23.389 122.734 21.6853 122.734 19.5093C122.734 16.9445 124.318 15.0279 126.57 14.7964C126.579 14.7964 126.598 14.7964 126.607 14.7964C126.662 14.7871 126.708 14.7871 126.762 14.7871C126.79 14.7871 126.817 14.7871 126.854 14.7871C126.9 14.7871 126.955 14.7871 127.001 14.7871C127.019 14.7871 127.037 14.7871 127.055 14.7871C127.074 14.7871 127.092 14.7871 127.11 14.7871C127.156 14.7871 127.211 14.7871 127.257 14.7871C127.284 14.7871 127.312 14.7871 127.348 14.7871C127.403 14.7871 127.449 14.7964 127.504 14.7964C127.513 14.7964 127.532 14.7964 127.541 14.7964C129.793 15.0279 131.377 16.9353 131.377 19.5093C131.368 21.6853 130.232 23.389 128.52 24.0001Z" fill="#0AAD0A"/>
<path d="M102.025 19.5093C102.025 16.4353 100.679 13.9538 98.473 12.5556C98.473 12.5556 98.473 12.5556 98.4639 12.5556C97.2371 11.7316 95.7173 11.2964 94.0694 11.2964C94.0419 11.2964 94.0144 11.2964 93.987 11.2964C93.9595 11.2964 93.932 11.2964 93.9046 11.2964C92.2566 11.2964 90.7369 11.7316 89.5101 12.5556C89.5101 12.5556 89.5101 12.5556 89.5009 12.5556C87.2945 13.9631 85.9487 16.4445 85.9487 19.5093C85.9487 22.7316 87.4319 25.2964 89.8214 26.6575C90.9383 27.3242 92.2658 27.7223 93.694 27.7223C96.3032 27.7223 97.8779 26.2316 98.3815 25.5742V26.139C98.3815 26.7871 98.9033 27.3149 99.5442 27.3149H100.872C101.513 27.3149 102.034 26.7871 102.034 26.139V19.5093H102.025ZM95.4427 24.0001C95.0215 24.139 94.5821 24.2223 94.1518 24.2408C94.1243 24.2408 94.0877 24.2408 94.0602 24.2408C94.0328 24.2408 94.0053 24.2408 93.9778 24.2408C93.9504 24.2408 93.9229 24.2408 93.8954 24.2408C93.868 24.2408 93.8313 24.2408 93.8039 24.2408C93.3736 24.2223 92.9433 24.139 92.513 24.0001C90.801 23.389 89.6566 21.6853 89.6566 19.5093C89.6566 16.9445 91.2404 15.0279 93.4926 14.7964C93.5018 14.7964 93.5201 14.7964 93.5292 14.7964C93.5841 14.7871 93.6299 14.7871 93.6849 14.7871C93.7123 14.7871 93.7398 14.7871 93.7764 14.7871C93.8222 14.7871 93.8771 14.7871 93.9229 14.7871C93.9412 14.7871 93.9595 14.7871 93.9778 14.7871C93.9961 14.7871 94.0144 14.7871 94.0328 14.7871C94.0785 14.7871 94.1335 14.7871 94.1792 14.7871C94.2067 14.7871 94.2342 14.7871 94.2708 14.7871C94.3257 14.7871 94.3715 14.7964 94.4264 14.7964C94.4356 14.7964 94.4539 14.7964 94.4631 14.7964C96.7152 15.0279 98.2991 16.9353 98.2991 19.5093C98.2899 21.6853 97.1547 23.389 95.4427 24.0001Z" fill="#0AAD0A"/>
</svg>
