<svg width="400" height="400" viewBox="0 0 400 400" fill="none" xmlns="http://www.w3.org/2000/svg">
<path fill-rule="evenodd" clip-rule="evenodd" d="M362.728 172.101C361.828 171.372 353.415 165.018 335.69 165.018C331.256 165.018 326.579 165.422 321.719 166.222C318.294 142.663 298.881 131.187 297.977 130.667L293.214 127.914L290.074 132.442C289.84 132.779 284.324 140.821 281.617 152.268C278.439 165.711 280.367 178.333 287.188 189.138C278.951 193.727 265.804 194.925 263.075 194.96H44.3928C38.6872 194.96 34.026 199.604 34.0036 205.313C33.9171 225.46 37.2328 244.93 43.5887 261.615C51.1267 281.402 62.3391 295.969 76.909 304.913C93.2504 314.938 119.856 320.689 149.899 320.689C163.956 320.689 177.969 319.418 190.418 317.011C210.036 313.225 227.848 306.745 243.353 297.763C256.876 289.929 269.02 279.965 279.451 268.155C296.779 248.521 307.101 226.593 314.777 207.187C315.812 207.229 316.83 207.248 317.836 207.248C336.805 207.248 348.469 199.655 354.911 193.281C361.898 186.369 364.384 179.479 364.644 178.715L366.002 174.732L362.728 172.101Z" fill="#086DD7"/>
<path fill-rule="evenodd" clip-rule="evenodd" d="M64.6576 188.554H93.9638C95.3766 188.554 96.5267 187.405 96.5267 185.983V159.832C96.5267 158.41 95.3766 157.261 93.9638 157.261H64.6576C63.2416 157.261 62.0916 158.41 62.0916 159.832V185.983C62.0916 187.405 63.2416 188.554 64.6576 188.554Z" fill="#086DD7"/>
<path fill-rule="evenodd" clip-rule="evenodd" d="M105.043 188.554H134.343C135.762 188.554 136.909 187.405 136.909 185.983V159.832C136.909 158.41 135.762 157.261 134.343 157.261H105.043C103.624 157.261 102.477 158.41 102.477 159.832V185.983C102.477 187.405 103.624 188.554 105.043 188.554Z" fill="#086DD7"/>
<path fill-rule="evenodd" clip-rule="evenodd" d="M146.046 188.554H175.349C176.765 188.554 177.915 187.405 177.915 185.983V159.832C177.915 158.41 176.765 157.261 175.349 157.261H146.046C144.63 157.261 143.483 158.41 143.483 159.832V185.983C143.483 187.405 144.63 188.554 146.046 188.554Z" fill="#086DD7"/>
<path fill-rule="evenodd" clip-rule="evenodd" d="M186.56 188.554H215.863C217.282 188.554 218.429 187.405 218.429 185.983V159.832C218.429 158.41 217.282 157.261 215.863 157.261H186.56C185.147 157.261 183.994 158.41 183.994 159.832V185.983C183.994 187.405 185.147 188.554 186.56 188.554Z" fill="#086DD7"/>
<path fill-rule="evenodd" clip-rule="evenodd" d="M105.043 150.922H134.343C135.762 150.922 136.909 149.773 136.909 148.355V122.2C136.909 120.782 135.762 119.63 134.343 119.63H105.043C103.624 119.63 102.477 120.782 102.477 122.2V148.355C102.477 149.773 103.624 150.922 105.043 150.922Z" fill="#086DD7"/>
<path fill-rule="evenodd" clip-rule="evenodd" d="M146.046 150.922H175.349C176.765 150.922 177.915 149.773 177.915 148.355V122.2C177.915 120.782 176.765 119.63 175.349 119.63H146.046C144.63 119.63 143.483 120.782 143.483 122.2V148.355C143.483 149.773 144.63 150.922 146.046 150.922Z" fill="#086DD7"/>
<path fill-rule="evenodd" clip-rule="evenodd" d="M186.56 150.922H215.863C217.282 150.922 218.429 149.773 218.429 148.355V122.2C218.429 120.782 217.282 119.63 215.863 119.63H186.56C185.147 119.63 183.994 120.782 183.994 122.2V148.355C183.994 149.773 185.147 150.922 186.56 150.922Z" fill="#086DD7"/>
<path fill-rule="evenodd" clip-rule="evenodd" d="M186.56 113.295H215.863C217.282 113.295 218.429 112.143 218.429 110.724V84.5725C218.429 83.1508 217.282 82.002 215.863 82.002H186.56C185.147 82.002 183.994 83.1508 183.994 84.5725V110.724C183.994 112.143 185.147 113.295 186.56 113.295Z" fill="#086DD7"/>
<path fill-rule="evenodd" clip-rule="evenodd" d="M227.436 188.554H256.735C258.155 188.554 259.302 187.405 259.302 185.983V159.832C259.302 158.41 258.155 157.261 256.735 157.261H227.436C226.017 157.261 224.87 158.41 224.87 159.832V185.983C224.87 187.405 226.017 188.554 227.436 188.554Z" fill="#086DD7"/>
</svg>
