<?xml version="1.0" encoding="UTF-8"?>
<svg xmlns="http://www.w3.org/2000/svg" version="1.1" viewBox="0 0 930 930">
  <defs>
    <style>
      .cls-1 {
        fill: none;
      }

      .cls-2 {
        fill: #0db14b;
      }

      .cls-3 {
        fill: #d1d2d3;
      }

      .cls-4 {
        fill: #0a6836;
      }

      .cls-5 {
        fill: #9aca3c;
      }
    </style>
  </defs>
  <!-- Generator: Adobe Illustrator 28.7.1, SVG Export Plug-In . SVG Version: 1.2.0 Build 142)  -->
  <g>
    <g id="Layer_3">
      <g>
        <path class="cls-5" d="M878.6,444.6h-13.5l-1.7-14.9c-.2-1.3-1.2-2.3-2.6-2.3h-15c-1,0-1.9.8-1.9,1.9v31.4c.1,0,.1,27.7.1,27.7,0,3.5.4,6.7,1.2,9.6s2.1,5.3,3.9,7.4c1.8,2.1,4.2,3.6,7.2,4.8s6.7,1.6,11,1.6,4.6-.2,6.8-.6c1.6-.3,3.1-.6,4.3-.9.8-.2,1.4-1,1.3-1.8l-.2-11.9c0-1.2-1.1-2-2.3-1.8-.2,0-.5,0-.7.1-1.2.2-2.3.3-3.3.3-3.1,0-5.2-.8-6.4-2.3-1.2-1.5-1.8-3.8-1.8-6.9v-25.1h13.5c1,0,1.9-.8,1.9-1.9v-12.3c0-1-.8-1.9-1.9-1.9h0Z"/>
        <path class="cls-5" d="M292.9,450.6c-1.9-2.5-4.4-4.5-7.4-6.1-3-1.5-6.6-2.3-10.8-2.4h0-.4c-.2,0-.5,0-.7,0-4.9.1-9,1-12.5,2.7-3.1,1.6-5.7,3.3-7.6,5.1l-1.3-4.2c-.3-1.1-1.3-1.8-2.5-1.8h-14.4c-1,0-1.9.8-1.9,1.9v61.7c0,1,.8,1.9,1.9,1.9h17.9c1,0,1.9-.8,1.9-1.9v-33.6c0-1.8.2-3.6.7-5.3s1.2-3.2,2.2-4.5c1-1.3,2.2-2.3,3.6-3.1,1.5-.7,3.1-1.1,5.1-1.1s3.5.4,4.8,1.1,2.3,1.8,3,3c.7,1.3,1.2,2.7,1.5,4.4.3,1.7.5,3.4.5,5.3v33.9c0,1,.8,1.9,1.9,1.9h17.9c1,0,1.9-.8,1.9-1.9v-38.6c0-3.2-.4-6.5-1.2-9.7s-2.2-6.1-4.1-8.6h0Z"/>
        <path class="cls-5" d="M496,418.3h-17.8c-1,0-1.9.8-1.9,1.9v30.7h-.3c-1.8-2.2-4.4-4.2-7.8-6.1-3.3-1.8-7.4-2.8-12.2-2.8s-9,.9-12.8,2.8c-3.8,1.8-7.1,4.3-9.7,7.5-2.7,3.2-4.7,6.8-6.2,11-1.5,4.2-2.2,8.5-2.2,13.1s.7,8.9,2.1,13.2,3.4,7.9,6.1,11.1c2.7,3.2,5.9,5.8,9.8,7.7,3.9,1.9,8.2,2.9,13.1,2.9s1.2,0,1.8,0c5.1-.1,9.5-1.1,13.1-2.9,3.1-1.6,5.6-3.2,7.6-5l1.4,4.3c.4,1.1,1.3,1.8,2.5,1.8h13.3c1,0,1.9-.8,1.9-1.9v-87.3c0-1-.8-1.9-1.9-1.9h0ZM454.7,492c-1.9-1-3.5-2.2-4.9-3.8-1.3-1.6-2.3-3.4-3-5.5s-1-4.1-1-6.2.3-4.2,1-6.2c.7-2,1.6-3.8,3-5.3,1.3-1.5,2.9-2.8,4.9-3.8,1.9-1,4.2-1.4,6.7-1.4s4.6.5,6.6,1.4c1.9,1,3.6,2.2,4.9,3.8,1.4,1.6,2.4,3.4,3.2,5.4.7,2,1.1,4.1,1.1,6.2s-.4,4.2-1.1,6.2-1.8,3.8-3.2,5.4c-1.4,1.6-3,2.8-4.9,3.8-1.9,1-4.1,1.5-6.6,1.5s-4.8-.5-6.7-1.4h0Z"/>
        <path class="cls-5" d="M614.1,443.9h-18.3c-.8,0-1.6.6-1.8,1.4l-11.1,40h-.3l-11.7-40.1c-.2-.8-1-1.4-1.8-1.4h-18.9c-.8,0-1.6.6-1.8,1.4l-11.3,40.1h-.4l-10.9-40c-.2-.8-1-1.4-1.8-1.4h-19.2c-1.3,0-2.2,1.3-1.8,2.5l21.3,61.7c.3.8,1,1.3,1.8,1.3h19c.8,0,1.6-.5,1.8-1.3l12.2-39.4h.3l12.5,39.4c.2.8,1,1.3,1.8,1.3h19c.8,0,1.5-.5,1.8-1.3l21.4-61.7c.4-1.2-.5-2.5-1.8-2.5h0Z"/>
        <rect class="cls-5" x="702.6" y="418.3" width="22" height="91.1" rx="1.9" ry="1.9"/>
        <rect class="cls-5" x="738.6" y="418.3" width="22" height="91.1" rx="1.9" ry="1.9"/>
        <path class="cls-5" d="M686.8,441.7h-15c-1.1,0-2.2.8-2.5,1.8l-1.8,5.9c-1.9-1.7-4.2-3.2-7.1-4.6-3.7-1.8-8.2-2.8-13.5-2.8h0c-4.7,0-9,.9-12.8,2.8-3.8,1.8-7.1,4.3-9.7,7.5-2.7,3.2-4.7,6.8-6.2,11-1.5,4.2-2.2,8.5-2.2,13.1s.7,8.9,2.1,13.2c1.4,4.2,3.4,7.9,6.1,11.1,2.7,3.2,5.9,5.8,9.8,7.7,3.9,1.9,8.2,2.9,13.2,2.9s2.2,0,3.3-.2c4-.3,7.5-1.2,10.5-2.7,3.5-1.8,6.3-3.7,8.4-5.8l1.6,5c.3,1.1,1.3,1.8,2.5,1.8h13.3c1,0,1.9-.8,1.9-1.9v-64c0-1-.8-1.9-1.9-1.9h0ZM640.7,488.1c-1.3-1.6-2.3-3.4-3-5.5-.7-2.1-1-4.1-1-6.2s.3-4.2,1-6.2c.7-2,1.7-3.8,3-5.3,1.3-1.5,2.9-2.8,4.9-3.8,1.9-1,4.2-1.4,6.7-1.4s4.7.5,6.6,1.4c1.9,1,3.6,2.2,4.9,3.8,1.4,1.6,2.4,3.4,3.2,5.4.7,2,1.1,4.1,1.1,6.2s-.4,4.2-1.1,6.2c-.8,2-1.8,3.8-3.2,5.4s-3,2.8-4.9,3.8c-1.9,1-4.1,1.4-6.6,1.4s-4.8-.5-6.7-1.4c-1.9-1-3.5-2.2-4.9-3.8h0Z"/>
        <path class="cls-5" d="M422.8,442.3h-.2s.2-.2.2-.2c-.5,0-1.1,0-1.6,0-.4,0-.9,0-1.3,0-2.8,0-5.4.5-7.8,1.6-1,.3-1.9.7-2.8,1.2-3.5,1.7-6.2,3.6-8.2,5.7l-1.3-4.6c-.3-1.1-1.3-1.9-2.5-1.9h-14.2c-1,0-1.9.8-1.9,1.9v61.6c0,1,.8,1.9,1.9,1.9h17.8c1,0,1.9-.8,1.9-1.9v-31.7c0-1.3.3-2.8.8-4.6s1.4-3.4,2.6-4.8c1.2-1.5,2.8-2.8,4.7-3.8s4.4-1.6,7.3-1.6,1.8,0,2.7.1h.9c1,.2,2-.6,2.1-1.6l.7-15.2c.1-1-.6-2-1.7-2.1h0Z"/>
        <path class="cls-5" d="M364.5,451.3c-2.9-3.1-6.4-5.4-10.4-7-4-1.6-8.5-2.4-13.3-2.4s-9.6.8-13.9,2.5c-4.3,1.7-8,4-11.2,7-3.2,3-5.7,6.7-7.5,11.1-1.8,4.3-2.8,9.2-2.8,14.5s.9,10.4,2.8,14.7c1.9,4.3,4.5,7.9,7.8,10.9s7.1,5.2,11.5,6.7c4.4,1.5,9,2.3,13.9,2.3s12.5-1.2,17.6-3.6c3.1-1.5,5.8-3.3,8.1-5.6.9-.9.9-2.3,0-3.2l-9.3-9.4c-.9-.9-2.3-.9-3.1,0-1.2,1.3-2.7,2.4-4.4,3.3-2.4,1.3-5.3,1.9-8.7,1.9s-3.8-.3-5.6-.9-3.4-1.5-4.9-2.6c-1.5-1.1-2.6-2.4-3.5-3.9-.9-1.5-1.5-3.2-1.6-5h47.5c0-.8.1-1.6.1-2.5v-2.6c0-5.6-.8-10.6-2.4-15-1.6-4.4-3.9-8.1-6.8-11.2h0ZM326,469.2c0-1.7.5-3.3,1.3-4.8.8-1.5,1.8-2.9,3.2-4s2.9-2,4.6-2.7c1.8-.7,3.7-1,5.8-1,4.3,0,7.5,1.2,9.7,3.7,2.1,2.5,3.2,5.4,3.2,8.8h-27.8Z"/>
        <path class="cls-5" d="M827.8,451.3c-2.9-3.1-6.4-5.4-10.4-7-4-1.6-8.5-2.4-13.3-2.4s-9.7.8-13.9,2.5c-4.3,1.7-8,4-11.2,7-3.2,3-5.7,6.7-7.5,11.1-1.8,4.3-2.8,9.2-2.8,14.5s.9,10.4,2.8,14.7c1.9,4.3,4.5,7.9,7.8,10.9,3.3,2.9,7.1,5.2,11.5,6.7,4.4,1.5,9,2.3,13.9,2.3s12.5-1.2,17.6-3.6c3.1-1.5,5.8-3.3,8.1-5.6.9-.9.9-2.3,0-3.2l-9.3-9.4c-.8-.9-2.3-.9-3.1,0-1.2,1.3-2.7,2.4-4.4,3.3-2.4,1.3-5.3,1.9-8.7,1.9s-3.8-.3-5.6-.9c-1.8-.6-3.4-1.5-4.9-2.6-1.5-1.1-2.6-2.4-3.5-3.9s-1.5-3.2-1.7-5h47.5c0-.8.1-1.6.1-2.5v-2.6c0-5.6-.8-10.6-2.4-15s-3.9-8.1-6.8-11.2h0ZM789.4,469.2c0-1.7.5-3.3,1.3-4.8.8-1.5,1.8-2.9,3.2-4,1.3-1.1,2.8-2,4.6-2.7,1.8-.7,3.7-1,5.8-1,4.3,0,7.5,1.2,9.7,3.7,2.2,2.5,3.2,5.4,3.2,8.8h-27.8Z"/>
      </g>
      <g>
        <polygon class="cls-1" points="98.2 487.4 98.2 487.4 98.2 487.4 98.2 487.4 98.2 487.4 98.2 487.4"/>
        <g>
          <polygon class="cls-1" points="98.2 487.4 98.2 487.4 98.2 487.4 98.2 487.4 98.2 487.4 98.2 487.4"/>
          <path class="cls-2" d="M97.9,398.1c-.5-.2-.9-.3-1.4-.3h-40.1c-1.6,0-3,1.3-3,3v41.8l44.5-44.5h0Z"/>
        </g>
        <g>
          <polygon class="cls-1" points="98.2 487.4 98.2 487.4 98.2 487.4 98.2 487.4 98.2 487.4 98.2 487.4"/>
          <path class="cls-2" d="M54.3,531.3c.5.5,1.3.9,2.1.9h38.9c1.6,0,2.9-1.3,2.9-2.9v-41.8l-43.9,43.9h0Z"/>
          <path class="cls-4" d="M143,442.6v89.2c0,0,.2,0,.3.1l44.5-44.5-44.8-44.8h0Z"/>
        </g>
        <polygon class="cls-1" points="98.2 487.4 98.2 487.4 98.2 487.4 98.2 487.4 98.2 487.4 98.2 487.4 98.2 487.4"/>
        <path class="cls-5" d="M98.2,487.4v-89.2c0,0-.2,0-.3-.1l-44.5,44.5v86.6c0,.8.3,1.6.9,2.1l43.9-43.9h0Z"/>
        <path class="cls-5" d="M187.8,487.4v-44.8h0v-41.8c0-1.6-1.3-3-2.9-3h-38.9c-1.6,0-2.9,1.3-2.9,2.9v41.9l44.8,44.8Z"/>
        <path class="cls-5" d="M187.8,487.4l-44.5,44.5c.5.2.9.3,1.4.3h40.1c1.6,0,2.9-1.3,2.9-2.9v-41.8h0Z"/>
        <polygon class="cls-3" points="98.2 487.4 98.2 487.4 98.2 487.4 98.2 487.4"/>
        <polygon class="cls-3" points="143 442.6 143 442.6 143 442.6 143 442.6"/>
        <path class="cls-2" d="M99.4,399c-.3-.3-.8-.6-1.2-.8v89.2l43.6,43.6c.4.4.8.6,1.2.8v-89.2s-43.6-43.6-43.6-43.6Z"/>
      </g>
    </g>
  </g>
</svg>