<svg xmlns="http://www.w3.org/2000/svg" width="50" height="50" fill="none" viewBox="0 0 50 50"><rect width="50" height="50" fill="#B5F3DE"/><path fill="#000" fill-rule="evenodd" d="M9.08409 29.8555V24.0867L13.6193 29.8555H15.415V20.5256H13.3178V26.2812L8.79572 20.5256H7V29.8555H9.08409ZM19.5786 30C20.4567 30 21.099 29.5532 21.3612 29.1984V29.8555H23.3404V23.2852H21.3612V23.9422C21.099 23.5874 20.4567 23.1406 19.5786 23.1406C17.8615 23.1406 16.5376 24.7043 16.5376 26.5703C16.5376 28.4363 17.8615 30 19.5786 30ZM20.0242 28.1997C19.1329 28.1997 18.53 27.5164 18.53 26.5703C18.53 25.6242 19.1329 24.9409 20.0242 24.9409C20.9155 24.9409 21.5185 25.6242 21.5185 26.5703C21.5185 27.5164 20.9155 28.1997 20.0242 28.1997ZM28.6181 30C30.3352 30 31.659 28.4363 31.659 26.5703C31.659 24.7043 30.3352 23.1406 28.6181 23.1406C27.7399 23.1406 27.0976 23.5874 26.8355 23.9422V20H24.8562V29.8555H26.8355V29.1984C27.0976 29.5532 27.7399 30 28.6181 30ZM28.1724 28.1997C27.2811 28.1997 26.6782 27.5164 26.6782 26.5703C26.6782 25.6242 27.2811 24.9409 28.1724 24.9409C29.0637 24.9409 29.6667 25.6242 29.6667 26.5703C29.6667 27.5164 29.0637 28.1997 28.1724 28.1997ZM34.7609 29.8555V20H32.7817V29.8555H34.7609ZM38.9244 30C39.8026 30 40.4449 29.5532 40.7071 29.1984V29.8555H42.6863V23.2852H40.7071V23.9422C40.4449 23.5874 39.8026 23.1406 38.9244 23.1406C37.2074 23.1406 35.8835 24.7043 35.8835 26.5703C35.8835 28.4363 37.2074 30 38.9244 30ZM39.3701 28.1997C38.4788 28.1997 37.8758 27.5164 37.8758 26.5703C37.8758 25.6242 38.4788 24.9409 39.3701 24.9409C40.2614 24.9409 40.8643 25.6242 40.8643 26.5703C40.8643 27.5164 40.2614 28.1997 39.3701 28.1997Z" clip-rule="evenodd"/></svg>