<svg xmlns="http://www.w3.org/2000/svg" width="321" height="45" fill="none" viewBox="0 0 321 45"><path fill="#FD3433" d="M24.0127 44.9989H1.32109V37.499H24.2459C27.2766 37.499 29.9188 35.3447 29.9188 31.7543C29.9188 28.4033 27.2766 26.3288 24.2459 26.3288H13.444C5.90605 26.3288 0 20.8235 0 13.0842C0 5.42466 6.21689 0.078949 13.7549 0.078949H35.9802V7.6587H13.6772C10.6464 7.6587 8.00425 9.81293 8.00425 13.0842C8.00425 16.6746 10.6464 18.7491 13.6772 18.7491H24.0904C31.6284 18.7491 38.0007 24.1746 38.0007 31.9937C38.0007 39.6532 31.3953 44.9191 24.0127 44.9989Z"/><path fill="#FD3433" d="M82.4503 0.000244141L57.8936 20.9044L82.2172 45H71.6485L51.8321 25.532L50.2002 23.9363V45H42.0405V0.000244141H50.2002V18.431L71.3376 0.000244141H82.4503Z"/><path fill="#FD3433" d="M92.1643 37.2607H117.187V45H84.0046V0.000244141H116.566V7.73956H92.1643V18.8299L115.322 18.7502V26.2501H92.1643V37.2607Z"/><path fill="#FD3433" d="M131.331 37.2607H154.878V45H123.171V0.000244141H131.331V37.2607Z"/><path fill="#FD3433" d="M196.065 44.9999L191.325 33.6701H169.332L164.592 44.9999H156.51L175.472 0.0798645H185.263L204.302 44.9999H196.065ZM172.519 26.0106H188.061L180.29 7.42025L172.519 26.0106Z"/><path fill="#FD3433" d="M244.246 45H233.6L214.094 25.7714V45H205.935V0.000244141H230.647C238.185 0.000244141 243.78 5.34596 243.78 12.9257C243.78 20.4257 238.185 25.6118 230.802 25.6916H230.725H230.569L224.041 25.532L244.246 45ZM214.094 7.57999V18.431L230.181 18.3512C233.211 18.3512 235.698 16.3565 235.698 12.9257C235.698 9.57466 233.211 7.57999 230.181 7.57999H214.094Z"/><path fill="#FD3433" d="M291.806 29.5217H276.808V44.9206H291.806V29.5217Z"/><path fill="#FD3433" d="M300.743 20.4258H280.46V41.2502H300.743V20.4258Z"/><path fill="#FD3433" d="M310.455 10.3727H284.888V36.6226H310.455V10.3727Z"/><path fill="#FD3433" d="M320.558 0.00012207H289.707V31.6755H320.558V0.00012207Z"/></svg>