<svg xmlns="http://www.w3.org/2000/svg" xmlns:xlink="http://www.w3.org/1999/xlink" width="1400" height="300" viewBox="0 0 1400 300">
  <defs>
    <clipPath id="clip-path">
      <rect id="Mask" width="1400" height="231" transform="translate(0 -0.2)" fill="#004165"/>
    </clipPath>
    <linearGradient id="linear-gradient" x1="1" y1="1" x2="0" y2="1" gradientUnits="objectBoundingBox">
      <stop offset="0" stop-color="#022a3a"/>
      <stop offset="0.502" stop-color="#006094"/>
      <stop offset="1" stop-color="#022a3a"/>
    </linearGradient>
    <linearGradient id="linear-gradient-2" x1="-3.417" y1="0.5" x2="1.673" y2="0.5" gradientUnits="objectBoundingBox">
      <stop offset="0" stop-color="#fff"/>
      <stop offset="1" stop-color="#004165"/>
    </linearGradient>
    <linearGradient id="linear-gradient-3" x1="-2.476" y1="0.5" x2="0.481" y2="0.5" xlink:href="#linear-gradient-2"/>
    <linearGradient id="linear-gradient-4" x1="-3815.754" y1="0.5" x2="4226.432" y2="0.5" xlink:href="#linear-gradient-2"/>
    <linearGradient id="linear-gradient-5" x1="-1.872" y1="0.5" x2="2.756" y2="0.5" xlink:href="#linear-gradient-2"/>
    <linearGradient id="linear-gradient-6" x1="-5.664" y1="0.5" x2="-0.603" y2="0.5" xlink:href="#linear-gradient-2"/>
    <linearGradient id="linear-gradient-7" x1="-3.033" y1="0.5" x2="4.848" y2="0.5" xlink:href="#linear-gradient-2"/>
    <linearGradient id="linear-gradient-8" x1="-3.363" y1="0.5" x2="2.896" y2="0.5" xlink:href="#linear-gradient-2"/>
    <linearGradient id="linear-gradient-9" x1="-3.064" y1="0.5" x2="0.942" y2="0.5" xlink:href="#linear-gradient-2"/>
    <linearGradient id="linear-gradient-10" x1="-7.029" y1="0.5" x2="-0.951" y2="0.5" xlink:href="#linear-gradient-2"/>
    <linearGradient id="linear-gradient-11" x1="-7.799" y1="0.5" x2="-0.342" y2="0.5" xlink:href="#linear-gradient-2"/>
    <linearGradient id="linear-gradient-12" x1="-6.45" y1="0.5" x2="-0.786" y2="0.5" xlink:href="#linear-gradient-2"/>
    <linearGradient id="linear-gradient-13" x1="-2.711" y1="0.5" x2="0.849" y2="0.5" xlink:href="#linear-gradient-2"/>
    <linearGradient id="linear-gradient-14" x1="-14.294" y1="0.5" x2="-1.032" y2="0.5" xlink:href="#linear-gradient-2"/>
    <linearGradient id="linear-gradient-15" x1="-7.19" y1="0.5" x2="1.294" y2="0.5" xlink:href="#linear-gradient-2"/>
    <linearGradient id="linear-gradient-16" x1="-22.896" y1="0.5" x2="7.852" y2="0.5" xlink:href="#linear-gradient-2"/>
    <linearGradient id="linear-gradient-17" x1="-6.05" y1="0.5" x2="2.009" y2="0.5" xlink:href="#linear-gradient-2"/>
    <linearGradient id="linear-gradient-18" x1="-8.288" y1="0.5" x2="2.445" y2="0.5" xlink:href="#linear-gradient-2"/>
    <linearGradient id="linear-gradient-19" x1="-2.179" y1="0.5" x2="3.347" y2="0.5" xlink:href="#linear-gradient-2"/>
    <linearGradient id="linear-gradient-20" x1="-2.426" y1="0.5" x2="3.907" y2="0.5" xlink:href="#linear-gradient-2"/>
    <linearGradient id="linear-gradient-21" x1="-5.164" y1="0.5" x2="1.347" y2="0.5" xlink:href="#linear-gradient-2"/>
    <linearGradient id="linear-gradient-22" x1="-5.404" y1="0.5" x2="0.766" y2="0.5" xlink:href="#linear-gradient-2"/>
    <linearGradient id="linear-gradient-23" x1="-2.994" y1="0.5" x2="2.986" y2="0.5" xlink:href="#linear-gradient-2"/>
    <linearGradient id="linear-gradient-24" x1="-68.08" y1="0.5" x2="3.223" y2="0.5" xlink:href="#linear-gradient-2"/>
    <linearGradient id="linear-gradient-25" x1="-2.485" y1="0.5" x2="2.032" y2="0.5" xlink:href="#linear-gradient-2"/>
    <linearGradient id="linear-gradient-26" x1="-8.624" y1="0.5" x2="-0.104" y2="0.5" xlink:href="#linear-gradient-2"/>
    <linearGradient id="linear-gradient-27" x1="-5.065" y1="0.5" x2="0.209" y2="0.5" xlink:href="#linear-gradient-2"/>
    <linearGradient id="linear-gradient-28" x1="-5.919" y1="0.5" x2="-0.158" y2="0.5" xlink:href="#linear-gradient-2"/>
    <linearGradient id="linear-gradient-29" x1="-2.369" y1="0.5" x2="1.161" y2="0.5" xlink:href="#linear-gradient-2"/>
    <linearGradient id="linear-gradient-30" x1="-5.116" y1="0.5" x2="0.147" y2="0.5" xlink:href="#linear-gradient-2"/>
    <linearGradient id="linear-gradient-31" x1="-3.747" y1="0.5" x2="0.514" y2="0.5" xlink:href="#linear-gradient-2"/>
    <linearGradient id="linear-gradient-32" x1="-6.262" y1="0.5" x2="-0.201" y2="0.5" xlink:href="#linear-gradient-2"/>
    <linearGradient id="linear-gradient-33" x1="-8.914" y1="0.5" x2="-1.411" y2="0.5" xlink:href="#linear-gradient-2"/>
    <linearGradient id="linear-gradient-34" x1="-4.566" y1="0.5" x2="1.918" y2="0.5" xlink:href="#linear-gradient-2"/>
    <linearGradient id="linear-gradient-35" x1="-2.663" y1="0.5" x2="1.772" y2="0.5" xlink:href="#linear-gradient-2"/>
    <linearGradient id="linear-gradient-36" x1="-3.23" y1="0.5" x2="2.471" y2="0.5" xlink:href="#linear-gradient-2"/>
    <linearGradient id="linear-gradient-37" x1="-4.308" y1="0.5" x2="0.786" y2="0.5" xlink:href="#linear-gradient-2"/>
    <linearGradient id="linear-gradient-38" x1="-3.314" y1="0.5" x2="3.116" y2="0.5" xlink:href="#linear-gradient-2"/>
    <linearGradient id="linear-gradient-39" x1="-3.012" y1="0.5" x2="2.471" y2="0.5" xlink:href="#linear-gradient-2"/>
    <clipPath id="clip-toastmasters-recruiting-banner-1400x300-c3">
      <rect width="1400" height="300"/>
    </clipPath>
  </defs>
  <g id="toastmasters-recruiting-banner-1400x300-c3" clip-path="url(#clip-toastmasters-recruiting-banner-1400x300-c3)">
    <rect width="1400" height="300" fill="#fff"/>
    <g id="Image_Placeholder" data-name="Image Placeholder" transform="translate(0 35.2)" clip-path="url(#clip-path)">
      <rect id="Mask_Copy_2" data-name="Mask Copy 2" width="1400" height="249" transform="translate(0 -0.2)" fill="none" opacity="0.667"/>
    </g>
    <rect id="Color_overlay" data-name="Color overlay" width="1404" height="300" transform="translate(-2)" fill="url(#linear-gradient)" style="mix-blend-mode: multiply;isolation: isolate"/>
    <g id="globe-color" transform="translate(699.71 149.943)">
      <g id="Group_625933" data-name="Group 625933" transform="translate(-111.022 -92.099)">
        <path id="Path_646550" data-name="Path 646550" d="M199.664,67.533a92.1,92.1,0,0,0-177.519,0H0v49.625H22.285a92.092,92.092,0,0,0,177.237,0h22.521V67.533Zm18.883,46.243H196.652c-.027.1-.051.206-.078.309A88.29,88.29,0,0,1,88.472,177.4a87.51,87.51,0,0,1-53.724-41.131,89.437,89.437,0,0,1-9.215-22.489H3.392V70.919H25.245q.235-.982.492-1.961A88.46,88.46,0,0,1,66.813,14.88a87.883,87.883,0,0,1,120.753,31.9,89.313,89.313,0,0,1,9.626,24.142h21.356Z" fill="#772432"/>
        <path id="Path_646551" data-name="Path 646551" d="M248.21,52.949a111.929,111.929,0,0,1-15.992-2.779h0A114.849,114.849,0,0,1,218.982,46.1c-1.389,2-2.777,4.179-4.13,6.483,5.1,1.144,10.37,2.472,15.67,3.949,6.3,1.773,12.465,3.716,18.328,5.779-.017-.715-.036-1.431-.064-2.142C248.674,57.645,248.48,55.217,248.21,52.949Z" transform="translate(-104.991 -22.526)" fill="none"/>
        <path id="Path_646552" data-name="Path 646552" d="M131.771,77.232v0c3.436,1.9,7.163,3.746,11.39,5.639,4.484,2.017,9.229,3.965,14.1,5.789a211.093,211.093,0,0,1,9.953-23.117c1.115-2.2,2.327-4.433,3.6-6.643-7.066-1.278-13.986-2.242-20.571-2.865h0c-.909-.088-1.879-.173-3.138-.274A102,102,0,0,0,131.771,77.232Z" transform="translate(-64.391 -27.25)" fill="none"/>
        <path id="Path_646553" data-name="Path 646553" d="M182.791,31.918a26.852,26.852,0,0,1-2.39-1.843,73.15,73.15,0,0,0-13.492,10.458l.446.047.5.053c6.839.821,13.825,2.01,21.357,3.635l.1-.158c.353-.585.7-1.166,1.067-1.742,1.06-1.688,2.15-3.325,3.241-4.865-.962-.389-1.766-.727-2.519-1.059A53.921,53.921,0,0,1,182.791,31.918Z" transform="translate(-81.563 -14.697)" fill="none"/>
        <path id="Path_646554" data-name="Path 646554" d="M120.281,113.363c2.973.268,6.194.634,9.841,1.115,6.277.878,12.666,2,19.526,3.436q.5-1.48,1.015-2.956c-4.987-1.7-9.782-3.517-14.257-5.392h0c-4.507-1.928-8.4-3.767-11.9-5.622C122.988,106.962,121.568,110.129,120.281,113.363Z" transform="translate(-58.777 -50.793)" fill="none"/>
        <path id="Path_646555" data-name="Path 646555" d="M301.265,75.965c1.532.687,3.071,1.4,4.576,2.123l-.056-.217c-.11-.428-.224-.871-.352-1.3a70.964,70.964,0,0,0-8-18.24,22.846,22.846,0,0,1-4.36.794,56.573,56.573,0,0,1-9.371.006c-.341-.025-.68-.056-1.016-.086l-.064-.006c.293,3.019.449,6.262.462,9.644C289.45,70.953,295.568,73.4,301.265,75.965Z" transform="translate(-138.106 -28.503)" fill="none"/>
        <path id="Path_646556" data-name="Path 646556" d="M206.853,319.145a66.809,66.809,0,0,0,23.238-15.2c.156-.151.307-.307.459-.462l.1-.1c-1.589-.111-3.185-.242-4.746-.391-6.26-.591-12.817-1.484-19.488-2.655a90.959,90.959,0,0,1-7.709,11.441,39.516,39.516,0,0,1-8.1,7.848,18.023,18.023,0,0,1-3.19,1.736q2.017.372,4.04.646c.83,0,1.622-.021,2.386-.071A45.676,45.676,0,0,0,206.853,319.145Z" transform="translate(-91.585 -146.763)" fill="none"/>
        <path id="Path_646557" data-name="Path 646557" d="M132.765,288.546A86.359,86.359,0,0,1,131.5,276.69c-.016-.341-.026-.683-.035-1.025q-.007-.275-.016-.552c-7.284-2.285-13.923-4.695-20.291-7.365-.145-.062-.288-.124-.431-.187l-.354-.154a65.486,65.486,0,0,0,11.511,22.618,45.844,45.844,0,0,0,9.674,9.01h0a38.892,38.892,0,0,0,3.387,2.068q1.532.584,3.094,1.113a18.066,18.066,0,0,1-1.857-2.875A38.773,38.773,0,0,1,132.765,288.546Z" transform="translate(-53.935 -130.673)" fill="none"/>
        <path id="Path_646558" data-name="Path 646558" d="M170.1,312.076a14.369,14.369,0,0,0,4.3-1.982,36.771,36.771,0,0,0,7.855-7.346,84.461,84.461,0,0,0,6.749-9.453c.205-.326.4-.657.605-.988l.165-.271c-6.053-1.1-12.285-2.434-18.525-3.971-5.3-1.329-10.516-2.771-15.5-4.287a86.9,86.9,0,0,0,.971,11.894,37.3,37.3,0,0,0,2.96,10.294,12.1,12.1,0,0,0,4.828,5.573c.393.11.785.223,1.182.327q.979.259,1.961.493A8.551,8.551,0,0,0,170.1,312.076Z" transform="translate(-76.11 -138.673)" fill="none"/>
        <path id="Path_646559" data-name="Path 646559" d="M98.342,279.437a68.922,68.922,0,0,1-13.134-25.376c-.028-.1-.054-.2-.08-.3l-.049-.185a118.14,118.14,0,0,1-13.81-7.287,60.59,60.59,0,0,1-5.848-4.162,85.618,85.618,0,0,0,5.058,10.28,83.437,83.437,0,0,0,32.36,31.675A49.9,49.9,0,0,1,98.342,279.437Z" transform="translate(-31.969 -118.321)" fill="none"/>
        <path id="Path_646560" data-name="Path 646560" d="M257.786,304.461a123.375,123.375,0,0,1-13.769-.115c-.134.138-.264.277-.4.415-.22.233-.44.465-.668.693-7.36,7.357-15.238,12.7-23.418,15.869h0a50.159,50.159,0,0,1-7.572,2.265,83.413,83.413,0,0,0,44.921-11.534,85.456,85.456,0,0,0,13.65-9.921,22.815,22.815,0,0,1-2.871.953A50.1,50.1,0,0,1,257.786,304.461Z" transform="translate(-103.579 -147.642)" fill="none"/>
        <path id="Path_646561" data-name="Path 646561" d="M334.129,230.141a66.811,66.811,0,0,1-11.26.908c-2.967.017-5.993-.058-9.266-.235a120.192,120.192,0,0,1-6.154,13.55c1.046.628,1.954,1.186,2.771,1.7a50.443,50.443,0,0,1,7.905,6.072,18.673,18.673,0,0,1,3.163,3.895,6.758,6.758,0,0,1,1.056,4.551,84.1,84.1,0,0,0,19.322-33.246,10.6,10.6,0,0,1-2.088,1.219A24.56,24.56,0,0,1,334.129,230.141Z" transform="translate(-150.24 -111.092)" fill="none"/>
        <path id="Path_646562" data-name="Path 646562" d="M276.417,36.858c.191,1.186.356,2.461.52,4l.1.012c.315.039.63.077.948.108a52.566,52.566,0,0,0,9.254.183,22.462,22.462,0,0,0,4.276-.731,55.31,55.31,0,0,0-4.378-5.956,45.864,45.864,0,0,0-9.937-8.847c-1-.65-2.041-1.26-3.183-1.865-.906-.351-1.848-.7-2.858-1.048a17.754,17.754,0,0,1,2.089,3.319A39.057,39.057,0,0,1,276.417,36.858Z" transform="translate(-132.506 -11.102)" fill="none"/>
        <path id="Path_646563" data-name="Path 646563" d="M226.86,28.9c-.58.726-1.184,1.52-1.844,2.425a116.052,116.052,0,0,0,12.368,4.243,109.726,109.726,0,0,0,15.7,3.3c-.161-1.274-.335-2.426-.532-3.516a36.988,36.988,0,0,0-3.2-10.266c-1.177-2.3-3.244-5.191-6.412-5.936a8.116,8.116,0,0,0-4.187.163,14.865,14.865,0,0,0-4.235,2.1A37.427,37.427,0,0,0,226.86,28.9Z" transform="translate(-109.958 -9.258)" fill="none"/>
        <path id="Path_646564" data-name="Path 646564" d="M266.76,249.293l.1-.188a138.45,138.45,0,0,0-14.624-7.167c-3.806-1.6-7.835-3.14-12.31-4.71l-.071.2c-.051.143-.1.287-.154.431a214.915,214.915,0,0,1-9.517,22.654c-1.313,2.645-2.648,5.177-3.967,7.531,6.494,1.323,12.494,2.3,18.336,3,1.875.216,3.826.407,5.961.582a100.867,100.867,0,0,0,15.974-21.8C266.579,249.645,266.67,249.468,266.76,249.293Z" transform="translate(-110.543 -115.925)" fill="none"/>
        <path id="Path_646565" data-name="Path 646565" d="M299.25,38.376a56.962,56.962,0,0,1,4.446,6.3,7.228,7.228,0,0,0,1.193-.621,3.435,3.435,0,0,0,1.516-1.894,2.861,2.861,0,0,0-.038-1.476,84.381,84.381,0,0,0-12.956-8.361A49.635,49.635,0,0,1,299.25,38.376Z" transform="translate(-143.38 -15.794)" fill="none"/>
        <path id="Path_646566" data-name="Path 646566" d="M255.242,226.355c-.5,1.5-1.029,3.029-1.61,4.664,4.556,1.744,8.713,3.465,12.7,5.261a144.463,144.463,0,0,1,14.1,7.183,119.549,119.549,0,0,0,6.032-13.174c-3.991-.24-8.167-.619-12.416-1.123C267.99,228.45,261.663,227.5,255.242,226.355Z" transform="translate(-123.941 -110.612)" fill="none"/>
        <path id="Path_646567" data-name="Path 646567" d="M291.908,261.611l-.135.26a103.992,103.992,0,0,1-15.428,21.6,106.116,106.116,0,0,0,12.4.233,49.634,49.634,0,0,0,9.773-1.3,18.542,18.542,0,0,0,4.6-1.764,5.35,5.35,0,0,0,2.177-8.26,18.4,18.4,0,0,0-3.125-3.8,49.681,49.681,0,0,0-7.855-5.953c-.7-.446-1.4-.866-2.231-1.352C292.023,261.387,291.965,261.5,291.908,261.611Z" transform="translate(-135.04 -127.676)" fill="none"/>
        <path id="Path_646568" data-name="Path 646568" d="M167.653,312.361a8.551,8.551,0,0,0,2.445-.285,14.369,14.369,0,0,0,4.3-1.982,36.771,36.771,0,0,0,7.855-7.346,84.461,84.461,0,0,0,6.749-9.453c.205-.326.4-.657.605-.988l.165-.271c-6.053-1.1-12.285-2.434-18.525-3.971-5.3-1.329-10.516-2.771-15.5-4.287a86.9,86.9,0,0,0,.971,11.894,37.3,37.3,0,0,0,2.96,10.294,12.1,12.1,0,0,0,4.828,5.573c.393.11.785.223,1.182.327Q166.671,312.127,167.653,312.361Z" transform="translate(-76.11 -138.673)" fill="url(#linear-gradient-2)"/>
        <path id="Path_646569" data-name="Path 646569" d="M256.884,312.055a85.456,85.456,0,0,0,13.65-9.921,22.815,22.815,0,0,1-2.871.953,50.1,50.1,0,0,1-9.877,1.374,123.375,123.375,0,0,1-13.769-.115c-.134.138-.264.277-.4.415-.22.233-.44.465-.668.693-7.36,7.357-15.238,12.7-23.418,15.869h0a50.159,50.159,0,0,1-7.572,2.265A83.413,83.413,0,0,0,256.884,312.055Z" transform="translate(-103.579 -147.642)" fill="url(#linear-gradient-3)"/>
        <path id="Path_646570" data-name="Path 646570" d="M58.148,138.579l-.014.058h.017C58.15,138.618,58.15,138.6,58.148,138.579Z" transform="translate(-28.408 -67.719)" fill="url(#linear-gradient-4)"/>
        <path id="Path_646571" data-name="Path 646571" d="M102.839,284.084a49.9,49.9,0,0,1-4.5-4.648,68.922,68.922,0,0,1-13.134-25.376c-.028-.1-.054-.2-.08-.3l-.049-.185a118.14,118.14,0,0,1-13.81-7.287,60.59,60.59,0,0,1-5.848-4.162,85.618,85.618,0,0,0,5.058,10.28A83.437,83.437,0,0,0,102.839,284.084Z" transform="translate(-31.969 -118.321)" fill="url(#linear-gradient-5)"/>
        <path id="Path_646572" data-name="Path 646572" d="M339.58,228.557a24.56,24.56,0,0,1-5.451,1.584,66.811,66.811,0,0,1-11.26.908c-2.967.017-5.993-.058-9.266-.235a120.192,120.192,0,0,1-6.154,13.55c1.046.628,1.954,1.186,2.771,1.7a50.443,50.443,0,0,1,7.905,6.072,18.673,18.673,0,0,1,3.163,3.895,6.758,6.758,0,0,1,1.056,4.551,84.1,84.1,0,0,0,19.322-33.246A10.6,10.6,0,0,1,339.58,228.557Z" transform="translate(-150.24 -111.092)" fill="url(#linear-gradient-6)"/>
        <path id="Path_646573" data-name="Path 646573" d="M59.405,224.228a17.214,17.214,0,0,0,2.842,3.482,48.576,48.576,0,0,0,7.578,5.814,116.221,116.221,0,0,0,10.884,6.126,101.467,101.467,0,0,1-2.384-17.141H58.733c.083.306.178.611.265.916A7.8,7.8,0,0,0,59.405,224.228Z" transform="translate(-28.701 -108.733)" fill="url(#linear-gradient-7)"/>
        <path id="Path_646574" data-name="Path 646574" d="M136.181,299.342a38.773,38.773,0,0,1-3.416-10.8A86.359,86.359,0,0,1,131.5,276.69c-.016-.341-.026-.683-.035-1.025q-.007-.275-.016-.552c-7.284-2.285-13.923-4.695-20.291-7.365-.145-.062-.288-.124-.431-.187l-.354-.154a65.486,65.486,0,0,0,11.511,22.618,45.844,45.844,0,0,0,9.674,9.01h0a38.892,38.892,0,0,0,3.387,2.068q1.532.584,3.094,1.113A18.066,18.066,0,0,1,136.181,299.342Z" transform="translate(-53.935 -130.673)" fill="url(#linear-gradient-8)"/>
        <path id="Path_646575" data-name="Path 646575" d="M193.844,321.934a45.676,45.676,0,0,0,13.009-2.789,66.809,66.809,0,0,0,23.238-15.2c.156-.151.307-.307.459-.462l.1-.1c-1.589-.111-3.185-.242-4.746-.391-6.26-.591-12.817-1.484-19.488-2.655a90.959,90.959,0,0,1-7.709,11.441,39.516,39.516,0,0,1-8.1,7.848,18.023,18.023,0,0,1-3.19,1.736q2.017.372,4.04.646C192.287,322.005,193.08,321.983,193.844,321.934Z" transform="translate(-91.585 -146.763)" fill="url(#linear-gradient-9)"/>
        <path id="Path_646576" data-name="Path 646576" d="M321.867,222.509c-.567,1.728-1.164,3.457-1.81,5.181,3,.2,5.773.29,8.472.29a66.376,66.376,0,0,0,11.167-.861,23.321,23.321,0,0,0,5.37-1.53,9.525,9.525,0,0,0,2.376-1.447,5.355,5.355,0,0,0,.941-1.05c.055-.195.114-.388.168-.583Z" transform="translate(-156.401 -108.733)" fill="url(#linear-gradient-10)"/>
        <path id="Path_646577" data-name="Path 646577" d="M220.567,222.509H216.55c-.054.2-.113.388-.168.583q-.267.948-.554,1.886a84.1,84.1,0,0,1-19.322,33.246q-2.462,2.6-5.151,5a85.474,85.474,0,0,1-13.65,9.921,83.174,83.174,0,0,1-53.432,10.829q-2.022-.273-4.04-.646-2.149-.4-4.29-.908-.982-.235-1.961-.493c-.4-.1-.789-.217-1.182-.327q-2.174-.607-4.3-1.323-1.562-.527-3.094-1.113a83.075,83.075,0,0,1-42.5-36.342,85.645,85.645,0,0,1-5.058-10.28,84.7,84.7,0,0,1-3.154-9.117c-.087-.306-.182-.61-.265-.916h-4.5A89.438,89.438,0,0,0,59.147,245,87.808,87.808,0,0,0,179.9,276.9a88.455,88.455,0,0,0,41.072-54.077c.027-.1.051-.206.078-.309Z" transform="translate(-24.4 -108.733)" fill="#f2df74"/>
        <path id="Path_646578" data-name="Path 646578" d="M301.265,75.965c1.532.687,3.071,1.4,4.576,2.123l-.056-.217c-.11-.428-.224-.871-.352-1.3a70.964,70.964,0,0,0-8-18.24,22.846,22.846,0,0,1-4.36.794,56.573,56.573,0,0,1-9.371.006c-.341-.025-.68-.056-1.016-.086l-.064-.006c.293,3.019.449,6.262.462,9.644C289.45,70.953,295.568,73.4,301.265,75.965Z" transform="translate(-138.106 -28.503)" fill="url(#linear-gradient-11)"/>
        <path id="Path_646579" data-name="Path 646579" d="M317.027,50.845a3.724,3.724,0,0,1-1.624,2.08,7.245,7.245,0,0,1-1.292.685,75.015,75.015,0,0,1,7.784,18.577c.161.6.31,1.2.459,1.8l.11.442a122.481,122.481,0,0,1,11.858,6.6,50.622,50.622,0,0,1,7.951,6.085,21.446,21.446,0,0,1,2.419,2.748A85.235,85.235,0,0,0,321.2,53.124c-.475-.432-.951-.863-1.436-1.284l-.405-.352q-1.062-.91-2.156-1.789l-.116-.094A3.019,3.019,0,0,1,317.027,50.845Z" transform="translate(-153.495 -24.24)" fill="url(#linear-gradient-12)"/>
        <path id="Path_646580" data-name="Path 646580" d="M199.728,62.722c-1.326,2.368-2.63,4.852-3.986,7.589a216.106,216.106,0,0,0-9.381,22.4c-.022.058-.041.115-.061.171l-.018.051c6.639,2.415,13.6,4.652,20.7,6.646,2.553.71,5.042,1.369,7.49,1.989h18.086a206.205,206.205,0,0,0,2.208-21.288c.143-2.833.195-5.737.153-8.633-6.013-1.931-12.272-3.7-19.131-5.42C210.45,64.912,205.049,63.732,199.728,62.722Z" transform="translate(-91.029 -30.65)" fill="url(#linear-gradient-13)"/>
        <path id="Path_646581" data-name="Path 646581" d="M299.265,38.389a56.938,56.938,0,0,1,4.446,6.3,7.235,7.235,0,0,0,1.194-.621,3.436,3.436,0,0,0,1.516-1.894,2.861,2.861,0,0,0-.038-1.476,84.378,84.378,0,0,0-11.005-7.306l-.382-.213c-.283-.155-.567-.305-.852-.457-.234-.124-.467-.25-.7-.372A49.652,49.652,0,0,1,299.265,38.389Z" transform="translate(-143.394 -15.807)" fill="url(#linear-gradient-14)"/>
        <path id="Path_646582" data-name="Path 646582" d="M235.832,224.345q-4.687-.844-9.469-1.836H215.42c6.559,1.97,12.878,4.1,18.839,6.361C234.784,227.41,235.3,225.927,235.832,224.345Z" transform="translate(-105.268 -108.733)" fill="url(#linear-gradient-15)"/>
        <path id="Path_646583" data-name="Path 646583" d="M180.592,137.7h5.632q-2.674-.542-5.3-1.036C180.808,137.013,180.7,137.358,180.592,137.7Z" transform="translate(-88.249 -66.785)" fill="url(#linear-gradient-16)"/>
        <path id="Path_646584" data-name="Path 646584" d="M204.135,133.009c-7.294-1.843-14.033-3.791-20.56-5.947l-.154.44c-.261.743-.522,1.487-.773,2.235,4.529.98,9.1,2.063,13.825,3.273Z" transform="translate(-89.253 -62.091)" fill="url(#linear-gradient-17)"/>
        <path id="Path_646585" data-name="Path 646585" d="M190.284,17.452a7.951,7.951,0,0,0,1.275,1.766h0c.012.013.025.025.038.038a59.451,59.451,0,0,1,7.755-3.507,50.877,50.877,0,0,1,6.7-1.928c-.644-.015-1.289-.031-1.933-.031a82.6,82.6,0,0,0-13.712,1.146,1.875,1.875,0,0,0-.434.769A2.522,2.522,0,0,0,190.284,17.452Z" transform="translate(-92.809 -6.739)" fill="url(#linear-gradient-18)"/>
        <path id="Path_646586" data-name="Path 646586" d="M78.936,97.459c2.983,0,6.11.115,9.575.361,1.437-3.656,3.044-7.236,4.777-10.645-1.241-.7-2.353-1.359-3.4-2.012a53.1,53.1,0,0,1-8.229-6.224,20.582,20.582,0,0,1-3.476-4.214,10.689,10.689,0,0,1-.946-2.039,84.1,84.1,0,0,0-15.3,27.158A26.665,26.665,0,0,1,67.4,98.33,69.448,69.448,0,0,1,78.936,97.459Z" transform="translate(-30.27 -35.519)" fill="url(#linear-gradient-19)"/>
        <path id="Path_646587" data-name="Path 646587" d="M83.622,133.195c.585-1.864,1.214-3.724,1.885-5.566-2.527-.125-5.012-.188-7.4-.188q-.517,0-1.027,0a64.593,64.593,0,0,0-10.9.891,21.969,21.969,0,0,0-5,1.45,5.932,5.932,0,0,0-2.671,2.028c-.048.176-.1.351-.146.528-.07.264-.133.529-.2.793,0,.019,0,.039,0,.058Z" transform="translate(-28.422 -62.276)" fill="url(#linear-gradient-20)"/>
        <path id="Path_646588" data-name="Path 646588" d="M216.187,16.079a45.613,45.613,0,0,0-12.861,3.058,53.811,53.811,0,0,0-6.311,2.953c.462.369.96.74,1.481,1.107a55.757,55.757,0,0,0,7.979,4.518c.9.432,1.884.875,2.992,1.355.927-1.251,1.772-2.329,2.583-3.293a38.818,38.818,0,0,1,8.3-7.7,17.8,17.8,0,0,1,3.261-1.677c-.768-.15-1.537-.286-2.307-.415A39.893,39.893,0,0,0,216.187,16.079Z" transform="translate(-96.274 -7.792)" fill="url(#linear-gradient-21)"/>
        <path id="Path_646589" data-name="Path 646589" d="M238.751,19.311a14.865,14.865,0,0,0-4.235,2.1A37.427,37.427,0,0,0,226.86,28.9c-.58.726-1.184,1.52-1.844,2.425a116.052,116.052,0,0,0,12.368,4.243,109.728,109.728,0,0,0,15.7,3.3c-.161-1.274-.335-2.426-.532-3.516a36.988,36.988,0,0,0-3.2-10.266c-1.072-2.092-2.885-4.673-5.593-5.681-.355-.1-.709-.2-1.067-.3h0c-.07-.018-.14-.034-.21-.052A8.266,8.266,0,0,0,238.751,19.311Z" transform="translate(-109.958 -9.259)" fill="url(#linear-gradient-22)"/>
        <path id="Path_646590" data-name="Path 646590" d="M98.852,63.964a17.194,17.194,0,0,0,2.853,3.487,48.951,48.951,0,0,0,7.612,5.826c1.009.642,2.078,1.3,3.262,1.994.018-.035.036-.07.054-.105a103.656,103.656,0,0,1,14.306-20.082A118.188,118.188,0,0,0,114.145,55a48.431,48.431,0,0,0-9.5,1.305,16.977,16.977,0,0,0-4.143,1.59q-1.206,1.174-2.358,2.394a2.236,2.236,0,0,0-.074.234A4.579,4.579,0,0,0,98.852,63.964Z" transform="translate(-47.877 -26.812)" fill="url(#linear-gradient-23)"/>
        <path id="Path_646591" data-name="Path 646591" d="M254.2,222.509h-2.429c.759.162,1.519.324,2.274.48C254.1,222.831,254.152,222.667,254.2,222.509Z" transform="translate(-123.034 -108.733)" fill="url(#linear-gradient-24)"/>
        <path id="Path_646592" data-name="Path 646592" d="M137.781,33.694c.112-.114.223-.229.333-.343.173-.179.346-.358.523-.531a74.362,74.362,0,0,1,14.4-11.073,8.845,8.845,0,0,1-1.1-1.641,5.524,5.524,0,0,1-.511-1.468,4.206,4.206,0,0,1,.052-1.8l.006-.016a84.273,84.273,0,0,0-26.424,10.03A85.825,85.825,0,0,0,114.7,33.98a59.866,59.866,0,0,1,7.483-.775A115.937,115.937,0,0,1,137.781,33.694Z" transform="translate(-56.049 -8.218)" fill="url(#linear-gradient-25)"/>
        <path id="Path_646593" data-name="Path 646593" d="M276.444,36.9c.191,1.186.356,2.461.52,4l.1.012c.316.039.63.077.948.108a52.565,52.565,0,0,0,9.254.183,22.457,22.457,0,0,0,4.276-.731,55.271,55.271,0,0,0-4.377-5.956,45.861,45.861,0,0,0-9.937-8.847c-.948-.616-1.935-1.2-3.006-1.769-.994-.385-1.994-.757-3.006-1.105a17.778,17.778,0,0,1,2.06,3.281A39.06,39.06,0,0,1,276.444,36.9Z" transform="translate(-132.533 -11.138)" fill="url(#linear-gradient-26)"/>
        <path id="Path_646594" data-name="Path 646594" d="M255.242,226.355c-.5,1.5-1.029,3.029-1.61,4.664,4.556,1.744,8.713,3.465,12.7,5.261a144.463,144.463,0,0,1,14.1,7.183,119.549,119.549,0,0,0,6.032-13.174c-3.991-.24-8.167-.619-12.416-1.123C267.99,228.45,261.663,227.5,255.242,226.355Z" transform="translate(-123.941 -110.612)" fill="url(#linear-gradient-27)"/>
        <path id="Path_646595" data-name="Path 646595" d="M291.908,261.611l-.135.26a103.992,103.992,0,0,1-15.428,21.6,106.116,106.116,0,0,0,12.4.233,49.634,49.634,0,0,0,9.773-1.3,18.542,18.542,0,0,0,4.6-1.764,5.35,5.35,0,0,0,2.177-8.26,18.4,18.4,0,0,0-3.125-3.8,49.681,49.681,0,0,0-7.855-5.953c-.7-.446-1.4-.866-2.231-1.352C292.023,261.387,291.965,261.5,291.908,261.611Z" transform="translate(-135.04 -127.676)" fill="url(#linear-gradient-28)"/>
        <path id="Path_646596" data-name="Path 646596" d="M204.752,229.782c-7.614-2.641-15.619-5-24.467-7.208l-.271-.066H158.186c-1.11,7.084-1.835,13.6-2.2,19.793-.182,3.111-.276,5.962-.288,8.713,5.147,1.758,10.456,3.411,15.78,4.912,6.567,1.832,13.011,3.414,19.155,4.7,1.506-2.557,2.923-5.155,4.21-7.723A211.148,211.148,0,0,0,204.752,229.782Z" transform="translate(-76.085 -108.733)" fill="url(#linear-gradient-29)"/>
        <path id="Path_646597" data-name="Path 646597" d="M257.63,223.138c6.345,1.3,12.249,2.32,18.044,3.128,4.976.657,9.125,1.091,13.046,1.365.647-1.706,1.246-3.415,1.815-5.122h-32.7C257.762,222.718,257.7,222.929,257.63,223.138Z" transform="translate(-125.895 -108.733)" fill="url(#linear-gradient-30)"/>
        <path id="Path_646598" data-name="Path 646598" d="M266.76,249.293l.1-.188a138.45,138.45,0,0,0-14.624-7.167c-3.806-1.6-7.835-3.14-12.31-4.71l-.071.2c-.051.143-.1.287-.154.431a214.915,214.915,0,0,1-9.517,22.654c-1.313,2.645-2.648,5.177-3.967,7.531,6.494,1.323,12.494,2.3,18.336,3,1.875.216,3.826.407,5.961.582a100.867,100.867,0,0,0,15.974-21.8C266.579,249.645,266.67,249.468,266.76,249.293Z" transform="translate(-110.543 -115.925)" fill="url(#linear-gradient-31)"/>
        <path id="Path_646599" data-name="Path 646599" d="M298.415,87.312c-5.5-2.3-11.206-4.411-17.432-6.439-.011,2.547-.1,5.279-.26,8.345a209.43,209.43,0,0,1-2.387,21.22h28.576a98.447,98.447,0,0,0-2.994-20.669C302.19,88.962,300.389,88.158,298.415,87.312Z" transform="translate(-136.013 -39.52)" fill="url(#linear-gradient-32)"/>
        <path id="Path_646600" data-name="Path 646600" d="M349.583,111.281a49.706,49.706,0,0,0-7.889-5.967,107.877,107.877,0,0,0-10.943-5.928,100.536,100.536,0,0,1,2.645,20.1H353.75a6.472,6.472,0,0,0-1.024-4.4A18.6,18.6,0,0,0,349.583,111.281Z" transform="translate(-161.627 -48.566)" fill="url(#linear-gradient-33)"/>
        <path id="Path_646601" data-name="Path 646601" d="M167.859,40.634c6.839.821,13.825,2.01,21.357,3.635l.1-.158c.353-.585.7-1.166,1.067-1.742,1.06-1.688,2.15-3.325,3.241-4.865-.962-.389-1.766-.727-2.519-1.059a53.921,53.921,0,0,1-8.31-4.526,26.852,26.852,0,0,1-2.39-1.843,73.15,73.15,0,0,0-13.492,10.458l.446.047Z" transform="translate(-81.563 -14.697)" fill="url(#linear-gradient-34)"/>
        <path id="Path_646602" data-name="Path 646602" d="M157.265,88.664a211.093,211.093,0,0,1,9.953-23.117c1.115-2.2,2.327-4.433,3.6-6.643-7.066-1.278-13.986-2.242-20.571-2.865h0c-.909-.088-1.879-.173-3.138-.274a102,102,0,0,0-15.341,21.467v0c3.436,1.9,7.163,3.746,11.39,5.639C147.644,84.892,152.389,86.839,157.265,88.664Z" transform="translate(-64.391 -27.25)" fill="url(#linear-gradient-35)"/>
        <path id="Path_646603" data-name="Path 646603" d="M149.647,117.913q.5-1.48,1.015-2.956c-4.987-1.7-9.782-3.517-14.257-5.392h0c-4.507-1.928-8.4-3.767-11.9-5.622-1.517,3.019-2.936,6.186-4.223,9.42,2.973.268,6.194.634,9.841,1.115C136.4,115.356,142.787,116.48,149.647,117.913Z" transform="translate(-58.777 -50.793)" fill="url(#linear-gradient-36)"/>
        <path id="Path_646604" data-name="Path 646604" d="M230.522,56.53c6.3,1.773,12.465,3.716,18.328,5.779-.017-.715-.036-1.431-.064-2.142-.112-2.522-.306-4.95-.576-7.218a111.929,111.929,0,0,1-15.992-2.779h0A114.849,114.849,0,0,1,218.982,46.1c-1.389,2-2.777,4.179-4.13,6.483C219.951,53.725,225.221,55.054,230.522,56.53Z" transform="translate(-104.991 -22.526)" fill="url(#linear-gradient-37)"/>
        <path id="Path_646605" data-name="Path 646605" d="M105.614,241.244c.948.451,1.955.916,3.074,1.421,6.029,2.711,12.446,5.268,19.077,7.6-.024-2.62.024-5.212.141-7.708.308-6.441.978-13.167,1.986-20.048H102.957A97.644,97.644,0,0,0,105.614,241.244Z" transform="translate(-50.312 -108.733)" fill="url(#linear-gradient-38)"/>
        <path id="Path_646606" data-name="Path 646606" d="M146.037,132.061c-6.752-1.212-13.053-2.154-19.258-2.879-3.6-.429-7.126-.763-10.482-.992q-.986,2.679-1.842,5.371h31.105C145.719,133.061,145.875,132.556,146.037,132.061Z" transform="translate(-55.93 -62.642)" fill="url(#linear-gradient-39)"/>
        <path id="Path_646607" data-name="Path 646607" d="M294.815,33.074c.284.152.569.3.851.457C295.384,33.377,295.1,33.225,294.815,33.074Z" transform="translate(-144.066 -16.162)" fill="#fff"/>
        <path id="Path_646608" data-name="Path 646608" d="M313.579,44.785l-.019-.014Z" transform="translate(-153.226 -21.878)" fill="#fff"/>
        <path id="Path_646609" data-name="Path 646609" d="M319.921,49.6v0l.116.094C320,49.664,319.961,49.631,319.921,49.6Z" transform="translate(-156.334 -24.237)" fill="#fff26b"/>
        <path id="Path_646610" data-name="Path 646610" d="M293.412,32.321l.015.013c.235.122.469.247.7.372C293.89,32.578,293.653,32.446,293.412,32.321Z" transform="translate(-143.38 -15.794)" fill="#fff26b"/>
        <path id="Path_646611" data-name="Path 646611" d="M296.48,33.968l.382.213Z" transform="translate(-144.879 -16.599)" fill="#fff26b"/>
        <g id="Group_625928" data-name="Group 625928" transform="translate(3.392 2.703)">
          <path id="Path_646612" data-name="Path 646612" d="M242.688,19.107c-.07-.018-.14-.034-.21-.052a8.266,8.266,0,0,0-3.728.256,14.865,14.865,0,0,0-4.235,2.1A37.427,37.427,0,0,0,226.86,28.9c-.58.726-1.184,1.52-1.844,2.425a116.052,116.052,0,0,0,12.368,4.243,109.728,109.728,0,0,0,15.7,3.3c-.161-1.274-.335-2.426-.532-3.516a36.988,36.988,0,0,0-3.2-10.266c-1.072-2.092-2.885-4.673-5.593-5.681-.355-.1-.709-.2-1.067-.3Z" transform="translate(-113.35 -11.962)" fill="none"/>
          <path id="Path_646613" data-name="Path 646613" d="M235.832,224.345q-4.687-.844-9.469-1.836H215.42c6.559,1.97,12.878,4.1,18.839,6.361C234.784,227.41,235.3,225.927,235.832,224.345Z" transform="translate(-108.661 -111.436)" fill="none"/>
          <path id="Path_646614" data-name="Path 646614" d="M301.265,75.965c1.532.687,3.071,1.4,4.576,2.123l-.056-.217c-.11-.428-.224-.871-.352-1.3a70.964,70.964,0,0,0-8-18.24,22.846,22.846,0,0,1-4.36.794,56.573,56.573,0,0,1-9.371.006c-.341-.025-.68-.056-1.016-.086l-.064-.006c.293,3.019.449,6.262.462,9.644C289.45,70.953,295.568,73.4,301.265,75.965Z" transform="translate(-141.498 -31.207)" fill="none"/>
          <path id="Path_646615" data-name="Path 646615" d="M199.728,62.722c-1.326,2.368-2.63,4.852-3.986,7.589a216.106,216.106,0,0,0-9.381,22.4c-.022.058-.041.115-.061.171l-.018.051c6.639,2.415,13.6,4.652,20.7,6.646,2.553.71,5.042,1.369,7.49,1.989h18.086a206.205,206.205,0,0,0,2.208-21.288c.143-2.833.195-5.737.153-8.633-6.013-1.931-12.272-3.7-19.131-5.42C210.45,64.912,205.049,63.732,199.728,62.722Z" transform="translate(-94.421 -33.353)" fill="none"/>
          <path id="Path_646616" data-name="Path 646616" d="M180.592,137.7h5.632q-2.674-.542-5.3-1.036C180.808,137.013,180.7,137.358,180.592,137.7Z" transform="translate(-91.641 -69.488)" fill="none"/>
          <path id="Path_646617" data-name="Path 646617" d="M204.135,133.009c-7.294-1.843-14.033-3.791-20.56-5.947l-.154.44c-.261.743-.522,1.487-.773,2.235,4.529.98,9.1,2.063,13.825,3.273Z" transform="translate(-92.645 -64.794)" fill="none"/>
          <path id="Path_646618" data-name="Path 646618" d="M294.981,33.163c-.283-.154-.567-.306-.851-.457-.239-.128-.476-.26-.717-.385l.015.013a49.637,49.637,0,0,1,5.824,6.042,56.962,56.962,0,0,1,4.446,6.3,7.228,7.228,0,0,0,1.193-.621,3.435,3.435,0,0,0,1.516-1.894,2.858,2.858,0,0,0-.037-1.469h0a82.562,82.562,0,0,0-11.007-7.314Z" transform="translate(-146.773 -18.497)" fill="none"/>
          <path id="Path_646619" data-name="Path 646619" d="M216.187,16.079a45.613,45.613,0,0,0-12.861,3.058,53.811,53.811,0,0,0-6.311,2.953c.462.369.96.74,1.481,1.107a55.757,55.757,0,0,0,7.979,4.518c.9.432,1.884.875,2.992,1.355.927-1.251,1.772-2.329,2.583-3.293a38.818,38.818,0,0,1,8.3-7.7,17.8,17.8,0,0,1,3.261-1.677c-.768-.15-1.537-.286-2.307-.415A39.893,39.893,0,0,0,216.187,16.079Z" transform="translate(-99.667 -10.495)" fill="none"/>
          <path id="Path_646620" data-name="Path 646620" d="M273.275,26.074a39.06,39.06,0,0,1,3.17,10.821c.191,1.186.356,2.461.52,4l.1.012c.316.039.63.077.948.108a52.565,52.565,0,0,0,9.254.183,22.457,22.457,0,0,0,4.276-.731,55.271,55.271,0,0,0-4.377-5.956,45.861,45.861,0,0,0-9.937-8.847c-.948-.616-1.935-1.2-3.006-1.769-.994-.385-1.994-.757-3.006-1.105A17.778,17.778,0,0,1,273.275,26.074Z" transform="translate(-135.926 -13.841)" fill="none"/>
          <path id="Path_646621" data-name="Path 646621" d="M67.4,98.33a69.448,69.448,0,0,1,11.531-.871c2.983,0,6.11.115,9.575.361,1.437-3.656,3.044-7.236,4.777-10.645-1.241-.7-2.353-1.359-3.4-2.012a53.1,53.1,0,0,1-8.229-6.224,20.582,20.582,0,0,1-3.476-4.214,10.689,10.689,0,0,1-.946-2.039,84.1,84.1,0,0,0-15.3,27.158A26.665,26.665,0,0,1,67.4,98.33Z" transform="translate(-33.663 -38.222)" fill="none"/>
          <path id="Path_646622" data-name="Path 646622" d="M98.148,60.293a2.236,2.236,0,0,0-.074.234,4.579,4.579,0,0,0,.778,3.437,17.194,17.194,0,0,0,2.853,3.487,48.951,48.951,0,0,0,7.612,5.826c1.009.642,2.078,1.3,3.262,1.994.018-.035.036-.07.054-.105a103.656,103.656,0,0,1,14.306-20.082A118.188,118.188,0,0,0,114.145,55a48.431,48.431,0,0,0-9.5,1.305,16.977,16.977,0,0,0-4.143,1.59Q99.3,59.073,98.148,60.293Z" transform="translate(-51.27 -29.515)" fill="none"/>
          <path id="Path_646623" data-name="Path 646623" d="M114.7,33.98a59.866,59.866,0,0,1,7.483-.775,115.937,115.937,0,0,1,15.6.489c.112-.114.223-.229.333-.343.173-.179.346-.358.523-.531a74.362,74.362,0,0,1,14.4-11.073,8.845,8.845,0,0,1-1.1-1.641,5.524,5.524,0,0,1-.511-1.468,4.206,4.206,0,0,1,.052-1.8l.006-.016a84.273,84.273,0,0,0-26.424,10.03A85.825,85.825,0,0,0,114.7,33.98Z" transform="translate(-59.441 -10.922)" fill="none"/>
          <path id="Path_646624" data-name="Path 646624" d="M58.148,133.136l-.014.058H83.609c.585-1.864,1.214-3.724,1.885-5.566-2.528-.125-5.012-.188-7.4-.188q-.517,0-1.027,0a64.593,64.593,0,0,0-10.9.891,21.969,21.969,0,0,0-5,1.45,5.933,5.933,0,0,0-2.671,2.028c-.048.176-.1.351-.146.528C58.278,132.607,58.215,132.872,58.148,133.136Z" transform="translate(-31.8 -64.979)" fill="none"/>
          <path id="Path_646625" data-name="Path 646625" d="M190.413,14.936a1.875,1.875,0,0,0-.434.769,2.522,2.522,0,0,0,.306,1.747,7.951,7.951,0,0,0,1.275,1.766h0c.012.013.025.025.038.038a59.451,59.451,0,0,1,7.755-3.507,50.877,50.877,0,0,1,6.7-1.928c-.644-.015-1.289-.031-1.933-.031A82.6,82.6,0,0,0,190.413,14.936Z" transform="translate(-96.201 -9.442)" fill="none"/>
          <path id="Path_646626" data-name="Path 646626" d="M291.908,261.611l-.135.26a103.992,103.992,0,0,1-15.428,21.6,106.116,106.116,0,0,0,12.4.233,49.634,49.634,0,0,0,9.773-1.3,18.542,18.542,0,0,0,4.6-1.764,5.35,5.35,0,0,0,2.177-8.26,18.4,18.4,0,0,0-3.125-3.8,49.681,49.681,0,0,0-7.855-5.953c-.7-.446-1.4-.866-2.231-1.352C292.023,261.387,291.965,261.5,291.908,261.611Z" transform="translate(-138.432 -130.379)" fill="none"/>
          <path id="Path_646627" data-name="Path 646627" d="M105.614,241.244c.948.451,1.955.916,3.074,1.421,6.029,2.711,12.446,5.268,19.077,7.6-.024-2.62.024-5.212.141-7.708.308-6.441.978-13.167,1.986-20.048H102.957A97.644,97.644,0,0,0,105.614,241.244Z" transform="translate(-53.704 -111.436)" fill="none"/>
          <path id="Path_646628" data-name="Path 646628" d="M266.76,249.293l.1-.188a138.45,138.45,0,0,0-14.624-7.167c-3.806-1.6-7.835-3.14-12.31-4.71l-.071.2c-.051.143-.1.287-.154.431a214.915,214.915,0,0,1-9.517,22.654c-1.313,2.645-2.648,5.177-3.967,7.531,6.494,1.323,12.494,2.3,18.336,3,1.875.216,3.826.407,5.961.582a100.867,100.867,0,0,0,15.974-21.8C266.579,249.645,266.67,249.468,266.76,249.293Z" transform="translate(-113.935 -118.628)" fill="none"/>
          <path id="Path_646629" data-name="Path 646629" d="M257.63,223.138c6.345,1.3,12.249,2.32,18.044,3.128,4.976.657,9.125,1.091,13.046,1.365.647-1.706,1.246-3.415,1.815-5.122h-32.7C257.762,222.718,257.7,222.929,257.63,223.138Z" transform="translate(-129.287 -111.436)" fill="none"/>
          <path id="Path_646630" data-name="Path 646630" d="M204.752,229.782c-7.614-2.641-15.619-5-24.467-7.208l-.271-.066H158.186c-1.11,7.084-1.835,13.6-2.2,19.793-.182,3.111-.276,5.962-.288,8.713,5.147,1.758,10.456,3.411,15.78,4.912,6.567,1.832,13.011,3.414,19.155,4.7,1.506-2.557,2.923-5.155,4.21-7.723A211.148,211.148,0,0,0,204.752,229.782Z" transform="translate(-79.477 -111.436)" fill="none"/>
          <path id="Path_646631" data-name="Path 646631" d="M255.242,226.355c-.5,1.5-1.029,3.029-1.61,4.664,4.556,1.744,8.713,3.465,12.7,5.261a144.463,144.463,0,0,1,14.1,7.183,119.549,119.549,0,0,0,6.032-13.174c-3.991-.24-8.167-.619-12.416-1.123C267.99,228.45,261.663,227.5,255.242,226.355Z" transform="translate(-127.333 -113.315)" fill="none"/>
          <path id="Path_646632" data-name="Path 646632" d="M254.2,222.509h-2.429c.759.162,1.519.324,2.274.48C254.1,222.831,254.152,222.667,254.2,222.509Z" transform="translate(-126.426 -111.436)" fill="none"/>
          <path id="Path_646633" data-name="Path 646633" d="M298.415,87.312c-5.5-2.3-11.206-4.411-17.432-6.439-.011,2.547-.1,5.279-.26,8.345a209.43,209.43,0,0,1-2.387,21.22h28.576a98.447,98.447,0,0,0-2.994-20.669C302.19,88.962,300.389,88.158,298.415,87.312Z" transform="translate(-139.405 -42.223)" fill="none"/>
          <path id="Path_646634" data-name="Path 646634" d="M349.583,111.281a49.706,49.706,0,0,0-7.889-5.967,107.877,107.877,0,0,0-10.943-5.928,100.536,100.536,0,0,1,2.645,20.1H353.75a6.472,6.472,0,0,0-1.024-4.4A18.6,18.6,0,0,0,349.583,111.281Z" transform="translate(-165.019 -51.269)" fill="none"/>
          <path id="Path_646635" data-name="Path 646635" d="M167.859,40.634c6.839.821,13.825,2.01,21.357,3.635l.1-.158c.353-.585.7-1.166,1.067-1.742,1.06-1.688,2.15-3.325,3.241-4.865-.962-.389-1.766-.727-2.519-1.059a53.921,53.921,0,0,1-8.31-4.526,26.852,26.852,0,0,1-2.39-1.843,73.15,73.15,0,0,0-13.492,10.458l.446.047Z" transform="translate(-84.955 -17.4)" fill="none"/>
          <path id="Path_646636" data-name="Path 646636" d="M157.265,88.664a211.093,211.093,0,0,1,9.953-23.117c1.115-2.2,2.327-4.433,3.6-6.643-7.066-1.278-13.986-2.242-20.571-2.865h0c-.909-.088-1.879-.173-3.138-.274a102,102,0,0,0-15.341,21.467v0c3.436,1.9,7.163,3.746,11.39,5.639C147.644,84.892,152.389,86.839,157.265,88.664Z" transform="translate(-67.784 -29.954)" fill="none"/>
          <path id="Path_646637" data-name="Path 646637" d="M149.647,117.913q.5-1.48,1.015-2.956c-4.987-1.7-9.782-3.517-14.257-5.392h0c-4.507-1.928-8.4-3.767-11.9-5.622-1.517,3.019-2.936,6.186-4.223,9.42,2.973.268,6.194.634,9.841,1.115C136.4,115.356,142.787,116.48,149.647,117.913Z" transform="translate(-62.169 -53.497)" fill="none"/>
          <path id="Path_646638" data-name="Path 646638" d="M146.037,132.061c-6.752-1.212-13.053-2.154-19.258-2.879-3.6-.429-7.126-.763-10.482-.992q-.986,2.679-1.842,5.371h31.105C145.719,133.061,145.875,132.556,146.037,132.061Z" transform="translate(-59.322 -65.345)" fill="none"/>
          <path id="Path_646639" data-name="Path 646639" d="M230.522,56.53c6.3,1.773,12.465,3.716,18.328,5.779-.017-.715-.036-1.431-.064-2.142-.112-2.522-.306-4.95-.576-7.218a111.929,111.929,0,0,1-15.992-2.779h0A114.849,114.849,0,0,1,218.982,46.1c-1.389,2-2.777,4.179-4.13,6.483C219.951,53.725,225.221,55.054,230.522,56.53Z" transform="translate(-108.383 -25.23)" fill="none"/>
          <path id="Path_646640" data-name="Path 646640" d="M200.433,77.687h-4.48c-.445-1.779-.954-3.546-1.516-5.3a21.44,21.44,0,0,0-2.419-2.748,50.632,50.632,0,0,0-7.951-6.085,122.434,122.434,0,0,0-11.858-6.6l-.11-.442c-.148-.6-.3-1.2-.459-1.8a75.015,75.015,0,0,0-7.784-18.577,7.232,7.232,0,0,0,1.292-.685,3.724,3.724,0,0,0,1.625-2.08,3.013,3.013,0,0,0,.055-1.24c-.2-.159-.4-.312-.6-.469h0a2.859,2.859,0,0,1,.037,1.469,3.435,3.435,0,0,1-1.516,1.894,7.235,7.235,0,0,1-1.193.621,56.974,56.974,0,0,0-4.446-6.3,49.663,49.663,0,0,0-5.824-6.042,83.219,83.219,0,0,0-8.359-3.78c1.071.573,2.059,1.153,3.006,1.769a45.86,45.86,0,0,1,9.937,8.847A55.313,55.313,0,0,1,162.25,36.1a22.46,22.46,0,0,1-4.276.731,52.567,52.567,0,0,1-9.254-.183c-.318-.031-.632-.07-.948-.108l-.1-.012c-.163-1.543-.328-2.817-.52-4a39.062,39.062,0,0,0-3.17-10.821,17.776,17.776,0,0,0-2.06-3.281q-2.408-.828-4.883-1.511c2.708,1.008,4.521,3.59,5.593,5.681a36.988,36.988,0,0,1,3.2,10.266c.2,1.09.371,2.242.532,3.516a109.721,109.721,0,0,1-15.7-3.3A116.056,116.056,0,0,1,118.3,28.836c.66-.9,1.264-1.7,1.844-2.425a37.43,37.43,0,0,1,7.656-7.492,14.866,14.866,0,0,1,4.235-2.1,8.266,8.266,0,0,1,3.728-.256q-2.582-.675-5.18-1.185a17.8,17.8,0,0,0-3.261,1.677,38.815,38.815,0,0,0-8.3,7.7c-.81.965-1.656,2.043-2.583,3.294-1.108-.48-2.087-.923-2.992-1.355a55.762,55.762,0,0,1-7.979-4.518c-.521-.367-1.019-.738-1.481-1.107a53.81,53.81,0,0,1,6.311-2.953,45.612,45.612,0,0,1,12.861-3.058,39.892,39.892,0,0,1,5.122-.091,83.435,83.435,0,0,0-11.785-1.114,50.877,50.877,0,0,0-6.7,1.928,59.45,59.45,0,0,0-7.755,3.507c-.013-.013-.026-.025-.038-.038h0a7.948,7.948,0,0,1-1.275-1.766,2.522,2.522,0,0,1-.306-1.747,1.875,1.875,0,0,1,.434-.769c-.726.122-1.449.261-2.171.4l-.006.016a4.206,4.206,0,0,0-.052,1.8,5.523,5.523,0,0,0,.511,1.468,8.845,8.845,0,0,0,1.1,1.641,74.361,74.361,0,0,0-14.4,11.073c-.176.173-.349.352-.523.531-.11.115-.221.23-.333.343a115.935,115.935,0,0,0-15.6-.489,59.867,59.867,0,0,0-7.483.775q-3.147,2.527-6.02,5.326a16.976,16.976,0,0,1,4.143-1.59,48.432,48.432,0,0,1,9.5-1.305A118.2,118.2,0,0,1,82.3,35.04,103.656,103.656,0,0,0,68,55.122c-.018.036-.035.071-.054.105-1.184-.7-2.253-1.351-3.262-1.994a48.955,48.955,0,0,1-7.612-5.826,17.2,17.2,0,0,1-2.853-3.487,4.579,4.579,0,0,1-.778-3.437,2.233,2.233,0,0,1,.074-.234q-1.7,1.8-3.3,3.685a10.684,10.684,0,0,0,.946,2.039,20.583,20.583,0,0,0,3.476,4.214,53.1,53.1,0,0,0,8.229,6.224c1.043.652,2.155,1.312,3.4,2.012-1.733,3.41-3.341,6.99-4.777,10.645-3.465-.246-6.593-.364-9.575-.361a69.448,69.448,0,0,0-11.531.871,26.668,26.668,0,0,0-5.46,1.514q-.874,2.57-1.589,5.214A5.932,5.932,0,0,1,36,74.279a21.966,21.966,0,0,1,5-1.45,64.592,64.592,0,0,1,10.9-.891q.511,0,1.027,0c2.39,0,4.875.063,7.4.188-.671,1.842-1.3,3.7-1.885,5.566H6.634v42.858H52.866a101.467,101.467,0,0,0,2.384,17.141,116.236,116.236,0,0,1-10.884-6.126,48.581,48.581,0,0,1-7.578-5.814,17.219,17.219,0,0,1-2.842-3.482,7.8,7.8,0,0,1-.407-.8,84.685,84.685,0,0,0,3.154,9.117,60.58,60.58,0,0,0,5.848,4.162,118.122,118.122,0,0,0,13.81,7.288l.049.185c.027.1.053.2.08.3a68.923,68.923,0,0,0,13.134,25.375,49.9,49.9,0,0,0,4.5,4.648A83.335,83.335,0,0,0,84.251,177.2a38.874,38.874,0,0,1-3.387-2.068h0a45.835,45.835,0,0,1-9.674-9.01A65.485,65.485,0,0,1,59.678,143.5l.354.153c.143.063.285.125.431.187,6.368,2.671,13.006,5.081,20.291,7.365q.009.276.016.552c.009.343.019.684.035,1.025a86.355,86.355,0,0,0,1.268,11.856,38.772,38.772,0,0,0,3.416,10.8,18.074,18.074,0,0,0,1.857,2.875q2.123.716,4.3,1.323a12.1,12.1,0,0,1-4.828-5.573,37.3,37.3,0,0,1-2.96-10.294,86.9,86.9,0,0,1-.971-11.894c4.984,1.516,10.2,2.957,15.5,4.286,6.24,1.537,12.471,2.872,18.525,3.971l-.165.271c-.2.331-.4.662-.605.987a84.433,84.433,0,0,1-6.749,9.453,36.769,36.769,0,0,1-7.855,7.346,14.367,14.367,0,0,1-4.3,1.982,8.552,8.552,0,0,1-2.445.285q2.14.511,4.29.908a18.014,18.014,0,0,0,3.19-1.736,39.516,39.516,0,0,0,8.1-7.847,91,91,0,0,0,7.709-11.441c6.671,1.171,13.228,2.064,19.487,2.655,1.562.148,3.157.28,4.746.391l-.1.1c-.151.155-.3.311-.459.462a66.808,66.808,0,0,1-23.238,15.2,45.678,45.678,0,0,1-13.009,2.789c-.764.05-1.557.072-2.386.071a83.288,83.288,0,0,0,8.511.7,50.169,50.169,0,0,0,7.572-2.265h0c8.179-3.174,16.058-8.513,23.418-15.869.229-.228.448-.46.668-.693.131-.139.262-.277.4-.415a123.392,123.392,0,0,0,13.769.115,50.1,50.1,0,0,0,9.877-1.374,22.85,22.85,0,0,0,2.871-.953q2.688-2.394,5.151-5a6.758,6.758,0,0,0-1.056-4.551,18.678,18.678,0,0,0-3.164-3.895,50.439,50.439,0,0,0-7.905-6.072c-.818-.516-1.725-1.074-2.771-1.7a120.192,120.192,0,0,0,6.154-13.55c3.273.177,6.3.252,9.266.235a66.8,66.8,0,0,0,11.26-.908,24.564,24.564,0,0,0,5.451-1.584,10.6,10.6,0,0,0,2.088-1.219q.288-.938.554-1.886a5.351,5.351,0,0,1-.941,1.05,9.52,9.52,0,0,1-2.376,1.447,23.326,23.326,0,0,1-5.37,1.53,66.384,66.384,0,0,1-11.167.861c-2.7,0-5.472-.1-8.472-.29.646-1.724,1.244-3.453,1.81-5.181h53.081V77.687Zm-52.614-40.38c.337.03.676.061,1.017.086a56.57,56.57,0,0,0,9.371-.006,22.843,22.843,0,0,0,4.36-.794,70.969,70.969,0,0,1,8,18.24c.129.431.242.874.352,1.3l.056.217c-1.505-.723-3.044-1.436-4.576-2.123-5.7-2.561-11.815-5.012-18.184-7.285-.014-3.381-.169-6.624-.463-9.644ZM146.974,56.4a206.179,206.179,0,0,1-2.208,21.288H126.68c-2.448-.62-4.937-1.279-7.49-1.989-7.095-1.995-14.057-4.231-20.7-6.646L98.512,69c.02-.057.04-.114.061-.171a216.087,216.087,0,0,1,9.381-22.4c1.356-2.737,2.66-5.221,3.986-7.589,5.321,1.01,10.723,2.19,16.055,3.506,6.859,1.716,13.118,3.488,19.131,5.42C147.169,50.661,147.117,53.565,146.974,56.4ZM96.636,74.414c.251-.747.512-1.491.773-2.235l.154-.44c6.527,2.156,13.267,4.1,20.56,5.947h-7.662C105.739,76.477,101.165,75.395,96.636,74.414Zm4.582,3.273H95.585c.111-.345.216-.69.329-1.035Q98.541,77.143,101.217,77.687Zm23.119,42.858q4.775.989,9.469,1.836c-.532,1.582-1.048,3.065-1.573,4.525-5.961-2.26-12.28-4.391-18.839-6.361Zm7.646,0h2.429c-.052.158-.1.322-.154.48C133.5,120.869,132.742,120.707,131.983,120.545ZM117.233,30.34a114.858,114.858,0,0,0,13.236,4.072h0a111.93,111.93,0,0,0,15.992,2.779c.27,2.268.464,4.7.576,7.218.028.711.047,1.427.064,2.142-5.862-2.063-12.027-4.006-18.328-5.779-5.3-1.477-10.572-2.805-15.67-3.949C114.456,34.519,115.844,32.339,117.233,30.34Zm-15.152-8.193a26.828,26.828,0,0,0,2.39,1.843,53.918,53.918,0,0,0,8.31,4.526c.754.333,1.558.671,2.519,1.059-1.092,1.541-2.181,3.177-3.241,4.865-.363.576-.714,1.157-1.067,1.742l-.1.157c-7.532-1.625-14.519-2.814-21.357-3.635l-.5-.053-.446-.047A73.155,73.155,0,0,1,102.081,22.147ZM70.621,56.75A102,102,0,0,1,85.962,35.283c1.259.1,2.229.185,3.138.274h0c6.585.623,13.5,1.587,20.571,2.865-1.277,2.21-2.489,4.444-3.6,6.643a211.1,211.1,0,0,0-9.953,23.117c-4.876-1.824-9.621-3.772-14.1-5.789-4.228-1.894-7.955-3.739-11.39-5.64Zm-1.653,3.168c3.5,1.855,7.393,3.694,11.9,5.622h0c4.475,1.874,9.271,3.688,14.257,5.392q-.513,1.475-1.015,2.956c-6.86-1.433-13.249-2.557-19.526-3.436-3.646-.481-6.868-.846-9.841-1.115C66.033,66.1,67.452,62.937,68.969,59.918Zm-5.36,12.4c3.356.229,6.882.562,10.482.992,6.205.725,12.506,1.666,19.258,2.879-.162.495-.319,1-.478,1.5h-31.1Q62.625,75,63.608,72.316Zm17.228,68.277c-.117,2.5-.164,5.088-.141,7.708-6.631-2.333-13.048-4.89-19.077-7.6-1.119-.505-2.126-.97-3.074-1.421a97.642,97.642,0,0,1-2.657-18.735H82.822C81.814,127.427,81.144,134.153,80.836,140.593Zm36.956,18.07c-6.144-1.287-12.588-2.869-19.155-4.7-5.325-1.5-10.633-3.153-15.78-4.912.012-2.75.106-5.6.288-8.713.363-6.2,1.088-12.709,2.2-19.793H107.17l.271.065c8.848,2.209,16.853,4.567,24.467,7.208A211.111,211.111,0,0,1,122,150.94C120.715,153.508,119.3,156.106,117.792,158.663Zm25.417,3.8c-2.135-.175-4.086-.366-5.961-.582-5.842-.693-11.842-1.674-18.336-3,1.32-2.354,2.655-4.886,3.967-7.531A214.924,214.924,0,0,0,132.4,128.7c.053-.144.1-.288.154-.431l.071-.2c4.476,1.571,8.5,3.112,12.31,4.71a138.464,138.464,0,0,1,14.624,7.167l-.1.188c-.091.175-.181.351-.276.527A100.872,100.872,0,0,1,143.209,162.465Zm19.306-20.745a49.7,49.7,0,0,1,7.855,5.953,18.4,18.4,0,0,1,3.125,3.8,5.349,5.349,0,0,1-2.177,8.26,18.539,18.539,0,0,1-4.6,1.764,49.642,49.642,0,0,1-9.773,1.3,106.146,106.146,0,0,1-12.4-.233,103.98,103.98,0,0,0,15.427-21.6l.135-.26c.058-.111.116-.223.175-.336C161.113,140.854,161.816,141.274,162.515,141.72Zm-2.78-2.1a144.477,144.477,0,0,0-14.1-7.183c-3.99-1.8-8.148-3.518-12.7-5.261.581-1.635,1.108-3.163,1.61-4.664,6.421,1.15,12.749,2.095,18.809,2.81,4.249.5,8.425.883,12.416,1.123A119.512,119.512,0,0,1,159.735,139.619Zm6.331-13.953c-3.92-.274-8.07-.708-13.046-1.365-5.8-.808-11.7-1.832-18.044-3.128.068-.209.132-.42.2-.628h32.7C167.313,122.252,166.714,123.961,166.067,125.667Zm-20.5-47.98a209.387,209.387,0,0,0,2.387-21.22c.164-3.066.25-5.8.26-8.345,6.226,2.027,11.93,4.134,17.432,6.439,1.974.846,3.775,1.65,5.5,2.457a98.461,98.461,0,0,1,2.994,20.669Zm49.8,0H175.011a100.564,100.564,0,0,0-2.645-20.1,107.882,107.882,0,0,1,10.943,5.928,49.711,49.711,0,0,1,7.889,5.967,18.593,18.593,0,0,1,3.143,3.8A6.471,6.471,0,0,1,195.366,77.687Z" transform="translate(-6.634 -9.472)" fill="#fff"/>
          <path id="Path_646641" data-name="Path 646641" d="M211.691,49.36a87.883,87.883,0,0,0-120.753-31.9A88.517,88.517,0,0,0,49.862,71.54q-.258.979-.492,1.961h4.481l.014-.058c.066-.264.13-.529.2-.793.047-.177.1-.352.146-.528q.716-2.642,1.589-5.214A84.1,84.1,0,0,1,71.1,39.75q1.592-1.891,3.3-3.685,1.156-1.218,2.358-2.394,2.872-2.795,6.02-5.326a85.82,85.82,0,0,1,10.36-7.132,84.273,84.273,0,0,1,26.424-10.03c.722-.142,1.445-.28,2.171-.4a82.6,82.6,0,0,1,13.712-1.146c.644,0,1.289.016,1.933.031a83.434,83.434,0,0,1,11.785,1.114c.77.128,1.539.264,2.307.415q2.6.508,5.18,1.185c.07.018.14.033.21.052h0c.358.095.712.2,1.067.3q2.473.687,4.883,1.511c1.012.348,2.012.72,3.006,1.1a83.228,83.228,0,0,1,8.359,3.78l-.015-.013c.241.125.478.257.717.385.284.151.569.3.851.457l.381.213a82.549,82.549,0,0,1,11.007,7.314c.2.156.4.31.6.469v0c.04.032.077.065.117.1.728.585,1.449,1.179,2.156,1.789l.406.352c.485.421.961.852,1.436,1.284A85.232,85.232,0,0,1,215.321,68.2c.562,1.753,1.071,3.519,1.516,5.3h4.48A89.313,89.313,0,0,0,211.691,49.36Z" transform="translate(-27.518 -5.286)" fill="#f2df74"/>
        </g>
        <g id="Group_625932" data-name="Group 625932" transform="translate(10.041 76.484)">
          <g id="Group_625929" data-name="Group 625929" transform="translate(176.223 20.654)">
            <path id="Path_646642" data-name="Path 646642" d="M364.269,191.049v-.007a1.067,1.067,0,1,1,2.134-.006v.006a1.067,1.067,0,1,1-2.134.007Zm2.011-.007v-.006a.945.945,0,1,0-1.889.006v.007a.945.945,0,1,0,1.889-.007Zm-1.361-.564h.49c.239,0,.417.117.417.344a.327.327,0,0,1-.251.331l.288.411h-.252l-.257-.374h-.227v.374h-.208Zm.472.541c.141,0,.22-.074.22-.179s-.079-.178-.22-.178h-.264v.356Z" transform="translate(-364.269 -189.97)" fill="#772432"/>
          </g>
          <g id="Group_625930" data-name="Group 625930" transform="translate(23.024 20.341)">
            <path id="Path_646643" data-name="Path 646643" d="M64.67,189.712h1.2l-.035,10.546H64.663Z" transform="translate(-64.663 -189.531)" fill="#772432"/>
            <path id="Path_646644" data-name="Path 646644" d="M77.6,189.712h1.129l6.645,8.429,0-8.429h1.161v10.546h-.933l-6.822-8.629-.031,8.629H77.617Z" transform="translate(-70.987 -189.531)" fill="#772432"/>
            <path id="Path_646645" data-name="Path 646645" d="M107.558,190.83h-3.535v-1.1h8.293l0,1.094h-3.539v9.452h-1.207Z" transform="translate(-83.897 -189.539)" fill="#772432"/>
            <path id="Path_646646" data-name="Path 646646" d="M129.192,189.643h7.627v1.087H130.4l-.008,3.587,5.761.016-.008,1.079-5.752.008.008,3.684,6.5.023.006,1.063h-7.705Z" transform="translate(-96.196 -189.497)" fill="#772432"/>
            <path id="Path_646647" data-name="Path 646647" d="M153.52,189.712h4.221a4.389,4.389,0,0,1,3.361,1.078,3.338,3.338,0,0,1,.775,1.957h0a3.07,3.07,0,0,1-2.85,3.2l3.238,4.309h-1.472l-3.07-4.089h-3l-.017,4.089h-1.188Zm4.141,5.4c2.267.005,3-1.033,3.028-2.313h0c-.154-1.045-.624-2-2.975-2l-3.007.022,0,4.269Z" transform="translate(-108.084 -189.531)" fill="#772432"/>
            <path id="Path_646648" data-name="Path 646648" d="M179.423,189.712h1.136l6.644,8.464v-8.464h1.16l0,10.546h-.957l-6.8-8.629-.009,8.629h-1.165Z" transform="translate(-120.742 -189.531)" fill="#772432"/>
            <path id="Path_646649" data-name="Path 646649" d="M210.365,189.564h1.113l4.806,10.622h-1.277l-1.217-2.77-5.759-.009-1.252,2.78h-1.227Zm2.933,6.752-2.387-5.357-2.415,5.357Z" transform="translate(-133.511 -189.459)" fill="#772432"/>
            <path id="Path_646650" data-name="Path 646650" d="M234.606,190.808l-3.531.009v-1.1h8.292v1.1h-3.546l-.008,9.441h-1.2Z" transform="translate(-145.983 -189.531)" fill="#772432"/>
            <path id="Path_646651" data-name="Path 646651" d="M256.448,189.712h1.189v10.546h-1.189Z" transform="translate(-158.382 -189.531)" fill="#772432"/>
            <path id="Path_646652" data-name="Path 646652" d="M268.5,194.842v-.03a5.349,5.349,0,0,1,5.3-5.454,5.266,5.266,0,0,1,5.455,5.417h0a5.377,5.377,0,1,1-10.752.067Zm9.529-.02v-.03a4.15,4.15,0,1,0-8.291-.011v.031a4.239,4.239,0,0,0,3.014,4.22A4.175,4.175,0,0,0,278.026,194.822Z" transform="translate(-164.27 -189.358)" fill="#772432"/>
            <path id="Path_646653" data-name="Path 646653" d="M299.04,189.712h1.119l6.643,8.453,0-8.453h1.171v10.546h-.959l-6.807-8.637-.008,8.637h-1.158Z" transform="translate(-179.195 -189.531)" fill="#772432"/>
            <path id="Path_646654" data-name="Path 646654" d="M329.98,189.564h1.114l4.809,10.622h-1.281l-1.255-2.788-5.72.008-1.263,2.781h-1.214Zm2.932,6.739-2.4-5.353-2.4,5.369Z" transform="translate(-191.964 -189.459)" fill="#772432"/>
            <path id="Path_646655" data-name="Path 646655" d="M354.809,189.712H356L356,199.164l5.952.008-.008,1.087h-7.131Z" transform="translate(-206.447 -189.531)" fill="#772432"/>
          </g>
          <g id="Group_625931" data-name="Group 625931">
            <path id="Path_646656" data-name="Path 646656" d="M24.771,153.38H19.636v-3.263H33.619v3.263H28.484V166.2H24.771Z" transform="translate(-19.636 -149.841)" fill="#004165"/>
            <path id="Path_646657" data-name="Path 646657" d="M49.67,157.942V157.9c0-4.573,3.785-8.318,8.993-8.318s8.945,3.7,8.945,8.272v.046c0,4.572-3.785,8.318-8.993,8.318S49.67,162.514,49.67,157.942Zm14.056,0V157.9a5,5,0,0,0-5.111-5.055,4.922,4.922,0,0,0-5.063,5.009v.046a5,5,0,0,0,5.111,5.055A4.923,4.923,0,0,0,63.726,157.942Z" transform="translate(-34.313 -149.578)" fill="#004165"/>
            <path id="Path_646658" data-name="Path 646658" d="M93.491,149.892h3.423l7.233,16.2h-3.882l-1.543-3.607H91.586l-1.543,3.607H86.258Zm3.906,9.467-2.242-5.216-2.242,5.216Z" transform="translate(-52.192 -149.731)" fill="#004165"/>
            <path id="Path_646659" data-name="Path 646659" d="M123.6,163.638l2.194-2.5a7.947,7.947,0,0,0,5.039,1.953c1.519,0,2.435-.575,2.435-1.517v-.046c0-.9-.579-1.355-3.4-2.045-3.4-.827-5.593-1.723-5.593-4.917v-.046c0-2.918,2.459-4.848,5.907-4.848a10.076,10.076,0,0,1,6.268,2.045l-1.929,2.665a8.158,8.158,0,0,0-4.388-1.585c-1.423,0-2.17.62-2.17,1.4v.046c0,1.057.724,1.4,3.641,2.114,3.423.85,5.352,2.022,5.352,4.826v.046c0,3.194-2.556,4.986-6.2,4.986A11.053,11.053,0,0,1,123.6,163.638Z" transform="translate(-70.44 -149.622)" fill="#004165"/>
            <path id="Path_646660" data-name="Path 646660" d="M158.11,153.38h-5.135v-3.263h13.983v3.263h-5.135V166.2H158.11Z" transform="translate(-84.794 -149.841)" fill="#004165"/>
            <path id="Path_646661" data-name="Path 646661" d="M185.885,150.117h4l4.436,6.8,4.436-6.8h4V166.2h-3.689V155.7l-4.75,6.87h-.1l-4.7-6.8V166.2h-3.64Z" transform="translate(-100.876 -149.841)" fill="#004165"/>
            <path id="Path_646662" data-name="Path 646662" d="M231.214,149.892h3.423l7.233,16.2h-3.882l-1.543-3.607h-7.136l-1.543,3.607h-3.785Zm3.906,9.467-2.242-5.216-2.243,5.216Z" transform="translate(-119.492 -149.731)" fill="#004165"/>
            <path id="Path_646663" data-name="Path 646663" d="M261.323,163.638l2.194-2.5a7.948,7.948,0,0,0,5.039,1.953c1.519,0,2.436-.575,2.436-1.517v-.046c0-.9-.579-1.355-3.4-2.045-3.4-.827-5.594-1.723-5.594-4.917v-.046c0-2.918,2.46-4.848,5.908-4.848a10.074,10.074,0,0,1,6.268,2.045l-1.928,2.665a8.16,8.16,0,0,0-4.389-1.585c-1.422,0-2.169.62-2.169,1.4v.046c0,1.057.723,1.4,3.64,2.114,3.424.85,5.352,2.022,5.352,4.826v.046c0,3.194-2.556,4.986-6.2,4.986A11.054,11.054,0,0,1,261.323,163.638Z" transform="translate(-137.74 -149.622)" fill="#004165"/>
            <path id="Path_646664" data-name="Path 646664" d="M295.833,153.38H290.7v-3.263h13.984v3.263h-5.135V166.2h-3.713Z" transform="translate(-152.095 -149.841)" fill="#004165"/>
            <path id="Path_646665" data-name="Path 646665" d="M323.608,150.117h12.73v3.148H327.3v3.263h7.956v3.148H327.3v3.378h9.161V166.2h-12.85Z" transform="translate(-168.177 -149.841)" fill="#004165"/>
            <path id="Path_646666" data-name="Path 646666" d="M355.2,150.117h7.715a6.926,6.926,0,0,1,4.918,1.631,4.921,4.921,0,0,1,1.446,3.677v.046a5.015,5.015,0,0,1-3.616,4.986l4.123,5.745h-4.34l-3.616-5.147h-2.917V166.2H355.2Zm7.474,7.813c1.808,0,2.844-.919,2.844-2.275v-.046c0-1.517-1.109-2.3-2.917-2.3h-3.688v4.619Z" transform="translate(-183.614 -149.841)" fill="#004165"/>
            <path id="Path_646667" data-name="Path 646667" d="M387.024,163.638l2.194-2.5a7.946,7.946,0,0,0,5.039,1.953c1.519,0,2.435-.575,2.435-1.517v-.046c0-.9-.578-1.355-3.4-2.045-3.4-.827-5.593-1.723-5.593-4.917v-.046c0-2.918,2.459-4.848,5.906-4.848a10.075,10.075,0,0,1,6.269,2.045l-1.929,2.665a8.161,8.161,0,0,0-4.388-1.585c-1.423,0-2.17.62-2.17,1.4v.046c0,1.057.723,1.4,3.64,2.114,3.424.85,5.353,2.022,5.353,4.826v.046c0,3.194-2.556,4.986-6.2,4.986A11.053,11.053,0,0,1,387.024,163.638Z" transform="translate(-199.166 -149.622)" fill="#004165"/>
          </g>
        </g>
      </g>
    </g>
  </g>
</svg>
