<?xml version="1.0" encoding="UTF-8"?><svg id="Layer_2" xmlns="http://www.w3.org/2000/svg" viewBox="0 0 365.42 360.52"><defs><style>.cls-1{fill:#fff;}.cls-2{fill:#2e347e;}.cls-3{fill:#8a6530;}.cls-4{fill:none;}.cls-5{fill:#f4d01b;}</style></defs><g id="Layer_1-2"><path class="cls-3" d="m75.85,0h0l-37.77,37.77c15.92,21.5,22.69,45.92,22.69,78.53,0,35.99-5.73,48.93-8.69,64.45-2.3-11.29-10.44-22.36-22.47-22.36-5.29,0-14.06,2.53-15.04,15.76-.33,4.5-3.23,15.71-9.67,27.58-2.96,5.46-4.92,5.99-4.92,11.57,0,10.94,14,18.28,14,18.28-.8,3.87-.66,6.51-.66,7.61,0,44.75,77.72,73.78,94.28,79.44s53.61,20.39,75.1,41.89c21.49-21.49,58.54-36.22,75.1-41.89s94.28-34.69,94.28-79.44c0-1.1.14-3.74-.66-7.61,0,0,14-7.34,14-18.28,0-5.58-1.96-6.11-4.92-11.57-6.43-11.87-9.33-23.08-9.67-27.58-.98-13.23-9.75-15.76-15.04-15.76-12.02,0-20.17,11.07-22.47,22.36-2.95-15.52-8.69-28.46-8.69-64.45,0-32.61,6.78-57.03,22.69-78.53L289.57,0H75.85Z"/><path class="cls-5" d="m289.36.5l37.32,37.32c-15.58,21.21-22.54,45.44-22.54,78.48,0,27.72,3.35,41.62,6.31,53.88,1.09,4.53,2.11,8.74,2.86,13.28.16-.81.32-1.64.48-2.45,2.11-10.66,9.9-22.13,22.01-22.13,4.03,0,13.52,1.49,14.54,15.3.34,4.58,3.21,15.76,9.73,27.79.9,1.66,1.7,2.85,2.4,3.9,1.59,2.37,2.46,3.68,2.46,7.43,0,10.51-13.59,17.77-13.73,17.84l-.33.17.08.37c.7,3.38.67,5.78.66,7.07v.43c0,44.56-78.26,73.6-93.94,78.97-11.81,4.04-51.97,18.95-74.94,41.66-22.97-22.71-63.13-37.61-74.94-41.66-15.69-5.37-93.94-34.41-93.94-78.97v-.43c-.02-1.29-.05-3.69.65-7.07l.08-.37-.33-.17c-.14-.07-13.73-7.33-13.73-17.84,0-3.75.87-5.06,2.46-7.43.7-1.05,1.5-2.24,2.4-3.9,6.52-12.02,9.39-23.21,9.73-27.79,1.02-13.81,10.51-15.3,14.54-15.3,12.11,0,19.9,11.47,22.01,22.13.16.81.32,1.64.48,2.45.75-4.54,1.76-8.76,2.86-13.28,2.96-12.27,6.31-26.17,6.31-53.88,0-33.04-6.95-57.27-22.54-78.48L76.06.5h213.3Z"/><path class="cls-2" d="m286.25,8H79.17l-30.69,30.69c14,21.3,20.3,45.54,20.3,77.61,0,28.61-3.46,42.97-6.52,55.64-2.17,9-3.89,16.11-3.89,26.96,0,20.36,9.95,30.11,13.69,33.78,12.71,12.46,23.13,19.91,63.61,34.25,23.99,8.5,39.06,20,47.04,27.23,7.97-7.23,23.05-18.73,47.04-27.23,40.48-14.34,50.9-21.79,63.61-34.25,3.74-3.67,13.69-13.42,13.69-33.78,0-10.84-1.71-17.95-3.88-26.95-3.06-12.67-6.52-27.04-6.52-55.64,0-32.07,6.3-56.31,20.3-77.61l-30.69-30.69h0Z"/><path class="cls-3" d="m215.81,244.4c-1.54-7.58-1.86-6.79-4.36-17.71-2.5-10.92-3.17-9.39-4.72-19.86,4.42-.42,6.53-2.86,6.53-4.56s-1.64-4.14-1.75-6.25c-.11-2.11-.56-2.58-.94-3.47s-.94-1.5-1.03-2.61c-.08-1.11-.14-.78-.14-2.31s.53-3.03,3.64-6.72,11.53-5.03,13.42-5.14,1.75-.56,1.75-1.61.03-1.03-2.11-1.03c-14.61,0-17.97,6.47-18.47,7.42s-.92.56-1.47-.14c-2-2.49-2.03-3.33-5.97-3.33v-1.22s.78-.5,1.03-1.17c.25-.67-.17-1.94.31-4.78,1.28-1.11,1.31-1.86,1.5-2.94.19-1.08.42-.75.42-4.83.86-2.67,1.22-4.04,1.59-6.3l9.05-3.67-1.19-5.42-3.36-.69-3.23,1.34c.14-.97.3-2.03.48-3.2,0,0,3.75-2.06,3.75-7.03,0-6-2.92-18.89-3.19-24.28-.28-5.39-.83-13.89-2.06-18.44-.1-.39-.2-.8-.29-1.23l37.24-45.92-3.3-2.71-.89,1.08-.72-.59-1.02,1.25.72.59-32.92,40.1c-.35-3.47-.55-7.06-.75-9.57-.36-4.5-3.33-5.89-5.53-8.06-2.19-2.17-4.07-2.69-5.19-4.72-1.12-2.02-.96-2.52-6.23-5.17,0,0,.95-3.3,1.35-3.71s1.81-.31,2.19-.81,2.89-.91,3.48-1.5.29-3.48.15-4.58c-.15-1.1.06-1.21.06-1.75s-.15-.52-.15-1.6,2.52-2.12,5.48-3.42c2.96-1.29,3.35-5.25,3.35-7.33s-1.25-2.44-2.31-4.4-3.33-3.98-5.52-5.79-5.98-3.27-13.44-3.27-8.67.72-12.22,3.91c-3.56,3.19-4.78,6.5-6.06,8.25s-2.58,6-2.58,9.47,5.72,4.47,6,5.19c.28.72-.47.42-.47,2.69,0,3.11,1.58,2.5,1.58,4.17,0,1.33-1.08.97-1.08,4.11-.56-.11-1.42.56-1.69,1.47,0,0-5.19.72-6.44,1.33s-2.94,2.58-7.33,9.42c-4.39,6.83-6.19,13.47-6.44,16.03-.25,2.56-1.28,2.97-2.81,4.06-1.53,1.08-1.83,2.86-1.83,4.61,0,1.86-.94,1.47-.94,4.14,0,2.03,2.64,2.81,2.97,3.61.33.81-.94,2.5.69,4.31,1.23,1.36,2.75,4.28,5.97,7.33,9.98,9.47,13.69,9.08,13.69,11.61,0,2.33-5.39,5.14-5.39,9.92,0,3.53,4.03,3.86,4.56,3.22-.14.78-.81,1.08-1.14,2.75l-4.89-.19c-2.44,2.78-4.06,3.75-3.81,4.36.25.61,2.39-.22,2.75,0,.36.22-.67.89-.42,1.17,1.05,1.17,2.12-.67,2.58.21.79,1.51-3.08,2.12-2.96,6.88l-20.71,32.5,7.96,6.54,13.71-32.99c2.22-1.39,2.54-1.19,2.94-.97.4.22,1.24.17,1.58-.42s1.31-.99,1.53-.86-.04,1.42-.08,2.53-.26,2.12-.99,3.5-2.33,3.49-2.33,5.21.33,4.03-.03,5.5c-.36,1.47-.33,3.31-.76,3.86-.43.56-.76,2.56-1.35,3.75-.58,1.19-1.36,6.04-1.96,7.11-.6,1.07-3.36,2.71-3.83,3.75-.47,1.04-.89,3.96-1.25,7.51-.36,3.56-.42,4.83-1.08,5.94-.67,1.11-.86,3.33-.94,4.64-.08,1.31-.86,2.85-.9,4.85l-6.21,1.08.12,3.33-14.17,4.21,5.12,10.25c.42.83,1.21,1.12,3.04,1.25,1.83.12,2.75.08,4.04,1.17-.92,1.71-1.33,1.79-1.33,2.29s.21,1.67-.62,2.75-1.32,2.83-.43,6.02c-10.83,4.25-18.05,8.13-18.05,8.13,5.71,2.3,12.29,4.76,19.95,7.48,22.34,7.92,37.44,18.6,46.45,26.53,9.01-7.93,24.11-18.62,46.45-26.53,7.66-2.72,14.24-5.18,19.95-7.48,0,0-14.56-7.83-33.31-13.4Zm-60.9-4.61l3.68-10.01,16.71-2.01-2.9,9.92-17.49,2.11Zm16.77-15.23c0-1.83,2.72-2.11,2.86-8.14.83-.22,2.5-.97,2.5-.97.11,1.58.06,4.14-.44,5.28-.5,1.14-.47,3.06-1.17,3.94s-2.78.69-3.22.69-.53-.11-.53-.81Zm5.71,14.56c-1.41.09-2.83.21-4.25.37l3.28-11.21c.16-.55.97-.43.97.14v10.71Zm.77-14.87c-.36.31-.92.53-1.19.25-.4-.4.36-1.58.43-2.39.07-.81.16-1.72.48-1.89.32-.17.57-1,.87-.94.44.08-.22,4.67-.58,4.97Zm4.9-46.85c0,2.25-1.04,3.75-1.04,4.79s.71,1.58.71,2.25-.96,1.54-1.25,3c-.29,1.46-.17,4.38-.46,6.42-.29,2.04-2.79,5.83-2.79,8.21s.46,4.96.66,6c.2,1.04-.41,2.46,0,5.12-9.21,4.25-16.04,5.25-18.12,5.54-2.08.29-2.5-.38-.33-4.62s.92-2.88,3.17-8.08,2.38-6.17,2.08-8.33c-.29-2.17.79-3.71,1.92-5.62,1.12-1.92,1.96-3.71,1.96-4.46s.29-2.42,1.12-2.96,2.5-4.54,2.83-5.88c.33-1.33,1.29-3,1.88-3.58s2.5-4.83,3.79-9.96,2.29-7.25,3.04-7.25.5,1.62.5,7.42c0,1.25.33,2.5.33,4.12s-.33,2.25-.33,4.17.33,1.46.33,3.71Zm18.55,49.93c-.44-1.33-1.17-1.86-1.17-2.86s.58-1.97.53-3.19c-.06-1.22.83-2.86,1.03-4.03.19-1.17.47-3.33.69-3.89.22-.56.28-1.56,0-1.97l3.42-.92,3.61,15.47c-5.61,3.22-5.42,3.31-5.89,3.31s-1.78-.58-2.22-1.92Zm8.42,10.78c-1.83-1.36-5.81-.64-6.19-4l6.89-2.08,2.61,9.67c-2.78-1.5-1.47-2.22-3.31-3.58Z"/><path class="cls-3" d="m347.92,181.57c-5.03,8.97-11.32,10.14-14.43,10.14s-5.7-1.41-5.7-1.41c.68,3.64,2.74,8.94,10.31,17.71,5.72,6.63,9.64,13.19,11.72,19.6,3.48-1.95,11.35-7.75,11.35-14.32,0-2.62-.39-3.19-1.83-5.35-.71-1.06-1.59-2.38-2.58-4.19-4.5-8.3-7.34-16.3-8.85-22.18h0Z"/><path class="cls-3" d="m331.49,177.33c-1.88,1.7-2.97,3.12-3.54,4.81-.88,2.61.35,4.81,2.02,5.46.66.27,2,.73,3.52.73.98,0,2.34-.17,3.87-.82l-5.87-10.18h0Z"/><path class="cls-3" d="m17.5,181.57c5.03,8.97,11.32,10.14,14.43,10.14s5.7-1.41,5.7-1.41c-.68,3.64-2.74,8.94-10.31,17.71-5.72,6.63-9.64,13.19-11.72,19.6-3.48-1.95-11.35-7.75-11.35-14.32,0-2.62.39-3.19,1.83-5.35.71-1.06,1.59-2.38,2.58-4.19,4.5-8.3,7.34-16.3,8.85-22.18h0Z"/><path class="cls-3" d="m33.93,177.33c1.88,1.7,2.97,3.12,3.54,4.81.88,2.61-.35,4.81-2.02,5.46-.66.27-2,.73-3.52.73-.98,0-2.34-.17-3.87-.82l5.87-10.18h0Z"/><path class="cls-3" d="m182.71,304.7l-.17-.17c-4.93-4.97-19.93-20.1-49.37-30.53-41.89-14.84-52.84-22.71-66.36-35.97-3.94-3.87-15.94-15.63-15.94-39.14,0-1.34.01-2.63.06-3.88-.01-.07-1.22-6.95-2.49-13.37-1.86-9.4-8.55-19.51-18.82-19.51-4.7,0-8.12,2.13-9.9,6.15-.57,1.29-.76,2.55-.76,5.01s.25,4.47,1.47,6.65v-.02c1.54,2.72,3.17,4.58,4.74,5.84l7.83-13.58c5.69,4.45,8.37,7.38,8.37,13.84,0,1.32-.07,2.47-.22,3.61-.82,6.22-4.19,12.37-11.28,20.58-8.52,9.88-12.79,19.46-12.67,28.5v.48c0,42.26,76.36,70.54,91.66,75.77,11.59,3.97,50.08,18.25,73.84,40.18,23.76-21.93,62.26-36.22,73.84-40.18,15.31-5.24,91.66-33.51,91.66-75.77v-.48c.12-9.03-4.15-18.62-12.67-28.5-7.09-8.21-10.46-14.37-11.28-20.58-.15-1.14-.22-2.29-.22-3.61,0-6.45,2.68-9.39,8.37-13.84l7.83,13.58c1.57-1.26,3.2-3.12,4.73-5.84v.02c1.24-2.18,1.49-4.24,1.49-6.65s-.19-3.72-.76-5.01c-1.78-4.03-5.21-6.15-9.9-6.15-10.27,0-16.96,10.12-18.82,19.51-1.27,6.42-2.48,13.3-2.49,13.37.05,1.25.06,2.54.06,3.88,0,23.51-12,35.27-15.94,39.14-13.52,13.25-24.47,21.12-66.36,35.97-29.44,10.43-44.44,25.56-49.37,30.53l-.17.17Z"/><path class="cls-1" d="m347.74,182.86c1.22,4.47,3.79,12.29,8.59,21.14.99,1.83,1.88,3.16,2.6,4.24,1.41,2.11,1.74,2.61,1.74,5.07,0,5.79-6.63,11.23-10.57,13.58-2.15-6.29-6.06-12.74-11.62-19.19-7.15-8.29-9.23-13.32-9.99-16.51,1.05.43,2.87,1.03,5,1.03,3.24,0,9.29-1.25,14.26-9.35Z"/><path class="cls-1" d="m331.37,178.12l5.27,9.14c-1.29.47-2.41.57-3.15.57-1.43,0-2.7-.44-3.34-.7-1.46-.57-2.5-2.53-1.73-4.83.48-1.43,1.35-2.66,2.95-4.18"/><path class="cls-4" d="m343.32,181.9l1.24-2.2"/><path class="cls-1" d="m17.68,182.86c-1.22,4.47-3.79,12.29-8.59,21.14-.99,1.83-1.88,3.16-2.6,4.24-1.41,2.11-1.74,2.61-1.74,5.07,0,5.79,6.63,11.23,10.57,13.58,2.15-6.29,6.06-12.74,11.62-19.19,7.15-8.29,9.23-13.32,9.99-16.51-1.05.43-2.87,1.03-5,1.03-3.24,0-9.29-1.25-14.26-9.35Z"/><path class="cls-1" d="m34.05,178.12l-5.27,9.14c1.29.47,2.41.57,3.15.57,1.43,0,2.7-.44,3.34-.7,1.46-.57,2.5-2.53,1.73-4.83-.48-1.43-1.35-2.66-2.95-4.18"/><path class="cls-4" d="m22.1,181.9l-1.24-2.2"/><path class="cls-1" d="m182.71,305.41c-3.99-3.99-19.16-20.12-49.71-30.94-41-14.53-52.5-22.32-66.54-36.08-4.99-4.89-16.09-16.62-16.09-39.49,0-1.31.02-2.57.07-3.79,0,0-1.2-6.87-2.49-13.36-1.82-9.21-8.34-19.11-18.33-19.11-3.4,0-7.37,1.15-9.45,5.86-.52,1.17-.72,2.33-.72,4.8,0,2.12.18,4.2,1.41,6.4s2.63,3.99,4.16,5.32l7.83-13.59c6.13,4.75,9.02,7.73,9.02,14.59,0,1.35-.07,2.52-.22,3.68-.83,6.32-4.24,12.56-11.39,20.85-8.44,9.78-12.66,19.25-12.55,28.16v.48c0,41.92,76.07,70.08,91.32,75.3,11.56,3.96,49.82,18.16,73.68,39.98,23.86-21.82,62.13-36.02,73.68-39.98,15.25-5.22,91.32-33.38,91.32-75.3v-.48c.11-8.91-4.11-18.38-12.55-28.16-7.15-8.29-10.56-14.52-11.39-20.85-.15-1.16-.22-2.33-.22-3.68,0-6.85,2.89-9.83,9.02-14.59l7.83,13.59c1.53-1.33,2.92-3.12,4.16-5.32s1.41-4.29,1.41-6.4c0-2.48-.2-3.63-.72-4.8-2.08-4.7-6.05-5.86-9.45-5.86-9.99,0-16.51,9.91-18.33,19.11-1.29,6.49-2.49,13.36-2.49,13.36.04,1.22.07,2.48.07,3.79,0,22.88-11.1,34.6-16.09,39.49-14.04,13.76-25.54,21.55-66.54,36.08-30.54,10.82-45.72,26.95-49.71,30.94Z"/><path class="cls-4" d="m182.71,354.47c23.86-21.82,62.13-36.02,73.68-39.98,15.25-5.22,91.32-33.38,91.32-75.3"/><path class="cls-2" d="m76.53,263.5c.32-.43.61-.82.96-1.29,1.18.7,2.32,1.38,3.46,2.04,1.67.97,3.38,1.88,5.03,2.88,2.94,1.78,3.53,4.53,1.64,7.42-1.43,2.18-3.23,3.76-6.05,3.48-.7-.07-1.38-.34-2.05-.51,1.44,2.58,1.44,5.12.1,7.7-.38.74-.76,1.48-1.06,2.25-.1.25.06.6.11.91.31-.05.68,0,.91-.16.71-.5,1.36-1.07,2.04-1.62-.06-.1-.12-.21-.19-.31.27.15.54.31.86.49-1.11,1.46-2.23,2.77-3.98,3.32-1.38.43-2.57.09-3.54-.95-.91-.99-.91-2.15-.34-3.26.62-1.21,1.33-2.39,2.14-3.48,1.03-1.38,1.32-2.9,1.11-4.53-.17-1.34-1.26-1.85-2.39-2.42-1.7,2.34-3.38,4.66-5.07,6.97-.51.7-.35,1.23.37,1.64.26.15.51.31.83.51-.31.44-.6.86-.97,1.39-2.4-1.41-4.77-2.81-7.24-4.27.35-.49.67-.93.97-1.36,2.1,1.03,2.12,1.02,3.45-.8,3.19-4.36,6.38-8.71,9.57-13.07.16-.21.31-.43.45-.66.59-.97.53-1.25-.41-1.86-.22-.14-.43-.29-.71-.47Zm-.17,10.49c2.41,2.31,4.88,2.22,6.91-.17.37-.43.72-.88,1.02-1.36,1.46-2.3,1.07-3.75-1.34-5.03-1.13-.6-1.43-.6-2.19.43-1.49,2-2.92,4.06-4.4,6.13Z"/><path class="cls-2" d="m287.62,264.51c-.3-.41-.57-.78-.88-1.22.24-.17.43-.33.65-.47,2.43-1.58,4.85-3.17,7.29-4.74,4.09-2.64,8.62-.6,9.56,4.25.31,1.6-.06,2.96-1.17,4.14-.17.18-.32.38-.67.81,2.67-.99,4.31.4,5.91,1.84.96.87,1.83,1.85,2.81,2.7.29.25.81.24,1.22.35-.02-.41.04-.84-.08-1.21-.14-.43-.43-.82-.68-1.22-.43-.69-.44-.69.38-1.19.93,1.3,1.8,2.62,1.9,4.3.08,1.32-.55,2.23-1.65,2.85-1.1.61-2.25.58-3.19-.2-1.02-.84-1.89-1.86-2.79-2.84-.76-.84-1.42-1.77-2.2-2.59-1.72-1.81-2.89-1.8-4.87.02,1.84,2.42,3.69,4.86,5.56,7.28.42.54.96.54,1.51.16.27-.19.54-.37.86-.6.33.42.63.81,1.02,1.31-2.27,1.49-4.49,2.94-6.8,4.45-.34-.44-.65-.86-.96-1.25.06-.1.08-.18.12-.21,1.38-1.07,1.44-1.22.39-2.63-3.37-4.59-6.77-9.17-10.18-13.74-1.09-1.46-1.25-1.46-3.06-.33Zm10.58,4.27c.78-.67,1.5-1.2,2.12-1.83.81-.82,1.18-1.87.65-2.92-.59-1.17-1.28-2.34-2.15-3.32-1.53-1.71-3.11-1.7-4.91-.27-.76.61-.95,1.2-.34,2.03,1.51,2.03,3,4.07,4.64,6.31Z"/><path class="cls-2" d="m127.22,284.2c-.2.53-.37.98-.54,1.42-1.8-.28-2.59.03-3.32,1.71-1.49,3.45-2.85,6.96-4.25,10.45-1.1,2.75-2.18,5.5-3.27,8.23-1.04-.12-1.46-.62-1.63-1.65-1.12-6.56-2.32-13.11-3.5-19.66-.02-.09-.07-.18-.17-.4-.18.27-.33.45-.43.66-1.62,3.47-3.23,6.94-4.84,10.42-.17.36-.32.73-.45,1.11-.76,2.1-.54,2.82,1.32,4.22-.17.46-.36.94-.59,1.55-2.19-.85-4.29-1.66-6.42-2.49.16-.96.41-1.59,1.57-1.46,1.1.12,1.8-.61,2.24-1.54,1.37-2.89,2.71-5.79,4.05-8.69.82-1.78,1.52-3.64,2.48-5.34.8-1.42.28-3.18-1.16-3.97.18-.44.36-.88.58-1.43,1.81.67,3.59,1.31,5.35,2.01.23.09.42.49.47.77.95,5.27,1.88,10.55,2.81,15.83.04.22.11.43.25.96.43-1.13.76-1.97,1.08-2.82.9-2.37,1.84-4.72,2.68-7.1.73-2.06.46-2.67-1.45-3.83.15-.43.32-.89.51-1.42,2.23.83,4.4,1.63,6.65,2.46Z"/><path class="cls-2" d="m315.98,272.7c-.44-.49-.74-.84-1.04-1.18.01-.08,0-.17.03-.2,1.17-1.25,1.19-1.31,0-2.59-3.95-4.25-7.92-8.49-11.89-12.71-1.14-1.21-1.26-1.21-2.68-.4-.3-.32-.61-.65-1.01-1.08.89-.8,1.74-1.57,2.6-2.33,1.05-.92,2.03-1.96,3.2-2.71,2.85-1.85,5.91-2,8.95-.5,4.24,2.09,7.37,5.37,9.43,9.59,1.66,3.39,1.02,6.42-1.74,8.98-1.88,1.74-3.85,3.39-5.85,5.13Zm6.13-9.02c-.43-.99-.77-2.03-1.32-2.96-.59-1-1.31-1.93-2.06-2.82-2.2-2.6-4.51-5.09-7.38-6.98-2-1.32-3.58-1.23-5.41.2-1.2.94-1.23,1.21-.16,2.36,1.86,2,3.72,4,5.59,5.99,2.23,2.38,4.46,4.77,6.73,7.12.33.34.94.69,1.34.6,1.25-.26,2.48-2.1,2.67-3.52Z"/><path class="cls-2" d="m133.86,286.71c2.06.81,1.72.27,1.85,2.48.45,7.45.82,14.91,1.26,22.36.03.53.22,1.23.59,1.52.85.67.49,1.29.18,2.14-2.74-1.22-5.43-2.41-8.1-3.59.11-1.47.2-1.57,1.47-1.21.76.21,1.04-.16,1.05-.77.01-1.47-.03-2.93-.11-4.4-.01-.22-.27-.54-.49-.63-1.95-.85-3.91-1.66-5.85-2.48-2.58,2.96-2.54,4.33.18,6.29-.15.42-.3.84-.51,1.42-2.29-.93-4.55-1.84-6.85-2.77.15-.87.26-1.45,1.34-1.67.88-.18,1.83-.9,2.38-1.65,1.9-2.57,3.66-5.25,5.44-7.9,1.88-2.79,3.73-5.61,5.59-8.41.16-.25.35-.47.56-.75Zm-7.06,13.66c1.73.73,3.38,1.43,5.21,2.21-.13-3.13-.26-6.06-.38-8.98l-.26-.06c-1.49,2.22-2.98,4.44-4.57,6.83Z"/><path class="cls-2" d="m181.63,325.77c-.25,1.3-.57,3.85-1.29,6.29-.38,1.27-1.33,2.45-2.26,3.45-1.14,1.23-2.67,1.4-4.24.78-2.48-.98-4.06-2.87-5.14-5.21-2.57-5.57-2.85-11.32-1.02-17.13.41-1.29,1.21-2.53,2.1-3.57,1.27-1.5,2.91-1.7,4.72-.9,2.04.9,3.46,2.45,4.53,4.36,1.86,3.31,2.45,6.94,2.6,11.93Zm-3.71-5.69c-.08-1.01-.11-2.38-.3-3.73-.21-1.53-.69-3-1.81-4.14-1.25-1.28-2.55-1.14-3.46.37-.32.54-.6,1.13-.73,1.74-.43,2.12-.97,4.23-1.12,6.38-.2,2.88-.17,5.79-.03,8.68.07,1.48.56,2.95,1.7,4.07,1.4,1.37,2.82,1.17,3.73-.55.23-.44.41-.91.55-1.39,1.08-3.61,1.28-7.33,1.46-11.42Z"/><path class="cls-2" d="m188.75,336.94c.26,1.05.02,1.77-.92,2.38-1.51.97-2.91,2.1-4.45,3.24-.16-.89-.25-1.63.41-2.34.92-.99,1.32-2.21,1.31-3.57-.07-5.47-.12-10.94-.2-16.41-.01-1.04-.7-1.57-1.75-1.45-.3-.92.07-1.57.77-2.17,1.13-.97,2.21-2.02,3.38-3.1,2.72,3.44,5.41,6.84,8.25,10.42.07-.4.12-.55.11-.69-.12-3.8-.24-7.6-.37-11.4,0-.23-.06-.46-.11-.69-.29-1.35-.58-1.49-1.83-.86-.11.06-.23.1-.36.15-.28-1-.09-1.71.82-2.31,1.6-1.06,3.11-2.26,4.75-3.47.2,1.06.16,1.84-.62,2.55-1.09.99-1.29,2.38-1.26,3.78.05,2.8.14,5.6.24,8.4.15,4.23.35,8.46.43,12.7,0,.48-.65.98-1.07,1.57-3.33-4.31-6.47-8.38-9.76-12.63,0,2.58-.02,4.9,0,7.22.02,2.33.09,4.67.13,7,0,.33,0,.67.05,1,.17,1.18.52,1.36,1.6.87.15-.07.3-.12.46-.18Z"/><path class="cls-2" d="m204.73,300.12c2.08,3.72,3.96,7.09,5.84,10.46,1.41,2.53,2.82,5.06,4.23,7.6.41.73.84,1.41,1.84.96.54,1.58.49,1.75-.82,2.49-2.13,1.21-4.27,2.42-6.44,3.64-.33-.96-.36-1.74.6-2.29.86-.5.9-1.25.49-2.07-.55-1.1-1.09-2.2-1.69-3.41-2.09,1.25-4.12,2.46-6.13,3.69-.15.09-.28.32-.3.49-.11,1.12-.3,2.26-.23,3.38.09,1.48.77,1.83,2.17,1.31.22-.08.43-.17.64-.26.61,1.13.5,1.58-.5,2.18-1.8,1.08-3.6,2.16-5.4,3.24-.19.11-.4.21-.64.33-.19-.95-.1-1.68.51-2.45,1.1-1.4,1.38-3.16,1.59-4.88.96-7.53,1.86-15.07,2.87-22.59.08-.59.8-1.09,1.38-1.82Zm-2.02,18.77c1.87-1.12,3.48-2.08,5.16-3.09-1.26-2.31-2.46-4.52-3.66-6.72l-.27.09c-.4,3.15-.79,6.29-1.23,9.73Z"/><path class="cls-2" d="m265.54,287.98c.23.53.42.95.61,1.4-.12.1-.21.2-.32.26-1.2.59-1.34.85-.83,2.1.97,2.37,1.98,4.73,2.98,7.09.1.24.2.49.3.74-.54.55-.93.44-1.37-.14-.51-.67-1.13-1.27-1.75-1.96-.28.89-.44,1.63-.75,2.31-1.46,3.16-5,4.21-8.32,2.32-1.36-.78-2.67-1.83-3.65-3.04-3.01-3.74-4.74-8.03-4.65-12.89.06-3.25,1.15-6.03,4.42-7.43,1.55-.66,3.1-.62,4.6.05.66-.69.06-2.09,1.51-2.3,1.27,2.83,2.54,5.65,3.8,8.46-.56.72-.93.54-1.37-.11-1.25-1.83-2.68-3.51-4.76-4.45-2.52-1.13-4.86.31-4.85,3.07,0,1.32.18,2.67.53,3.94,1.01,3.72,2.52,7.24,4.61,10.48.57.88,1.31,1.69,2.1,2.38.89.78,1.97.92,3.09.39,1.09-.52,1.52-1.45,1.57-2.59.09-2.01-.68-3.79-1.64-5.47-.18-.31-.81-.44-1.25-.47-.33-.03-.68.23-1.14.4-.2-.46-.4-.9-.65-1.46,2.37-1.01,4.71-2.01,7.19-3.07Z"/><path class="cls-2" d="m45.16,268.1c.54-.57.95-1,1.33-1.41.12.03.2.03.24.07,1.44,1.06,1.59,1.03,2.46-.51.47-.84.9-1.71,1.39-2.55.25-.43.28-.74-.11-1.12-1.23-1.18-2.41-2.4-3.65-3.57-.18-.17-.63-.27-.83-.17-.79.41-1.6.84-2.29,1.4-1.24,1-1.3,1.7-.41,3,.11.16.23.32.34.47-.41.48-.79.93-1.27,1.49-1.62-1.77-3.1-3.39-4.7-5.14.43-.36.77-.69,1.14-.95.16-.11.45-.19.59-.11,1,.54,1.97.31,2.88-.13,2.79-1.34,5.57-2.71,8.34-4.11,3.45-1.74,6.88-3.52,10.32-5.28,1.42.87,1.45,1,.69,2.45-3.1,5.94-6.2,11.88-9.29,17.82-.4.76-.93,1.55.02,2.4-.35.38-.69.74-1.16,1.24-2.02-1.78-4.01-3.52-6.05-5.32Zm10.7-13.93c-.06-.06-.11-.12-.17-.18-2.44,1.2-4.89,2.4-7.06,3.47,1.14,1.2,2.25,2.37,3.39,3.56,1.26-2.25,2.55-4.56,3.84-6.86Z"/><path class="cls-2" d="m260.41,277.62c-.24-.51-.44-.96-.69-1.49,2.61-1.16,5.16-2.29,7.78-3.46.24.5.46.96.68,1.43-1.97,1.21-1.98,1.22-1,3.28,1.85,3.91,3.7,7.83,5.6,11.72.42.86.99,1.66,1.59,2.41,1.18,1.48,2.69,1.79,4.36,1.02,1.66-.77,2.63-2.42,2.16-4.16-.44-1.66-1.06-3.29-1.76-4.86-1.22-2.74-2.55-5.42-3.85-8.13-.23-.48-.48-.96-.76-1.41-.93-1.48-1.46-1.69-3.25-1.29-.2-.41-.41-.85-.68-1.41,1.84-.85,3.67-1.69,5.53-2.55.43.77.98,1.33.08,2.21-.41.4-.49,1.5-.27,2.11.68,1.87,1.56,3.67,2.38,5.49,1.19,2.64,2.52,5.22,3.54,7.92.5,1.32.71,2.88.57,4.29-.32,3.14-2.64,4.58-5.41,5.26-2.62.64-4.74-.42-6.25-2.56-.86-1.22-1.54-2.57-2.19-3.91-1.72-3.57-3.39-7.16-5.08-10.75-.11-.24-.23-.48-.36-.71-.63-1.14-.89-1.23-2.07-.74-.18.08-.36.16-.67.3Z"/><path class="cls-2" d="m155.76,307.21c-.8-.09-.96-.48-.96-1.18,0-1.86-.02-3.73-.21-5.58-.12-1.14-.72-2.15-1.74-2.8-.86-.55-1.28-.42-1.49.58-.63,3.06-1.2,6.14-1.79,9.21-.52,2.74-1.08,5.48-1.53,8.24-.38,2.33-.2,2.4,1.41,3.23.23.12.4.53.42.83.03.42-.1.85-.18,1.4-2.1-1.06-4.17-2.1-6.24-3.15-.33-.17-.65-.33-.98-.5q-1.51-.77-1.2-2.55c.34.14.65.27.96.42,1.22.57,1.47.46,1.74-.88.48-2.38.94-4.77,1.4-7.15.69-3.59,1.39-7.19,2.05-10.79.12-.67.58-1.44-.35-1.95-1.22-.67-2.42-.71-3.11.21-.85,1.13-1.48,2.42-2.17,3.66-.17.31-.24.68-.38,1.09-.35-.15-.64-.27-.99-.42.71-2.88,1.42-5.71,2.16-8.72,2.55,1.3,5.02,2.52,7.45,3.79,2.19,1.14,4.35,2.32,6.5,3.52.25.14.57.53.54.76-.41,2.9-.87,5.79-1.33,8.72Z"/><path class="cls-2" d="m300.27,283.4c-2.23,1.26-4.37,2.46-6.54,3.69-.3-.48-.54-.87-.82-1.32.21-.17.41-.33.62-.48.65-.47.72-1.04.21-1.62-.97-1.09-1.99-2.15-3.02-3.26-1.78.98-3.5,1.92-5.3,2.9.2.86.33,1.72.6,2.53.67,2.03,1.28,2.33,3.45,1.8.14.2.29.41.43.64.12.19.22.4.38.7-1.9.98-3.76,1.93-5.69,2.93-.25-.45-.48-.87-.72-1.29,1.34-1.79.81-3.73.43-5.6-1.19-5.87-2.45-11.72-3.73-17.57-.14-.62-.01-.88.51-1.17.56-.32.91-.27,1.38.2,4.67,4.67,9.37,9.32,14.07,13.96.76.75,1.37,1.71,2.68,1.74.34,0,.66.75,1.06,1.24Zm-11.09-4.4c-2-1.99-3.95-3.91-5.99-5.94.62,2.76,1.21,5.42,1.84,8.22,1.47-.81,2.8-1.54,4.15-2.28Z"/><path class="cls-2" d="m229.87,304.37c.67,3.05,1.33,6.1,2.02,9.22-4.62,2.26-9.24,4.53-13.86,6.8-.62-1.42-.6-1.56.59-2.11.85-.39,1.1-1,.95-1.86-.57-3.28-1.12-6.56-1.7-9.84-.5-2.85-1.02-5.7-1.55-8.55-.35-1.88-.52-1.96-2.25-1.21-.66-1.12-.58-1.52.49-2.08,2.15-1.13,4.32-2.23,6.49-3.33.17-.09.37-.12.57-.19.07.36.23.7.17,1.01-.07.35-.24.82-.51.98-1.5.89-1.67,1.12-1.36,2.89.82,4.62,1.67,9.24,2.51,13.86.28,1.54.58,3.07.86,4.61.16.88.64.96,1.38.69,2.89-1.07,4.54-3.62,4.38-6.8-.05-1.07-.11-2.14-.08-3.2,0-.34.3-.68.46-1.01.15.04.31.09.46.13Z"/><path class="cls-2" d="m163.6,329.16c-2.52-1.46-4.94-2.8-7.27-4.28-.37-.23-.31-1.14-.5-1.96.48.24.69.32.88.44,1.2.72,1.47.63,1.65-.76.45-3.43.84-6.87,1.26-10.31.31-2.51.61-5.02.94-7.53.19-1.47.31-2.83-1.35-3.7-.38-.2-.36-1.15-.52-1.76.1-.05.2-.1.31-.16,1.73,1.1,3.46,2.21,5.19,3.31.37.23.73.47,1.1.7q1.31.83.99,2.46c-.25-.13-.48-.24-.7-.37-1.08-.64-1.4-.51-1.56.72-.36,2.84-.69,5.68-1.02,8.53-.37,3.14-.67,6.29-1.11,9.43-.19,1.36.06,2.35,1.34,2.99,1.06.53.38,1.37.38,2.26Z"/><path class="cls-2" d="m61.25,278.28c-.34.48-.64.9-1.01,1.42-2.23-1.57-4.42-3.11-6.67-4.7.37-.48.67-.87.96-1.24.09,0,.17,0,.22.03,1.63,1.17,1.65,1.18,2.94-.4,3.5-4.28,6.99-8.58,10.47-12.88,1.17-1.44,1.16-1.45-.54-3.04.32-.36.64-.73,1.06-1.2,2.17,1.56,4.31,3.12,6.55,4.73-.35.42-.65.79-.94,1.14-.13-.04-.2-.04-.25-.07-1.66-1.06-1.79-1.04-3.01.47-3.41,4.23-6.81,8.47-10.21,12.71-1.33,1.65-1.31,1.69.43,3.03Z"/><polygon class="cls-1" points="94.11 81.02 103 63.81 86.77 66.62 89.5 61.12 115.09 46.02 140.71 11.1 141.25 11.35 122.55 50.19 121.13 79.52 117.67 84.9 112.59 69.52 101.63 85.15 103.84 95.6 96.96 105.35 92.71 91.06 78.59 94.35 83.59 83.9 94.11 81.02"/><polygon class="cls-1" points="243.32 141.83 252.22 124.63 235.99 127.44 238.72 121.94 264.3 106.83 289.93 71.92 290.47 72.17 271.76 111 270.34 140.33 266.89 145.71 261.8 130.33 250.84 145.96 253.05 156.42 246.18 166.17 241.93 151.88 227.8 155.17 232.8 144.71 243.32 141.83"/><polygon class="cls-1" points="177.02 124.49 233.88 54.39 235.08 55.37 235.83 54.45 233.71 52.71 175.88 123.15 177.02 124.49"/><polygon class="cls-1" points="213.62 151.91 212.55 147.06 209.43 146.42 209.55 149.92 206.65 151.08 206.65 152.46 210.32 150.98 213.62 151.91"/><rect class="cls-1" x="166.42" y="243.05" width="36.61" height="6.44"/><polygon class="cls-1" points="132.9 255.5 132.9 254.46 165 243.27 165 245 132.9 255.5"/><polygon class="cls-1" points="204.19 242.75 204.19 244.83 235.36 254.65 235.36 253.44 204.19 242.75"/><path class="cls-1" d="m195.38,239.29c0-1.1,1.17-1.15,1.75-1.46s1.85-.98,4.4-.98,9.23,3.31,9.23,3.92c0,.23-.04.48-3.06.48-9.18,0-12.31-.79-12.31-1.96Z"/><path class="cls-1" d="m188.23,240.21c-.44,0-.69-.21-.69-.54s.42-.96.69-1.21.75-1,.77-1.4.06-.73.38-.98,1.29-1.38,1.56-1.58.73-1.1.48-1.31-3.02,1.65-3.19,2.19.06,1.71-.6,2.15-.83,1.29-1.56,1.29-2.29-.75-2.29-2.12.38-2.22.54-3,1.17-.42,1.77-1.17,2.08-.42,2.44-.92.69-.56.35-.9-.94-.1-1.02.1-1.1,0-1.54.52-.83.56-1.33.56-.85-.54-.81-.77-.42-.46-.79-.27.46,1.35.46,1.9-.38.92-.42,1.6-.38,1.29-.38,2.06c0,3.06,1.99,2.4,1.99,3.44,0,.31-.42.35-1.06.35s-1.08-.33-1.5-.42-1.1-1.54-1.5-1.54-.65,1.23-1.19,1.23-1.02-.52-1.02-1.12.4-.98.71-1.6.58-1.04,1.02-1.04.82.32,1.06.08.02-1.31.33-1.46.62-.81.4-1.04-2.65.04-2.65-1.1.5-1.23.5-2.02-.56-.88-.56-1.4.9-.81,1.21-1.15,1.29-.73,1.69-.73c.58,0,2.42-2.23,2.42-3.44s-.87-.52-1.04.17-.31,1.52-.92,1.65-.69.96-1.29.96-1.81-1.19-1.81-2.15.96-1.33.94-1.85-.4-.67.1-1.21-.31-1.26-.31-1.75.67-.83.67-1.41-.42-.44-.42-.79.48-1.35,1.02-1.35,1.06.02,1.06.5-.38,1-.38,1.67.85.54.85,1.17-.22.9-.32,1.44-.51.77-.56,1.23c-.15,1.31-.83,1.25-.83,1.92s.27,1.12.77.25.92-2.12,1.83-2.12,3.69-.02,3.94-.4.92-1.15.62-1.38-.83,0-1.33,0-1.29-.27-1.94.19-1.38.27-1.38-.46,1.49-1.59.95-2.12-.83.27-1.04-.77-.9-.58-.9-1.25.25-1.77,5.12-1.77c3.18,0,2.68,1.08,3.18.58s.12-.9.59-1.35.58-.79.58-1.27-.35-.69,0-1.28.6-1.26.6-2.94c0-2.08.66-2.99.28-3.36s-2.74,1.8-2.15,2.39c.31.31.54-.12.79.12s-.07,1.53-.26,2.94-.14,2.25-.92,2.67-3.14.85-5.32.85-2.76-.43-2.88-.32-1.29,2.01-2.07,1.24c-.37-.37.07-1.38.07-1.97s-.44-1.46-.01-1.89,1.1.07,1.76-.54,2.11-.56,2.51-.76,1.63-.51,2.31-.51,1.94-.01,1.94-.5-.51-.62-.89-.56-2.07.65-2.96.65-2.24-.56-2.24-1.1,1.11-.88,2.07-.89,2.07-.68,2.94-.76,1.24-.15,1.24-.51-1.11-.53-2.18-.65-2.92-.24-2.92-.79.57-.75,1.17-.75,2.76.67,4.49.67c2.83,0,4.44-.5,4.44-1.15s-.69-.4-.94,0-1.04.43-1.44.12-.83-.64-2.44-.72-1.89-.15-2.21-.28-.75-.43-1.85-.43c-1.44,0-1.79-.96-2.36-.39-.4.4.18,1.15.18,2.86,0,2.45,0,2.45-.53,2.99-.89.89-.05,1.51-.47,1.93s-1.53-1.49-1.53-3c0-.79.29-1.26.29-1.72s-.17-.54-.17-.94.33-.87.51-1.06.36-.47.36-.85-.18-.76-.58-1.04-.75-.53-.75-.83.43-.75,1.38-.78,1.38-.29,1.76,0,.79.43,1.35.43.96-.18,1.78-.18,1.03.38,2.21.39c1.83,0,1.44.6,2.86.75s2.72.52,3.14.1-.1-.93-.47-1.07-.72-.61-.72-1.17.26-1.03.28-1.53.29-1,.58-1.21.47-.58.19-.85-.72.21-1.14-.36-1.44-.74-1.75-.43.97.92.97,1.57-.4.44-.4.79.29.36.29.97-.5.79-1.08.79-.69-.18-1.61-.18-.96.18-1.71.18-1.24-.51-1.83-.51c-1.12,0-.13,1.1-1.43,1.1s-.68-.6-1-.92-2.18.46-2.18-.53.69-1,1.08-1.47.51-.88,1.53-.88.88.22,1.78.35,1.53.11,2.14.61,1.22.72,1.78.72.94-.39.94-.75-.33-.75-.47-1.22.1-1-1.68-1.15-2.62-.38-3.75-.51-2.34-.22-2.34-.78.78-.9,1.67-.9,3.15.56,4.15.65,2.89.53,3.47.51.92-.58-.26-.68-4.49-.85-6.06-1.01-2.86-.66-2.86-1.12,1-.47,1.75-.32,1.51-.08,3.44.62,3.17.67,4.08,1,2.83.15,2.83,1.28c0,.73-.42,1.18.29,1.18s.51-.22.51-.65.36-.72.53-1.08.52-.95.82-.65.19,1.65-.11,2.35-1.03,1.67-1.26,2.58-.42,1.78,0,2.25.46.88.46,1.19-.28.58-.28,1.22.44.89.44,1.24c0,.76-1.06,1.06-1.17,3.47s.1,2.49-.58,3.85.25,1.96-1.03,5.14c-.82,1.92-1.08,2.03-1.08,3s.64.57.64,1.25-1.46,3.08-1.99,3.08-1.81-.12-1.81.92,1.71.21,1.83-.01.97-1.38.97,1.39.07,4.51-.67,5.15-2.39.65-2.39,1.32,1.67.12,1.78-.04,1.47-.58,2,.14.68,1.4.12,2.21-.58,1.53.92,1.53,1.39.17,2.19.88,1.75,1.12,2.38,1.14,2.06.47,2.06,1.03-1.43.32-2.62.65-2.87.18-3.33.83-2.22,1.01-3.18,1.28c-2.61.74-1.43,1.42-3.48,1.42Z"/><path class="cls-1" d="m144.61,217.94s-4.54.65-4.6.67,0,3.62,0,3.62l-14.02,4.12,4.94,9.85c1.58-.5,1.94-4.27,5.23-6.33s3.19-.42,5.42-2.33,1.94-8.25,3.04-9.6Z"/><path class="cls-1" d="m202.13,195.92c.33,4.65,0,4.25,0,7.26s-.97,3.76-1.93,3.76-1.33-.58-1.33-1.31.74-3.01.89-4.44.74-3.01,1.25-3.62.79-1.4,1.12-1.65Z"/><path class="cls-1" d="m210.3,182.56c-.46,0-2.04-1.33-2.04-1.79s2.69-3.9,7.27-5.62c4.58-1.73,11.18-1.64,11.4-1.42s.11,1.09-.12,1.33-6.32.25-10.62,2.62c-5.06,2.79-5.25,4.88-5.88,4.88Z"/><path class="cls-1" d="m206.07,192.4c-.98,2.6-2.04,3.63-2.04,7.46s2.9,4.33,4.35,4.33,3.52-1.4,3.52-2.92-1.21-3.19-1.42-4.69-1.37-5.5-2.29-4.58.44,8.81-.54,8.81c-1.79,0,.25-6.71-1.58-8.42Z"/><path class="cls-1" d="m202.89,182.61c.61-.5,1.82-.08,2.33,1.52s.66,3.39,1,4.15.61,2.08.38,2.54-.59.65-.7-.05-1.34-2.86-2.01-4.31-1.43-3.49-1-3.84Z"/><path class="cls-1" d="m199.63,179.27c.51,0,.4.58.53.75s.31.15.31.69-.24.92-.24,1.64.24,1.18.24,1.72c0,.68-1.24.82-1.24,1.83s.47,1.96-.5,2.43-1.53,1-2.96,1-1.69-.18-1.69-.4,1.11-.81,1.32-1.24.69-.84,1.07-.88,1.24-.16,1.38-.41.36-1.71.36-2.1-.31-1.05.03-1.56.9-.9.9-1.33-.18-1.28-.18-1.49.33-.64.68-.64Z"/><path class="cls-1" d="m199.17,175.66c.42.42-.56,3.4-1.53,3.74s-4.26-.22-4.26.44,3.95.19,4.36.6-.17,1.68-1.24,1.98-2.94-.03-5.86,1.27-2.82,2.28-5.22,2.28-1.86-.68-.99-.97,1.25-.88,2.22-1.19,2.07-.96,2.07-1.38c0-.75-4.14-.66-4.14-2.5s2.06-2.88,3.15-3.2,4.35-.78,4.35-1.21-.81-.36-.81-.94,7.42-5.75,8.22-4.94-.36,2.54-1.04,2.94-3.03,2.38-3.17,3.17-.36,1.06-1.22,1.06-1.94.54-2.17.78-1.69.6-2.08.6-2.42.51-2.42,1.11.07.89,1.71.89,2.89-.11,2.89-.41-.56-.51.47-1.19,2.36-.72,3.28-1.42,3.06-1.83,3.42-1.47Z"/><path class="cls-1" d="m189.63,185.5c0-.48-.08-1,3.83-1,1.08,0,1.21.04,1.21.65s-.1.92-2.29.92-2.75-.06-2.75-.56Z"/><path class="cls-1" d="m186.42,186.82c.44-.54,1.29-.3,3.85-.2s4.15-.04,4.15.35-.25.81-2.27.62-3.81.02-4.69-.23-1.23-.32-1.04-.55Z"/><path class="cls-1" d="m186.75,163.99c-.78-3.5,2-4.72,5.56-7.56s3.11-3.98,3.11-3.98c-2.28,1.4-2.39,3.01-4.97,4.53s-3.47,1.94-3.47.47,1.14-2.92,1.14-4.39-.03-1.75.75-2.69.94-1.47.47-2.14-1.11-.56-.14-2.11,4.67-4.81,6.24-5.42,2.7-2.06,2.4-2.28-1.44,1.08-2.97,1.61-3.58,1.83-4.03,1.39.81-2.36,3.78-4.67,4.03-3.69,5.33-6.64,1.67-2.53,2.72-1.78,1.42,2.39-.28,5.72-3.75,5.78-5.28,8.03-3.33,2.64-3.08,3.08,2.19-.25,4.64-3.11,3.97-4.92,4.33-4.92,1.17.75-.14,3.11-4.17,5.65-5.19,6.15-3.28,2.16-2.92,2.52,3.14-1.25,4.81-3.17,2.81-3.67,3.42-2.72c.86,1.33-2.14,2.83-1.78,3.19s1.61-.53,2.06-.11.06,1.61.06,2.25.27,2.78.27,4.86-.36,2.19-.8,4.08-.67,2.97-1.72,2.97-1.94-.47-3.17-.47-3.31.78-4.67,1.69-2.28,1.22-3.42,1.39-2,.47-3.06,1.08Z"/><path class="cls-1" d="m139.59,191.97c5.31-9.78,5-13.33,8.11-19.03s7.03-14.44,6.58-14.83-3.33,2.44-8.5,11.61-10.84,16.68-10.84,16.68v1.67c2.29.17,1.71.94,2.71,1.88s1.83,1.35,1.94,2.03Z"/><path class="cls-1" d="m169.7,146.85c.89,0,1.67.17,2.81.89s3.25.64,3.75,1.61.94,1.94.58,4.36-.47,3.28-.56,4.26c-.69,1.07-1.78,1.1-1.78,3.43s-.31,2.92-.69,3.44-.72,2-.72,3.92.08,2.42-.75,2.42-.97-1-1.06-2.56-.27-2.17-.27-2.17c-.7.69-.06,4.22-.87,5.19s-.28,1.67-.28,3.22c0,.97-.61,1-.61,1.69s.61,2.19-.14,2.69-1.17.47-1.69-.75-1.67-.67-1.67-.22,1.44,1.22,1.44,3.58c0,.53-.06,1.08-.83,1.08s-1.86-.33-2.89-1.11-1.22-1-2.47-1.14-2.64-.35-2.64-.8c0-1.01,4.64-.2,4.64-.98,0-1.33-4.53-1.78-4.22-2.97s3.81.47,4.61.25.75-.58,1.39-.47,1.31-.08.58-.97-2.75-2.25-4.03-2.75-1.75-.97-1.19-1.47,3.92,1.53,4.81,1.61c-.25-2.63-4.56-2.78-4.56-4.14s3-.69,3.75.17,2.33,2.75,2.56,2.5.06-2.42-1.39-3.44-1.92-1.94-1.56-2.33,2.47.44,2.47-.44-3.54-.68-4.42-1.56c-.39-.39-.19-2.39-.19-3.22s.25-2.86,1-3.69,1.33-3.22,1.75-4.58,2.39-4.56,5.33-4.56Z"/><path class="cls-1" d="m135.56,243.58c.58-.58,4.56.31,4.56,1.67,0,1.03-1.89-.31-2.61.42-1.24,1.24,1.81,2.44,1,3.25s-2.19-.25-2.78-1.17-.6-3.74-.17-4.17Z"/><path class="cls-1" d="m137.23,239.63c0-1.89,2.83-1.42,3.94-2.25s.78-1.86,1.83-1.86,3.17,1.47,4.19,1.75,2.47,1.17,2.47,1.39-.81.97-1.42.97-2.19-1.36-2.61-.89.36,1.92,1.94,2.08,3.03.86,3.03,1.25-1.14,1.83-3.86,1.83-3.86-.75-6.11-1.42-3.42-1.83-3.42-2.86Z"/><path class="cls-1" d="m146.28,216.44c0-.61.72-.67,1.39-.78s2.22-.39,2.22.14-.67.94-.22,1.19,1.67.61,2.58.42,2.75-.36,2.75.53-2.08.97-3.64.97-2.03-.25-2.89-.97-1.31-.76-1.56-.74-.64-.5-.64-.76Z"/><path class="cls-1" d="m144.81,226.38c0-.72.67-1.01,1.33-1.01s1.25.28,2.28.5,2.78.81,2.78,1.67c0,.36-.61.67-1.42.67s-1.78-.44-2.25-.83c-1.31-1.08-1-.31-1.81-.31s-.92-.4-.92-.69Z"/><path class="cls-1" d="m143.45,228.55c.74-1.11,1.97-.33,2.58-.33s1.19-.06,1.61.33,1.72-.03,1.92.31-.39.94-1.56.94-1.9-.35-2.25,0,1,.83,2.11.83c2.06,0,3.35-1.65,3.81-1.19s-.5,2.81-3.33,2.81-3.22-.69-3.53-1.47-1.97-1.31-1.36-2.22Z"/><path class="cls-1" d="m141.42,247.4c-.51-.51-.21-1.25.29-1.6s.4-1.35.96-1.5,1.23.19,2.98.19,3.96-.21,3.96.42-2.48.79-3.77,1.29-3.93,1.7-4.42,1.21Z"/><path class="cls-1" d="m144.61,233.27c.66-.74,1.19.08,1.81.29s1.5.73,1.5,1.04-1.13.67-1.64.67-.92-.5-1.17-.85-1-.58-.5-1.15Z"/><path class="cls-1" d="m144.13,231.27c.61.75-1.46,1.46-1.69,1.12s1.04-1.92,1.69-1.12Z"/><path class="cls-1" d="m148.84,206.94c1.89,0,1.16,1.84,4.11,2.56,1.72.42,2.64-.56,3.92-.56s1.33.42.64,1.03-2.51.35-2.78.61,1.97,1.42,1.5,1.89-2.53-.36-3.22-1-1.72-1.19-2.22-.92-1.78.08-2.33-.36-.97-.97-.39-1.44-.03-1.81.78-1.81Z"/><path class="cls-1" d="m149.31,202.1c.68-.68,1.64.72,2.81,1.5,2,1.33,2.56.94,2.89,1.28s-.42,1-.89,1-1.53-.67-1.92-.42-.28.86-1.06.86-2.33-.86-2.33-1.78.28-1.19.36-1.61-.17-.53.14-.83Z"/><path class="cls-1" d="m152.92,193.65c.44-.73,2.85,1.23,3.29.56s-1.46-.77-1.65-1.27-1.04-.62-.79-1.15,1.94-.08,2.5.42,1.52,1.65,3.39,2.04,3.44,1.45,2.92,2.35c-.17.29-2.08-.29-2.38,0s-.38,1.15-.92,1.15-1.4-.27-2.73-1.29-2.54-1.33-3.06-1.6-.83-.79-.58-1.21Z"/><path class="cls-1" d="m154.8,189.21c0-1.69,1.4-2.62,1.4-3.38s-.44-1.04,0-1.83.67-1.04.67-1.56.43-1.08,1.51-1.08,1.14.33,2.16.35,2.16.6,2.16,1.62-.83,1.25-.31,1.95,1.37.7,1.96.61,1.67-.02,1.67.44-1.04,1-2.27,1-1.83-.77-2.44-.77-.63.54-.15.5.96.66,1.65.91,2.23,1.34,1.56,2-1.31-.33-1.92-.5-1.21-.19-1.35.04-.79.38-1.06.12-1.19-.85-1.4-.67-.17,1.12.58,1.23,1.29,2.54.94,2.9-1.6-.48-2-.88-.97-.97-1.69-1.17c-1.5-.42-1.67-.31-1.67-1.85Z"/><path class="cls-1" d="m156.48,153.6c.32-.58,2.72.31,3.08.58s.44.81.75,1.14.39,1.11.17,1.58-.61.58-.61,1.07-.49,1.12-.88,1.35-1.06.64-1.76.39-.69-1.08-1.25-1.5-.67-1.08-.31-1.42.56-.28,1.11-.03,1.31.83,1.58.61-.19-.83-.64-1.08-.73-.56-.67-.94c.14-.83-.94-1.08-.58-1.75Z"/><path class="cls-1" d="m163,140.69c0-.69,1.14-2.31,2-3.53s1.64-2.64,2.08-2.64,1.56.5,1.56,1.89-1,3.11-2.03,4.28-1.19,1.75-1.83,1.75-1.78-1.27-1.78-1.75Z"/><path class="cls-1" d="m162.34,122.58c.25-.3,3-.14,3.49.72s1.74,1.92,1.74,2.53-.17.58-1.08.58-1.31.11-1.72-.92-1.44-1.42-1.75-1.83-.94-.75-.67-1.08Z"/><path class="cls-1" d="m165.45,127.6c.29-.29,1.44,0,2.11,0s1.06-.45,1.69.2,4.36,2.82,4.36,4.32c0,.94-.17,1.39-.72,1.39s-.94-1.17-1.69-1.58-2.58-1.64-2.86-1.58-.08,2.22-1.42,2.22-.78-3.08-1.1-3.64-.68-1.03-.38-1.33Z"/><path class="cls-1" d="m168.84,131.88c.33-.33,1.28.47,1.83,1.03s1.49,1.62,1,2.11-1.11.08-1.86-.5-1.14-1.03-1.17-1.69-.08-.67.19-.94Z"/><path class="cls-1" d="m177.64,127.45c.38-.28.53.31.89.36s.56.96.56,1.35-.11,1.11-.89,1.11-1-1.06-1-1.61.17-1,.44-1.21Z"/><path class="cls-1" d="m143.84,103.06c0-.73,1.23-.98,5.75-.98s7.29,4.15,8.9,7.46,3.79,7.25,7.85,9.65,4.44,3.31,5.04,3.25,1.73-.25,2.38.75,3.27,2.14,3.27,3.4-.08,1.52-.77,1.52-1.42-.71-2.64-1.9-1.67-1.9-2.05-1.54,1.6,1.75,2.85,3.54,1.27,1.98.96,2.38-1.83-.06-2.6-1.21-1.75-2.29-2.27-2.44-1.69-.38-1.77-1.06-.88-2.87-3.4-4.23-6.54-3.58-12.12-8.21-6-7.71-5.62-8.08,1.54-.17,1.4-1.1-5.15.88-5.15-1.19Z"/><path class="cls-1" d="m158.96,98.23c1.12,0,1.67.42,2.17,1.88s2.92,5.49,3.5,8.17c.33,1.54,1.54,2.71,1.54,4.67s-.62,1.83-1.67,1.83-2.13-1.17-2.67-2.38-3.38-6.21-4-6.83-1.33-1.75-.58-2.46,1.08-1.75,1.08-2.25-.21-.96-.21-1.46.22-1.17.83-1.17Z"/><path class="cls-1" d="m158.8,95.23c-.38,0-.88-1.75-.88-6.12s.79-5.12,1.17-6.75.83-3.88,1.12-3.88.08,2.21.75,2.21.86-5.51.78-6.11.9-1.83.9-2.68-.34-2.59,0-2.93.47-.07.69-.22-.12-1.21.07-1.53.49-1.18.08-1.46-.79,1.14-1.31,1.46-1.21.35-1.38.89.17,2.13.17,2.93-.28,2.22-.28,2.61-.15.69-.44.69-.92-.82-1.26-.47-.24,4.9-.61,6.19-.88,2.48-.88,3.77.26,3.36-1,4.62c-1.06,1.06-2.79.25-3.81.85s-1.54.27-1.54.98.48,1.08,1.15.58.94-.73,1.4-.73.71.08.71.27c0,.52-.44.77-.44,1.25s.4.92,1,.85,1.12.12,1.33.48.75.6.75.96.27.71-1,.35-3.71-1.17-4.4-1.17-1.42.33-1.42.62.9.44,1.56.44,2.5.88,3.5.83,1.35.04,1.35.65.08.71-1.17.71-2.81-.85-3.56-.85-1.69-.04-1.69.27.71.62,1.56.58,2,.08,2.25.42,2.17.17,2.17.94-.25,1.02-1.1,1.02-2.23-1.08-3.35-1.17-3.24-.49-3.48-.25-.44,1.02-.92,1.02-1.6-1.25-2.5-1.25-2.02.79-2.29,1.1-1.23,1.25-2,1.25-.69-1.08-.21-1.38,1.33-1.12,1.79-1.25.79-.25.79-.6-.67-.77-1.17-.79-1-.33-.62-.62,2-.63,2.85-.15,4.81,1.19,4.81-.27c0-.9-3.96-.67-6.15-.67s-1.15-1.75.73-1.46,3.35.15,4.1.1,2.1-.02,2.48-.71c-1.12-.98-4.12-.06-4.73-.67s.42-2.29,1.33-2.81.75-1.35.38-1.58-.65-1.25,0-1.96,1.54-3.46,1.48-4.96-.17-2.33.92-3.42,1.65-5.06,3.1-6.94,3.77-4.29,4.25-5.17,1.65-2.12,3.73-2.4,5.58-1.35,5.58-.33-2.35.23-2.35,1.23,1.4-.04,2.54,1.88,1.02,4.9.21,6.21-.75,1.65-.75,3.21c0,.56-.04,1.1-.44,1.1s-.92-.56-1.06-1.25-.06-1.4-.75-.48-.06.62-.06,4.81c0,6.54-2.56,17.06-4.56,17.06Z"/><path class="cls-1" d="m145.09,106.5c.69-.67,2.33,2.27,3.12,3.06s2.17,2.38,1.58,3.25-1.17-1.25-2.54-2.17-2.83-3.5-2.17-4.15Z"/><path class="cls-1" d="m207.88,140.9c.96,0,1.21-2.29,1.21-3.38s-.67-5.08-.6-5.92.1-1.96-.6-2.42-.79-3.38-.5-3.79.71-1.08.33-2.21-.54-5.17-1.06-6.29,0-4.92,0-6.08-.4-3.42-1.19-3.42-.12,6.33-.83,6.33-.5-7.25-.5-10.5-.42-4.79-1.33-4.79-.96,2.42-.58,3.21c.71,1.42.42,6.67.42,11.12s.37,10.21.95,10.62.96,1.33.63,2.42.38,2.21.79,4.46,1,4.04,1.04,6.12.5,4.5,1.83,4.5Z"/><path class="cls-1" d="m167.82,65.21c.3-.3,1.75.85,1.75,4.17,0,2.19-.12,2.52-.88,2.52-1.46,0-.88-1.53-.88-3.37s-.26-3.06,0-3.32Z"/><path class="cls-1" d="m168.11,62.08c.54-.54,2.93.61,3.46,1.04,1.38,1.12,2.83.56,3.35,1.15s1.58.77,2.23.25,1.79-1.38,2.23-.96.33,1.74,2.19,1.6,2.27.86,2.62,1.69,2.4,2.1,4.08,2.75,4.19,2.02,4.19,5.92c0,1.85-.17,2.58,0,2.75s1.07-1.01,1.54-.54.04,1.15.42,2.33.44,2.23.44,3.31-.29,2.65-.81,3.25c-1.54-1.56-1.73-5.02-2.35-5.54-.33,3.33.19,6.98-.15,8.1-2.67-.59-5.56-8.9-8.71-12s-7.27-6.12-7.81-7.17c-.12,1.17.77,1.75,2.6,3.98s5.27,6.42,5.81,7.4c-.1,2.25-.02,1.73.77,3.19s1.67,3.31,1.9,4.02,1.71,2.44,1.44,2.84-2.5-.96-3.4-2.08-1.75-3.27-2.67-3.81-1.98-2.04-2.6-3.35-3.27-4.08-3.52-3.9-.31,1.02,2.12,5.79,6.94,8.88,10.42,10.04c-1.71,3.52-2.27,2.73-3.23,4.1s-2.67,1.75-3.29,3.19c-1.73-.33-3-3.1-4.6-7.77s-3.15-9.54-4.15-10.58c-.75,3.5.54,4.25,1.54,8.42s2.58,9.87,4.67,12.46c-3.88,5.54-3.58,4.38-5.58,7.21s-3.69,4.67-3.69,4.67c-1.94-2.21-1.44-6.92-.35-7.75s2,.42,2-.75c0-.83-1.32-.54-2.58-3.08s-1.13-2.92.29-2.92,6.12-.17,6.12-.17c-7.5-3.29-7.67-1.92-7.67-4.04s-.46-9.83-.1-10.96,1.48-1.83,2.08-8.58,1.25-6.35,1.25-9.31c0-3.58-1.79-4.65-2.35-5.25-.31-.31-.43-.64-.15-.92Z"/><path class="cls-1" d="m197.11,117.97c.97.97-2.33,7.95-2.44,8.45s.14.8.43.77c0-1.28.9-2.42,1.68-4.44s1.86-3.19,2.75-2.58-.81,2.08-1.58,4.33-1.69,3.39-.97,3.67c.47-.71,1.61-2.39,1.86-3.42s1.5-3,1.5-3c.47,1.28,1.17,1.53,1.17,2.75s-2.31,5.36-4.42,8.39-4.82,5.46-5.64,4.64-.5-4.25,0-5.03.81-4.01,1.28-5.12.47-3.22,1.08-4.94.6-2.36,1.05-3,1.88-1.85,2.26-1.47Z"/><path class="cls-1" d="m200.89,118.22c-.36,0-.53-.86-1.22-1.03s-.97-.56-.97-1,.72-.38,1.1-.38,1.51.62,1.51,1.35-.31.64-.42,1.06Z"/><path class="cls-1" d="m198.81,108.1c2.22,0,.81,1.67,1.19,2.19s1.83,1.53,1.83,2.67-.19,1.44-2.17,1.44-3.64-.19-4-.56.42-.99-.81-.53c-.52.19.06.83-.27,1.61s-1.25,1.81-.83,1.89.49-.78,1.1-1.01,1.87-.07,1.87.24-.83.78-1.5,1.28-1.72.39-2,.72-1.58,7.02-2.89,10.77-3.86,7-4.69,7-.89-1.25-2.08-1.61-4.33,1-4.33-1.58c0-1.03,1.17-1.61,1.17-2.64s-.36-1.49-.36-2.2,1.33-3.52,2.11-4.41,6-6.92,7.22-9,4.85-6.86,5.49-6.86h.65c.36,0,.08,1.5.08,2.83s.22.89,1.11.64,1.56-.17,1.56-.94-.44-.81-.44-1.14.44-.81,1-.81Z"/><path class="cls-1" d="m168.98,119.44c-.72-.72-.06-1.06,1.03-2.31s4.06-5.72,7.58-9.22,5.97-6.94,9.36-9.89,5.17-6.22,5.39-7,1.03-1.9,1.47-2.42,2.67-4.61,2.67-11.36c0-4.06-.53-4.08-.53-4.69s.64-.86,1.33-.86.75.21.75.21c.89,3.99,1.17,5.35,1.17,7.38s-.64,5.36-2.42,9.08-2.67,3.72-3.39,5.5-4.89,4.67-6.28,7.06-6.47,6.96-8.08,8.8-.72,1.73-2.86,3.5-3.75,4.72-4.75,5.31-1.97,1.39-2.44.92Z"/><path class="cls-1" d="m198.86,71.38c1.68,1.59,2.71,1.6,3.08,4.64s.98,8.14,1.12,10.28-.69,3.35-1.65,4.4-1.75,2.25-2.42,1.58,0-2.56-.35-3.85-.25-1.81.31-3,1.08-3.31,1.08-5.92c0-4.02-1.19-8.12-1.19-8.12Z"/><path class="cls-1" d="m190.92,64.56c.81-.81,1.13,1,2.52,2.19s2.88,2.33,2.88,3.1-2.25,3.35-2.94,3.35-1.15-1.77-1.15-3.27-.73-2.73-1.06-3.31-.7-1.61-.25-2.06Z"/><path class="cls-1" d="m194.69,73.71c.6,0,1.04,2.1,1.04,3.94s.19,2.73-.21,2.73-.54-1.75-.83-2.19-.4-1.25-.4-1.85-.15-.96-.15-1.5.13-1.12.54-1.12Z"/><path class="cls-1" d="m194.53,93.63c.06,1,.92,1.78.92,2.94,0,1.47-2.36,5.39-3.03,4.72s-.39-1.92-.83-3.14-.06-1.75.36-1.92,1.44-1.64,2.58-2.61Z"/><path class="cls-1" d="m190.34,98.44c.75,0,1.11,3.44.86,3.89s-.97.56-.86,1.11.08,1.08-.47,1.61-.72,1.17-1.03.69-.31-1.5-.36-1.86,1.08-1.78.78-2.11-1.5.92-1.64,1.42-.83,1.97-1.17,2.97-.67,3.11-3.92,6.64-9.2,9.12-10.94,7.97c-.97-.64,1.86-3.17,3.31-4.96s4.94-5.9,6.44-7.23,4.44-4.44,5.29-6.11,1.94-2.25,2.41-2.25.72.33.72-.5.11-1.28.58-1.28Z"/><path class="cls-1" d="m172.86,55.1c1.64,0,13.22,7.75,13.22,8.69,0,.5.03.44-1.56.44h-3.81c0-2.08-.25-2.83-1.06-2.83s-3,2.03-3.79,2.03-2.57-2.25-3.76-2.56-1.83.11-2.42-.31-2.17-.11-2.17-1.33,1.58-2.5,2.56-2.72,1.97-1.42,2.78-1.42Z"/><path class="cls-1" d="m175.17,51.83c-.26-2.24.14-2.47,1.03-2.97s1.03-.75,1.36-.72,1.11.89,1.64.94,1.14.69,1.53,1.69,1.33,2.69,1.86,3.03.75,1.11,1.03,1.83.83,1.31.83,1.67-.39,1.17-.39,1.5-.17.47-.61.42-2-.72-3.25-1.72-3.94-1.72-4.47-2.64-.39-1.61-.56-3.03Z"/><path class="cls-1" d="m178.29,44.35c2.45,3.09,1.98,3.96,3.13,5.06s1.06.7,1.66,1.36,2.3,1.28,5.45,1.28c3.77,0,3.96-.43,3.96-2.09,0-1.21-1.21-1.12-2.3-1.05-.03-.49.62-.45,1.26-.54s1.04-.27,1.04-.78-.11-.88-1.15-.81-2.84.54-3.11.54-.41-.51-.27-.65,1.58-.61,2.62-.61,1.64,0,1.64-.64-1.49-.17-2.2-.88c-.34-.34-.24-2.17.4-2.17s-.13,1.6.83,1.6.27-.4,1.85-.57,1.79-.35,1.79-1.02c0-.83-.18-.58-.75-1.32-.99-1.29-.4-1.18-1.52-2.43s-1.69-1.26-1.91-.81-1.09,1.82-2.6,1.82c-.97,0-.85-.29-1.26-.62s-.86-.43-.86-.85,1.1-.99,1.72-1.01,1.58.21,1.58-.26-.91-1.01-1.68-1.01c-1.53,0-2.03,1.55-2.47,1.64s-1.01-.06-.78-.69,1.66-1.61,3.32-1.61c1.96,0,1.91.62,2.74.62.45,0,1.42-.72,1.42-1.1s-3.08-3.83-6.18-3.83c-2.35,0-2.25.73-2.89,1.42s-1.74,1.68-1.74,1.99c0,.77,1.31.26,1.31.88s-.64.56-1.15.61-2.17,1.12-2.17,1.5c0,.78,1.09.3,1.09.88s-.35.46-.53.88-.13.85-.43.93-1.04-.06-1.48.56-.45.92-.78.92-.85-.35-1.01-1.1-.64-1.26-.99-1.26-1.05.35-1.05,1.04c0,1.53.35,1.39.83,2.3s.24,1.95.86,1.95.54-.3,1.04.03.88.4,1.15.14.59-.24.59-.24Z"/><path class="cls-1" d="m174.08,43.96c.28,0,.19.26.31.35s.11.81-.31,1.18-1.21,1.29-1.73.77.38-1.5.66-1.65.73-.65,1.07-.65Z"/><path class="cls-1" d="m172.18,41.8c.25,0,.75.4.75.87s-.52,1.41-1.12,1.93-1.5,2.13-1.77,2.91-1.23,1.3-1.23-.22c0-1.68,1.57-2.22,2.33-3.45.95-1.53.74-2.04,1.03-2.04Z"/><path class="cls-1" d="m171.45,41.18c-.41,1.67-1.17,2.12-1.69,2.69s-1.31,1.43-1.69.97.84-1.02,1.18-1.87c.68-1.69,1.41-1.26,2.2-1.79Z"/><path class="cls-1" d="m169.37,41.23c.93-.89,1.85-.85,2.47-1.39s.72-1.1.72-1.1c-.97-.14-1.4.31-2.31.76s-3.87,3.19-3.87,4.13c0,.41.29.89,1.11.16,1.39-1.26.96-1.67,1.88-2.55Z"/><path class="cls-1" d="m167.54,39.2c0-.86,1.28-.32,1.93-.99s2.01-1.76,2.46-1.31-.13,1.07-.64,1.1-1.7,1.6-2.47,1.54-1.28.3-1.28-.34Z"/><path class="cls-1" d="m169.47,36.71c-.39-.3.39-1.07.82-1.39s1.21-.57,1.9-.57c2.38,0,2.58.56,4.32.56,1.28,0,1.9-.64,1.9.3,0,.65-.86.97-1.82.97-2.94,0-2.67-.59-4.5-.59-.9,0-1.93,1.24-2.63.72Z"/><path class="cls-1" d="m170.09,32.96c0-1.09,2.9-1.15,3.96-1.85s4.44-.86,5.82-.54,1.56.65,1.56.88-.18,2.74-3.4,2.74c-3.96,0-1.79-.85-5.1-.85-2.4,0-2.85-.05-2.85-.38Z"/><path class="cls-1" d="m163.65,35.03c.29-.53-.08-2.11.3-2.6s1.26-2.62,2.41-3.89,2.22-1.74,3.46-2.82,3.4-3.4,10.9-3.4,10.84,1.31,12.78,3.24,5.06,5.94,7.07,7.76c-.37.8-1.58.41-2.23-.38s-2.04-2.14-2.87-2.44-1.55-.85-1.55-.85c.18.35-.41.48-.93.05s-1.96-2.39-3.94-2.15c.97,1.45,2.94,2.37,2.19,3.11-.44.43-8.61-4.06-8.61-4.06-8.38-.26-10.26-.23-10.26.4s3.77.36,3.77,1.45c0,.68-2.3.04-4.34.7s-4.69,2.42-5.57,3.16c-1.72,1.44-1.41,3.08-2.58,2.74Z"/></g></svg>