<?xml version="1.0" encoding="utf-8"?>
<!-- Generator: Adobe Illustrator 21.1.0, SVG Export Plug-In . SVG Version: 6.00 Build 0)  -->
<svg version="1.1" id="Layer_1" xmlns="http://www.w3.org/2000/svg" xmlns:xlink="http://www.w3.org/1999/xlink" x="0px" y="0px"
	 width="246px" height="246px" viewBox="0 0 246 246" style="enable-background:new 0 0 246 246;" xml:space="preserve">
<style type="text/css">
	.st0{fill:#005287;}
	.st1{fill:#A5A5A5;}
	.st2{fill:#A6A8AB;}
	.st3{fill:#FFFFFF;}
	.st4{fill:#0079AD;}
	.st5{fill:#C31230;}
</style>
<title>TSA_Insignia_RGB_250</title>
<circle class="st0" cx="123" cy="123" r="111.5"/>
<path class="st1" d="M123,246C55.1,246,0,191-0.1,123.1c0-32.7,13-64,36.1-87.1c48-48,125.9-48.1,174,0s48.1,125.9,0,174l0,0
	C187,233.1,155.6,246.1,123,246z M123,23C67.8,23,23,67.8,23,123s44.8,100,100,100s100-44.8,100-100C222.9,67.8,178.2,23.1,123,23
	L123,23z"/>
<path class="st2" d="M165,72.3l-32.3,25.3c0.3,0,0.5,0.1,0.7,0.2c0,0,0,0,0.1,0c0.3,0,0.6,0,0.9,0c0.1,0,0.3,0,0.4,0l30.5-25.4
	C165.2,72.3,165.1,72.3,165,72.3z"/>
<path class="st2" d="M155,65.7l-24.2,29.8v0.9c0,0.1,0,0.2,0,0.3c0,0,0,0.1,0,0.1c0,0.1,0.1,0.2,0.1,0.3c0,0,0.1,0.1,0.1,0.2l0,0
	c0.1,0,0.2,0,0.2,0.1l24-31.5C155.1,65.8,155.1,65.7,155,65.7z"/>
<path class="st2" d="M144.5,61.1l-15,30.4c0.4,0.5,0.7,1,0.8,1.7l14.6-31.9C144.7,61.2,144.6,61.2,144.5,61.1z"/>
<path class="st2" d="M173.9,81.3l-36.3,17.1c0.7,0.1,1.3,0.4,1.9,0.7L174,81.5C173.9,81.4,173.9,81.3,173.9,81.3z"/>
<path class="st2" d="M91,65.7l-0.4,0.1l24.2,31c0.1-0.2,0.2-0.4,0.3-0.6s0.3-0.6,0.4-0.9L91,65.7z"/>
<path class="st2" d="M101.5,60.9c-0.1,0.1-0.3,0.1-0.4,0.2l9.2,19.5c0.2-0.3,0.5-0.6,0.8-0.7L101.5,60.9z"/>
<path class="st2" d="M134.1,58.5c-0.1,0-0.3,0-0.4,0l-5.7,24c0.4,0,0.8,0.2,1.1,0.5L134.1,58.5L134.1,58.5z"/>
<path class="st2" d="M72.1,81.7c0,0.1,0,0.1-0.1,0.2l34.5,17c0,0,0.1,0,0.1,0c0.7-0.2,1.5-0.4,2.3-0.4L72.1,81.7z"/>
<path class="st2" d="M81,72.5c-0.1,0.1-0.1,0.2-0.2,0.2l31,25.2l1-0.4c0.2-0.1,0.5-0.1,0.8-0.2L81,72.5z"/>
<path class="st2" d="M112,58.8l4.3,19.7c0.4-0.1,0.7-0.1,1.1-0.1l-4.9-19.7C112.3,58.7,112.2,58.8,112,58.8z"/>
<path class="st2" d="M122.9,57.5L122.9,57.5l-0.3,21.3c0.1,0,0.2,0,0.3,0c0.3,0.1,0.6,0.2,0.8,0.4l-0.4-21.7
	C123.2,57.5,123.1,57.5,122.9,57.5z"/>
<path class="st2" d="M187.5,145.7c0-0.1-60.3-17.2-64.3-18.3l0,0c0,0-0.1,0-0.1,0c0,0-0.1,0-0.1,0l0,0c-4,1.1-64.3,18.2-64.3,18.3
	c1.5,4.4,7.2,14.1,10.3,18.9c0,0,41.5-26,53.5-34.1l-50,36.9c3.6,4.7,7.4,7.5,13.5,12c0,0,11.2-13.5,22-25.6l-0.3,3.1l-18,24.6
	c10.2,5.8,21.7,8.8,33.4,8.8h0.2c11.7,0.1,23.2-2.9,33.4-8.7l-18-24.6l-0.3-3.1c10.8,12.2,21.9,25.6,22,25.6
	c6.1-4.5,9.9-7.3,13.5-12l-50-36.9c12,8.1,53.5,34.1,53.5,34.1C180.3,159.7,186,150.1,187.5,145.7z M123.1,137.7L123.1,137.7z"/>
<path class="st3" d="M152.4,178c-3-1-6.1-1.6-9-0.6c-2.5,0.8-5.2,0.8-7.8,0c-3.1-0.9-6.3-0.9-9.4,0c-1,0.3-2.1,0.5-3.2,0.6l0,0
	c-1.1-0.1-2.1-0.2-3.1-0.6c-3-1-6.3-1-9.4,0c-2.5,0.8-5.2,0.8-7.8,0c-3-0.9-6-0.3-9,0.6c-2.2,0.7-5.4,0.4-7.6,0
	c0.9,0.6,1.6,1.3,2.6,1.8c1.8,0,5.1,0.4,6.9-0.1c2-0.6,3.7-1.4,5.6-0.8c3.5,1.3,7.3,1.4,10.9,0.5c2-0.7,4.2-0.9,6.2-0.4
	c1.4,0.4,2.9,0.6,4.3,0.6l0.4-0.4l0.4,0.4c1.5,0,2.9-0.2,4.3-0.6c2.1-0.5,4.2-0.4,6.2,0.4c3.6,0.9,7.4,0.7,10.9-0.5
	c1.9-0.6,3.6,0.2,5.6,0.8c1.8,0.5,5.1,0,6.9,0.1c0.9-0.5,1.7-1.2,2.6-1.7C157.9,178.4,154.6,178.6,152.4,178z"/>
<path class="st0" d="M123.1,179.1c-1.5,0-3-0.2-4.4-0.7c-2.1-0.6-4.3-0.6-6.3,0c-3,0.9-6.1,0.9-9.1,0c-2.1-0.6-4.3-0.6-6.3,0
	c-2.8,0.8-5.4,1.6-8.3,0.6c-0.9-0.3-0.8,0-1.1,0c0.8,0.7-0.6,0.9-0.3,2c0.4,0.3,2.5,0.5,2.9,0.8c1.9,0.4,4,0.3,5.9-0.3
	c2.7-0.8,5.6-0.8,8.3,0c2.3,0.7,4.7,0.7,7,0c2.8-0.8,5.8-0.8,8.5,0c1.1,0.2,2.2,0.2,3.2,0c1.1,0.2,2.2,0.2,3.2,0
	c2.8-0.9,5.8-0.9,8.5,0c2.3,0.7,4.7,0.7,7,0c2.7-0.8,5.6-0.8,8.3,0c1.9,0.6,3.9,0.7,5.9,0.3c0.4-0.2,2.5-0.5,2.9-0.8
	c0.3-1.2-1-1.3-0.3-2c-0.3,0.1-0.2-0.2-1.1,0c-2.9,1-5.4,0.2-8.3-0.6c-2.1-0.6-4.3-0.6-6.3,0c-3,0.9-6.1,0.9-9.1,0
	c-2.1-0.6-4.3-0.6-6.3,0C126,178.9,124.6,179.1,123.1,179.1L123.1,179.1z"/>
<path class="st4" d="M123.1,185.6c1,0,2-0.2,3-0.5c2.8-0.9,5.9-0.9,8.7,0c2.2,0.7,4.6,0.7,6.9,0c2.3-0.7,4.7-0.8,7-0.4
	c0.1,0,0.3-0.1,0.4-0.2c1.5-0.6,2.9-1.3,4.3-2.1c-1.6,0-3.2-0.3-4.8-0.8c-1.7-0.5-3.6-0.5-5.3,0c-3.2,1-6.7,1-9.9,0
	c-1.8-0.6-3.8-0.6-5.7,0c-1.5,0.4-3,0.7-4.5,0.7l0,0c-1.5,0-3-0.2-4.5-0.7c-1.8-0.6-3.8-0.6-5.7,0c-3.2,1-6.7,1-9.9,0
	c-1.7-0.5-3.6-0.5-5.3,0c-1.6,0.5-3.2,0.7-4.8,0.8c1.4,0.8,2.8,1.5,4.3,2.1c0.1,0,0.3,0.1,0.4,0.2c2.3-0.5,4.7-0.3,7,0.4
	c2.2,0.7,4.6,0.7,6.9,0c2.8-0.9,5.9-0.9,8.7,0C121.1,185.5,122.1,185.6,123.1,185.6L123.1,185.6z"/>
<path class="st0" d="M123.2,189.7L123.2,189.7c0.3,0,0.7,0,1,0c3.7-0.2,13.6-1.1,17.2-2.3c1.9-0.5,4.2-1.3,4.9-2c-1-0.1-2,0-3,0.3
	c-3.2,1-6.6,0.9-9.7-0.1c-1.9-0.5-4-0.5-5.9,0.2c-1.4,0.5-2.9,0.7-4.4,0.7h-0.4c-1.5,0-3-0.3-4.4-0.7c-1.9-0.7-3.9-0.7-5.9-0.2
	c-3.1,1-6.5,1.1-9.7,0.1c-1-0.3-2-0.3-3-0.3c0.6,0.7,3,1.4,4.8,2c3.6,1.3,13.5,2.2,17.2,2.3c0.3,0,0.7,0,1,0h0.3H123.2z"/>
<path class="st3" d="M149.8,181c-2.7-0.8-5.6-0.8-8.3,0c-2.3,0.7-4.7,0.7-7,0c-2.8-0.8-5.8-0.8-8.5,0c-0.9,0.3-1.8,0.4-2.8,0.5H123
	c-0.9-0.1-1.9-0.2-2.8-0.5c-2.8-0.9-5.8-0.9-8.5,0c-2.3,0.7-4.7,0.7-7,0c-2.7-0.8-5.6-0.8-8.3,0c-1,0.3-2.1,0.5-3.2,0.5
	c-0.3,0-0.6,0.3-0.6,0.6c0,0.2,0.1,0.4,0.3,0.5l0,0c0.1,0,0.2,0.1,0.3,0.1c1.6,0,3.1-0.3,4.7-0.8c1.7-0.5,3.6-0.5,5.3,0
	c3.2,1,6.7,1,9.9,0c1.8-0.6,3.8-0.6,5.7,0c1.4,0.4,2.8,0.7,4.2,0.7l0,0c1.4,0,2.9-0.2,4.2-0.7c1.8-0.6,3.8-0.6,5.7,0
	c3.2,1,6.7,1,9.9,0c1.7-0.5,3.6-0.5,5.3,0c1.5,0.5,3.1,0.7,4.6,0.8c0.1,0,0.2,0,0.3-0.1l0,0c0.3-0.2,0.4-0.6,0.2-0.8
	c-0.1-0.2-0.3-0.3-0.5-0.3C151.8,181.5,150.8,181.3,149.8,181z"/>
<path class="st3" d="M123.1,186.6c1.6,0,3.2-0.2,4.7-0.7c1.9-0.6,4-0.6,5.9,0c3.2,1,6.6,1,9.7,0c1.2-0.3,2.5-0.4,3.8-0.3
	c0.9-0.3,1.3-0.7,2.1-1c-2.5-0.5-5-0.4-7.4,0.3c-2.2,0.7-4.6,0.7-6.9,0c-2.8-0.9-5.9-0.9-8.7,0c-1,0.3-2,0.5-3,0.5H123
	c-1,0-2-0.2-3-0.5c-2.8-0.9-5.9-0.9-8.7,0c-2.2,0.7-4.6,0.7-6.9,0c-2.4-0.7-4.9-0.8-7.4-0.3c0.8,0.3,1.3,0.7,2.1,1
	c1.3-0.1,2.5,0,3.8,0.3c3.2,1,6.6,1,9.7,0c1.9-0.6,4-0.6,5.9,0C120,186.3,121.6,186.6,123.1,186.6L123.1,186.6z"/>
<g id="White_Ring">
	<g id="White_Ring_Bottom">
		<path class="st3" d="M180.1,84.2c-2.4-3.5-5.1-6.7-8-9.7c-26.9-27-70.7-27.1-97.7-0.1c0,0-0.1,0.1-0.1,0.1c-3,3-5.6,6.2-8,9.7
			l3.4,1.7c20.7-29.6,61.4-36.8,91-16.1c6.3,4.4,11.7,9.8,16.1,16.1L180.1,84.2z"/>
	</g>
	<g id="White_Ring_Top">
		<path class="st3" d="M191,117.5c-0.9,0.8-1.7,1.7-2.6,2.4c0.1,1.2,0.1,2.4,0.1,3.6c0,36.1-29.3,65.4-65.4,65.4
			s-65.4-29.3-65.4-65.4c0-1.2,0-2.4,0.1-3.6c-0.9-0.7-1.7-1.5-2.6-2.4c-0.3-0.3-0.6-0.6-0.9-1c-0.2,2.3-0.4,4.7-0.4,7
			c0,27.8,16.7,52.9,42.3,63.7c8.5,3.6,17.7,5.5,26.9,5.4c27.8,0,52.9-16.7,63.7-42.3c3.6-8.5,5.5-17.7,5.4-26.9
			c0-2.3-0.1-4.7-0.4-7C191.6,116.8,191.3,117.1,191,117.5z"/>
	</g>
</g>
<g id="Red_Ring">
	<g id="Red_Ring_Bottom">
		<path class="st5" d="M189.4,119c0.1,1.4,0.2,2.9,0.2,4.4c0,36.7-29.7,66.4-66.4,66.4s-66.4-29.7-66.4-66.4c0-1.5,0-2.9,0.2-4.4
			c-0.4-0.4-0.9-0.8-1.3-1.2c-0.2,1.9-0.2,3.8-0.2,5.6c0,18,7.1,35.2,19.9,47.9c12.7,12.7,29.9,19.9,47.9,19.9
			c18,0,35.2-7.1,47.9-19.9c12.7-12.7,19.9-29.9,19.9-47.9c0-1.9-0.1-3.8-0.2-5.6L189.4,119z"/>
	</g>
	<g id="Red_Ring_Top">
		<path class="st5" d="M178.8,84.8c-12.6-18.3-33.5-29.2-55.7-29.2c-18,0-35.2,7.1-47.9,19.9c-2.9,2.9-5.5,6-7.8,9.3l1.3,0.7
			C89.6,55.4,131,48,161.1,69c6.4,4.5,12,10.1,16.5,16.5L178.8,84.8z"/>
	</g>
</g>
<g id="Star">
	<polygon class="st3" points="63.7,79.9 62,78.6 60.3,80 61.1,77.9 59.3,76.7 61.4,76.8 62,74.7 62.5,76.8 64.7,76.7 62.9,77.9 	"/>
	<path class="st3" d="M59.9,80.6l1-2.6l-2.3-1.5l2.7,0.2l0.7-2.7l0.7,2.6l2.7-0.1L63.2,78l1,2.6L62,78.8L59.9,80.6z M60,76.9
		l1.3,0.9l-0.6,1.5l1.2-1l1.2,1l-0.6-1.4l1.3-1L62.4,77L62,75.5L61.6,77L60,76.9z"/>
</g>
<g id="Star-2">
	<polygon class="st3" points="75.8,66.9 74.1,65.6 72.4,67 73.1,64.9 71.3,63.7 73.5,63.8 74,61.7 74.6,63.8 76.8,63.7 75,64.9 	"/>
	<path class="st3" d="M71.9,67.6l1-2.6l-2.3-1.5l2.8,0.2l0.6-2.7l0.7,2.7l2.8-0.2L75.2,65l1,2.6L74,65.8L71.9,67.6z M72,64l1.3,0.9
		l-0.6,1.5l1.2-1l1.2,1l-0.6-1.4L76,64l-1.6,0.1L74,62.5l-0.3,1.6L72,64z"/>
</g>
<g id="Star-3">
	<polygon class="st3" points="90.6,57.3 88.9,55.9 87.2,57.3 88,55.2 86.2,54.1 88.3,54.2 88.9,52 89.5,54.2 91.6,54 89.8,55.2 	"/>
	<path class="st3" d="M86.8,57.9l1-2.6l-2.3-1.5l2.8,0.1l0.7-2.7l0.7,2.7l2.8-0.2l-2.3,1.5l1,2.5l-2.2-1.7L86.8,57.9z M86.9,54.3
		l1.4,0.9l-0.6,1.5l1.2-1l1.3,1l-0.6-1.5l1.3-0.9l-1.6,0.1l-0.4-1.5l-0.4,1.5L86.9,54.3z"/>
</g>
<g id="Star-4">
	<polygon class="st3" points="107,51.4 105.3,50.1 103.7,51.4 104.4,49.4 102.6,48.2 104.8,48.3 105.3,46.2 105.9,48.3 108.1,48.2 
		106.2,49.4 	"/>
	<path class="st3" d="M103.2,52.1l1-2.6l-2.4-1.5l2.8,0.2l0.7-2.7l0.8,2.7l2.7-0.2l-2.3,1.5l1,2.6l-2.2-1.8L103.2,52.1z M105.3,49.8
		l1.2,1l-0.6-1.5l1.3-0.9l-1.6,0.1l-0.4-1.5l-0.4,1.6l-1.6-0.1l1.3,0.8l-0.6,1.5L105.3,49.8z"/>
</g>
<g id="Star-5">
	<polygon class="st3" points="124.9,49.3 123.2,47.9 121.5,49.3 122.2,47.2 120.4,46 122.6,46.2 123.1,44 123.7,46.1 125.9,46 
		124.1,47.2 	"/>
	<path class="st3" d="M125.3,49.9l-2.2-1.8l-2.1,1.7l0.9-2.6l-2.3-1.5l2.8,0.2l0.7-2.7l0.7,2.7l2.8-0.2l-2.3,1.5L125.3,49.9z
		 M121.2,46.3l1.3,0.8l-0.5,1.5l1.2-1l1.2,1l-0.6-1.5l1.3-0.9l-1.6,0.1l-0.4-1.5l-0.4,1.5L121.2,46.3z"/>
</g>
<g id="Star-6">
	<polygon class="st3" points="142.6,51.5 140.9,50.2 139.2,51.5 140,49.5 138.1,48.3 140.3,48.4 140.9,46.3 141.5,48.4 143.6,48.3 
		141.8,49.5 	"/>
	<path class="st3" d="M138.8,52.2l1-2.6l-2.4-1.4l2.8,0.1l0.7-2.7l0.8,2.7l2.7-0.2l-2.3,1.5l1,2.6l-2.2-1.7L138.8,52.2z M138.9,48.5
		l1.4,0.9l-0.6,1.5l1.2-1l1.2,1l-0.6-1.5l1.3-0.9l-1.6,0.1l-0.4-1.5l-0.4,1.5L138.9,48.5z"/>
</g>
<g id="Star-7">
	<polygon class="st3" points="159,57.4 157.4,56 155.6,57.4 156.4,55.3 154.6,54.2 156.7,54.3 157.3,52.1 157.9,54.2 160.1,54.1 
		158.2,55.4 	"/>
	<path class="st3" d="M159.5,58l-2.2-1.8l-2.2,1.7l1-2.6l-2.3-1.5l2.7,0.2l0.7-2.7l0.7,2.7l2.7-0.2l-2.3,1.6L159.5,58z M155.4,54.4
		l1.3,0.8l-0.6,1.5l1.3-1l1.2,1l-0.6-1.5l1.4-0.9l-1.6,0.1l-0.4-1.5l-0.4,1.6L155.4,54.4z"/>
</g>
<g id="Star-8">
	<polygon class="st3" points="173.9,66.9 172.1,65.6 170.5,67 171.3,64.9 169.4,63.8 171.6,63.8 172.1,61.7 172.7,63.8 174.9,63.7 
		173.1,64.9 	"/>
	<path class="st3" d="M170,67.6l1-2.6l-2.4-1.5l2.8,0.1l0.7-2.7l0.7,2.7l2.8-0.2l-2.3,1.5l1,2.6l-2.2-1.7L170,67.6z M170.1,64
		l1.4,0.9l-0.6,1.5l1.2-1l1.3,1l-0.6-1.5l1.3-0.9l-1.6,0.1l-0.4-1.5l-0.4,1.6L170.1,64z"/>
</g>
<g id="Star-9">
	<polygon class="st3" points="186,80 184.2,78.6 182.6,80 183.3,77.9 181.5,76.8 183.6,76.9 184.2,74.8 184.8,76.9 187,76.7 
		185.1,77.9 	"/>
	<path class="st3" d="M182.1,80.6l1-2.6l-2.3-1.5l2.7,0.1l0.7-2.7l0.7,2.7l2.8-0.2l-2.3,1.5l1,2.6l-2.2-1.7L182.1,80.6z M184.2,78.4
		l1.3,1l-0.6-1.5l1.3-0.9l-1.6,0.1l-0.4-1.5l-0.4,1.6l-1.6-0.1l1.3,0.9l-0.6,1.5L184.2,78.4z"/>
</g>
<path class="st3" d="M175.7,88.9c-8,3.9-14.9,6.6-23.6,8.4c-3.8,0.8-7.8,1.3-11.7,1.5c-4.2-1-7.8-1.7-8.7-1.9
	c-0.2-0.1-0.4-0.1-0.4-0.2c-0.6-3.6-1.5-7.1-2.7-10.6c2.3,0.2,5.6-1.3,6.5-3.8c-1.4,1.7-5.3,1-8.4-1.4c-2.6-2-3.4-3.1-8.1-2.9
	c-2.4,0-4.8,0.5-7.2,1.3c-2,0.7-2.5,2-1.5,2.7c-1.2,0-5.9,1.1-6.4,4c-0.3,1.7,0.2,3.5,1.4,4.8c-0.4-3.3,4.8-3.1,6.3-2.5
	c1.5,0.6,2.7,1.6,3.6,3c0.8,1.6,1.3,1.9-0.7,5.3c-0.1,0.2-4.1,1.1-8.8,2.1c-3.7-0.3-7.4-0.8-11-1.5c-8.2-1.7-16.2-4.6-23.6-8.4
	c-8.5-4.2-16.8-8.8-24.8-14c0.5,1.2,1.2,2.2,2.2,3.1c4.5,4.2,8.6,8.5,30.9,18.3c4.6,2.2,9.5,4,14.4,5.4c3.8,0.9,6.3,2,10.1,3
	c0.6,0.2-0.2,0.2-0.5,0.2c-0.8,0-1.6-0.2-2.4-0.4c-0.4-0.2,0.1,1,0.3,1.2c1,1.4,2.7,2.4,3.6,3.2c0.2,0.2-1.3,0.5-3,0
	c-0.3-0.1-0.2,0.8-0.2,0.9c0.3,0.7,0.7,1.4,1.3,2c0.7,0.9,1.5,1.7,2.3,2.4c0.6,0.5-0.8,0.8-2.6,0.8c-0.5,0-0.2,0.7-0.1,0.9
	c0.9,1.8,2.2,3.3,3.8,4.6c0.4,0.3-1.2,0.4-1.6,0.7c-0.2,0.1,0.3,1.1,0.6,1.4c2.1,2.4,3,2.5,4,3.3c0.2,0.1,0.1,1.1,0,1.3
	c-0.2,0.6,0,0.7,0.3,0.9c0.7,0.4,1.3,0.7,2,1.1c0.4,0.2,0.8,0.4,1.3,0.7c0.4,0.2,0.6,0.6,0.6,1c0,0.5,0,1,0,1.5c0,0.4,0.2,0.8,0.6,1
	c0.8,0.4,1.5,0.9,2.2,1.3l0.5,0.4c-0.1,0.2-0.2,0.3-0.2,0.5c-1.2,2.4-2.4,4.9-3.7,7.3c-0.1,0.2,0,0.4,0.1,0.5c0.1,0,0.2,0.1,0.3,0
	c1.8-0.7,3.4-1.8,4.8-3.1c0,0-0.7,3.8-0.4,3.8c1.4,0.2,3.6-1.4,3.6-1.4s-0.4,3.1-0.1,3.5s1.4-0.9,2.5-1.9c1.1,1.1,2.2,2.1,2.5,1.9
	s-0.1-3.5-0.1-3.5s2.2,1.6,3.6,1.4c0.4,0-0.4-3.8-0.4-3.8c1.4,1.3,3.1,2.3,4.9,3.1c0.3,0.1,0.6-0.2,0.4-0.5
	c-1.2-2.5-2.4-4.9-3.7-7.3c-0.1-0.1-0.1-0.3-0.2-0.5l0.5-0.4c0.7-0.4,1.5-0.9,2.2-1.3c0.4-0.2,0.6-0.6,0.6-1c0-0.5,0-1,0-1.5
	c-0.1-0.4,0.2-0.9,0.6-1c0.4-0.2,0.9-0.4,1.3-0.7c0.6-0.4,1.3-0.7,2-1.1c0.3-0.2,0.4-0.2,0.3-0.9c0-0.2-0.1-1.1,0-1.3
	c1.1-0.8,1.9-0.8,4-3.3c0.3-0.3,0.8-1.3,0.6-1.4c-0.4-0.2-2-0.4-1.6-0.7c1.6-1.3,2.9-2.8,3.8-4.6c0.1-0.2,0.4-0.9-0.1-0.9
	c-1.9,0-3.2-0.3-2.6-0.8c0.8-0.7,1.6-1.6,2.3-2.4c0.6-0.6,1-1.3,1.3-2c0-0.1,0.1-1-0.2-0.9c-1.7,0.5-3.2,0.2-3,0
	c0.9-0.8,2.6-1.8,3.6-3.2c0.2-0.2,0.6-1.3,0.3-1.2c-0.8,0.2-1.6,0.4-2.4,0.4c-0.3,0-1.1-0.1-0.5-0.2c3.8-1,6.3-2.1,10.1-3
	c4.9-1.4,9.8-3.2,14.4-5.4c22.3-9.8,26.4-14.1,30.9-18.3c1-0.8,1.7-1.9,2.2-3.1C192.4,80,184.2,84.7,175.7,88.9z M114.4,82.8
	l-1.9,0.7c-0.1-0.2-0.2-0.3-0.3-0.4c0,0-0.3-0.2-0.3-0.4c-0.2,0-0.7,0-1.3-0.5c1.9,0.2,2.3-0.8,5.6-0.1
	C116.2,82.1,115.2,82.5,114.4,82.8L114.4,82.8z"/>
<path class="st3" d="M102,167.8c-0.2,0.2-0.5,0.5-0.4,0.6s0.8-0.1,1-0.2c1.2-0.4,2-0.5,3.2-1c1.8-0.6,3.3-1.7,4.5-3.1
	c0.8-1,1.6-2.1,2.3-3.1c1.9-2.9,3.4-5.9,4.6-9.1c0.8-2,1.5-4,2-6.1c0-0.2,0.1-0.4,0.1-0.7c-0.8,0.1-1.6,0.5-2.3,1.1
	C112.3,150.8,113.4,156.2,102,167.8z"/>
<path class="st3" d="M99.1,162.8c-0.3,0.3-0.7,1-0.7,1.1s0.8,0,1.2-0.1c2.5-0.5,4.7-1.8,6.3-3.8c1.2-1.5,2.2-3.1,3.2-4.7
	c1.9-3.3,3.8-6.6,5.7-9.9c0-0.1,0.9-1.5,1.3-2.3c0.1-0.2-0.2-0.1-0.4,0c-2,1.1-3.7,2.6-5,4.5C108.1,151.7,106.4,154.7,99.1,162.8z"
	/>
<path class="st3" d="M123.1,146.6c-1.1,0-7.9,15.5-12.4,20.2c-1,1.2-1.9,2.4-2.8,3.7c-0.2,0.2-0.4,0.8-0.3,0.9
	c0.5,0.2,1.6-0.5,1.6-0.5c2.6-1.7,4.9-3.9,6.8-6.5c2.4-3.4,4.8-9.3,7.1-12.4l0,0c2.1,3,4.5,9,7,12.4c1.4,2,4.6,5.3,6.8,6.5
	c0,0,1.1,0.7,1.6,0.5c0.1,0-0.2-0.6-0.3-0.9c-0.8-1.3-1.8-2.5-2.8-3.7C131.1,162.2,124.3,146.6,123.1,146.6z"/>
<path class="st3" d="M123.1,154.9c-0.2,0-4.2,9.8-10.8,18.5c-0.2,0.2-0.4,0.6-0.4,0.7c0.3,0,0.5-0.1,0.7-0.2c0.5-0.2,1-0.4,1.4-0.7
	c1.8-1.2,3.5-2.6,4.9-4.3c1.7-2.1,3-4.4,4.1-6.8l0,0c1.1,2.4,2.4,4.7,4.1,6.8c1.4,1.7,3.1,3.1,4.9,4.3c0.5,0.3,0.9,0.5,1.4,0.7
	c0.2,0.1,0.5,0.2,0.7,0.2c-0.1-0.2-0.2-0.5-0.4-0.7C127,164.5,123.3,154.9,123.1,154.9z"/>
<path class="st3" d="M123.1,166c0,0-0.3,1.2-0.4,1.5c-0.9,2.4-2.2,4.6-3.8,6.6c-0.1,0.1-0.5,0.5-0.6,0.6c0.4,0.3,0.7,0,1-0.2
	c1.4-0.7,2.6-1.6,3.6-2.8c0-0.1,0.1-0.1,0.2-0.2c0,0.1,0.1,0.1,0.2,0.2c1,1.1,2.2,2.1,3.6,2.8c0.3,0.2,0.6,0.4,1,0.2
	c-0.1-0.1-0.5-0.5-0.6-0.6c-1.6-2-2.8-4.2-3.8-6.6C123.4,167.2,123.1,166,123.1,166z"/>
<path class="st3" d="M144.1,167.8c0.2,0.2,0.5,0.5,0.4,0.6s-0.9-0.1-1-0.2c-1.2-0.4-2-0.5-3.2-1c-1.8-0.6-3.3-1.7-4.5-3.1
	c-0.8-1-1.6-2.1-2.3-3.1c-1.9-2.9-3.4-5.9-4.6-9.1c-0.8-2-1.5-4-2-6.1c0-0.2-0.1-0.4-0.1-0.7c0.8,0.1,1.6,0.5,2.3,1.1
	C133.8,150.8,132.7,156.2,144.1,167.8z"/>
<path class="st3" d="M147,162.8c0.3,0.3,0.7,1,0.6,1.1s-0.8,0-1.2-0.1c-2.5-0.5-4.7-1.8-6.3-3.8c-1.2-1.5-2.2-3.1-3.2-4.7
	c-1.9-3.3-3.8-6.6-5.7-9.9c0-0.1-0.9-1.5-1.3-2.3c-0.1-0.2,0.2-0.1,0.4,0c2,1.1,3.7,2.6,5,4.5C138,151.7,139.7,154.7,147,162.8z"/>
<path class="st3" d="M61.8,112.3c-5.1-1.7-9.8-4.6-13.6-8.4c-1.5-1.5-2.9-3.2-4.1-5c-0.2-0.3-0.3-0.5-0.5-0.8
	c-0.4-0.7-0.6-1-0.4-1.3s0.6-0.1,0.9,0.1c7.2,5.5,17.3,8.4,23.2,10.9c3.4,1.4,7.8,2.4,10.2,4.2c1.8,1.4,3.4,3,4.9,4.7l0,0
	c0.1,0.1,0,0.3-0.1,0.4c0,0-0.1,0-0.1,0H82C75.2,115.9,68.4,114.3,61.8,112.3z"/>
<path class="st3" d="M64.1,120.5c-3.4-1.4-6.4-3.5-8.9-6.1c-0.9-0.8-1.6-1.8-2.2-2.8c-0.1-0.2-0.2-0.3-0.3-0.5s-0.1-0.4,0-0.5
	s0.2-0.1,0.4-0.1s0.2,0.1,0.2,0.1c3.2,1.9,6.5,3.5,10,4.8c5.1,1.6,10.2,2.8,15.5,3.8c2.9,0.6,6.2,3.4,8.7,5.2
	c0.2,0.1,0.2,0.3,0.2,0.5c0,0.2-0.3,0.3-0.3,0.3c-2.5,0.2-8-0.8-10.3-1.2C72.7,123,68.4,121.9,64.1,120.5z"/>
<path class="st3" d="M63.4,91.2c4.4,2.4,9.7,4.5,10.9,8.8c0.1,0.2-0.3,0.5-0.9,0.2c-1.6-0.9-5.5-2.7-5.7-2.7
	c-4.7-2.2-9.3-4.2-14-6.6c-2.5-1.3-5.3-3.2-7.8-4.7c-3.6-2.1-6.2-5.7-7.8-10.3c-0.2-0.6-0.7-1.6-0.6-1.7s1,0,1.3,0.4
	c0.9,0.8,1.8,1.7,2.7,2.5c3,2.6,6.2,5,9.6,7C54.3,86,60.4,89.5,63.4,91.2z"/>
<path class="st3" d="M99,116.1c1.4,0.2,5.1,4.3,3.8,4.3s-6.7-1-8.2-1.3c-5.9-1.2-8.4-2.3-10.1-3.6c-1.2-0.9-4.4-3.9-3.8-4.2
	C81.9,110.8,91.2,114.9,99,116.1z"/>
<path class="st3" d="M94.2,109c4,0.8,5,1.4,6.3,3c0.2,0.3,1.3,1.7,0.9,1.7c-3.7-0.1-13.7-2-19.4-4.8c-3.3-1.6-6.5-6-5.3-5.6
	C80.1,104.4,88.3,107.8,94.2,109z"/>
<path class="st3" d="M100,122.2c1.8,0.8,3.5,1.9,5.1,3.2c1.7,1.3-1.9,0.9-2.6,0.9c-2.8-0.2-4.4-0.5-7.4-0.8
	c-1.9-0.1-7.4-3.5-8.3-5.1c-0.3-0.6,0.4-0.8,1.6-0.4C92.2,121,96.1,121.8,100,122.2z"/>
<path class="st3" d="M100.4,107.9c0.2,1.4-14.9-4.1-20.7-6.1c-2.2-0.8-4.8-4.7-4.9-4.9c-0.2-0.8,3.3,1.1,4,1.3
	c4.6,1.7,13.5,5,18.1,6.4C97.8,104.9,99.6,106.8,100.4,107.9z"/>
<path class="st3" d="M109.3,129.7c-5.2,1.1-7.1,0.8-10.6-1.9C102.3,127.9,105.9,127.2,109.3,129.7z"/>
<path class="st3" d="M184.3,112.3c5.2-1.7,9.8-4.6,13.7-8.4c1.5-1.5,2.9-3.2,4.1-5c0.2-0.3,0.3-0.5,0.5-0.8c0.4-0.7,0.6-1,0.4-1.3
	s-0.6-0.1-0.9,0.1c-7.2,5.5-17.3,8.4-23.2,10.9c-3.4,1.4-7.8,2.4-10.2,4.2c-1.8,1.4-3.4,3-4.9,4.7l0,0c-0.1,0.1,0,0.3,0.1,0.4
	c0,0,0.1,0,0.1,0h0.2C171,116,177.7,114.4,184.3,112.3z"/>
<path class="st3" d="M182.1,120.5c3.4-1.4,6.4-3.5,8.9-6.1c0.9-0.8,1.6-1.8,2.2-2.8c0.1-0.2,0.2-0.3,0.3-0.5s0.1-0.4,0-0.5
	s-0.2-0.1-0.4-0.1s-0.2,0.1-0.2,0.1c-3.2,1.9-6.5,3.5-10,4.8c-5.1,1.6-10.2,2.8-15.5,3.8c-2.9,0.6-6.2,3.4-8.7,5.2
	c-0.2,0.1-0.2,0.3-0.2,0.5c0,0.2,0.3,0.3,0.3,0.3c2.5,0.2,8-0.8,10.3-1.2C173.5,123,177.8,121.9,182.1,120.5z"/>
<path class="st3" d="M182.8,91.2c-4.4,2.4-9.7,4.5-10.9,8.8c-0.1,0.2,0.3,0.5,0.9,0.2c1.6-0.9,5.5-2.7,5.7-2.7
	c4.7-2.2,9.3-4.2,14-6.6c2.5-1.3,5.3-3.2,7.8-4.7c3.6-2.1,6.2-5.7,7.8-10.3c0.2-0.6,0.7-1.6,0.6-1.7s-1,0-1.3,0.4
	c-0.9,0.8-1.8,1.7-2.7,2.5c-3,2.6-6.2,5-9.6,7C191.9,86,185.8,89.5,182.8,91.2z"/>
<path class="st3" d="M147.2,116.1c-1.4,0.2-5.1,4.3-3.8,4.3s6.7-1,8.2-1.3c5.9-1.2,8.4-2.3,10.1-3.6c1.2-0.9,4.4-3.9,3.8-4.2
	C164.2,110.8,155,114.9,147.2,116.1z"/>
<path class="st3" d="M152,109c-4,0.8-5,1.4-6.3,3c-0.2,0.3-1.3,1.7-0.9,1.7c3.7-0.1,13.7-2,19.4-4.8c3.4-1.6,6.5-6,5.3-5.6
	C166.1,104.4,157.9,107.8,152,109z"/>
<path class="st3" d="M146.2,122.2c-1.8,0.8-3.5,1.9-5.1,3.2c-1.7,1.3,1.9,0.9,2.6,0.9c2.8-0.2,4.4-0.5,7.4-0.8
	c1.9-0.1,7.4-3.5,8.3-5.1c0.3-0.6-0.4-0.8-1.6-0.4C154,121,150.1,121.8,146.2,122.2z"/>
<path class="st3" d="M145.8,107.9c-0.2,1.4,14.9-4.1,20.7-6.1c2.2-0.8,4.8-4.7,4.9-4.9c0.2-0.8-3.3,1.1-4,1.3
	c-4.6,1.7-13.5,5-18.1,6.4C147.9,105.4,146.7,106.6,145.8,107.9z"/>
<path class="st3" d="M136.9,129.7c5.2,1.1,7.1,0.8,10.6-1.9C143.8,127.9,140.3,127.2,136.9,129.7z"/>
<path class="st3" d="M52.8,99.7c-2.6-1.2-5-2.7-7.2-4.4c-2.8-2.1-4.9-5-6.1-8.3c-0.6-1.4-1.7-4.4-1.3-4.6s0.9,0.5,1.3,0.8
	c1.5,1.3,2.8,2.6,4.3,3.8c1.9,1.5,3.9,2.9,6,4.1c4.5,2.7,9.2,5.1,14,7.2c3.4,1.4,11.5,6,13.3,9.7c0.2,0.4-0.1,0.4-0.3,0.4
	C68.3,106.6,58.6,102.1,52.8,99.7z"/>
<path class="st3" d="M193.4,99.7c2.6-1.2,5-2.7,7.2-4.4c2.8-2.1,4.9-5,6.1-8.3c0.6-1.4,1.7-4.4,1.3-4.6s-0.9,0.5-1.3,0.8
	c-1.5,1.3-2.8,2.6-4.3,3.8c-1.9,1.5-3.9,2.9-6,4.1c-4.5,2.7-9.2,5.1-14,7.2c-3.4,1.4-11.5,6-13.3,9.7c-0.2,0.4,0.1,0.4,0.3,0.4
	C177.9,106.6,187.6,102.1,193.4,99.7z"/>
<path class="st3" d="M33.8,175l0.8,1.4l-9.6,12l0.6,1.1l-1.3,0.7l-3-5.1l1.3-0.7l0.7,1.3l2.5-3.2l-2.3-4l-4,0.8l0.7,1.2l-1.3,0.7
	l-2.2-3.7l1.3-0.7l0.7,1.1L33.8,175z M26.9,181.3l3.3-4l0,0l-5.1,1.1L26.9,181.3z"/>
<path class="st3" d="M38.9,186.2l-1.4-1.7l1.1-0.9l3.9,4.7c2.6,3.1,3.2,5.1,3.1,7.1c-0.2,2.2-1.3,4.1-3,5.5c-2.8,2.3-7,3.3-11-1.5
	l-4.9-5.8l1.1-0.9l1.4,1.7L38.9,186.2z M32.4,198.1c1.8,2.1,4.5,2.7,7.7-0.1c2.5-2.1,4.1-5.4,1.4-8.7l-0.7-0.8l-9.7,8.1L32.4,198.1z
	"/>
<path class="st3" d="M50.1,199.1l-1.6-1.3l0.9-1.1l4.4,3.6l-0.9,1.1l-2.4,9.9l9.2-4.3l0.9-1.1l4.5,3.6l-0.9,1.1l-1.6-1.3l-8,9.7
	l1.6,1.3l-0.9,1.1l-5.7-4.7l0.9-1.1l1.7,1.4l6.2-7.6l0,0L47,214.7l-0.4-0.4l2.9-11.6l0,0l-6,7.2l1.6,1.3l-0.9,1.1l-4.6-3.8l0.9-1.1
	l1.6,1.3L50.1,199.1z"/>
<path class="st3" d="M68.8,213.1L67,212l0.7-1.3l6.3,3.7l-0.7,1.3l-1.8-1.1l-6.3,10.9l1.7,1l-0.7,1.3l-6.3-3.7l0.7-1.3l1.9,1.1
	L68.8,213.1z"/>
<path class="st3" d="M78,218.2l-1.9-0.8l0.5-1.3l4.6,1.8l-0.5,1.3l4.6,12.1l3.5-8.9l-2.1-0.8l0.5-1.3l5.7,2.3l-0.5,1.3l-2-0.8
	l-5.1,13.1l-1.5-0.6l-5.4-13.7l-3.4,8.7l2,0.8l-0.5,1.3l-5.5-2.2l0.5-1.3l1.9,0.8L78,218.2z"/>
<path class="st3" d="M97.7,225l-2.1-0.5l0.3-1.4l7.2,1.7l-0.3,1.4l-2-0.5l-2.9,12.2l2,0.5l-0.3,1.4l-7.2-1.7l0.3-1.4l2.1,0.5
	L97.7,225z"/>
<path class="st3" d="M105.8,235.9l1.6,0.2l-0.2,1.9c0.6,1.2,1.7,2.1,3,2.3c1.2,0.1,2.2-0.8,2.4-1.9c0.3-2.4-2.8-2.9-5-5.7
	c-0.9-0.9-1.3-2.2-1.1-3.5c0.3-2.4,2.3-3.8,5-3.5c1.1,0.1,2.1,0.5,2.9,1.3l0.1-1.1l1.6,0.2l-0.5,4.8l-1.5-0.1l0.2-1.7
	c-0.5-0.9-1.4-1.5-2.5-1.6c-1.1-0.2-2.3,0.5-2.5,1.6c0,0,0,0,0,0.1c-0.3,3.1,6.7,3.6,6.1,8.9c-0.2,2.4-2.4,4.2-4.9,4
	c-0.1,0-0.2,0-0.3,0c-1.2-0.1-2.4-0.7-3.3-1.5l-0.1,1.2l-1.6-0.2L105.8,235.9z"/>
<path class="st3" d="M125.1,228.8l-3.7,0.1l0.1,2.1h-1.6l-0.2-5.1h1.6v0.8l10.5-0.4v-0.8h1.6l0.2,5.1H132l-0.1-2.1l-3.7,0.1
	l0.4,11.8l2.1-0.1v1.4l-7.3,0.2v-1.4l2.1-0.1L125.1,228.8z"/>
<path class="st3" d="M138.6,227l-2,0.4l-0.3-1.4l6.6-1.3c3.2-0.6,5.3,0.9,5.7,3c0.3,1.7-0.4,3.5-2.8,4.5l0,0c0.9,0,1.8,0.3,2.6,0.7
	c1.5,1.2,2.9,2.6,4,4.2l1.4-0.3l0.3,1.4l-4.2,0.9l-0.1-0.2l-2.1-2.8c-1.6-2.1-2.9-3-3.8-2.8l-0.7,0.1l1.1,5.3l2.1-0.4l0.3,1.4
	l-7.2,1.4l-0.3-1.4l2-0.4L138.6,227z M143.4,231.9c1.4-0.2,2.3-1.5,2.1-2.9c0-0.1-0.1-0.3-0.1-0.4c-0.4-1.8-1.6-2.7-3.1-2.3
	l-0.6,0.1l1.2,5.7L143.4,231.9z"/>
<path class="st3" d="M157.7,220.3l1.5-0.6l10.1,11.6l1.2-0.4l0.5,1.4l-5.6,2.1l-0.5-1.4l1.4-0.5l-2.7-3.1l-4.3,1.6v4l1.3-0.4
	l0.5,1.4l-4,1.4l-0.5-1.4l1.3-0.4L157.7,220.3z M162.6,228.2l-3.4-4l0,0l0.1,5.2L162.6,228.2z"/>
<path class="st3" d="M172.3,216.6l-3.2,1.8l1,1.9l-1.4,0.8l-2.4-4.5l1.4-0.8l0.4,0.7l9.2-5l-0.4-0.7l1.4-0.8l2.4,4.5l-1.4,0.8
	l-1-1.9l-3.2,1.8l5.7,10.4l1.9-1l0.7,1.3l-6.5,3.5l-0.7-1.3l1.9-1L172.3,216.6z"/>
<path class="st3" d="M184.3,208.3l-1.7,1.3l-0.9-1.2l5.9-4.4l0.9,1.2l-1.7,1.2l7.5,10.1l1.7-1.2l0.9,1.2l-5.9,4.4l-0.9-1.2l1.7-1.3
	L184.3,208.3z"/>
<path class="st3" d="M195.4,196.7c3.6-3.5,8.4-3.6,11.7-0.2s3.1,8.2-0.4,11.7s-8.4,3.6-11.8,0.2S191.9,200.2,195.4,196.7z
	 M205.7,207.2c1.8-1.7,1.9-4.9-1.3-8.2c-2.3-2.3-5.7-3.4-8-1.2c-1.9,1.8-1.9,5,1.2,8.1S203.9,209,205.7,207.2z"/>
<path class="st3" d="M205.4,188.5l-1.2,1.7l-1.2-0.8l2.8-4.1l1.2,0.8l12.9-1.7l-7.8-5.4l-1.3,1.8l-1.2-0.8l3.5-5l1.2,0.8l-1.2,1.8
	l11.5,8l-0.9,1.3l-14.6,2.1l7.7,5.3l1.2-1.7l1.2,0.8l-3.4,4.9l-1.2-0.8l1.2-1.7L205.4,188.5z"/>
<path class="st3" d="M7.3,132.2l0.2,3.7l2.1-0.1l0.1,1.6l-5.1,0.3l-0.1-1.6h0.8l-0.7-10.5H3.9L3.8,124l5.1-0.3l0.1,1.6l-2.1,0.1
	l0.2,3.7l11.8-0.8l-0.1-2.1l1.5-0.1l0.5,7.4l-1.5,0.1l-0.1-2.1L7.3,132.2z"/>
<path class="st3" d="M6.3,116.9L6.1,119l-1.4-0.1l0.6-6.7c0.3-3.3,2.3-4.8,4.5-4.6c1.7,0.2,3.3,1.4,3.5,4l0,0
	c0.3-0.9,0.7-1.6,1.4-2.2c1.6-1.1,3.3-2,5.2-2.7l0.1-1.4l1.5,0.1l-0.4,4.3h-0.2l-3.3,1.2c-2.5,0.9-3.7,1.9-3.8,2.8l-0.1,0.7l5.4,0.5
	l0.2-2.1l1.5,0.1l-0.6,7.3l-1.5-0.1l0.2-2.1L6.3,116.9z M12.4,113.8c0.2-1.4-0.8-2.7-2.2-2.9c-0.1,0-0.3,0-0.4,0
	c-1.8-0.2-3,0.7-3.1,2.3v0.6l5.7,0.5V113.8z"/>
<path class="st3" d="M8.1,93.6L8.5,92l15.3-1.6l0.3-1.3l1.4,0.4L24,95.3L22.6,95l0.4-1.4L19,94l-1.2,4.4l3.3,2.3l0.3-1.3l1.4,0.4
	l-1.1,4.1l-1.4-0.4l0.3-1.3L8.1,93.6z M17.4,94.1l-5.2,0.5l0,0l4.3,2.9L17.4,94.1z"/>
<path class="st3" d="M14.3,79.7l-0.9,1.9l-1.3-0.6l2.1-4.5l1.3,0.6l12.4-3.9l-8.7-4l-0.9,2L17,70.5l2.6-5.5l1.3,0.6L20,67.5
	l12.7,5.9L32,74.9l-14,4.6l8.5,4l0.9-1.9l1.3,0.6l-2.5,5.4l-1.3-0.6l0.9-1.9L14.3,79.7z"/>
<path class="st3" d="M31.3,66.3l0.9-1.3l1.5,1.1c1.3,0.1,2.6-0.5,3.5-1.6c0.6-1,0.4-2.3-0.6-3c-2-1.4-3.8,1.1-7.4,1.8
	c-1.2,0.4-2.6,0.1-3.6-0.7c-2-1.4-2.3-3.8-0.8-6.1c0.6-0.9,1.4-1.6,2.5-2l-0.9-0.7l0.9-1.3l4,2.7l-0.9,1.3l-1.5-1
	c-1,0-2,0.6-2.5,1.4c-0.7,0.9-0.6,2.2,0.3,2.9c0,0,0,0,0.1,0.1c2.5,1.7,6.3-4.2,10.7-1.3c2,1.4,2.6,4.1,1.2,6.1
	c-0.1,0.1-0.1,0.2-0.2,0.3c-0.7,1.1-1.7,1.8-2.9,2.2l1,0.7l-0.9,1.3L31.3,66.3z"/>
<path class="st3" d="M33.6,47.8l-1.4,1.5l-1.1-1l4.9-5.4c1.5-1.9,4.2-2.3,6.1-0.9c0.1,0.1,0.3,0.2,0.4,0.3c1.9,1.6,2.1,4.5,0.4,6.3
	c-0.1,0.1-0.1,0.1-0.2,0.2c-0.5,0.6-1.1,1-1.7,1.5l3.9,3.5l1.5-1.6l1.1,1l-4.9,5.5l-1.1-1l1.4-1.5L33.6,47.8z M39.9,49.3
	c0.3-0.2,0.6-0.5,0.8-0.8c1-1.1,0.8-2.4-0.4-3.6c-1.5-1.3-3-1.3-4.2,0l-0.4,0.4L39.9,49.3z"/>
<path class="st3" d="M48.5,30.8c3.9-3.1,8.7-2.8,11.7,0.9s2.3,8.5-1.5,11.6s-8.8,2.8-11.7-0.9S44.6,33.9,48.5,30.8z M57.7,42.1
	c1.9-1.6,2.4-4.7-0.5-8.3c-2.1-2.5-5.4-3.9-7.8-2c-2,1.7-2.3,4.8,0.4,8.2S55.8,43.7,57.7,42.1z"/>
<path class="st3" d="M61.7,23.4l-1.8,1l-0.7-1.3l5.9-3.3c2.9-1.6,5.3-0.8,6.3,1.1c0.8,1.5,0.7,3.5-1.3,5.1l0,0
	c0.9-0.3,1.8-0.3,2.7,0c1.8,0.6,3.6,1.5,5.2,2.7l1.2-0.7l0.7,1.3l-3.8,2.1L76,31.4l-2.9-2c-2.2-1.5-3.7-2-4.5-1.5L68,28.1l2.6,4.7
	l1.9-1l0.7,1.3l-6.4,3.6l-0.7-1.3l1.8-1L61.7,23.4z M67.7,26.6c1.3-0.6,1.8-2.2,1.1-3.4c-0.1-0.1-0.1-0.2-0.2-0.3
	c-0.9-1.6-2.3-2.1-3.7-1.3l-0.5,0.3l2.8,5L67.7,26.6z"/>
<path class="st3" d="M80.4,15l-3.4,1.3l0.8,2l-1.5,0.6l-1.8-4.8l1.5-0.6l0.3,0.7l9.8-3.7l-0.3-0.7l1.5-0.6L89,14l-1.5,0.6l-0.8-2
	l-3.5,1.3L87.5,25l2-0.8l0.5,1.4l-6.9,2.6l-0.5-1.4l2-0.8L80.4,15z"/>
<path class="st3" d="M96.3,7.5l1.6-0.4l8.4,12.8l1.3-0.3l0.3,1.4l-5.8,1.4l-0.3-1.4l1.4-0.3l-2.2-3.4l-4.5,1l-0.5,4l1.3-0.3l0.3,1.4
	l-4.2,0.9L93,22.9l1.3-0.3L96.3,7.5z M100.1,16l-2.8-4.4l0,0l-0.6,5.1L100.1,16z"/>
<path class="st3" d="M112.5,7.4l-3.7,0.3l0.2,2.1l-1.6,0.1L107,4.8l1.6-0.1v0.8L119,4.7V3.9l1.6-0.1l0.4,5.1L119.4,9l-0.2-2.1
	l-3.7,0.3l0.9,11.8l2.1-0.2l0.1,1.5l-7.3,0.6l-0.1-1.5l2.1-0.2L112.5,7.4z"/>
<path class="st3" d="M127.8,6.3l-2.1-0.2l0.1-1.4l7.4,0.4L133,6.5l-2-0.1L130.3,19l2.1,0.1l-0.1,1.5l-7.3-0.4l0.1-1.5l2.1,0.1
	L127.8,6.3z"/>
<path class="st3" d="M146.1,6.7c4.9,1,7.7,5,6.8,9.5s-5.1,7.2-9.9,6.3s-7.7-5-6.8-9.6S141.3,5.7,146.1,6.7z M143.3,21.1
	c2.4,0.5,5.1-1.1,6-5.7c0.6-3.2-0.4-6.7-3.5-7.2c-2.6-0.5-5.2,1.3-6,5.5S140.8,20.6,143.3,21.1z"/>
<path class="st3" d="M160.4,12.1l-1.9-0.8L159,10l4.6,1.9l-0.5,1.3l4.5,12.1l3.6-8.9l-2-0.8l0.5-1.3l5.7,2.3l-0.5,1.3l-2-0.8
	l-5.3,13l-1.5-0.6l-5.3-13.8l-3.5,8.7l2,0.8l-0.5,1.3l-5.5-2.2l0.5-1.3l1.9,0.8L160.4,12.1z"/>
<path class="st3" d="M181.2,32.2l1.3,0.9l-1.1,1.5c-0.1,1.3,0.5,2.7,1.5,3.5c1,0.6,2.3,0.4,3-0.5c1.4-2-1.1-3.8-1.7-7.3
	c-0.3-1.2,0-2.6,0.7-3.6c1.4-2,3.9-2.3,6.1-0.7c0.9,0.6,1.6,1.5,2,2.5l0.6-0.9l1.3,0.9l-2.8,4l-1.3-0.9l1-1.5c0-1-0.5-2-1.4-2.6
	c-0.9-0.7-2.2-0.6-3,0.3c-1.8,2.5,4.2,6.4,1.1,10.7c-1.4,2-4.1,2.5-6.1,1.1c-0.1-0.1-0.2-0.1-0.2-0.2c-1.1-0.7-1.9-1.7-2.2-3l-0.7,1
	l-1.3-1L181.2,32.2z"/>
<path class="st3" d="M199.6,34.7l-1.6-1.4l1-1l8.3,7.6l-2.4,2.7l-1.2-1.1l1.4-1.6l-3.3-3l-3.7,4l2.5,2.3l1.3-1.4l1.2,1.1l-3.8,4.1
	l-1.2-1.1l1.5-1.6l-2.5-2.3l-3.9,4.2l3.4,3.1l1.5-1.7l1.2,1.1l-2.5,2.8l-8.4-7.8l1-1L191,44L199.6,34.7z"/>
<path class="st3" d="M208.3,62.6c-2-0.5-3.7-1.7-5-3.3c-2.8-3.2-2.5-8,0.6-10.8c0.1-0.1,0.2-0.2,0.4-0.3c3.3-2.9,8.4-2.6,11.3,0.8
	c0.2,0.2,0.3,0.4,0.5,0.6c0.7,0.9,1.3,1.9,1.7,3l0.8-0.4l0.7,0.9l-3.6,3l-0.9-1c1.2-1.3,1.2-3.4,0-4.7c-1.8-2.2-4.7-2-7.9,0.6
	c-3.8,3.1-3.4,6.3-2,8.1c1.2,1.4,2.8,2.3,4.6,2.7L208.3,62.6z"/>
<path class="st3" d="M220.1,57.5l1.3-0.7l3.7,6.4l-1.3,0.7l-1-1.8l-6.8,3.8c-2.5,1.4-3.6,3.5-2.3,5.7c1.1,1.9,3.1,2.5,6.2,0.7
	l6.7-3.8l-1.1-1.8l1.3-0.7l3.4,5.9l-1.3,0.7l-1-1.7l-6.6,3.8c-3.8,2.1-7.1,1.3-9.2-2.5c-2.2-3.9-1-7,2.6-9l6.7-3.8L220.1,57.5z"/>
<path class="st3" d="M231,78.1l-0.7-1.9l1.4-0.5l2.3,6.3c1.1,3.1,0,5.3-2.1,6.1c-1.6,0.6-3.6,0.2-4.9-2.1l0,0c0.1,0.9,0,1.8-0.3,2.6
	c-1,1.7-2.2,3.3-3.6,4.6l0.5,1.4l-1.4,0.5l-1.5-4l0.2-0.1l2.4-2.5c1.9-1.9,2.6-3.3,2.2-4.2l-0.2-0.7l-5.1,1.9l0.7,2l-1.4,0.5L217,81
	l1.4-0.5l0.7,1.9L231,78.1z M226.9,83.5c0.4,1.3,1.9,2.1,3.2,1.7c0.1,0,0.3-0.1,0.4-0.2c1.4-0.3,2.3-1.7,2-3.1
	c0-0.1-0.1-0.2-0.1-0.4l-0.2-0.5l-5.4,2L226.9,83.5z"/>
<path class="st3" d="M236.8,96.8l-0.4-2.1l1.4-0.3l1.5,7.2l-1.4,0.3l-0.4-2l-12.3,2.7l0.4,2l-1.4,0.3l-1.5-7.2l1.4-0.3l0.4,2.1
	L236.8,96.8z"/>
<path class="st3" d="M238.5,111.4l-0.3-3.7l-2.1,0.2l-0.1-1.6l5.1-0.4l0.1,1.6l-0.8,0.1l0.9,10.4l0.8-0.1l0.1,1.6l-5.1,0.4l-0.1-1.6
	l2.1-0.2l-0.3-3.7l-11.8,1l0.2,2.1l-1.4,0.1l-0.6-7.3l1.4-0.1l0.2,2.1L238.5,111.4z"/>
<path class="st3" d="M241.5,123.1l-0.4,7.2l-1.4-0.1l0.1-1.7l-4.4,2.8l4,3.1l0.1-1.7l1.4,0.1l-0.3,5.3l-1.4-0.1l0.1-1.6l-5.7-4.5
	l-6.6-0.4l-0.1,2.1l-1.4-0.1l0.5-7.3l1.4,0.1l-0.1,2.1l6.6,0.4l6.3-4l0.1-1.9L241.5,123.1z"/>
</svg>
