<svg id="AETC" xmlns="http://www.w3.org/2000/svg" viewBox="0 0 218.17 214.54"><path d="M109,182.71c-11.14-14.45-41.06-22.49-54.4-30-.18-.1-.35-.21-.53-.3-31.23-16.76-22-43.28-22-43.28S29,95.78,19.42,95c-8.44-.67-9.5,8.4-9.5,8.4s.07,6.67-9,22.6c-4.23,7.41,8,10.89,8,10.89s-9.9,22.34,39.8,47.21c.38.19.76.42,1.17.58,28.8,11.51,34.45,14.48,34.45,14.48s14.3,6.53,24.28,15.35l0,0c10.08-8.71,24.47-15.08,24.47-15.08s5.69-2.92,34.62-14.09c.41-.16.79-.38,1.18-.57,50-24.3,40.33-46.75,40.33-46.75s12.25-3.35,8.1-10.81c-8.91-16-8.77-22.7-8.77-22.7s-.95-9.08-9.41-8.5c-9.57.65-12.82,13.95-12.82,13.95s8.94,26.63-22.48,43l-.54.3c-13.42,7.37-43,15.07-54.28,29.39" style="fill:#fecc36"/><path d="M184.85,113.4c1.22,7.7.49,26.79-21.18,37.75-.19.09-.36.2-.54.3-13.42,7.37-42.48,14.36-53.79,28.68h0c-11.15-14.45-40-21-53.32-28.49l-.54-.31C30.63,138,31.77,119.53,33.12,112.12l-1.85.11S29.41,101,21.55,97.32a10.94,10.94,0,0,0-1.83-.41,7.12,7.12,0,0,0-7.82,6.81l-.06.53c.34,5.46,3.76,6.67,3.76,6.67l4.66-7.79s10.94,5,0,19.81L15.64,129l-2.55,3.51A18.34,18.34,0,0,0,10.71,137c-1.06,3.26-5.42,23.5,39.17,45.82.38.19.75.41,1.15.57,28.23,11.27,33.77,14.19,33.77,14.19s14,6.4,23.8,15h0c9.88-8.54,24-14.78,24-14.78s5.58-2.86,33.93-13.81c.4-.16.78-.38,1.16-.56,44.84-21.81,40.71-42.09,39.69-45.36a18.66,18.66,0,0,0-2.33-4.52l-2.51-3.54L197.92,124c-10.71-14.93.28-19.81.28-19.81l4.58,7.85s3.43-1.17,3.83-6.63l-.06-.53a7.11,7.11,0,0,0-7.73-6.9,12.07,12.07,0,0,0-1.84.39c-7.91,3.63-9.89,14.8-9.89,14.8Z" style="fill:#fff"/><path d="M109,182.71c-11.31-14.32-40.85-22-54.27-29.39l-.54-.3c-31.42-16.4-22.49-43-22.49-43,6.17-24.36,5.84-32.58,5.84-32.58C40.47,42,23.92,22.56,23.92,22.56L46.23,0H171.8l22.31,22.56S177.56,42,180.48,77.41c0,0-.33,8.22,5.83,32.58,0,0,8.94,26.63-22.48,43l-.54.3C149.87,160.69,120.32,168.39,109,182.71Z" style="fill:#fecc36"/><path d="M109,176.57c-10.63-13.46-38.4-20.7-51-27.63-.17-.1-.33-.2-.5-.28-29.54-15.42-19.74-40.45-19.74-40.45,5.68-22.89,5-30.95,5-30.95C45.47,44,30.54,23.75,30.54,23.75l18-18.93h121l18.22,18.3s-15.2,20.78-12.5,54.05c0,0-.73,8.15,4.95,31,0,0,9.83,25-19.7,40.45-.17.08-.33.18-.51.28C147.41,155.87,119.63,163.11,109,176.57Z" style="fill:#004996"/><path d="M201.35,113.39l-4-6.6s-3.34,2.79-1.74,5.63,5.56,1.06,5.56,1.06Z" style="fill:#fff"/><path d="M208.74,136.12a20,20,0,0,0-2.16-4.05l-2.51-3.53-4.61-6.12a26.1,26.1,0,0,1-4.28-8.48s2,2.71,6.4,1.41,5.45-6,5.45-6l.23-.4c.92,3.52,3,9.42,7.89,18.15,3.15,5.67-3.47,8.23-6.6,9.09" style="fill:#fff"/><path d="M17,112.33l4-6.54s3.31,2.82,1.68,5.65-5.57,1-5.57,1Z" style="fill:#fff"/><path d="M9.36,135a19.56,19.56,0,0,1,2.21-4l2.55-3.5,4.68-6.07A25.87,25.87,0,0,0,23.17,113s-2,2.68-6.41,1.33-5.38-6.08-5.38-6.08l-.23-.4c-1,3.51-3.14,9.38-8.09,18.06-3.22,5.64,3.37,8.27,6.49,9.16" style="fill:#fff"/><path d="M30.2,140.3,19.59,149c-.67.54-.44.79-.3,1.09l-.81.44-1.39-2.55.81-.45c.44.68.54,1,1.4.3L21.53,146l-1.23-2.24-1.7.58c-1.68.57-1.81,1.14-1.46,1.79l-.82.44-1.19-2.2.81-.44c.31.56,1.25.31,2,0L30,140Zm-8.89,3.08,1.05,1.93,4.78-3.87Z" style="fill:#004996"/><path d="M33.32,145.44l-.74.56-.2-.27c-.21-.28-.42-.58-1.16,0l-8.76,6.63-.24.17c-.62.44-.43.76-.15,1.13l.14.19-.75.57-1.88-2.49.74-.56.15.21c.26.34.53.59,1.27,0l8.85-6.7c.68-.53.6-.71.21-1.21l-.12-.17.75-.57Z" style="fill:#004996"/><path d="M35.75,148.07c.71.74.83,2.34-1,4.15s-3.39,1.68-4.17,1c0,0,0,0,0,0,.2.4.52,1.06-1,3-.45.57-1.23,1.49-1.23,1.49-.83,1-.93,1.28-.8,1.42s1.37-.8,1.72-1.15l.27.28c-1.26,1.21-2.73,2.33-3.38,1.66-.49-.51.1-1.56,1.14-2.68,0,0,.88-.92,1.35-1.44,1.38-1.48,1.55-2.28,1.23-2.85a4,4,0,0,0-.55-.62l-3.93,3.81c-.61.59-.33.85-.09,1.09a1.45,1.45,0,0,1,.18.25l-.65.63-2.17-2.25.66-.64c.45.32.54,1,1.53,0l7.79-7.55c.7-.67.65-.84.29-1.21-.1-.1-.17-.21-.25-.29l.66-.64Zm-1.47-.13c-.24-.24-.61.11-.92.41l-3.4,3.3a2.73,2.73,0,0,0,.42.49c.87.9,1.64,1.1,3.46-.66,1.13-1.1,1.69-2.09,1.25-2.64l-.63-.77A1.29,1.29,0,0,1,34.28,147.94Z" style="fill:#004996"/><path d="M45.31,155.6,42.43,160l-.33-.23c1.74-3.08,2-3.87.45-5l-.17-.12c-.34-.23-.55-.45-1,.24l-2.83,4.11.28.19c.66.46,1.38.1,2.64-1.61l.35.24-3.85,5.58-.35-.24c1-1.53,1.44-2.66.81-3.1l-.42-.28-3.12,4.52c-.49.72,0,1,.39,1.25,1.52,1,2.2.54,4.66-2.34l.32.22L37,167.9l-4.79-3.3.52-.77.18.13c.47.32.69.47,1.38-.53l6.12-8.89c.54-.77.4-.87.15-1.09l-.43-.32.53-.76Z" style="fill:#004996"/><path d="M48.65,157.64c.9.53,2,1.37.87,4.74a19.38,19.38,0,0,1-1.67,3.55c-1.56,2.67-3.48,4.6-4.86,4.88a2.21,2.21,0,0,1-1.62-.2l-3-1.74.47-.8c.93.4.76.8,1.73-.85l5-8.58c.83-1.42.61-1.17-.16-1.78,0,0,.46-.81.47-.8Zm-1.9,1.15-5.45,9.29c-.54.92-.68,1,.25,1.56a1.47,1.47,0,0,0,1.86,0c1.06-.76,2.06-2.08,3.46-4.46,1-1.76,2.18-3.95,2.12-5.18a1.77,1.77,0,0,0-1-1.68C47.51,158,47.35,157.76,46.75,158.79Z" style="fill:#004996"/><path d="M54.74,161l-.42.85c-.3-.08-.88-.67-1.27.12L49.2,169.6c-1.2,2.39-1.07,3.82-.06,4.32s2.46-.72,3.5-2.8l3-6.08c.85-1.71.63-2.12,0-2.56l.41-.82,2.39,1.19-.41.83c-.69-.34-1.31.2-2.11,1.8l-2.6,5.19c-1.65,3.3-3.34,4.91-5,4.09A2.07,2.07,0,0,1,47.23,173a5.79,5.79,0,0,1,.69-3.16l4.17-8.34c.42-.82-.13-.91-.59-1.15l.41-.83Z" style="fill:#004996"/><path d="M62.88,166l.89-1,.32.14-2.33,5.47-.4-.13c1-2.91,1.3-5.11.18-5.61-.63-.29-1.5.17-2.5,1.58a23.73,23.73,0,0,0-2.26,4.17c-1.75,3.88-2,6.13-.74,6.72s2.66-1.1,3.84-3.32l.34.33c-1.65,3.09-3.32,4.39-4.68,3.78-1.71-.78-1.56-4.3.16-8.09a15.45,15.45,0,0,1,3-4.63c1.23-1.2,2.28-1.81,3.2-1.39A2.05,2.05,0,0,1,62.88,166Z" style="fill:#004996"/><path d="M68,166.71,65.1,180.09c-.18.84.14.89.44,1l-.36.85-2.68-1.14.37-.85c.76.26,1,.44,1.28-.64l.61-2.8-2.35-1-1,1.52c-1,1.49-.71,2,0,2.31l-.36.85-2.3-1,.36-.85c.59.25,1.18-.53,1.62-1.22l7-10.61ZM63,174.65l2,.86,1.34-6Z" style="fill:#004996"/><path d="M76.41,170.51l-2,5.37-.35-.14c.73-2.15,1.39-4.64.34-5.07-.28-.11-.5,0-.78.66l-4.22,10.28c-.35.84-.18,1,.29,1.19L70,183l-.36.86-3.05-1.26.35-.85c.09,0,.33.09.37.11.48.19.7.33,1-.49l4.29-10.44c.24-.57.18-.84-.12-1-1-.42-2.18,1.58-3.3,3.79l-.34-.15,2.31-5.19Z" style="fill:#004996"/><path d="M79.94,172l-.35.86-.31-.12c-.32-.14-.66-.29-1,.56l-4.14,10.18-.12.27c-.31.69,0,.87.45,1.05l.21.08-.36.88-2.88-1.18.35-.85.23.09c.41.17.76.25,1.11-.61l4.19-10.28c.33-.8.16-.91-.43-1.15l-.19-.08.35-.88Z" style="fill:#004996"/><path d="M83.91,181.6c-1.41,3.42-4.14,6.68-6,5.93s-1.58-4.73-.09-8.34c1.36-3.3,4.08-6.76,6-6S85.43,177.92,83.91,181.6Zm-4.92-2c-1.21,2.93-2.26,6.4-.68,7.05s3.41-2.94,4.49-5.57,2.35-6.36.68-7S80.2,176.7,79,179.63Z" style="fill:#004996"/><path d="M89.43,175.9l-1.11,11.73,3.22-7.2c.76-1.69.6-2.14,0-2.58l.38-.85,2.43,1.09-.38.85c-.7-.2-1.2,0-2.06,1.91l-4.76,10.64-.33-.15,1.27-13.28-3.75,8.38c-.73,1.62-.52,2.12.11,2.51l-.37.83-2.5-1.12.38-.85c.82.24,1.3-.14,2.16-2.07l3.83-8.55a.81.81,0,0,0-.5-1.17l-.18-.08.38-.85Z" style="fill:#004996"/><path d="M98.63,184.61c-.54,1.82-1.64,2.53-2.26,2.6-.05.62-.22,4.43-.13,5.28a8.38,8.38,0,0,0,1.3-2.41c.29-1-.21-1.12-.46-1.35l.22-.78,2,1.18-.22.77c-.38-.21-.74-.06-1.09.51a24.36,24.36,0,0,1-1.78,2.79c.1.61.13,1.4.46,1.59s.89-.69,1.24-1.48l.25.31c-.88,2.23-1.56,2.68-2.12,2.36s-.65-.93-.71-1.81c-.61.55-1.27.81-1.78.52-1.17-.67-1-3-.51-4.57a4.88,4.88,0,0,1,2.45-3.28A13.57,13.57,0,0,1,96,184c.5-1.71,1.31-3,2.19-2.49C98.88,181.9,99.07,183.1,98.63,184.61Zm-1.76-.92a13.59,13.59,0,0,0-.43,2.74c.61-.12,1.23-.83,1.62-2.17.25-.84.32-1.75-.1-2S97.12,182.84,96.87,183.69Zm-2.75,5.93c-.45,1.53-.46,3.69.2,4.07a1,1,0,0,0,1-.2,41.83,41.83,0,0,1,.14-5.91A3.25,3.25,0,0,0,94.12,189.62Z" style="fill:#004996"/><path d="M108,190l.21,5.72-.39-.32c-.18-2.33-.55-5.08-1.73-6-.31-.25-.48-.2-.47.5l.12,10.81a1.59,1.59,0,0,0,.75,1.56l.41.33v.9l-3.42-2.74v-.9c.11.09.35.24.4.28.53.43.8.68.79-.18l-.12-11a1.43,1.43,0,0,0-.51-1.22c-1.14-.91-1.44,1.05-1.62,3.29l-.38-.3.11-5.39Z" style="fill:#004996"/><path d="M112.79,186.21c1-.63,2.15-.31,2.16,2.43s-1.08,4.5-2.07,5.23c0,0,0,0,0,0,.4-.12,1.07-.31,1.38,2,.09.7.21,1.88.21,1.88.14,1.27.26,1.48.45,1.35s.34-1.85.34-2.37l.37-.24c0,1.85-.2,3.91-1.09,4.49-.68.44-1-.56-1.08-2.11,0,0-.06-1.31-.1-2-.11-2-.54-2.49-1.15-2.27a5,5,0,0,0-.78.47l0,5.75c0,.89.37.63.69.42a1.59,1.59,0,0,1,.29-.15v1l-3,1.93v-1c.51-.44,1-.36,1-1.81l0-11.39c0-1-.14-1-.64-.68-.12.08-.25.14-.36.21v-1Zm-1.05,1.71c-.32.21-.33.75-.32,1.21l0,5a5.08,5.08,0,0,0,.61-.36c1.19-.77,1.83-1.63,1.82-4.29,0-1.66-.32-2.61-1-2.24l-1,.53Z" style="fill:#004996"/><path d="M117.85,182.57l4.61,11.08c.29.69.6.45.94.3l.14.86-2.91,1.48-.15-.85c.8-.47,1.14-.58.77-1.48l-1-2.32-2.56,1.3,0,1.78c0,1.77.47,1.9,1.2,1.53l.14.85-2.5,1.27-.15-.85c.64-.32.73-1.31.75-2.12l.34-12.64Zm-.11,9.31,2.2-1.12-2-5Z" style="fill:#004996"/><path d="M123.28,178.54l.24.87-.3.17c-.3.17-.64.33-.4,1.2l2.82,10.42.07.27c.17.74.51.59.92.37l.2-.11.25.89-2.75,1.52-.24-.88.23-.12c.38-.21.68-.45.45-1.32l-2.85-10.51c-.23-.82-.41-.76-1-.46l-.19.11-.24-.9Z" style="fill:#004996"/><path d="M125.57,177.34l6.33,8.88-2.07-7.43c-.49-1.74-.88-1.93-1.59-1.74l-.24-.87,2.39-1.15.25.87c-.62.41-.86.94-.31,2.92l3.06,11-.34.16-7.15-10.07,2.41,8.65c.46,1.66.91,1.84,1.6,1.62l.24.86-2.46,1.18-.25-.88c.73-.48.85-1.1.29-3.1l-2.46-8.82c-.2-.72-.73-.57-1.07-.41l-.17.08-.25-.87Z" style="fill:#004996"/><path d="M134.11,173.44l.21.88-.3.14c-.32.14-.66.26-.44,1.15l2.54,10.51.06.28c.15.74.51.63.93.44l.2-.09.22.91-2.83,1.24-.21-.89.23-.1c.4-.18.71-.38.49-1.26L132.64,176c-.19-.83-.38-.79-1-.54l-.19.09-.22-.91Z" style="fill:#004996"/><path d="M136.53,172.4l5.9,9.27-1.74-7.58c-.4-1.78-.78-2-1.5-1.84l-.2-.89,2.42-1,.21.89c-.64.37-.9.9-.43,2.91l2.57,11.2-.34.14L136.75,175l2,8.82c.4,1.7.83,1.91,1.53,1.72l.2.87-2.5,1.06-.2-.89c.74-.44.88-1.07.41-3.11l-2.06-9c-.17-.73-.7-.61-1.05-.47l-.17.08-.2-.89Z" style="fill:#004996"/><path d="M147,169l0-1.46.33-.14,1.43,5.62-.35.19c-.86-2.31-1.94-4.58-3.23-4s-1.12,3.24-.71,5.66c.11.7.25,1.37.39,2a15.41,15.41,0,0,0,1.65,4.72c.6.9,1.15,1.26,1.76,1s.79-.73,1-1.53a7,7,0,0,0-.24-2.78c-.35-1.53-.49-1.31-1.07-1.11l-.25.08-.2-.91,2.82-1.2.21.91-.2.11c-.48.25-.76.25-.51,1.32l1.14,5-.33.13-.76-1.73c-.17,1.31-.64,2.33-1.46,2.68-1.66.7-3.62-1.77-4.59-6a16.2,16.2,0,0,1-.43-5.82c.26-1.88.75-3,1.64-3.4C145.7,168,146.37,168.23,147,169Z" style="fill:#004996"/><path d="M156.36,164.31l-.18-1.34.32-.14,2.59,5.36-.37.21c-1.56-2.64-3-4.34-4.1-3.83-.63.28-.86,1.25-.46,2.92a23.83,23.83,0,0,0,1.66,4.45c1.77,3.87,3.29,5.56,4.57,5s.92-2.73,0-5.08l.47,0c1.24,3.28,1.12,5.39-.24,6-1.7.78-4.26-1.65-6-5.44a15.49,15.49,0,0,1-1.51-5.31c-.09-1.72.14-2.91,1.06-3.33A2.06,2.06,0,0,1,156.36,164.31Z" style="fill:#004996"/><path d="M166.67,166.34c1.63,3.33,2.26,7.53.49,8.4s-4.59-2-6.31-5.46c-1.57-3.2-2.35-7.53-.52-8.43S164.92,162.77,166.67,166.34Zm-4.74,2.39c1.39,2.85,3.29,5.93,4.83,5.17s.06-4.49-1.19-7-3.21-6-4.83-5.18S160.54,165.88,161.93,168.73Z" style="fill:#004996"/><path d="M165.9,158.35l7,8.83-3.9-10.58,2.08-1.17.45.81-.57.39c-.26.17-.12.54.25,1.19l5.25,9.42c.36.64.57.79,1,.57l.39-.19.45.8-2.73,1.51-.44-.8.19-.13c.49-.32.72-.38.18-1.35l-5.75-10.3,4.86,13.13-.31.17-8.72-11,.09.19,5,8.91c.82,1.48,1.49,2,2.17,1.62l.45.81-2.32,1.3-.44-.79c.68-.6.47-1.4-.43-3l-4.44-8c-.48-.84-.76-.8-1-.64l-.42.24-.45-.81Z" style="fill:#004996"/><path d="M173.22,154l7.81,8.16L176.19,152l2-1.35.53.77c-.3.23-.54.44-.54.44-.24.19-.06.54.35,1.16l6.09,8.9c.42.61.63.74,1,.48l.37-.23.52.77L184,164.67l-.51-.75.18-.15c.45-.36.68-.44.06-1.36L177,152.67l6,12.64-.29.2-9.68-10.12.11.18L179,164c1,1.39,1.66,1.85,2.3,1.41l.53.77-2.2,1.5-.51-.75c.63-.65.35-1.44-.7-3l-5.14-7.53c-.55-.79-.82-.73-1.1-.54l-.4.27-.52-.76Z" style="fill:#004996"/><path d="M180.56,148.22l10.59,8.7c.66.54.86.27,1.12.07l.6.71-2.23,1.87-.59-.71c.57-.57.87-.73,0-1.43l-2.22-1.83-2,1.64.9,1.56c.89,1.53,1.49,1.55,2.05,1.08l.59.71-1.91,1.6-.6-.71c.49-.4.06-1.28-.35-2l-6.28-11Zm4.78,8.1,1.69-1.41L182.29,151Z" style="fill:#004996"/><path d="M184.25,145.28l10.83,4.64-5.87-5.27c-1.37-1.23-1.86-1.22-2.46-.76l-.69-.62,1.78-2,.69.62c-.41.61-.37,1.15,1.19,2.55l8.67,7.79-.25.27-12.25-5.27,6.83,6.13c1.32,1.18,1.86,1.14,2.43.66l.67.61-1.83,2-.69-.62c.47-.71.27-1.27-1.31-2.69l-7-6.26a.81.81,0,0,0-1.27.12l-.13.14-.69-.62Z" style="fill:#004996"/><path d="M190.81,137.63c.67-.82,1.67-1.79,4.53.12a18.48,18.48,0,0,1,2.93,2.5c2.13,2.2,3.51,4.6,3.49,6.1a2.68,2.68,0,0,1-.52,1.64l-2.21,2.7-.64-.66c.56-.88.89-.61-.43-2L191.11,141c-1.14-1.18-1-.89-1.68-.23,0,0-.64-.65-.63-.65Zm.66,2.23,7.43,7.66c.73.76.79.92,1.48.08a1.7,1.7,0,0,0,.39-1.93,14.27,14.27,0,0,0-3.39-4.56c-1.4-1.45-3.18-3.11-4.32-3.32a1.62,1.62,0,0,0-1.76.68C190.94,138.91,190.65,139,191.47,139.86Z" style="fill:#004996"/><path d="M97.26,59s-8.39-9.27.57-18.68c8-8.44-1.19-13.6-1.19-13.6s2-4.1,15.81,2.47c0,0,18.82,9.27,10.14,29.89Z" style="fill:#ca0538"/><path d="M95.23,56.57s-.89-2.68,0-4.55a6.4,6.4,0,0,0,4.46,3.33s-3.24-3.57-.56-6.74a4.91,4.91,0,0,0,2.51,3.58s-1-5.28,3.33-6.58a9.36,9.36,0,0,0,.65,7.63,1.7,1.7,0,0,0,1.85,1c1.46-.12,2.21-2.68-.65-5.48a4.92,4.92,0,0,1,5.4,4.69s3.1-1.71,1.82-6.46c0,0,4.45,1.86,2.13,7.13a5.53,5.53,0,0,0,3.9-4.45s1.65,1.46.67,4.63a5.48,5.48,0,0,0,2.92-3.72s1.85,1.13.67,4.53" style="fill:none;stroke:#a4244a;stroke-width:0.7306px"/><path d="M131.76,104.8H114.35l-.2-17.71,1.41-3.4s9.37-1.93,12-9.6c0,0,.38-1.7,4.76-1.29h38s2.8-.44,1.46,2.12c0,0-2.63,6.7-10,7.43,0,0,3.08-.21.73,2.88a13.55,13.55,0,0,1-8.28,5s3,.52-1,4.22c-3.45,3.25-5.8,3.45-5.8,3.45s2.27.25-.59,3.67c0,0-2.68,3.23-10.49,3.38C135.41,104.91,131.76,104.8,131.76,104.8Z" style="fill:#fecc36"/><line x1="164.01" y1="82.35" x2="133.61" y2="82.35" style="fill:none;stroke:#d07500;stroke-width:0.48710000000000003px"/><line x1="155.82" y1="90.18" x2="126.7" y2="90.18" style="fill:none;stroke:#d07500;stroke-width:0.48710000000000003px"/><line x1="148.9" y1="97.85" x2="138.17" y2="97.85" style="fill:none;stroke:#d07500;stroke-width:0.48710000000000003px"/><path d="M86.12,104.8h17.41l.2-17.71-1.41-3.4s-9.37-1.93-12-9.6c0,0-.37-1.7-4.76-1.29h-38s-2.8-.44-1.46,2.12c0,0,2.63,6.7,10,7.43,0,0-3.08-.21-.73,2.88a13.55,13.55,0,0,0,8.28,5s-3,.52,1,4.22c3.45,3.25,5.8,3.45,5.8,3.45s-2.27.25.59,3.67c0,0,2.68,3.23,10.49,3.38C82.47,104.91,86.12,104.8,86.12,104.8Z" style="fill:#fecc36"/><line x1="53.88" y1="82.35" x2="84.27" y2="82.35" style="fill:none;stroke:#d07500;stroke-width:0.48710000000000003px"/><line x1="62.06" y1="90.18" x2="91.19" y2="90.18" style="fill:none;stroke:#d07500;stroke-width:0.48710000000000003px"/><line x1="68.98" y1="97.85" x2="97.01" y2="97.85" style="fill:none;stroke:#d07500;stroke-width:0.48710000000000003px"/><polygon points="101.95 92.71 84.63 88.44 84.63 90.42 96.02 100.53 81.83 110.29 81.83 111.93 103.67 107.23 121.23 122.57 121.11 103.61 142.54 99.04 142.54 97.39 121.17 95.78 101.95 92.71" style="fill:#bebebe"/><line x1="103.67" y1="107.23" x2="104" y2="105.61" style="fill:none;stroke:#000;stroke-width:0.0974px"/><path d="M107.65,63.55H92.55s.52-2.29-1.23-2.35a2.16,2.16,0,0,1-2.13-2.36h39.5a2.16,2.16,0,0,1-2.13,2.36c-1.75.06-1.71,2.35-1.71,2.35h-17.2Z" style="fill:#fecc36"/><path d="M107.83,67.89H94.48s-2.09.2-2.09-1.39,2.09-1.39,2.09-1.39H123.4s2.09-.21,2.09,1.39-2.09,1.39-2.09,1.39H107.83Z" style="fill:#fecc36"/><path d="M108.65,135.11H103.6s-1.66.16-1.66-1.11,1.66-1.11,1.66-1.11h10.68s1.66-.17,1.66,1.11-1.66,1.11-1.66,1.11h-5.63Z" style="fill:#fecc36"/><path d="M108.65,131.41h-5.92V96.19c1.3-16.73-10-25.11-10-25.11-1-1.58-.16-1.64-.16-1.64h32.68s.82.06-.16,1.64c0,0-11.27,8.38-10,25.11v35.22h-6.5Z" style="fill:#fecc36"/><path d="M108.4,147c-5.35-.06-4.08-6.46-4.08-6.46a3.77,3.77,0,0,0-1.89-3l-.14-.62h13.3l-.14.62a3.79,3.79,0,0,0-1.9,3s1.28,6.4-4.08,6.46Z" style="fill:#fecc36"/><line x1="108.72" y1="73.63" x2="108.72" y2="131.74" style="fill:none;stroke:#d07500;stroke-width:0.48710000000000003px"/><path d="M118.41,73.29s-6.59,7.24-4.83,27v31.41" style="fill:none;stroke:#d07500;stroke-width:0.48710000000000003px"/><path d="M113.4,73.88s-2.89,6.62-1.76,28.05v29.81" style="fill:none;stroke:#d07500;stroke-width:0.48710000000000003px"/><path d="M99.47,73.29s6.58,7.24,4.83,27v31.41" style="fill:none;stroke:#d07500;stroke-width:0.48710000000000003px"/><path d="M104.48,73.88s2.89,6.62,1.76,28.05v29.81" style="fill:none;stroke:#d07500;stroke-width:0.48710000000000003px"/><path d="M115.14,95.86a6.26,6.26,0,0,1-12.52,0,24.68,24.68,0,0,0,0-5l-18-2.37L96,98.54,81.83,110.29l22.41-4.81,17,15.1L121.11,102l21.43-4.56-21.37-3.6-.31-14.67-3.23,2.31s-2.74,4.33-2.56,13.82Z" style="fill:#fff"/><polygon points="115.44 115.47 104.24 105.48 102.57 105.91 102.54 107.47 103.67 107.23 115.36 117.44 115.44 115.47" style="fill:#bebebe"/><rect x="103.07" y="131.54" width="11.84" height="0.49" style="fill:#004996"/></svg>