<svg xmlns="http://www.w3.org/2000/svg" version="1.1" id="svg371" width="246.392" height="246.392"><defs id="defs4"><style id="style2">.cls-5{fill:#193966}.cls-6{fill:#fff}.cls-8{fill:#6f8839}.cls-10{fill:#971a2c}</style></defs><g class="U" id="g55" transform="translate(-146.713 -52.422)"><circle cx="269.909" cy="175.618" r="119.196" id="circle10" style="fill:#fff;stroke:#acacb1;stroke-width:8px;stroke-miterlimit:10"/><ellipse cx="269.538" cy="175.075" rx="85.205" ry="85.643" id="ellipse12" style="fill:#fff;stroke:#971a2c;stroke-width:5px;stroke-miterlimit:10"/><path d="M193.034 201.078a81.634 81.634 0 0 1-4.29-26.203c0-44.892 36.173-81.285 80.794-81.285 44.621 0 80.794 36.392 80.794 81.285a81.642 81.642 0 0 1-4.235 26.04l-78.343-14.172z" id="path14" style="fill:#096aa9"/><g id="g49"><g id="_Radial_Repeat_"><path class="cls-6" id="polygon16" style="fill:#fff" d="m200.212 156.891-3.628 1.943.922-4.04-2.914-2.873 4.073-.399 1.827-3.719 1.596 3.794 4.043.575-3.087 2.743.672 4.074z"/></g><g id="_Radial_Repeat_-2"><path class="cls-6" id="polygon19" style="fill:#fff" d="m208.658 140.874-3.992.997 1.88-3.692-2.123-3.498 4.047.609 2.68-3.16.621 4.068 3.78 1.546-3.664 1.905-.344 4.116z"/></g><g id="_Radial_Repeat_-3"><path class="cls-6" id="polygon22" style="fill:#fff" d="m220.242 127.072-4.116-.008 2.726-3.121-1.204-3.911 3.775 1.579 3.372-2.409-.393 4.097 3.288 2.422-4.018.953-1.339 3.906z"/></g><g id="_Radial_Repeat_-4"><path class="cls-6" id="polygon25" style="fill:#fff" d="m233.703 115.719-3.989-1.014 3.406-2.36-.212-4.087 3.275 2.454 3.858-1.512-1.382 3.877 2.596 3.152-4.129-.058-2.253 3.461z"/></g><g id="_Radial_Repeat_-5"><path class="cls-6" id="polygon28" style="fill:#fff" d="m249.235 108.611-3.621-1.958 3.88-1.456.793-4.015 2.576 3.18 4.11-.524-2.287 3.421 1.748 3.692-3.99-1.066-3.031 2.806z"/></g><g id="_Radial_Repeat_-6"><path class="cls-6" id="polygon31" style="fill:#fff" d="m267.45 104.869-3.032-2.783 4.117-.464 1.75-3.699 1.721 3.713 4.114.496-3.054 2.759.793 4.006-3.609-2.008-3.624 1.98z"/></g><g id="_Radial_Repeat_-7"><path class="cls-6" id="polygon34" style="fill:#fff" d="m285.217 107.348-2.26-3.439 4.106.556 2.601-3.16.762 4.021 3.868 1.487-3.635 1.929-.211 4.078-3.009-2.828-3.997 1.034z"/></g><g id="_Radial_Repeat_-8"><path class="cls-6" id="polygon37" style="fill:#fff" d="m301.466 113.335-1.352-3.887 3.846 1.542 3.294-2.428-.244 4.085 3.388 2.386-3.997.983-1.2 3.903-2.227-3.478-4.129.027z"/></g><g id="_Radial_Repeat_-9"><path class="cls-6" id="polygon40" style="fill:#fff" d="m316.248 123.649-.361-4.099 3.353 2.435 3.787-1.55-1.234 3.902 2.701 3.141-4.115-.023-2.118 3.492-1.309-3.917-4.011-.984z"/></g><g id="_Radial_Repeat_-10"><path class="cls-6" id="polygon43" style="fill:#fff" d="m328.17 136.65.652-4.064 2.656 3.181 4.051-.578-2.15 3.482 1.852 3.707-3.985-1.029-2.907 2.869-.312-4.118-3.649-1.934z"/></g><g id="_Radial_Repeat_-11"><path class="cls-6" id="polygon46" style="fill:#fff" d="m337.247 152.2 1.625-3.781 1.798 3.733 4.07.43-2.936 2.851.89 4.047-3.612-1.971-3.52 2.071.703-4.069-3.065-2.767z"/></g></g><path class="cls-6" d="M234.319 159.368c0-10.447 14.727-18.915 32.893-18.915s32.893 8.469 32.893 18.915-14.727 18.915-32.893 18.915c-13.625 0-28.976-5.526-33.969-12.315-1.664-2.263 1.076-3.988 1.076-6.6z" id="path51" style="fill:#fff"/><path class="cls-6" id="polyline53" style="fill:#fff" d="m237.621 164.018-20.72-10.074 24.354 2.858-17.026-17.505 21.578 8.401-8.052-21.589 16.414 18.472-1.551-25.188 11.07 22.546 5.341-24.788 4.32 25.008 12.406-23.096-2.563 25.451 17.426-18.405-10.664 23.977L314 137.518l-15.882 19.98 24.6-4.545-21.766 12.883"/></g><g class="C" id="g107" transform="translate(-146.713 -52.422)"><g id="g105"><path class="cls-5" d="M177.581 200.552a1.71 1.71 0 0 1-1.063.85 1.636 1.636 0 0 1-1.33-.176 1.782 1.782 0 0 1-.834-1.096c-.135-.481-.089-.927.138-1.335.228-.408.582-.68 1.062-.815a1.751 1.751 0 0 1 1.345.149c.431.23.712.579.843 1.047.136.481.082.94-.161 1.376z" id="path57" style="fill:#193966"/><path class="cls-5" d="m160.806 189.864-.224-1.216 3.57-.658.208 1.13c-.749.228-1.294.586-1.636 1.075-.342.49-.45 1.082-.322 1.777.115.622.372 1.088.771 1.396.4.309.874.412 1.422.311.909-.167 1.613-1.019 2.113-2.556.5-1.536 1.062-2.714 1.687-3.532.625-.818 1.493-1.33 2.603-1.535 1.255-.23 2.322-.008 3.199.669.878.677 1.443 1.702 1.696 3.077.272 1.477.085 2.731-.56 3.763l.995-.183.224 1.216-4.068.749-.212-1.15c.881-.237 1.541-.662 1.98-1.274.439-.612.585-1.316.438-2.112-.123-.666-.393-1.163-.811-1.49-.418-.327-.916-.438-1.493-.331-.909.167-1.629.992-2.162 2.475-.532 1.483-1.097 2.646-1.695 3.489-.598.844-1.438 1.365-2.52 1.564-1.211.223-2.26-.003-3.145-.679-.885-.675-1.451-1.686-1.699-3.032-.224-1.216-.092-2.243.395-3.081l-.757.14z" id="path59" style="fill:#193966"/><path class="cls-5" d="M175.286 182.914a1.714 1.714 0 0 1-1.201.641 1.641 1.641 0 0 1-1.275-.418 1.788 1.788 0 0 1-.619-1.229c-.045-.498.082-.928.381-1.287.299-.359.697-.562 1.193-.606a1.75 1.75 0 0 1 1.294.393c.381.307.593.701.637 1.185.045.499-.092.939-.411 1.323z" id="path61" style="fill:#193966"/><path class="cls-5" d="m162.685 165.625-.095 2.029 12.109.568.095-2.029 1.252.059-.343 7.323-1.253-.059.095-2.029-12.108-.568-.095 2.029-1.253-.059.344-7.323z" id="path63" style="fill:#193966"/><path class="cls-5" d="m166.47 144.501 11.856 2.522.418-1.965 1.227.261-1.503 7.062-1.226-.261.413-1.944-8.908-1.896 9.294 6.741-.331 1.555-11.031 2.371 8.715 1.854.409-1.922 1.227.261-1.144 5.378-1.227-.261.427-2.009-11.856-2.522-.428 2.008-1.227-.261 1.039-4.881 11.703-2.567-9.676-6.957 1.02-4.795 1.227.261-.418 1.965z" id="path65" style="fill:#193966"/><path class="cls-5" d="m175.776 122.741 10.98 5.135.851-1.82 1.136.531-3.059 6.541-1.136-.531.842-1.8-8.25-3.858 7.532 8.666-.674 1.44-11.281-.182 8.071 3.774.833-1.78 1.136.531-2.33 4.98-1.136-.531.87-1.86-10.98-5.136-.87 1.86-1.136-.531 2.114-4.521 11.98.143-7.854-8.963 2.077-4.44 1.136.531-.852 1.82z" id="path67" style="fill:#193966"/><path class="cls-5" d="m182.864 111.94-1.147 1.677 10.005 6.844 1.147-1.676 1.035.708-4.139 6.05-1.035-.708 1.147-1.677-10.005-6.844-1.147 1.677-1.035-.708 4.139-6.05 1.035.708z" id="path69" style="fill:#193966"/><path class="cls-5" d="m192.167 99.261.889-.982 3.099 2.805-.859.949c-1.885-.912-3.474-.652-4.768.777-1.018 1.125-1.38 2.399-1.088 3.825.292 1.426 1.091 2.729 2.396 3.91 1.468 1.329 2.896 2.036 4.283 2.12 1.388.084 2.58-.424 3.578-1.527a5.67 5.67 0 0 0 .703-.957c.192-.333.308-.63.347-.892l-3.229-2.923-1.363 1.506-.913-.827 4.608-5.091.914.827-1.082 1.195 3.784 3.425a14.812 14.812 0 0 1-2.852 4.626c-1.738 1.921-3.594 2.977-5.566 3.167-1.972.191-3.807-.482-5.503-2.018-1.674-1.515-2.553-3.293-2.635-5.333-.083-2.04.632-3.895 2.144-5.565.602-.666 1.225-1.184 1.868-1.556a5.846 5.846 0 0 1 2.064-.723l-.816-.738z" id="path71" style="fill:#193966"/><path class="cls-5" d="m216.833 95.917.775.986-3.421 2.687-3.559-2.101c-1.006-.59-1.784-.907-2.333-.951-.55-.044-1.102.152-1.658.589l-.243.191 3.302 4.204 1.632-1.282.774.986-5.8 4.555-.775-.986 1.598-1.255-7.487-9.533-1.598 1.255-.774-.986 4.793-3.764c1.562-1.228 2.922-1.88 4.078-1.958 1.155-.077 2.1.351 2.834 1.285.535.681.771 1.464.71 2.352-.061.888-.452 1.791-1.171 2.71.837-.34 1.626-.456 2.366-.348.74.108 1.602.43 2.583.965l2.28 1.258zm-13.983-4.291-.573.45 3.275 4.17.295-.232c.741-.582 1.161-1.215 1.26-1.899.099-.684-.127-1.377-.68-2.082-.471-.6-1.008-.956-1.612-1.069-.604-.113-1.259.107-1.965.662z" id="path73" style="fill:#193966"/><path class="cls-5" d="m229.99 88.733.607 1.097-5.7 3.153-.607-1.098 1.411-.78-2.76-2.345-4.039 2.233.596 3.542 1.469-.812.606 1.098-4.096 2.265-.607-1.097 1.256-.695-2.245-14.37 1.662-.919 11.191 9.423zm-8.082-.835-4.1-3.49.873 5.274 3.227-1.785z" id="path75" style="fill:#193966"/><path class="cls-5" d="m237.994 75.447-1.196.457-.792-2.076-3.486 1.331 4.268 11.182 2.001-.764.447 1.171-7.034 2.685-.447-1.171 2.001-.764-4.268-11.182-3.465 1.323.792 2.076-1.217.464-1.616-4.234 1.217-.465.322.843 9.984-3.811-.322-.843 1.197-.457 1.616 4.234z" id="path77" style="fill:#193966"/><path class="cls-5" d="m247.288 70.636-1.972.487 2.905 11.769 1.972-.487.301 1.217-7.117 1.757-.301-1.218 1.972-.487-2.905-11.769-1.972.487-.301-1.218 7.117-1.757.3 1.218z" id="path79" style="fill:#193966"/><path class="cls-5" d="M254.093 80.823c-1.619-1.311-2.537-3.039-2.753-5.184-.222-2.203.354-4.085 1.728-5.646s3.269-2.463 5.686-2.707c2.417-.244 4.442.26 6.078 1.51 1.635 1.25 2.564 2.984 2.788 5.203.216 2.145-.342 4.022-1.674 5.63-1.333 1.609-3.236 2.538-5.711 2.787-2.475.249-4.522-.281-6.141-1.592zm9.194-1.7c.752-1.27 1.033-2.853.842-4.75-.202-2-.792-3.528-1.772-4.586-.98-1.058-2.15-1.519-3.512-1.382s-2.418.822-3.167 2.055c-.749 1.233-1.022 2.849-.821 4.848.191 1.897.782 3.393 1.773 4.487.99 1.094 2.159 1.574 3.507 1.438 1.348-.136 2.397-.838 3.15-2.108z" id="path81" style="fill:#193966"/><path class="cls-5" d="m286.498 67.995-.096 1.25-1.938-.148-1.021 13.337-1.739-.133-7.964-11.091-.703 9.169 2.092.16-.096 1.25-5.614-.43.096-1.25 2.004.153.926-12.086-2.114-.162.096-1.25 4.602.353 7.291 10.046.627-8.182-2.136-.164.096-1.25 5.592.429z" id="path83" style="fill:#193966"/><path class="cls-5" d="m305.633 87.112-.377 1.196-6.213-1.957.377-1.196 1.537.484-.203-3.616-4.402-1.386-2.154 2.873 1.601.504-.377 1.196-4.465-1.406.377-1.196 1.368.431 8.864-11.532 1.812.57.887 14.603 1.369.431zm-4.966-6.43-.298-5.376-3.219 4.268z" id="path85" style="fill:#193966"/><path class="cls-5" d="m327.254 83.066-.574 1.115-1.728-.89-6.125 11.891-1.551-.798-3.027-13.314-4.211 8.175 1.865.96-.574 1.115-5.006-2.578.574-1.115 1.786.92 5.551-10.776-1.884-.971.574-1.115 4.103 2.113 2.812 12.09 3.758-7.295-1.903-.981.574-1.115 4.985 2.568z" id="path87" style="fill:#193966"/><path class="cls-5" d="m327.089 100.953-5.317-4.097.766-.994 1.627 1.253 7.397-9.603-1.626-1.253.765-.993 5.073 3.908c2.191 1.689 3.496 3.56 3.913 5.612.416 2.052-.064 3.973-1.443 5.762-1.378 1.79-3.017 2.74-4.914 2.852-1.897.112-3.978-.704-6.24-2.447zm6.994-11.358-7.264 9.428.928.714c2.892 2.228 5.466 1.878 7.721-1.05 1.271-1.65 1.822-3.221 1.652-4.712-.171-1.492-.984-2.799-2.442-3.922z" id="path89" style="fill:#193966"/><path class="cls-5" d="m357.267 111.317.829 1.005-3.157 2.604-.786-.954c1.16-1.682 1.146-3.244-.044-4.687-.898-1.09-2.084-1.606-3.556-1.546-1.473.059-2.893.653-4.262 1.782-1.438 1.185-2.269 2.477-2.494 3.874-.227 1.398.162 2.704 1.164 3.919a6.575 6.575 0 0 0 1.9 1.596c.714.394 1.553.68 2.518.857l-1.138.938c-2.051-.389-3.773-1.429-5.169-3.122-1.46-1.772-2.098-3.646-1.911-5.621.186-1.976 1.14-3.673 2.859-5.091 1.742-1.437 3.62-2.06 5.632-1.868 2.012.192 3.733 1.157 5.166 2.895a7.466 7.466 0 0 1 1.204 2.013 5.45 5.45 0 0 1 .396 2.106z" id="path91" style="fill:#193966"/><path class="cls-5" d="m367.647 130.893-.887-1.459-6.749 3.945c-1.641.972-3.262 1.18-4.632.794-1.371-.385-2.859-1.718-3.736-3.2-1.005-1.698-1.598-3.828-1.373-5.305.225-1.477 1.189-2.719 2.893-3.728l6.777-4.012-1.001-1.691 1.079-.639 3.724 6.289-1.079.639-1.069-1.804-6.777 4.012c-1.174.695-1.906 1.517-2.195 2.467-.29.95-.186 1.843.422 2.869.57.962 1.354 1.397 2.318 1.571.964.174 1.759-.363 2.92-1.051l6.777-4.012-1.117-1.886 1.079-.639 3.706 6.202-1.079.639z" id="path93" style="fill:#193966"/><path class="cls-5" d="m369.313 144-.34-1.097c.786-.336 1.325-.777 1.616-1.322.292-.545.329-1.169.111-1.872-.175-.562-.481-.968-.919-1.218-.438-.25-.924-.292-1.456-.126-.673.208-1.134.652-1.384 1.331-.251.679-.51 1.614-.777 2.807-.268 1.192-.67 2.123-1.207 2.79-.538.667-1.27 1.145-2.193 1.432-1.289.399-2.396.295-3.321-.312-.926-.607-1.587-1.55-1.983-2.83-.449-1.448-.412-2.715.111-3.802l-.967.299-.366-1.181 3.95-1.225.347 1.118c-.954.389-1.581.918-1.88 1.589a2.837 2.837 0 0 0-.121 2.06c.2.646.527 1.108.981 1.383.454.275.961.326 1.521.152.952-.295 1.604-1.241 1.953-2.836.349-1.595.773-2.817 1.271-3.665.497-.848 1.277-1.437 2.343-1.767 1.177-.365 2.245-.261 3.206.312.961.572 1.642 1.506 2.043 2.799.366 1.181.37 2.212.015 3.093l.987-.306.366 1.181-3.908 1.212zm4.721 15.483-.379-1.223 1.891-.586-1.104-3.564-11.158 3.459.635 2.045-1.198.372-2.224-7.17 1.198-.372.628 2.024 11.157-3.459-1.092-3.522-1.891.586-.393-1.266 3.972-1.231.392 1.265-.735.228 3.159 10.187.735-.228.379 1.223-3.972 1.231z" id="path95" style="fill:#193966"/><path class="cls-5" d="M365.316 165.596c1.355-1.582 3.107-2.452 5.258-2.609 2.209-.162 4.074.465 5.598 1.882 1.522 1.416 2.373 3.335 2.55 5.758.178 2.422-.382 4.434-1.676 6.034-1.295 1.601-3.054 2.482-5.277 2.645-2.15.157-4.011-.452-5.582-1.828-1.571-1.376-2.448-3.304-2.63-5.785-.182-2.481.405-4.513 1.76-6.096zm1.448 9.238c1.249.787 2.824 1.11 4.726.971 2.004-.146 3.548-.695 4.634-1.645 1.084-.951 1.577-2.108 1.478-3.474-.101-1.365-.756-2.439-1.968-3.221s-2.819-1.1-4.823-.953c-1.902.139-3.413.688-4.534 1.649-1.121.96-1.632 2.116-1.533 3.466.1 1.351.773 2.419 2.021 3.207z" id="path97" style="fill:#193966"/><path class="cls-5" d="m374.898 200.669-12.024-1.535-.255 1.993-1.243-.158.914-7.162 1.243.158-.251 1.972 9.034 1.152-9.819-5.949.201-1.577 10.797-3.274-8.838-1.128-.249 1.949-1.244-.158.696-5.454 1.244.159-.26 2.037 12.024 1.534.26-2.037 1.244.159-.632 4.95-11.45 3.525 10.218 6.134-.621 4.862-1.243-.158.254-1.993z" id="path99" style="fill:#193966"/><path class="cls-5" d="m372.127 213.549-.369 1.181-3.465-1.083.343-1.096c.768.147 1.418.084 1.949-.189.53-.273.901-.747 1.112-1.422.189-.604.179-1.136-.031-1.595-.21-.459-.581-.771-1.113-.938-.882-.275-1.902.149-3.061 1.275s-2.206 1.905-3.14 2.339c-.935.433-1.94.48-3.019.144-1.218-.381-2.058-1.075-2.519-2.083-.461-1.008-.482-2.179-.065-3.514.448-1.433 1.197-2.456 2.25-3.067l-.966-.302.368-1.181 3.948 1.234-.35 1.117c-.89-.202-1.672-.134-2.346.203-.674.337-1.131.892-1.373 1.665-.202.646-.194 1.211.023 1.695s.605.814 1.166.989c.882.275 1.904-.118 3.066-1.182s2.204-1.829 3.126-2.296c.922-.468 1.908-.537 2.958-.209 1.176.367 1.998 1.056 2.466 2.066.468 1.01.498 2.168.09 3.475-.369 1.181-.965 2.027-1.786 2.542l.735.229z" id="path101" style="fill:#193966"/><path class="cls-5" d="m165.35 206.736.654 1.577 7.272-2.869c1.77-.71 3.403-.669 4.699-.078 1.296.59 2.563 2.134 3.205 3.732.734 1.831.996 4.028.548 5.452-.448 1.424-1.59 2.506-3.428 3.243l-7.31 2.932.731 1.824-1.164.467-2.721-6.783 1.164-.467.781 1.946 7.31-2.932c1.266-.508 2.115-1.209 2.546-2.104.432-.895.465-1.793.021-2.9-.416-1.038-1.125-1.587-2.051-1.906-.926-.319-1.794.09-3.046.593l-7.31 2.932.816 2.034-1.164.467-2.716-6.695 1.164-.467z" id="path103" style="fill:#193966"/></g></g><g class="K" id="g133" transform="translate(-146.713 -52.422)"><g id="g131"><path class="cls-5" d="m200.072 246.134-.906-1.02 1.233-1.096-2.99-3.362-3.781 3.362 2.311 2.598 1.019-.906.891 1.002-3.222 2.865-.891-1.001 1.134-1.009-2.31-2.599-4.011 3.567 3.125 3.515 1.299-1.154.891 1.001-2.334 2.076-7.656-8.608.954-.848 1.404 1.579 9.025-8.026-1.404-1.579.954-.848 7.535 8.473-2.269 2.018z" id="path109" style="fill:#193966"/><path class="cls-5" d="m216.405 255.787-.784.979-1.56-1.251-8.367 10.436-1.401-1.123-.519-13.81-5.752 7.175 1.684 1.35-.784.979-4.521-3.624.785-.979 1.613 1.293 7.583-9.457-1.702-1.364.784-.979 3.705 2.971.536 12.555 5.133-6.402-1.719-1.379.784-.979 4.503 3.61z" id="path111" style="fill:#193966"/><path class="cls-5" d="m225.954 264.955-1.148-.646.895-1.592-4-2.25-2.718 4.832 3.148 1.771.68-1.208 1.168.657-2.114 3.758-1.168-.657.744-1.323-3.148-1.771-2.459 4.372 2.079 1.17-.615 1.093-6.852-3.854.615-1.094 1.842 1.036 5.944-10.564-1.842-1.036.615-1.093 9.921 5.581-1.585 2.819z" id="path113" style="fill:#193966"/><path class="cls-5" d="M225.761 275.62c-.926-1.899-1.019-3.862-.279-5.888.76-2.079 2.12-3.515 4.078-4.307 1.958-.79 4.111-.757 6.459.101 2.347.858 4.005 2.214 4.973 4.066.968 1.854 1.069 3.827.304 5.921-.74 2.024-2.081 3.464-4.021 4.315-1.941.853-4.113.839-6.518-.04-2.405-.879-4.07-2.269-4.996-4.169zm9.27 2.57c1.254-.807 2.209-2.104 2.863-3.896.69-1.888.812-3.525.369-4.913-.444-1.389-1.328-2.324-2.651-2.808-1.323-.484-2.602-.339-3.837.436-1.235.775-2.197 2.105-2.887 3.993-.655 1.791-.763 3.398-.324 4.824.438 1.425 1.312 2.377 2.621 2.855 1.309.478 2.591.314 3.845-.492z" id="path115" style="fill:#193966"/><path class="cls-5" d="m256.583 283.709-.222 1.234-4.406-.791-.84-4.062c-.241-1.146-.533-1.939-.877-2.382-.344-.441-.874-.727-1.589-.855l-.313-.056-.945 5.262 2.102.377-.222 1.234-7.47-1.342.222-1.234 2.058.37 2.143-11.931-2.058-.37.222-1.234 6.172 1.109c2.013.361 3.446.95 4.3 1.767.854.817 1.176 1.81.966 2.979-.153.852-.59 1.548-1.31 2.089-.721.542-1.68.847-2.877.914.835.403 1.466.919 1.892 1.547.426.628.772 1.487 1.038 2.578l.605 2.545 1.409.253zm-6.33-13.341-.738-.133-.938 5.219.38.068c.954.171 1.727.068 2.318-.311.591-.378.966-1.007 1.124-1.888.135-.75.038-1.391-.29-1.919-.329-.528-.948-.874-1.857-1.037z" id="path117" style="fill:#193966"/><path class="cls-5" d="m271.602 270.978 1.341.033-.104 4.091-1.271-.032c-.526-1.979-1.75-2.992-3.674-3.041-1.454-.036-2.653.521-3.599 1.671-.946 1.149-1.44 2.612-1.485 4.386-.047 1.862.397 3.337 1.332 4.424.935 1.087 2.212 1.651 3.833 1.691a6.904 6.904 0 0 0 2.521-.388c.787-.28 1.574-.727 2.362-1.338l-.036 1.474c-1.685 1.293-3.654 1.911-5.911 1.854-2.362-.06-4.25-.808-5.66-2.244-1.411-1.437-2.088-3.269-2.033-5.498.057-2.258.837-4.083 2.342-5.476 1.504-1.393 3.416-2.06 5.732-2.002.848.021 1.64.159 2.376.412s1.37.614 1.904 1.082l.027-1.1z" id="path119" style="fill:#193966"/><path class="cls-5" d="m286.26 273.032-1.354.164-.197-1.639-4.467.539.606 5.024 3.451-.417-.163-1.354 1.331-.16.517 4.28-1.331.161-.182-1.507-3.452.416.644 5.329 4.67-.563-.208-1.726 1.331-.16.374 3.102-11.438 1.381-.152-1.268 2.098-.253-1.447-11.991-2.099.254-.152-1.267 11.256-1.359z" id="path121" style="fill:#193966"/><path class="cls-5" d="m304.655 265.917 3.622 11.568 1.974-.618.374 1.197-7.091 2.22-.374-1.196 1.951-.611-2.722-8.692-1.439 11.447-1.562.489-7.608-8.407 2.662 8.503 1.931-.604.374 1.196-5.399 1.69-.374-1.196 2.017-.632-3.622-11.568-2.017.632-.375-1.197 4.9-1.534 8.118 8.893 1.445-11.887 4.813-1.507.375 1.196-1.974.618z" id="path123" style="fill:#193966"/><path class="cls-5" d="m318.891 260.233-1.203.641-.775-1.456-3.972 2.114 2.378 4.467 3.069-1.634-.642-1.204 1.184-.63 2.026 3.806-1.184.63-.713-1.34-3.068 1.634 2.522 4.738 4.151-2.21-.816-1.534 1.184-.63 1.468 2.758-10.169 5.413-.6-1.126 1.865-.993-5.676-10.661-1.865.993-.6-1.127 10.008-5.328 1.427 2.68z" id="path125" style="fill:#193966"/><path class="cls-5" d="m332.541 246.735.764.994-1.586 1.218 8.146 10.609-1.424 1.093-13.537-2.779 5.601 7.293 1.712-1.314.765.994-4.596 3.529-.764-.994 1.64-1.26-7.383-9.614-1.73 1.328-.764-.994 3.767-2.893 12.321 2.466-4.998-6.509-1.748 1.343-.764-.995z" id="path127" style="fill:#193966"/><path class="cls-5" d="m345.422 238.682-.894.969-1.633-1.507-2.604 2.823 8.797 8.114 1.495-1.62.921.85-5.253 5.696-.922-.851 1.494-1.62-8.797-8.114-2.588 2.806 1.633 1.507-.908.985-3.332-3.072.909-.985.663.611 7.456-8.084-.663-.611.894-.969 3.331 3.072z" id="path129" style="fill:#193966"/></g></g><g class="I" id="g241" transform="translate(-146.713 -52.422)"><path class="cls-10" id="polygon137" style="fill:#971a2c" d="m294.173 213.106 1.121 1.652 7.376-1.865.11 3.688 10.073-7.266-12.246-.605 1.292 2.387z"/><path class="cls-10" id="polygon139" style="fill:#971a2c" d="m318.138 223.535 1.94-4.449h-15.601l1.069-1.491h14.532l-2.353-3.628 13.004 3.551z"/><path class="cls-10" id="polygon141" style="fill:#971a2c" d="m298.528 217.849 1.816 3.797h-6.605l.908 2.146h5.697l-2.312 4.913 13.525-4.169z"/><path class="cls-10" d="m213.293 221.503 3.449-2.181-3.329-2.058h11.046l1.629 1.258h18.908v1.291h-18.784l-1.52 1.69s-11.43.032-11.398 0z" id="path143" style="fill:#971a2c"/><path class="cls-10" id="polygon145" style="fill:#971a2c" d="m245.601 213.68-.606 1.078-6.33-.819-1.775.819-10.858-1.397 3.112-1.816-2.616-2.519 10.362 2.071 1.94 1.769z"/><path class="cls-10" id="polygon147" style="fill:#971a2c" d="m228.821 228.347 1.257-2.028-3.014-1.233 9.785-2.436 2.105.446 6.041-1.932 1.06 1.047-6.7 2.297-1.928 2.065z"/><g id="g179"><path class="cls-8" d="M289.533 235.638c-.578-.027-2.064 2.147-3.055 2.147-.991 0-1.569-2.149-3.468-2.148-1.899 0-4.421.689-6.33 1.46-1.039.419-2.185 2.409-2.246 4.133-.958.204-6.792 1.814-9.198 11.281a.499.499 0 1 0 .969.246c2.208-8.683 7.342-10.292 8.342-10.527.275.977 1.077 1.701 2.739 1.692 6.138-.138 11.202-3.853 11.917-5.174.716-1.321.908-3.083.33-3.11z" id="path149" style="fill:#6f8839"/><path class="cls-8" d="M279.226 244.817s3.784-.44 7.294.578 4.885 3.578 4.679 4.927c-.206 1.349-6.839 2.45-9.606 1.596-2.767-.854-4.679-3.055-4.569-4.321.11-1.266 4.321-1.009 5.147-.862.826.147 3.385 1.743 3.55 1.44.165-.303-1.872-1.844-3.193-1.982-1.321-.138-3.739-.252-3.303-1.376z" id="path151" style="fill:#6f8839"/><path class="cls-8" d="M290.51 233.478c.939-.753 1.225-2.111 1.032-2.326-.193-.215-1.67-.44-2.88.024-.898.516-1.079 1.786-.802 2.457.04.096-1.669 1.777-1.669 1.777l.184.171c.577-.42 1.794-1.524 1.847-1.485.591.437 1.455.049 2.287-.619z" id="path153" style="fill:#6f8839"/><path class="cls-8" d="M291.805 243.222c1.026-.681 1.114-1.929.978-2.103-.136-.174-1.461-.301-2.68.147-.94.478-1.368 1.565-1.247 2.123.017.08-1.914 1.584-1.914 1.584l.136.137c.622-.382 1.978-1.374 2.019-1.343.46.345 1.798.058 2.708-.546z" id="path155" style="fill:#6f8839"/><path class="cls-8" d="M295.586 241.664s-3.943 2.725-.867 4.706c3.076 1.981 7.782-2.539 9.557-2.56 1.775-.021 3.323.103 1.713-1.486-1.61-1.589-3.612-2.399-4.975-2.417-1.363-.018-4.417.807-5.429 1.757z" id="path157" style="fill:#6f8839"/><path class="cls-6" d="M294.72 246.538c1.013-.995 2.187-1.988 3.609-2.346.846-.128 1.743.039 2.486-.388.066-.04.137.059.076.108-.706.619-1.678.505-2.506.588-1.377.289-2.52 1.247-3.61 2.096-.035.033-.092-.022-.055-.058z" id="path159" style="fill:#fff"/><path class="cls-8" d="M290.457 237.465s-.423 2.326 1.439 2.429c1.862.103 6.256-.428 7.814-1.851 1.558-1.423 3.08-2.581 3.131-4.431.051-1.85-.143-2.67-.537-2.697-.394-.027-1.607 1.541-2.877 1.954-1.27.413-3.62-.603-6.658 1.514-2.37 1.651-2.313 3.083-2.313 3.083z" id="path161" style="fill:#6f8839"/><path class="cls-8" d="M306.222 240.123s1.935-.265 2.202-.493c.348-.297 1.775-1.638 2.986-.894 1.211.744-.055 2.284-.358 2.408-.303.124-1.607.196-2.202-.275-.595-.471-.55-.564-2.477-.619l-.152-.126z" id="path163" style="fill:#6f8839"/><path class="cls-8" d="M303.099 238.364s.991-.784 1.005-1.872c.014-1.088 1.266-3.413 1.266-3.413s.771 2.002.523 2.666c-.248.664-1.372 1.696-1.372 1.696s-1.187.894-1.242.922c-.055.028-.179 0-.179 0z" id="path165" style="fill:#6f8839"/><path class="cls-8" d="M307.019 235.821c1.653-.293 5.941-1.268 9.451-4.788.32-.321 1.747-1.904 1.961-2.328.826-1.636.908-2.108 1.415-3.43-.162-.147-4.292 2.787-5.61 2.966-1.318.179-7.962 6.359-7.192 7.487l-.025.092z" id="path167" style="fill:#6f8839"/><path class="cls-6" d="M306.694 236.069c1.88-2.16 3.887-4.343 6.427-5.732 2.655-.991 4.906-2.908 6.707-5.076.016-.024.057.005.036.028-1.832 2.161-3.783 4.561-6.532 5.551-2.677.952-4.781 3.343-6.638 5.229z" id="path169" style="fill:#fff"/><path class="cls-8" d="M313.111 235.163s3.661-3.578 6.606-3.261c1.214.13 2.975.545 3.804 1.179 1.183.903 1.192 2.083 1.192 2.083s-.451-.097-.951.079c-1.251.442-3.463 1.437-4.485 1.448-.636.007-2.133.454-3.055.206-.922-.248-2.238-.778-3.11-1.734z" id="path171" style="fill:#6f8839"/><path class="cls-6" d="M315.454 236.709c1.549-1.877 4.068-1.615 5.893-.3.018.012.002.041-.019.029-1.34-.809-3.042-1.212-4.529-.58a3.722 3.722 0 0 0-1.292.892c-.025.035-.08-.006-.053-.042z" id="path173" style="fill:#fff"/><path class="cls-6" d="M290.619 239.461c.496-1.971 1.957-3.789 3.957-4.431.669-.202 1.462-.215 2.073-.197 2.701.237 5.308-1.364 5.958-4.099-.188 1.212-1.166 2.491-2.135 3.359-3.532 3.281-7.855-.664-9.854 5.368z" id="path175" style="fill:#fff"/><path class="cls-6" d="M274.892 242.764a9.834 9.834 0 0 1 5.248-3.541c2.749-.56 5.795.091 8.223-1.614.576-.395 1.06-.991 1.167-1.693-.223 1.49-1.781 2.199-3.046 2.665-2.617 1.159-5.581.808-8.238 1.71-1.305.477-2.511 1.415-3.353 2.474z" id="path177" style="fill:#fff"/></g><g id="g203"><path class="cls-8" d="M228.502 235.552s-3.661-3.578-6.606-3.261c-1.214.13-2.975.545-3.804 1.179-1.183.903-1.192 2.083-1.192 2.083s.451-.097.951.079c1.251.442 3.463 1.437 4.485 1.448.636.007 2.133.454 3.055.206.922-.248 2.238-.778 3.11-1.734z" id="path181" style="fill:#6f8839"/><path class="cls-8" d="M252.245 236.663c.578-.027 2.064 2.147 3.055 2.147.991 0 1.569-2.149 3.468-2.148 1.899 0 4.421.689 6.33 1.46 1.039.419 2.185 2.409 2.246 4.133.958.204 6.726 1.281 9.132 10.748a.499.499 0 1 1-.969.246c-2.208-8.683-7.276-9.759-8.277-9.994-.275.977-1.077 1.701-2.739 1.692-6.138-.138-11.202-3.853-11.917-5.174-.716-1.321-.908-3.083-.33-3.11z" id="path183" style="fill:#6f8839"/><path class="cls-8" d="M262.387 245.078s-3.784-.44-7.294.578-4.885 3.578-4.679 4.927c.206 1.349 6.839 2.45 9.606 1.596 2.767-.854 4.679-3.055 4.569-4.321-.11-1.266-4.321-1.009-5.147-.862-.826.147-3.385 1.743-3.55 1.44-.165-.303 1.872-1.844 3.193-1.982 1.321-.138 3.739-.252 3.303-1.376z" id="path185" style="fill:#6f8839"/><path class="cls-8" d="M246.027 241.925s3.943 2.725.867 4.706c-3.076 1.981-7.782-2.539-9.557-2.56-1.775-.021-3.323.103-1.713-1.486 1.61-1.589 3.612-2.399 4.975-2.417 1.363-.018 4.417.807 5.429 1.757z" id="path187" style="fill:#6f8839"/><path class="cls-6" d="M246.837 246.856c-1.09-.849-2.233-1.807-3.61-2.096-.828-.082-1.8.031-2.506-.588-.067-.063.029-.158.096-.096.741.413 1.627.249 2.466.376 1.422.358 2.596 1.351 3.609 2.346.034.034-.017.092-.055.058z" id="path189" style="fill:#fff"/><path class="cls-8" d="M251.462 238.486s.423 2.326-1.439 2.429c-1.862.103-6.256-.428-7.814-1.851-1.558-1.423-3.08-2.581-3.131-4.431-.051-1.85.143-2.67.537-2.697.394-.027 1.607 1.541 2.877 1.954 1.27.413 3.62-.603 6.658 1.514 2.37 1.651 2.313 3.083 2.313 3.083z" id="path191" style="fill:#6f8839"/><path class="cls-8" d="M234.593 236.082c-1.653-.293-5.941-1.268-9.451-4.788-.32-.321-1.747-1.904-1.961-2.328-.826-1.636-.908-2.108-1.415-3.43.162-.147 4.292 2.787 5.61 2.966 1.318.179 7.962 6.359 7.192 7.487l.025.092z" id="path193" style="fill:#6f8839"/><path class="cls-6" d="M234.887 236.357c-1.877-2.082-3.94-4.246-6.606-5.256-2.749-.99-4.7-3.39-6.532-5.551-.019-.022.018-.054.036-.028 1.801 2.168 4.052 4.086 6.707 5.076 2.476 1.38 4.731 3.645 6.395 5.758z" id="path195" style="fill:#fff"/><path class="cls-6" d="M226.107 237.011c-1.504-1.645-4.066-1.428-5.821-.312-.018.013-.039-.016-.019-.03.898-.584 1.931-1.068 3.024-1.075 1.095.01 2.168.542 2.868 1.375.026.034-.023.075-.053.042z" id="path197" style="fill:#fff"/><path class="cls-6" d="M251.281 240.485c-.491-1.941-2.064-3.579-4.087-3.752-1.969-.017-4.268-.124-5.748-1.62-.969-.867-1.947-2.148-2.135-3.358.361 1.278 1.122 2.492 2.234 3.228 1.793 1.256 3.815.59 5.798 1.067 1.975.632 3.522 2.497 3.938 4.435z" id="path199" style="fill:#fff"/><path class="cls-6" d="M266.79 243.803c-2.708-3.866-7.73-2.572-11.577-4.192-1.265-.466-2.824-1.176-3.046-2.665.107.702.591 1.297 1.167 1.693 2.429 1.706 5.473 1.055 8.223 1.614 2.047.546 4.045 1.872 5.234 3.55z" id="path201" style="fill:#fff"/></g><circle class="cls-8" cx="251.906" cy="233.794" r="1.022" id="circle205" style="fill:#6f8839"/><circle class="cls-8" cx="254.961" cy="234.179" r=".606" id="circle207" style="fill:#6f8839"/><circle class="cls-8" cx="254.741" cy="235.915" r=".578" id="circle209" style="fill:#6f8839"/><circle class="cls-8" cx="250.714" cy="244.28" r="1.137" id="circle211" style="fill:#6f8839"/><circle class="cls-8" cx="253.28" cy="243.209" r=".441" id="circle213" style="fill:#6f8839"/><circle class="cls-8" cx="253.39" cy="245.131" r=".484" id="circle215" style="fill:#6f8839"/><circle class="cls-8" cx="251.012" cy="246.643" r=".491" id="circle217" style="fill:#6f8839"/><circle class="cls-8" cx="239.3" cy="238.06" r=".826" id="circle219" style="fill:#6f8839"/><circle class="cls-8" cx="237.886" cy="235.364" r=".977" id="circle221" style="fill:#6f8839"/><circle class="cls-8" cx="237.043" cy="238.721" r=".843" id="circle223" style="fill:#6f8839"/><circle class="cls-8" cx="233.438" cy="240.372" r=".865" id="circle225" style="fill:#6f8839"/><circle class="cls-8" cx="231.016" cy="238.721" r="1.155" id="circle227" style="fill:#6f8839"/><circle class="cls-8" cx="231.016" cy="241.831" r=".938" id="circle229" style="fill:#6f8839"/><circle class="cls-8" cx="228.335" cy="240.647" r=".969" id="circle231" style="fill:#6f8839"/><circle class="cls-8" cx="220.585" cy="228.347" r="1.024" id="circle233" style="fill:#6f8839"/><circle class="cls-8" cx="221.828" cy="230.806" r="1.051" id="circle235" style="fill:#6f8839"/><circle class="cls-8" cx="218.992" cy="230.806" r="1.051" id="circle237" style="fill:#6f8839"/><circle class="cls-8" cx="248.559" cy="247.817" r=".654" id="circle239" style="fill:#6f8839"/></g><g class="C" id="g343" transform="translate(-146.713 -52.422)"><path d="M248.539 207.54c-.055-1.321-6.86-2.552-9.997-1.396-3.138 1.156-5.009-1.596-7.486-.165-2.477 1.431-3.138.661-3.798.661-.66 0-4.789 1.761-6 3.083-1.211 1.321-6.55.605-6.55.605s-2.367 3.138-7.211 4.459c-4.844 1.321-6.44-.275-9.743-.275s-4.982 1.335-4.982 1.335c-2.367 1.541-9.559 1.859-9.344.009l.336-1.12c1.397-3.838 6.927-12.574 13.524-22.008.461-.66.023-1.326.495-1.982 4.498-6.245 10.141-13.454 14.725-17.463.652-.57-.006-1.223.55-1.761 1.418-1.374 4.548-3.207 5.56-3.963 0 0 11.183-7.939 17.502-6.591l37.376-3.468c2.092 4.569-4.291 4.018 1.984 5.724 6.275 1.706 15.633-5.119 24.606-4.514 0 0 11.539 1.28 21.117 8.436 1.012.756 4.142 2.59 5.56 3.963.556.539-.102 1.191.55 1.761 4.583 4.01 10.227 11.219 14.725 17.463.472.656.034 1.322.495 1.982 7.732 11.057 13.998 21.156 13.862 23.533-.106 1.86-6.55 1.541-8.917 0 0 0-1.679-1.335-4.982-1.335s-4.899 1.596-9.743.275c-4.844-1.321-7.211-4.459-7.211-4.459s-5.339.716-6.55-.605c-1.211-1.321-5.339-3.083-6-3.083-.661 0-1.321.771-3.798-.661-2.477-1.431-4.349 1.321-7.486.165-3.138-1.156-9.213.13-9.268 1.451l-16.761-12.757-11.518-.222-15.619 12.924z" id="path243" style="fill:#193966;stroke:#fff;stroke-miterlimit:10"/><path d="M235.199 161.45s.865-12.866 8.021-11.38c0 0 1.401-2.816 5.56-2.312 1.817.22 21.566 4.623 23.658 9.192 2.092 4.569-5.573 5.601.702 7.307" id="path245" style="fill:#193966;stroke:#193966;stroke-miterlimit:10"/><path class="cls-5" d="m270.421 192.324-21.608 3.509-1.218 10.996s.468 2.773.303 3.147c-.165.374-.543 9.815-.134 11.329.409 1.514 1.255 5.037 1.503 5.017.248-.021.475-1.941 2.966-3.042 0 0 2.133-.901 3.185 1.205s1.424 4.273 1.837 4.273c.413 0 2.165-3.851 3.837-3.686 1.672.165 1.76 1.364 1.985 1.766.225.402 1.669 2.837 1.876 2.858.207.021 1.327-2.193 1.778-2.954.451-.761 2.681-2.557 1.665-7.404 0 0 .135-1.459.522-1.651.387-.193 1.295-.826.827-1.954-.468-1.128-4.211-11.119-3.44-11.477.771-.358 3.055-.144 2.67-.815-.385-.671-1.789-2.818-.523-6.699.99-.498 1.964-.548 2.918 0 1.266 3.881-.138 6.028-.523 6.699-.385.671 1.899.457 2.67.815.771.358-2.972 10.349-3.44 11.477-.468 1.128.44 1.761.827 1.954.387.193.522 1.651.522 1.651-.671 4.86 1.207 6.768 1.665 7.404.458.636 1.751 3.107 2.02 3.127.269.02 1.272-2.406 1.569-3.042.282-.604.894-2.229 2.314-2.21 1.858.025 3.16 4.141 3.573 4.141.413 0 .784-2.167 1.837-4.273 1.053-2.105 3.185-1.205 3.185-1.205 2.491 1.101 2.718 3.021 2.966 3.042.248.021 1.094-3.503 1.503-5.017.409-1.514.031-10.954-.134-11.329-.165-.374.303-3.147.303-3.147l-1.218-10.996-21.608-3.509" id="path247" style="fill:#193966"/><g id="g341"><path class="cls-6" d="M242.889 151.929c-.296-.2-.83-.423-2.161-.337-3.819.248-4.672 8.862-4.672 8.862.846.268.599-2.952 5.491-2.587 4.892.365 7.115 2.725 7.245 2.587 0 0-5.911-4.788-5.904-8.525z" id="path249" style="fill:#fff"/><path class="cls-6" d="M247.438 148.041c4.404-.113 17.477 4.17 21.275 6.179 3.256 1.722 3.516 3.647 3.516 3.647s-8.078-4.245-17.784-3.517c0 0-8.403-.072-9.606-2.917-1.36-3.22 2.287-3.418 2.598-3.391z" id="path251" style="fill:#fff"/><path class="cls-6" d="M255.298 159.001c1.759-.395 2.33-2.376 2.413-2.595a.318.318 0 0 0-.302-.428h-1.932c-.17 0-.31.13-.319.3-.028.533-.2 1.587-1.126 1.567-1.239-.028-1.404-1.706-1.541-1.867-.104-.121-1.543-.059-2.241-.022a.319.319 0 0 0-.294.393c.455 1.7 2.021 2.496 2.233 2.573.212.077.964.148 1.556.163a9.714 9.714 0 0 0 1.554-.085z" id="path253" style="fill:#fff"/><path class="cls-6" d="M278.998 189.109c.354.205 1.168 7.054-2.436 7.122 0 0 3.798 3.53 4.459.351.661-3.179-.268-6.791-2.023-7.472z" id="path255" style="fill:#fff"/><path class="cls-6" d="M281.455 182.936s3.096 6.729.578 8.092c0 0 2.126 1.528 2.766.227.64-1.301-1.177-7.782-3.344-8.319z" id="path257" style="fill:#fff"/><path class="cls-6" d="M283.67 179.214c.458-.007 4.13 3.367 1.335 5.463 0 0 3.688.702 3.619-1.197-.069-1.899-2.229-4.197-4.954-4.266z" id="path259" style="fill:#fff"/><path class="cls-6" d="M253.323 169.987c.16.429-.703 3.242-4.53 2.353 0 0 .856 2.436 4.076 1.115 0 0 1.445-.826.454-3.468z" id="path261" style="fill:#fff"/><path class="cls-6" d="M260.424 165.795s-.867 5.216-2.381 5.353c0 0-1.913.206-2.697-.234 0 0 .261 2.243 2.064 2.05 1.803-.193 3.427-2.312 3.014-7.17z" id="path263" style="fill:#fff"/><path class="cls-6" d="M263.284 164.479s1.793 1.28-.907 3.456c0 0-.648.394-.031 1.005.617.611 2.508-1.406 2.55-2.085.042-.679-.104-2.764-1.612-2.376z" id="path265" style="fill:#fff"/><path class="cls-6" d="M275.559 171.303c1.132.402 4.838 4.368.716 4.954 0 0 1.183 2.422 3.358 1.294 2.175-1.128.826-4.347-.413-4.995-1.239-.648-3.028-1.611-3.661-1.253z" id="path267" style="fill:#fff"/><path class="cls-6" d="M271.486 180.936c.684.549 1.926 5.282-2.041 4.954 0 0-.149 1.872 2.267 1.569 2.416-.303 2.443-3.495 1.921-4.294-.522-.799-1.294-2.312-2.147-2.229z" id="path269" style="fill:#fff"/><path class="cls-6" d="M267.22 184.212s-.31 4.526-2.704 5.187c0 0-.083 1.693 1.61 1.466 1.693-.227 1.852-4.005 1.896-4.726.065-1.074-.802-1.926-.802-1.926z" id="path271" style="fill:#fff"/><path class="cls-6" d="M263.442 185.807s-2.725 4.211-5.45 1.156c0 0-.268 2.601 2.002 2.849 2.27.248 3.819-3.014 3.447-4.005z" id="path273" style="fill:#fff"/><path class="cls-6" d="M257.435 185.147c-.383.396-2.732.92-2.787-1.094 0 0-1.858.227-1.589 1.507.269 1.28 3.778 1.383 4.376-.413z" id="path275" style="fill:#fff"/><path class="cls-6" d="M282.815 168.131s1.548 3.095 4.128 3.323c0 0-5.422.888-4.128-3.323z" id="path277" style="fill:#fff"/><path class="cls-6" d="M287.108 166.851s2.849 3.261 5.367 3.117c-.286.219-1.177.802-2.302.688-1.125-.114-1.445-.288-2.302-1.239-1.083-1.203-.796-2.459-.764-2.567z" id="path279" style="fill:#fff"/><path class="cls-6" d="M290.948 165.836s2.315 2.787 6.722 2.56c0 0-4.748 2.064-6.784-2.56" id="path281" style="fill:#fff"/><path class="cls-6" d="M275.064 177c.974.314 1.564 4.211-1.046 4.156 0 0 .771 1.376 2.545.265 2.596-1.626-.508-4.476-1.499-4.421z" id="path283" style="fill:#fff"/><path class="cls-6" d="M294.402 178.868s2.278 2.792 5.284 3.468c.084.019-5.505 1.349-5.284-3.468z" id="path285" style="fill:#fff"/><path class="cls-6" d="M298.118 177.85s3.881 3.571 7.376 2.697c0 0-5.806 2.505-7.376-2.697z" id="path287" style="fill:#fff"/><path class="cls-6" d="M300.656 190.886s4.279 3.628 7.692 3.573c0 0-8.453 1.105-7.692-3.573z" id="path289" style="fill:#fff"/><path class="cls-6" d="M304.621 175.881s2.606 2.341 4.368 1.969c1.762-.372 2.367-.661 2.367-.661v.055s-2.821 2.78-4.486 1.624c-1.665-1.156-1.654-1.915-2.249-2.987z" id="path291" style="fill:#fff"/><path class="cls-6" d="M307.042 171.981s3.881 2.704 9.041 2.064c0 0-1.342 2.931-5.057 1.486-3.715-1.445-3.984-3.55-3.984-3.55z" id="path293" style="fill:#fff"/><path class="cls-6" d="M310.118 168.306s8.298 2.271 5.8.248c-2.498-2.023-13.789-7.307-14.966-7.514 0 0 15.998 4.025 20.787 9.021s-9.413 1.507-11.911-1.445c-.438-.49-.238-.519.289-.31z" id="path295" style="fill:#fff"/><path class="cls-6" d="M228.801 168.306s-8.298 2.271-5.8.248c2.498-2.023 9.575-5.601 10.752-5.807 0 0-11.251 2.799-16.073 7.761-4.152 4.273 9.578 1.761 11.411-1.892.438-.49.238-.519-.289-.31z" id="path297" style="fill:#fff"/><path class="cls-6" d="M306.778 189.38s5.45 4.541 8.725 4.569c0 0-3.124 3.241-8.725-4.569z" id="path299" style="fill:#fff"/><path class="cls-6" d="M315.362 187.337c2.092 3.274 5.913 5.586 10.531 6.117 0 0-11.725 2.039-10.679-5.637" id="path301" style="fill:#fff"/><path class="cls-6" d="M321.297 185.142s7.183 7.239 11.725 7.018c0 0-6.413 3.716-11.725-7.018z" id="path303" style="fill:#fff"/><path class="cls-6" d="M324.682 181.15s7.101 6.166 8.339 5.533c1.238-.633-2.78-4.982-2.78-4.982s9.468 7.927 9.358 9.303c-.606.994-5.945.974-7.101-.119-1.156-1.093-7.817-9.736-7.817-9.736z" id="path305" style="fill:#fff"/><path class="cls-6" d="M303.531 197.72c-1.04 1.461 2.792 7.097 6.812 5.408-1.903-.623-4.083-2.135-6.812-5.408z" id="path307" style="fill:#fff"/><path class="cls-6" d="M311.557 199.013s5.663 6.819 9.74 7.294c0 0-7.583 1.572-9.74-7.294z" id="path309" style="fill:#fff"/><path class="cls-6" d="M320.97 199.757c.336.426 7.892 9.288 11.862 10.156 0 0-8.725 1.514-11.862-10.156z" id="path311" style="fill:#fff"/><path class="cls-6" d="M331.924 201.078s4.706 8.725 8.752 9.055c0 0-5.56 3.881-8.752-9.055z" id="path313" style="fill:#fff"/><path class="cls-6" d="M338.309 199.373s6.963 14.532 10.239 15.22c3.276.688 5.202.083 4.761-1.046-.441-1.129-8.202-13.183-8.202-13.183s1.376 6.275 1.073 6.413c-.303.138-7.872-7.404-7.872-7.404z" id="path315" style="fill:#fff"/><path class="cls-6" d="M239.306 190.668s-4.279 3.628-7.692 3.573c0 0 8.453 1.105 7.692-3.573z" id="path317" style="fill:#fff"/><path class="cls-6" d="M233.183 189.162s-5.45 4.541-8.725 4.569c0 0 3.124 3.241 8.725-4.569z" id="path319" style="fill:#fff"/><path class="cls-6" d="M224.6 187.119c-2.092 3.274-5.913 5.586-10.531 6.117 0 0 11.725 2.039 10.679-5.637" id="path321" style="fill:#fff"/><path class="cls-6" d="M218.665 184.924s-7.183 7.239-11.725 7.018c0 0 6.413 3.716 11.725-7.018z" id="path323" style="fill:#fff"/><path class="cls-6" d="M215.28 180.932s-7.101 6.166-8.339 5.533c-1.238-.633 2.78-4.982 2.78-4.982s-9.468 7.927-9.358 9.303c.606.994 5.945.974 7.101-.119 1.156-1.093 7.817-9.736 7.817-9.736z" id="path325" style="fill:#fff"/><path class="cls-6" d="M236.431 197.502c1.04 1.461-2.792 7.097-6.812 5.408 1.903-.623 4.083-2.135 6.812-5.408z" id="path327" style="fill:#fff"/><path class="cls-6" d="M228.405 198.795s-5.663 6.819-9.74 7.294c0 0 7.583 1.572 9.74-7.294z" id="path329" style="fill:#fff"/><path class="cls-6" d="M218.992 199.539c-.336.426-7.892 9.288-11.862 10.156 0 0 8.725 1.514 11.862-10.156z" id="path331" style="fill:#fff"/><path class="cls-6" d="M208.038 200.86s-4.706 8.725-8.752 9.055c0 0 5.56 3.881 8.752-9.055z" id="path333" style="fill:#fff"/><path class="cls-6" d="M201.57 199.373s-6.963 14.532-10.239 15.22c-3.276.688-5.202.083-4.761-1.046.441-1.129 8.202-13.183 8.202-13.183s-1.376 6.275-1.073 6.413c.303.138 7.872-7.404 7.872-7.404z" id="path335" style="fill:#fff"/><path class="cls-6" d="M233.394 172.159s-5.141 2.367-9.165 2.064c0 0 3.945 4.239 9.165-2.064z" id="path337" style="fill:#fff"/><path class="cls-6" d="M229.321 176.921a4.106 4.106 0 0 0 2.585 1.073 4.106 4.106 0 0 0 2.589-.805A2.595 2.595 0 0 1 234 178.6c-.766 1.03-2.045 1.046-2.202 1.046-.157-.023-1.665-.265-2.257-1.541a2.504 2.504 0 0 1-.22-1.183z" id="path339" style="fill:#fff"/></g></g><g class="E" id="g369" transform="translate(-146.713 -52.422)"><path class="cls-6" d="M275.066 227.637s1.777-2.127 1.777-3.421.183-3.803-1.111-4.573c0 0-1.405-.476-2.134 0-.729.476-1.16 2.696-.747 4.443.413 1.747 2.216 3.55 2.216 3.55z" id="path345" style="fill:#fff"/><path class="cls-6" d="M282.407 226.573s1.624-2.127 1.624-3.421.151-4.321-1.031-5.092c0 0-1.284-.476-1.951 0s-1.044 3.214-.667 4.962c.377 1.748 2.025 3.55 2.025 3.55z" id="path347" style="fill:#fff"/><path class="cls-6" d="M290.328 223.35s1.429-1.799 1.241-2.664c-.188-.865-.464-2.926-1.84-3.168 0 0-1.442-.021-2.086.451-.644.472-.651 2.392.005 3.474.656 1.082 2.679 1.907 2.679 1.907z" id="path349" style="fill:#fff"/><path class="cls-6" d="M264.959 227.379s-1.777-2.127-1.777-3.421-.145-3.654 1.148-4.425c0 0 1.405-.476 2.134 0 .729.476 1.122 2.548.709 4.295-.413 1.747-2.216 3.55-2.216 3.55z" id="path351" style="fill:#fff"/><path class="cls-6" d="M257.68 226.319s-1.624-2.127-1.624-3.421-.151-4.321 1.031-5.092c0 0 1.284-.476 1.951 0s1.044 3.214.667 4.962c-.377 1.748-2.025 3.55-2.025 3.55z" id="path353" style="fill:#fff"/><path class="cls-6" d="M249.758 223.096s-1.429-1.799-1.241-2.664c.188-.865.464-2.926 1.84-3.168 0 0 1.442-.021 2.086.451.644.472.651 2.392-.005 3.474-.656 1.082-2.679 1.907-2.679 1.907z" id="path355" style="fill:#fff"/><path class="cls-6" d="M290.485 210.447s-3.36 2.044-7.018 1.177c0 0 5.511 4.17 7.018-1.177z" id="path357" style="fill:#fff"/><path class="cls-6" d="M279.413 211.126c-.072.609 1.904 2.406 4.053 1.186.085 1.129-4.478 2.512-4.569-.226 0 0-.062-1.188.516-.961z" id="path359" style="fill:#fff"/><path class="cls-6" d="M276.709 212.955s.071.753-2.126 1.775c-3.055.433.42-4.414 1.3-4.624 0 0-1.362 3.901.826 2.849" id="path361" style="fill:#fff"/><path class="cls-6" d="M249.912 210.447s3.36 2.044 7.018 1.177c0 0-5.511 4.17-7.018-1.177z" id="path363" style="fill:#fff"/><path class="cls-6" d="M260.984 211.126c.072.609-1.904 2.406-4.053 1.186-.085 1.129 4.478 2.512 4.569-.226 0 0 .062-1.188-.516-.961z" id="path365" style="fill:#fff"/><path class="cls-6" d="M263.688 212.955s-.071.753 2.126 1.775c3.055.433-.42-4.414-1.3-4.624 0 0 1.362 3.901-.826 2.849" id="path367" style="fill:#fff"/></g></svg>