<?xml version="1.0" encoding="UTF-8" ?>
<!DOCTYPE svg PUBLIC "-//W3C//DTD SVG 1.1//EN" "http://www.w3.org/Graphics/SVG/1.1/DTD/svg11.dtd">
<svg width="1000pt" height="984pt" viewBox="0 0 1000 984" version="1.1" xmlns="http://www.w3.org/2000/svg">
<path fill="#ffd734" stroke="#ffd734" stroke-width="0.09375" d=" M 211.6 0.0 L 787.3 0.0 C 794.2 6.0 800.0 13.1 806.7 19.3 C 827.5 40.5 848.7 61.3 869.5 82.6 C 876.2 89.7 883.4 96.3 890.1 103.5 C 879.8 116.0 871.8 130.2 864.4 144.6 C 846.8 179.9 835.6 218.1 830.0 257.1 C 829.0 268.1 826.5 278.9 826.8 290.0 C 826.2 301.3 825.5 312.6 825.9 324.0 C 825.9 332.3 827.0 340.6 826.8 349.0 C 826.8 360.4 828.3 371.8 829.7 383.1 C 830.2 391.1 832.3 398.9 833.1 406.9 C 838.8 439.3 845.5 471.6 854.1 503.3 C 858.4 488.7 864.9 474.5 874.4 462.4 C 882.3 452.9 892.3 444.4 904.7 441.7 C 917.0 438.4 931.2 440.3 941.1 448.8 C 948.7 455.6 953.0 465.4 955.4 475.2 C 957.0 494.6 963.1 513.3 970.7 531.2 C 976.9 546.2 984.0 560.9 991.8 575.2 C 994.8 581.2 998.9 586.8 1000.0 593.6 L 1000.0 601.3 C 998.0 610.7 990.6 617.7 982.8 622.7 C 975.6 627.4 967.6 630.6 959.5 633.2 C 965.9 656.1 961.3 680.9 951.1 701.9 C 942.0 721.1 929.0 738.2 914.1 753.2 C 890.4 778.1 862.1 798.0 833.0 815.9 C 815.3 826.6 797.1 836.4 778.6 845.5 C 768.7 850.9 758.0 854.5 747.6 858.6 C 703.0 876.0 658.4 893.4 614.7 912.8 C 573.2 932.0 533.1 954.7 497.8 984.0 L 497.5 984.0 C 474.9 964.3 449.8 947.8 423.7 933.2 C 399.5 919.2 374.0 907.5 348.2 896.6 C 310.9 880.5 273.3 865.3 235.7 850.2 C 228.3 847.5 221.5 843.7 214.5 840.3 C 179.3 822.2 145.3 801.5 114.4 776.6 C 100.2 764.9 86.4 752.5 74.8 738.2 C 61.0 722.3 49.6 704.2 42.6 684.3 C 36.6 666.3 34.5 646.5 40.0 628.1 C 29.6 624.2 19.1 619.8 10.5 612.5 C 5.3 608.1 1.3 602.1 0.0 595.4 L 0.0 588.5 C 0.8 581.6 5.1 576.0 8.2 570.1 C 23.0 542.7 37.2 514.5 43.9 483.9 C 45.3 470.3 48.4 455.6 58.7 445.8 C 65.6 438.4 76.0 435.1 86.0 435.6 C 98.5 435.5 110.6 441.2 119.5 449.8 C 133.3 462.7 141.2 480.5 146.8 498.3 C 153.3 471.3 159.6 444.3 164.4 417.0 C 167.0 402.3 169.6 387.6 170.8 372.8 C 172.1 362.6 172.1 352.3 173.1 342.0 C 173.3 326.7 173.1 311.3 173.2 296.0 C 173.0 284.3 170.8 272.7 170.0 261.0 C 167.1 241.6 163.2 222.2 157.8 203.3 C 147.3 167.9 132.0 133.7 110.1 103.9 C 111.2 100.3 115.0 98.1 117.4 95.3 C 148.9 63.7 180.1 31.6 211.6 0.0 Z" />
<path fill="#b9b6bb" stroke="#b9b6bb" stroke-width="0.09375" d=" M 222.2 22.2 C 372.5 22.1 522.8 22.2 673.0 22.2 C 707.9 22.2 742.7 22.1 777.6 22.3 C 805.2 50.3 833.2 78.0 860.8 106.0 C 841.9 134.4 828.7 166.2 819.0 198.8 C 805.0 246.1 799.9 295.8 802.9 345.0 C 803.7 353.3 803.2 361.7 803.7 370.0 C 804.9 388.0 807.6 405.8 810.6 423.6 C 815.0 447.8 820.1 471.9 826.3 495.7 C 838.2 532.1 835.4 573.3 817.1 607.0 C 804.1 631.5 783.8 651.6 761.0 667.0 C 737.8 682.5 712.4 694.2 686.6 704.8 C 650.4 719.7 613.7 733.9 578.7 751.6 C 549.6 766.7 520.7 784.3 499.5 809.9 C 488.1 795.5 473.6 783.9 458.4 773.6 C 427.7 753.3 393.8 738.3 359.8 724.2 C 325.5 709.5 289.9 697.2 257.3 678.7 C 227.6 662.3 200.2 639.6 183.5 609.6 C 166.6 580.0 161.8 544.2 168.8 511.0 C 170.1 503.7 172.7 496.8 174.4 489.6 C 180.9 462.9 186.8 436.1 191.0 409.0 C 194.2 389.5 196.1 369.8 196.2 350.0 C 200.7 289.4 192.8 227.7 171.1 170.9 C 162.8 149.2 152.9 128.1 139.8 108.9 C 167.2 80.0 194.8 51.1 222.2 22.2 Z" />
<path fill="#0e5ea4" stroke="#0e5ea4" stroke-width="0.09375" d=" M 495.1 80.2 C 543.7 78.9 592.6 89.3 636.2 111.0 C 664.4 124.9 690.4 143.2 712.7 165.3 C 766.6 217.9 799.2 291.7 801.5 367.0 C 801.4 380.0 802.0 393.0 800.4 405.9 C 794.9 467.8 769.1 527.6 728.4 574.5 C 721.2 582.2 714.4 590.4 706.2 597.1 C 651.4 647.9 576.8 677.3 502.0 675.8 C 422.8 676.2 344.5 642.3 289.6 585.4 C 264.0 558.7 243.2 527.2 229.0 493.0 C 209.5 446.8 202.5 395.6 207.8 345.8 C 214.7 281.7 242.9 220.0 287.3 173.2 C 292.4 166.9 298.8 162.0 304.5 156.4 C 356.4 109.6 425.2 82.0 495.1 80.2 Z" />
<path fill="#ffffff" stroke="#ffffff" stroke-width="0.09375" d=" M 490.2 92.2 C 535.4 90.0 581.1 98.9 622.3 117.7 C 655.4 132.7 685.6 154.1 710.6 180.4 C 757.7 229.5 786.5 296.0 789.6 364.0 C 789.8 378.3 790.2 392.7 788.5 406.9 C 784.4 446.4 772.1 485.0 752.5 519.5 C 734.5 551.4 710.1 579.6 681.4 602.4 C 648.2 628.6 609.1 647.5 567.9 657.0 C 520.9 667.9 471.2 666.5 425.0 653.0 C 385.4 641.7 348.3 621.6 317.1 594.8 C 257.2 543.3 220.1 466.0 218.1 387.0 C 215.8 322.1 236.9 256.8 276.1 205.1 C 317.2 150.7 378.3 112.1 445.0 98.1 C 459.9 94.9 475.0 92.9 490.2 92.2 Z" />
<path fill="#0e5ea4" stroke="#0e5ea4" stroke-width="0.09375" d=" M 465.8 97.3 C 513.3 91.0 562.4 96.8 607.1 114.4 C 602.7 125.9 596.7 136.8 589.5 146.9 C 552.1 122.5 508.4 106.7 463.5 105.9 C 464.3 103.0 465.0 100.2 465.8 97.3 Z" />
<path fill="#0e5ea4" stroke="#0e5ea4" stroke-width="0.09375" d=" M 399.0 115.0 C 418.8 107.2 439.3 101.2 460.3 98.4 C 455.0 117.7 441.3 133.6 425.8 145.9 C 405.6 161.7 381.1 172.3 355.6 175.3 C 341.1 176.5 325.8 176.1 312.7 169.2 C 337.8 145.9 367.4 127.8 399.0 115.0 Z" />
<path fill="#0e5ea4" stroke="#0e5ea4" stroke-width="0.09375" d=" M 441.8 138.3 C 449.2 129.9 456.4 121.1 461.0 110.7 C 505.8 111.1 549.7 126.4 586.9 151.1 C 572.9 171.3 555.4 188.8 536.8 204.8 C 532.9 201.1 529.2 197.3 525.4 193.5 C 521.5 189.6 517.0 186.2 513.1 182.1 C 514.5 185.4 515.3 188.9 517.1 192.0 C 522.2 197.4 527.9 202.4 533.0 208.0 C 529.8 210.6 526.6 213.2 523.3 215.7 C 523.8 217.2 524.4 218.7 525.0 220.1 C 528.9 217.4 532.5 214.4 536.3 211.5 C 539.7 214.5 542.9 217.7 545.8 221.2 C 552.5 228.6 559.0 236.1 565.2 243.8 C 566.4 242.4 569.1 241.0 567.2 239.0 C 558.8 228.2 549.3 218.3 540.2 208.1 C 559.1 192.0 576.4 174.0 590.8 153.9 C 606.4 164.0 620.6 176.1 633.7 189.3 C 647.5 202.6 659.8 217.4 670.9 233.0 C 680.1 246.1 688.8 259.6 695.8 273.9 C 675.2 284.2 654.8 294.9 634.3 305.3 C 629.5 307.5 625.0 310.3 620.0 312.1 C 606.8 292.4 593.9 272.3 579.0 253.8 C 578.7 256.1 578.5 258.3 578.3 260.6 C 591.8 277.8 604.0 296.0 615.8 314.4 C 607.2 319.4 598.1 323.5 589.3 328.2 C 583.8 330.8 578.7 334.0 573.0 336.3 C 577.3 335.8 582.1 337.3 586.0 335.1 C 596.7 329.7 607.1 324.0 618.0 319.0 C 621.2 324.9 623.7 331.2 626.4 337.3 C 628.1 337.3 629.8 337.3 631.5 337.2 C 628.6 330.3 625.4 323.5 622.1 316.8 C 639.6 307.6 657.3 299.0 674.7 289.8 C 682.6 285.9 690.2 281.7 698.2 278.2 C 708.6 298.0 716.6 319.1 722.1 340.8 C 723.6 340.6 725.2 340.5 726.8 340.3 C 721.7 319.3 713.9 299.0 704.3 279.7 C 703.6 278.4 703.1 277.1 702.5 275.8 C 714.4 269.5 726.4 263.5 738.4 257.4 C 744.3 254.5 749.9 251.2 755.9 248.7 C 781.5 298.6 792.1 356.3 785.1 412.1 C 783.7 423.1 781.9 434.1 779.1 444.8 C 772.0 443.9 765.1 441.8 758.0 441.0 C 749.8 439.6 741.5 439.5 733.3 438.5 C 734.8 426.4 735.1 414.2 734.8 402.0 C 735.1 390.1 733.5 378.3 732.2 366.5 C 731.8 366.6 731.0 366.6 730.6 366.7 C 729.8 370.4 728.1 374.0 728.7 377.9 C 730.9 398.1 730.8 418.5 728.4 438.6 C 705.9 438.2 683.4 440.2 661.4 444.6 C 659.6 433.5 658.1 422.4 655.4 411.5 C 653.7 411.2 652.1 410.9 650.4 410.6 C 652.9 422.1 655.0 433.7 656.5 445.5 C 626.7 451.8 597.5 461.4 570.1 474.9 C 572.0 475.6 573.9 476.9 576.1 476.9 C 579.4 476.0 582.5 474.1 585.7 472.8 C 608.6 463.0 632.5 455.3 656.9 450.4 C 659.3 467.4 658.8 484.7 658.5 501.9 C 657.4 523.6 654.0 545.1 650.0 566.5 C 638.4 568.3 627.0 571.6 616.0 575.8 C 609.2 562.0 601.8 548.4 595.1 534.5 C 592.8 533.7 590.6 532.8 588.3 531.9 C 592.4 539.5 596.1 547.3 600.0 554.9 C 603.8 562.6 608.3 569.9 611.5 577.9 C 599.7 583.3 589.0 590.9 579.4 599.5 C 543.5 584.9 509.7 564.4 481.8 537.4 C 483.5 535.9 485.5 534.6 486.9 532.9 C 487.3 531.4 487.2 529.9 487.4 528.5 C 486.9 528.4 485.8 528.3 485.3 528.2 C 482.9 530.0 480.9 532.8 478.0 533.5 C 470.9 527.7 465.1 520.6 458.8 514.1 C 456.9 513.8 456.7 516.4 455.8 517.6 C 461.7 524.6 468.6 530.6 474.6 537.5 C 455.0 554.6 437.0 573.7 422.7 595.4 C 415.1 591.6 408.4 586.4 401.5 581.6 C 369.8 558.1 343.6 528.1 320.9 496.0 C 316.6 489.6 311.6 483.6 309.0 476.2 C 336.3 462.5 363.5 448.5 390.7 434.6 C 392.0 434.0 393.4 433.4 394.8 433.1 C 404.0 450.3 415.7 466.1 426.9 482.0 C 428.4 481.5 429.9 481.0 431.5 480.5 C 421.6 466.3 411.4 452.2 402.4 437.5 C 401.1 435.2 399.7 432.9 399.3 430.3 C 405.5 427.3 411.4 423.4 418.0 421.5 C 414.8 421.5 411.7 420.6 408.5 420.6 C 404.2 421.7 400.8 425.3 396.4 425.8 C 395.1 423.2 394.2 420.4 393.2 417.7 C 391.5 417.8 389.9 417.9 388.2 418.0 C 389.7 421.5 390.9 425.0 392.1 428.5 C 380.7 434.8 368.9 440.4 357.3 446.4 C 340.5 455.1 323.6 463.7 306.6 472.2 C 289.1 436.5 277.3 397.9 273.1 358.3 C 271.2 356.9 269.4 355.5 267.6 354.1 C 271.9 395.8 283.9 436.7 302.4 474.3 C 284.6 483.5 266.8 492.7 248.9 501.6 C 233.5 469.5 223.9 434.5 221.4 399.0 C 218.8 365.2 222.8 331.0 232.0 298.4 C 243.3 301.6 255.0 303.5 266.7 304.8 C 266.8 305.0 267.0 305.3 267.1 305.4 C 266.5 313.0 266.5 320.7 266.6 328.3 C 268.1 328.5 269.7 328.8 271.3 329.1 C 271.0 321.2 271.6 313.2 271.9 305.3 C 299.5 306.6 327.2 304.6 354.4 299.2 C 356.7 312.4 359.5 325.4 362.8 338.3 C 364.4 338.3 366.0 338.3 367.6 338.4 C 364.5 325.0 361.2 311.7 359.2 298.1 C 386.5 292.6 413.2 283.9 438.6 272.3 C 438.5 270.6 438.5 268.9 438.5 267.2 C 412.9 279.0 386.0 287.8 358.5 293.6 C 354.4 269.3 352.3 244.5 354.2 219.9 C 355.4 206.2 357.4 192.4 362.3 179.6 C 365.4 178.6 368.7 178.2 371.9 177.4 C 382.4 175.0 392.4 170.9 402.2 166.5 C 413.6 188.6 424.9 210.8 436.1 233.0 C 437.5 232.5 438.8 232.1 440.3 231.6 C 438.1 226.0 435.1 220.8 432.5 215.5 C 423.8 198.5 415.2 181.4 406.5 164.4 C 415.5 159.0 424.7 153.6 432.6 146.5 C 434.3 145.1 435.9 143.4 437.9 142.3 C 455.2 147.1 470.8 156.5 485.5 166.6 C 490.4 170.1 495.4 173.6 499.9 177.6 C 500.6 176.1 501.2 174.5 501.9 172.9 C 483.6 158.6 463.8 146.0 441.8 138.3 Z" />
<path fill="#0e5ea4" stroke="#0e5ea4" stroke-width="0.09375" d=" M 611.9 116.3 C 671.2 140.5 721.6 185.6 752.1 241.9 C 752.5 242.8 753.4 244.5 752.1 244.9 C 734.8 253.8 717.6 262.7 700.2 271.4 C 674.8 223.4 638.9 180.5 593.8 149.9 C 600.7 139.2 607.2 128.1 611.9 116.3 Z" />
<path fill="#0e5ea4" stroke="#0e5ea4" stroke-width="0.09375" d=" M 298.3 183.3 C 301.7 179.8 304.7 175.7 308.9 173.2 C 310.5 173.7 312.0 174.4 313.6 175.0 C 313.7 175.4 313.9 176.3 314.0 176.8 C 286.4 211.8 271.5 255.6 267.4 299.7 C 256.0 298.9 244.6 297.0 233.6 293.6 C 246.6 252.7 268.6 214.4 298.3 183.3 Z" />
<path fill="#ffd734" stroke="#ffd734" stroke-width="0.09375" d=" M 482.7 236.1 C 490.3 215.9 498.2 195.9 506.1 175.8 C 513.2 195.9 520.6 215.9 527.5 236.1 C 522.0 233.0 516.7 229.5 511.2 226.4 C 511.1 264.9 511.2 303.4 511.2 342.0 C 511.2 346.3 508.2 349.8 506.6 353.7 C 503.9 349.2 501.5 344.5 499.2 339.8 C 498.6 338.7 498.5 337.3 498.5 336.1 C 498.5 299.5 498.6 263.0 498.5 226.4 C 493.2 229.6 488.0 233.0 482.7 236.1 Z" />
<path fill="#0e5ea4" stroke="#0e5ea4" stroke-width="0.09375" d=" M 272.5 300.2 C 276.6 256.1 291.5 212.2 319.8 177.7 C 331.8 181.1 344.4 181.3 356.8 180.4 C 347.0 210.2 347.5 242.2 350.5 273.0 C 351.3 280.1 352.3 287.3 353.5 294.4 C 326.8 299.6 299.6 301.9 272.5 300.2 Z" />
<path fill="#ffffff" stroke="#ffffff" stroke-width="0.09375" d=" M 462.3 255.3 C 473.7 249.1 485.0 242.5 495.8 235.3 C 495.7 237.2 495.7 239.1 495.7 241.0 C 485.9 247.1 476.0 253.1 465.9 258.6 C 464.7 257.5 463.5 256.4 462.3 255.3 Z" />
<path fill="#ffd734" stroke="#ffd734" stroke-width="0.09375" d=" M 439.2 238.4 C 453.9 251.3 468.2 264.7 482.7 277.9 C 476.5 278.0 470.4 277.0 464.2 276.7 C 498.0 343.2 531.9 409.7 565.7 476.2 C 570.6 478.5 575.7 480.3 580.5 482.6 C 581.6 483.0 582.3 484.0 582.8 485.0 C 591.5 502.2 600.3 519.4 609.1 536.6 C 601.1 533.6 593.1 530.5 584.8 527.9 C 582.5 536.0 580.2 544.0 577.9 552.1 C 568.4 534.6 560.0 516.6 550.6 499.1 C 551.7 493.3 553.6 487.7 554.2 481.8 C 552.4 477.2 549.8 472.9 547.6 468.5 C 516.0 406.5 484.5 344.5 452.9 282.5 C 449.6 287.7 446.3 293.0 443.2 298.4 C 441.6 278.4 440.8 258.4 439.2 238.4 Z" />
<path fill="#ffd734" stroke="#ffd734" stroke-width="0.09375" d=" M 529.9 278.8 C 545.2 266.2 560.5 253.5 575.8 240.9 C 574.2 260.5 571.6 280.0 569.5 299.6 C 566.3 294.2 563.0 288.8 559.7 283.5 C 544.4 312.4 530.1 341.7 514.9 370.5 C 512.5 366.0 510.3 361.4 507.9 356.9 C 521.2 330.4 534.9 304.2 548.2 277.7 C 542.1 278.0 536.0 278.7 529.9 278.8 Z" />
<path fill="#ffd734" stroke="#ffd734" stroke-width="0.09375" d=" M 255.2 328.4 C 294.9 337.8 335.8 341.1 376.5 340.8 C 380.8 348.0 387.8 352.8 395.2 356.2 C 379.1 360.0 362.6 362.3 346.1 364.1 C 325.8 365.8 304.8 366.6 285.0 360.9 C 277.6 359.0 271.4 354.1 266.0 348.9 C 260.3 343.5 255.9 336.4 255.2 328.4 Z" />
<path fill="#ffd734" stroke="#ffd734" stroke-width="0.09375" d=" M 695.9 346.1 C 715.6 345.4 735.2 342.1 754.0 336.2 C 756.8 335.1 759.7 335.6 761.9 337.6 C 755.8 351.0 742.9 361.1 728.5 364.3 C 711.7 370.4 693.5 370.5 676.0 369.0 C 655.6 367.4 635.6 363.3 615.8 358.2 C 621.1 355.6 626.4 352.8 630.5 348.5 C 632.2 346.8 633.5 344.8 635.2 343.1 C 655.3 345.6 675.6 347.6 695.9 346.1 Z" />
<path fill="#ffd734" stroke="#ffd734" stroke-width="0.09375" d=" M 381.2 338.0 C 398.8 338.0 416.4 337.7 434.0 337.1 C 442.1 337.4 450.6 335.9 458.0 339.9 C 464.4 343.0 468.2 351.1 465.8 358.0 C 464.4 362.8 459.5 365.3 457.7 369.8 C 456.5 372.2 456.8 375.3 458.5 377.5 C 460.9 380.8 465.0 382.2 468.7 383.4 C 475.2 385.5 481.9 387.3 488.6 388.7 C 484.5 397.3 479.9 405.6 475.7 414.1 C 474.7 413.1 473.8 412.2 472.8 411.2 C 472.7 414.5 473.1 418.2 470.4 420.7 C 463.7 416.8 459.7 409.9 455.5 403.6 C 454.7 405.1 453.9 406.7 452.9 408.0 C 451.4 408.0 450.0 407.2 449.1 406.0 C 445.7 402.0 443.6 397.2 441.3 392.6 C 439.6 392.4 437.4 393.4 436.3 391.6 C 432.4 386.9 431.0 380.7 429.1 375.0 C 428.4 376.7 427.7 378.3 427.0 380.0 C 422.7 373.2 421.7 365.1 419.8 357.4 C 405.9 353.7 391.2 348.9 381.2 338.0 Z" />
<path fill="#ffd734" stroke="#ffd734" stroke-width="0.09375" d=" M 550.9 342.8 C 554.8 339.6 560.0 338.3 565.0 338.5 C 575.0 338.7 585.0 338.3 595.0 339.2 C 606.7 339.6 618.4 339.1 630.0 340.3 C 620.0 350.9 605.5 355.3 591.8 358.9 C 589.6 366.5 588.8 374.7 584.3 381.4 C 583.5 379.8 582.8 378.2 582.1 376.6 C 580.3 382.3 578.7 388.3 574.9 393.0 C 573.7 394.6 571.6 394.2 569.9 393.7 C 567.7 398.1 565.6 402.7 562.5 406.6 C 561.4 407.9 560.0 409.5 558.0 409.1 C 557.0 407.7 556.3 406.2 555.6 404.7 C 551.3 410.8 547.4 417.6 540.9 421.5 C 539.2 419.0 538.1 416.2 538.0 413.2 C 535.6 412.4 535.0 410.0 533.9 408.1 C 531.0 401.9 527.6 395.9 524.8 389.6 C 534.2 388.1 543.9 385.5 551.4 379.4 C 553.8 377.5 555.8 373.9 554.0 370.9 C 552.1 366.5 547.1 364.0 545.8 359.2 C 543.9 353.4 546.0 346.6 550.9 342.8 Z" />
<path fill="#ffffff" stroke="#ffffff" stroke-width="0.09375" d=" M 524.8 361.0 C 530.7 358.0 536.7 355.1 542.6 352.0 C 542.6 353.7 542.6 355.5 542.7 357.3 C 534.8 361.1 527.0 365.2 519.2 369.2 C 520.7 366.3 521.6 362.5 524.8 361.0 Z" />
<path fill="#ffd734" stroke="#ffd734" stroke-width="0.09375" d=" M 393.9 359.0 C 400.7 356.6 407.2 360.7 413.9 361.5 C 414.7 364.6 415.4 367.7 416.0 370.9 C 395.4 381.0 372.9 387.2 350.0 388.9 C 332.8 389.8 314.8 389.5 298.9 382.0 C 290.6 378.1 282.8 371.3 280.7 362.0 C 298.4 368.1 317.3 368.0 335.7 367.4 C 355.3 365.9 374.8 363.3 393.9 359.0 Z" />
<path fill="#ffd734" stroke="#ffd734" stroke-width="0.09375" d=" M 597.4 363.0 C 602.3 362.2 607.2 361.1 611.9 359.5 C 634.1 365.8 657.0 370.0 680.1 371.8 C 696.1 372.5 712.4 372.2 727.8 367.3 C 726.4 376.7 718.1 382.7 709.8 385.9 C 692.1 392.8 672.5 392.3 653.9 390.3 C 633.5 387.6 613.6 381.7 595.3 372.3 C 596.1 369.2 596.8 366.1 597.4 363.0 Z" />
<path fill="#ffd734" stroke="#ffd734" stroke-width="0.09375" d=" M 337.0 391.8 C 364.5 391.7 392.1 385.4 416.7 373.1 C 418.0 376.5 419.7 379.8 421.5 382.9 C 404.0 394.5 384.0 401.8 363.4 405.6 C 352.7 407.3 341.0 407.9 330.9 402.9 C 326.3 400.8 323.8 396.1 323.1 391.2 C 327.7 391.1 332.4 391.6 337.0 391.8 Z" />
<path fill="#ffd734" stroke="#ffd734" stroke-width="0.09375" d=" M 594.5 374.7 C 617.3 386.0 642.5 392.9 668.0 393.9 C 674.7 394.8 681.4 393.6 688.1 393.4 C 687.7 399.2 683.6 404.2 678.3 406.2 C 667.3 410.4 655.2 409.2 644.0 406.9 C 624.8 402.8 606.2 395.4 589.8 384.5 C 591.7 381.4 593.1 378.0 594.5 374.7 Z" />
<path fill="#ffffff" stroke="#ffffff" stroke-width="0.09375" d=" M 480.2 383.9 C 485.1 381.2 490.2 378.9 495.0 376.0 C 494.7 376.4 494.1 377.1 493.8 377.4 C 492.6 381.0 490.7 384.2 487.1 385.7 C 484.8 385.1 482.5 384.5 480.2 383.9 Z" />
<path fill="#ffd734" stroke="#ffd734" stroke-width="0.09375" d=" M 446.9 476.0 C 464.1 442.9 480.7 409.6 497.9 376.5 C 500.0 380.9 502.4 385.1 504.4 389.5 C 505.0 390.6 504.1 391.8 503.7 392.8 C 488.4 422.8 473.0 452.8 457.7 482.9 C 459.0 488.3 460.4 493.7 461.4 499.1 C 461.1 502.0 459.1 504.4 457.9 507.0 C 450.1 522.4 442.1 537.7 434.5 553.2 C 431.9 545.0 429.9 536.7 427.2 528.6 C 419.2 531.3 411.3 534.3 403.3 537.1 C 411.7 520.3 420.5 503.7 428.8 486.9 C 429.4 485.8 430.0 484.7 430.8 483.8 C 435.9 480.7 442.5 480.0 446.9 476.0 Z" />
<path fill="#ffd734" stroke="#ffd734" stroke-width="0.09375" d=" M 364.8 407.9 C 385.5 403.8 405.7 396.4 423.3 384.7 C 424.6 385.0 425.8 385.3 427.1 385.6 C 427.9 389.4 429.3 393.1 431.1 396.7 C 425.5 401.1 419.7 405.1 413.5 408.5 C 403.7 414.2 392.2 415.9 381.0 415.7 C 374.8 415.7 368.2 413.4 364.8 407.9 Z" />
<path fill="#ffd734" stroke="#ffd734" stroke-width="0.09375" d=" M 584.0 387.3 C 585.3 386.9 586.6 386.5 587.9 386.1 C 605.4 398.1 625.6 405.5 646.3 410.0 C 642.0 416.9 633.3 417.8 626.0 417.6 C 619.2 417.1 612.4 416.2 606.0 414.1 C 596.5 410.2 588.0 404.3 580.0 398.0 C 581.9 394.7 583.2 391.1 584.0 387.3 Z" />
<path fill="#ffd734" stroke="#ffd734" stroke-width="0.09375" d=" M 506.3 393.3 C 508.3 397.4 511.6 401.2 511.2 406.0 C 511.2 419.0 511.2 432.0 511.2 445.0 C 511.3 448.6 511.2 452.3 511.9 455.9 C 514.8 459.9 519.5 462.4 522.1 466.7 C 522.3 487.5 522.2 508.2 522.8 528.9 C 516.9 522.7 511.2 516.2 505.1 510.1 C 499.8 515.9 494.8 521.9 489.7 527.9 C 489.0 507.2 487.7 486.6 487.1 465.9 C 490.9 462.5 494.7 459.2 498.5 455.8 C 498.7 440.3 498.3 424.7 498.6 409.2 C 500.6 403.6 503.9 398.6 506.3 393.3 Z" />
<path fill="#ffd734" stroke="#ffd734" stroke-width="0.09375" d=" M 406.0 414.9 C 415.4 410.5 424.3 405.2 432.5 398.7 C 434.1 399.0 435.7 399.5 437.3 400.1 C 438.6 402.9 440.0 405.6 441.6 408.3 C 434.6 413.3 426.5 417.1 418.0 418.5 C 413.6 419.3 409.2 418.0 406.0 414.9 Z" />
<path fill="#ffd734" stroke="#ffd734" stroke-width="0.09375" d=" M 573.7 401.4 C 575.3 400.9 576.9 400.4 578.5 400.0 C 586.7 406.4 595.4 412.1 604.9 416.4 C 601.9 419.8 597.2 420.6 592.9 420.0 C 584.3 418.6 576.4 414.5 569.4 409.5 C 571.0 406.9 572.5 404.3 573.7 401.4 Z" />
<path fill="#ffd734" stroke="#ffd734" stroke-width="0.09375" d=" M 514.1 408.4 C 516.8 413.8 519.6 419.1 522.2 424.5 C 519.4 425.1 516.7 425.7 513.9 426.2 C 514.1 420.3 514.0 414.3 514.1 408.4 Z" />
<path fill="#ffd734" stroke="#ffd734" stroke-width="0.09375" d=" M 443.3 410.1 C 447.0 413.2 451.8 414.1 456.5 413.5 C 456.7 415.0 458.9 416.9 457.2 418.1 C 451.6 422.7 445.0 426.1 437.9 427.5 C 432.3 428.2 427.5 424.2 425.5 419.2 C 431.9 417.2 437.8 413.9 443.3 410.1 Z" />
<path fill="#ffd734" stroke="#ffd734" stroke-width="0.09375" d=" M 554.4 414.8 C 559.2 415.6 563.9 414.3 567.7 411.4 C 573.2 415.2 579.1 418.5 585.4 420.6 C 583.6 424.6 580.5 428.2 575.9 428.5 C 567.1 429.1 559.6 423.5 552.7 418.8 C 553.3 417.4 553.8 416.1 554.4 414.8 Z" />
<path fill="#ffd734" stroke="#ffd734" stroke-width="0.09375" d=" M 490.7 424.3 C 492.3 420.6 494.1 417.0 496.1 413.6 C 496.3 417.5 496.3 421.4 496.3 425.4 C 494.4 425.0 492.6 424.6 490.7 424.3 Z" />
<path fill="#ffd734" stroke="#ffd734" stroke-width="0.09375" d=" M 446.8 427.7 C 451.1 425.2 455.5 422.6 459.5 419.5 C 461.9 422.1 464.8 424.2 468.1 425.8 C 464.8 429.5 461.0 432.9 456.1 434.4 C 452.4 433.3 448.8 431.3 446.8 427.7 Z" />
<path fill="#ffd734" stroke="#ffd734" stroke-width="0.09375" d=" M 543.2 426.9 C 546.1 425.1 548.8 423.0 551.3 420.6 C 555.3 423.6 559.6 426.3 564.0 428.8 C 562.0 432.5 558.1 435.3 553.8 435.1 C 549.3 433.9 546.0 430.4 543.2 426.9 Z" />
<path fill="#ffd734" stroke="#ffd734" stroke-width="0.09375" d=" M 482.4 440.5 C 484.1 436.8 485.9 433.3 487.7 429.8 C 490.6 430.7 493.4 431.6 496.3 432.3 C 496.2 435.9 496.3 439.6 496.3 443.2 C 491.5 443.3 486.8 442.2 482.4 440.5 Z" />
<path fill="#ffd734" stroke="#ffd734" stroke-width="0.09375" d=" M 514.1 433.0 C 517.8 432.3 521.5 431.2 524.9 429.7 C 526.6 433.2 528.7 436.5 530.1 440.2 C 525.3 443.0 519.7 444.1 514.1 443.9 C 514.1 440.3 514.1 436.7 514.1 433.0 Z" />
<path fill="#ffd734" stroke="#ffd734" stroke-width="0.09375" d=" M 466.3 431.2 C 468.3 432.3 464.0 436.1 463.3 433.7 C 463.7 432.4 465.0 431.5 466.3 431.2 Z" />
<path fill="#0e5ea4" stroke="#0e5ea4" stroke-width="0.09375" d=" M 662.1 449.4 C 683.7 445.2 705.7 443.2 727.7 443.6 C 722.1 487.0 706.6 528.6 685.1 566.6 C 675.2 564.8 665.1 565.2 655.1 565.6 C 660.3 539.1 664.0 512.1 663.7 485.0 C 664.0 473.1 662.9 461.3 662.1 449.4 Z" />
<path fill="#0e5ea4" stroke="#0e5ea4" stroke-width="0.09375" d=" M 690.3 567.5 C 711.7 529.3 727.2 487.3 732.8 443.8 C 747.9 444.3 763.0 446.1 777.6 449.9 C 768.1 487.2 750.5 522.4 726.8 552.8 C 721.0 560.0 715.2 567.3 708.5 573.7 C 702.6 571.1 696.5 569.2 690.3 567.5 Z" />
<path fill="#ffffff" stroke="#ffffff" stroke-width="0.09375" d=" M 59.1 460.0 C 67.6 444.2 90.7 439.5 105.2 449.8 C 123.1 461.5 133.6 481.3 139.9 501.1 C 141.2 506.0 143.5 510.9 142.4 515.9 C 135.3 553.8 142.7 594.2 163.0 627.0 C 181.3 656.7 208.8 679.8 239.1 696.9 C 271.8 715.9 307.6 728.8 342.4 743.3 C 376.7 757.4 410.9 772.2 442.8 791.2 C 463.8 804.0 484.1 818.7 499.6 838.1 C 516.4 817.6 538.1 801.9 560.8 788.7 C 614.1 757.6 673.0 738.4 729.0 713.1 C 760.2 698.4 790.6 680.7 814.4 655.4 C 831.6 637.2 845.1 615.4 852.5 591.4 C 858.6 571.9 860.6 551.3 859.0 531.0 C 858.7 525.3 856.7 519.6 858.5 514.1 C 862.6 498.3 869.1 483.0 879.1 470.1 C 885.3 462.6 892.6 455.8 901.5 451.5 C 910.8 447.5 921.9 448.6 930.8 453.3 C 940.4 458.5 945.8 469.1 946.9 479.7 C 947.9 493.0 942.0 507.6 929.7 514.0 C 922.5 502.0 915.6 489.9 908.5 477.8 C 897.7 483.3 889.3 493.8 886.8 505.8 C 884.5 517.0 886.7 528.6 890.9 539.1 C 895.9 551.6 903.0 563.1 911.3 573.6 C 919.4 584.6 927.8 595.3 935.6 606.5 C 943.8 617.6 951.5 630.0 952.8 644.1 C 955.2 665.4 948.7 686.8 938.7 705.5 C 922.3 735.5 897.3 759.7 870.4 780.4 C 837.6 805.6 801.2 826.0 763.9 843.9 C 728.8 857.7 693.5 871.3 658.6 885.7 C 635.1 895.3 611.6 905.2 588.8 916.7 C 557.4 932.8 526.8 951.0 499.8 973.8 C 498.7 974.8 497.2 975.2 496.1 973.9 C 480.6 960.5 463.7 948.6 446.2 937.8 C 420.6 921.8 393.7 908.0 366.0 895.9 C 322.2 876.6 277.6 858.9 233.2 840.9 C 202.8 825.9 173.1 809.2 145.4 789.6 C 128.6 777.7 112.5 764.8 98.0 750.1 C 83.7 736.0 70.9 720.3 61.3 702.7 C 50.4 682.8 43.7 659.7 46.9 636.9 C 48.2 627.4 52.7 618.7 57.7 610.7 C 69.3 594.1 81.9 578.3 94.1 562.1 C 103.3 549.3 111.4 535.1 114.2 519.4 C 115.5 510.7 115.4 501.5 111.7 493.4 C 108.0 484.6 101.0 477.7 92.9 473.0 C 85.7 485.0 78.6 497.1 71.3 509.1 C 54.4 500.0 49.6 476.0 59.1 460.0 Z" />
<path fill="#0e5ea4" stroke="#0e5ea4" stroke-width="0.09375" d=" M 303.5 479.3 C 303.8 479.3 304.6 479.3 305.0 479.4 C 308.4 487.3 313.8 494.2 318.7 501.3 C 341.6 533.5 368.3 563.4 400.4 586.7 C 406.6 591.3 413.1 595.4 419.5 599.7 C 411.2 612.7 404.2 626.6 399.5 641.3 C 364.3 627.6 332.1 606.3 305.1 579.9 C 283.4 558.3 265.0 533.3 251.3 505.9 C 268.7 497.1 286.1 488.2 303.5 479.3 Z" />
<path fill="#ffffff" stroke="#ffffff" stroke-width="0.09375" d=" M 96.3 485.0 C 101.0 489.2 105.0 494.6 106.1 501.0 C 107.4 508.0 102.9 516.0 95.8 517.8 C 89.8 519.6 83.5 517.6 77.7 515.6 C 83.6 505.2 90.2 495.3 96.3 485.0 Z" />
<path fill="#ffffff" stroke="#ffffff" stroke-width="0.09375" d=" M 526.6 498.8 C 534.6 493.7 542.8 489.1 551.0 484.5 C 550.5 486.5 550.0 488.6 549.6 490.6 C 541.2 495.2 533.2 500.1 525.1 505.2 C 525.5 503.1 524.3 500.0 526.6 498.8 Z" />
<path fill="#ffffff" stroke="#ffffff" stroke-width="0.09375" d=" M 894.9 505.9 C 895.8 499.3 900.3 494.0 904.8 489.5 C 910.9 499.8 917.2 510.0 923.2 520.4 C 917.2 522.6 910.4 524.3 904.1 522.0 C 897.6 519.8 893.9 512.5 894.9 505.9 Z" />
<path fill="#ffffff" stroke="#ffffff" stroke-width="0.09375" d=" M 51.1 494.5 C 53.8 500.7 55.9 507.3 60.4 512.6 C 66.9 521.0 77.4 526.1 88.0 525.8 C 94.9 526.0 101.3 522.8 106.2 518.2 C 101.6 534.9 91.9 549.7 81.2 563.2 C 73.1 573.8 64.8 584.2 57.1 595.1 C 51.4 602.5 46.4 610.5 42.9 619.2 C 32.6 616.1 22.0 611.7 14.7 603.4 C 8.6 596.5 8.8 585.9 13.3 578.2 C 28.4 551.5 42.3 524.0 51.1 494.5 Z" />
<path fill="#ffffff" stroke="#ffffff" stroke-width="0.09375" d=" M 949.9 499.5 C 957.5 525.1 968.4 549.5 981.0 573.0 C 984.1 579.2 988.5 585.0 989.8 592.0 C 991.3 598.7 988.4 605.8 983.6 610.5 C 976.3 617.8 966.4 621.5 956.8 624.5 C 953.6 616.1 948.9 608.5 943.7 601.4 C 935.6 589.6 926.8 578.3 918.2 566.9 C 908.1 553.6 899.0 539.2 894.7 522.9 C 898.8 526.4 903.5 529.5 909.0 530.2 C 920.3 531.9 932.3 527.4 939.6 518.6 C 944.5 513.2 947.3 506.3 949.9 499.5 Z" />
<path fill="#0e5ea4" stroke="#0e5ea4" stroke-width="0.09375" d=" M 463.9 553.9 C 468.6 549.7 472.8 544.8 478.1 541.1 C 480.4 542.7 482.4 544.6 484.5 546.5 C 511.1 570.6 542.1 589.4 575.2 603.0 C 565.8 613.6 556.6 624.7 550.8 637.8 C 507.6 632.1 464.7 620.1 426.8 598.1 C 437.2 581.9 450.2 567.4 463.9 553.9 Z" />
<path fill="#0e5ea4" stroke="#0e5ea4" stroke-width="0.09375" d=" M 654.0 570.9 C 671.2 569.3 689.0 570.6 704.9 577.8 C 663.1 619.6 608.1 648.3 549.6 657.6 C 552.4 641.7 561.2 627.6 571.3 615.3 C 583.1 601.2 597.7 589.1 614.7 581.8 C 627.3 576.4 640.5 572.6 654.0 570.9 Z" />
<path fill="#0e5ea4" stroke="#0e5ea4" stroke-width="0.09375" d=" M 404.2 643.2 C 408.7 628.6 415.7 615.0 423.9 602.2 C 462.0 624.4 505.1 636.7 548.6 642.7 C 546.7 647.8 545.3 653.1 544.4 658.5 C 497.4 665.3 448.7 660.0 404.2 643.2 Z" />
<path fill="#0e5ea4" stroke="#0e5ea4" stroke-width="0.09375" d=" M 870.2 640.1 C 874.0 634.9 880.5 631.7 886.9 632.8 C 897.2 634.2 905.5 641.4 912.0 649.0 C 918.8 657.5 923.5 669.1 920.0 679.9 C 919.0 683.8 917.0 687.3 914.7 690.6 C 909.8 697.6 905.3 705.0 900.2 711.9 C 899.0 710.8 897.8 709.8 896.7 708.7 C 898.1 706.4 899.5 704.1 900.9 701.7 C 897.4 696.8 892.4 693.2 888.2 688.9 C 879.1 680.3 870.6 671.2 861.0 663.2 C 859.5 665.1 858.1 667.0 856.4 668.7 C 854.7 668.9 853.7 666.9 852.4 666.1 C 858.4 657.5 863.9 648.5 870.2 640.1 Z" />
<path fill="#ffffff" stroke="#ffffff" stroke-width="0.09375" d=" M 877.5 641.7 C 880.5 640.3 884.0 640.6 886.9 642.1 C 893.7 645.2 899.0 650.6 904.1 655.9 C 909.6 661.3 914.6 668.1 915.5 676.0 C 915.4 681.6 911.8 686.2 908.7 690.6 C 908.0 691.7 906.3 693.7 905.1 692.1 C 893.3 681.5 882.2 670.1 870.6 659.3 C 868.9 657.6 866.1 655.6 867.4 652.9 C 869.9 648.5 872.8 643.9 877.5 641.7 Z" />
<path fill="#0e5ea4" stroke="#0e5ea4" stroke-width="0.09375" d=" M 145.6 647.3 C 147.4 646.7 148.5 648.4 149.2 649.8 C 136.1 662.8 123.5 676.4 110.4 689.5 C 107.6 692.4 104.5 695.1 102.5 698.6 C 103.2 699.9 103.9 701.2 104.7 702.5 C 103.2 703.3 101.7 704.1 100.2 704.9 C 96.1 698.5 91.5 692.4 88.0 685.7 C 89.3 684.9 90.7 684.3 92.1 683.5 C 93.9 685.4 95.0 688.6 97.9 688.9 C 101.8 685.5 105.6 681.9 108.8 677.8 C 106.2 672.2 102.1 667.5 99.0 662.1 C 94.5 663.1 89.8 663.6 85.8 665.9 C 82.6 667.9 84.9 671.9 85.8 674.5 C 84.2 674.9 82.6 675.4 81.1 676.1 C 77.9 670.5 74.0 665.4 70.8 659.8 C 72.1 659.1 73.5 658.4 74.9 657.7 C 76.7 659.0 78.5 660.8 80.9 660.8 C 84.7 660.9 88.3 659.7 92.0 658.9 C 109.9 655.1 127.7 651.1 145.6 647.3 Z" />
<path fill="#ffffff" stroke="#ffffff" stroke-width="0.09375" d=" M 104.9 660.7 C 114.1 658.6 123.2 656.7 132.4 654.6 C 127.3 659.8 122.1 664.8 117.1 670.1 C 115.9 671.2 114.7 672.4 113.2 673.1 C 110.1 669.2 107.7 664.8 104.9 660.7 Z" />
<path fill="#0e5ea4" stroke="#0e5ea4" stroke-width="0.09375" d=" M 147.1 666.8 C 148.2 665.7 149.3 664.6 150.4 663.5 C 156.5 669.4 162.3 675.6 167.9 682.0 C 166.7 683.0 165.5 684.0 164.3 685.0 C 162.6 683.5 161.2 681.7 159.2 680.6 C 157.4 680.6 156.4 682.2 155.2 683.3 C 148.4 690.8 141.5 698.2 134.6 705.7 C 130.4 710.8 125.4 715.2 121.4 720.4 C 120.7 723.4 124.0 725.5 125.5 727.8 C 124.4 728.9 123.2 729.9 122.1 731.0 C 116.1 725.1 110.3 719.2 104.8 712.9 C 105.9 711.7 106.9 710.5 108.0 709.4 C 109.7 710.8 111.1 712.6 113.1 713.6 C 115.5 714.2 116.8 711.7 118.3 710.4 C 129.3 697.8 141.2 685.9 151.9 673.1 C 150.4 671.0 148.7 668.9 147.1 666.8 Z" />
<path fill="#0e5ea4" stroke="#0e5ea4" stroke-width="0.09375" d=" M 833.0 678.9 C 838.1 674.2 843.0 669.1 848.1 664.3 C 849.3 665.4 850.4 666.6 851.6 667.7 C 850.5 669.7 848.6 671.6 848.7 674.1 C 849.5 678.3 852.9 681.2 855.7 684.2 C 867.5 696.2 878.9 708.6 890.9 720.4 C 890.3 721.3 889.6 722.1 888.8 722.9 C 884.4 722.5 880.3 720.7 876.1 719.5 C 859.4 714.6 842.7 709.5 825.9 704.7 C 834.5 713.6 843.4 722.2 851.7 731.3 C 854.0 733.7 856.2 736.2 859.3 737.6 C 862.2 738.9 864.8 736.5 867.3 735.1 C 868.4 736.2 869.5 737.3 870.6 738.3 C 865.5 743.6 860.2 748.7 854.9 753.8 C 853.9 752.7 852.9 751.7 852.1 750.5 C 852.4 747.9 855.0 745.8 854.5 743.1 C 853.3 739.5 850.6 736.6 848.0 733.9 C 837.8 723.9 828.2 713.1 818.1 703.0 C 815.0 703.6 812.8 705.6 810.6 707.5 C 809.4 706.4 808.2 705.2 807.1 704.1 C 810.8 700.4 814.3 696.6 818.4 693.3 C 821.4 693.5 824.2 694.8 827.1 695.6 C 842.6 700.1 857.9 704.8 873.4 709.2 C 865.3 700.8 857.3 692.3 849.1 684.0 C 847.2 682.1 844.9 680.0 842.1 679.8 C 839.8 680.3 837.9 681.6 835.9 682.6 C 835.1 681.2 834.0 680.0 833.0 678.9 Z" />
<path fill="#0e5ea4" stroke="#0e5ea4" stroke-width="0.09375" d=" M 167.8 689.4 C 168.9 688.0 169.9 686.6 170.7 685.1 C 177.7 690.5 184.4 696.2 191.4 701.7 C 196.7 705.8 199.5 713.1 197.5 719.6 C 195.2 727.5 187.6 734.6 179.0 733.7 C 176.3 733.7 173.8 732.4 171.4 731.1 C 174.3 736.7 172.4 743.3 169.4 748.4 C 167.1 753.3 163.2 757.6 163.0 763.2 C 166.6 762.3 169.0 759.2 171.4 756.6 C 172.2 757.5 173.2 758.5 174.2 759.3 C 170.3 762.8 166.8 768.1 161.0 768.6 C 156.8 769.2 152.9 765.2 153.5 761.0 C 154.0 755.0 158.3 750.3 161.6 745.4 C 164.4 741.3 167.9 736.5 166.4 731.1 C 165.3 728.3 162.6 726.4 160.6 724.2 C 155.5 729.9 150.9 736.1 146.0 742.0 C 144.8 743.5 143.3 744.9 143.1 746.9 C 144.4 748.8 146.2 750.4 147.8 752.0 C 146.6 753.3 145.4 754.6 144.2 755.9 C 138.3 750.6 132.0 745.8 125.9 740.8 C 126.9 739.5 127.9 738.2 129.1 737.1 C 131.3 738.0 133.2 739.5 135.2 740.7 C 137.0 739.1 138.8 737.3 140.4 735.4 C 149.5 724.2 158.5 712.9 167.6 701.7 C 169.3 699.6 171.2 697.5 172.5 695.1 C 172.5 692.3 169.4 691.1 167.8 689.4 Z" />
<path fill="#ffffff" stroke="#ffffff" stroke-width="0.09375" d=" M 168.3 714.4 C 172.4 709.6 175.9 704.2 180.7 700.1 C 184.0 702.9 187.9 705.3 190.2 709.1 C 191.9 714.1 188.2 718.8 185.2 722.4 C 182.5 725.7 178.3 728.8 173.8 727.2 C 170.2 725.6 166.4 723.3 164.2 720.0 C 165.1 717.8 166.9 716.2 168.3 714.4 Z" />
<path fill="#0e5ea4" stroke="#0e5ea4" stroke-width="0.09375" d=" M 793.5 715.5 C 792.7 713.6 794.8 712.6 795.8 711.3 C 807.0 720.7 818.4 729.9 829.7 739.2 C 835.5 743.6 840.7 748.7 846.9 752.7 C 848.4 751.9 849.9 751.1 851.4 750.3 C 852.2 751.6 853.1 752.9 854.0 754.3 C 847.4 758.9 840.7 763.4 833.8 767.7 C 833.1 766.3 832.3 764.9 831.6 763.4 C 833.6 761.9 835.6 760.4 837.6 758.9 C 834.9 754.8 830.7 752.1 827.0 749.0 C 825.2 747.1 823.1 749.6 821.4 750.4 C 817.5 753.5 812.7 755.6 809.2 759.1 C 810.1 763.3 810.8 768.0 813.5 771.5 C 815.9 774.0 819.0 771.3 821.4 770.3 C 822.3 771.6 823.1 772.9 824.0 774.2 C 818.4 778.2 812.6 781.9 806.8 785.7 C 806.0 784.5 805.2 783.3 804.3 782.0 C 807.0 779.4 808.5 775.7 807.3 772.0 C 802.8 753.2 798.1 734.4 793.5 715.5 Z" />
<path fill="#0e5ea4" stroke="#0e5ea4" stroke-width="0.09375" d=" M 219.4 724.0 C 225.3 726.5 230.9 729.6 236.7 732.3 C 233.7 749.2 230.5 766.2 227.3 783.1 C 238.7 770.3 249.8 757.2 261.0 744.2 C 266.6 746.8 272.1 749.8 277.9 752.3 C 277.4 753.8 276.8 755.4 276.0 756.9 C 273.8 756.3 271.7 755.2 269.5 754.6 C 267.3 755.9 266.5 758.4 265.3 760.4 C 259.1 773.6 252.6 786.7 246.1 799.8 C 245.2 801.8 244.1 803.7 244.1 805.9 C 245.3 807.9 247.9 808.7 249.8 810.0 C 249.2 811.5 248.6 813.0 248.0 814.5 C 240.4 811.3 233.2 807.2 225.7 803.8 C 226.4 802.3 227.0 800.8 227.5 799.3 C 230.0 800.1 232.5 801.0 235.0 801.8 C 244.0 785.6 251.3 768.4 259.9 752.0 C 246.9 767.6 233.4 782.9 220.2 798.4 C 219.3 800.3 217.2 799.5 215.5 799.4 C 219.4 778.5 223.3 757.6 227.2 736.7 C 220.9 749.2 215.0 761.9 208.7 774.5 C 207.2 777.7 205.1 781.1 205.4 784.9 C 205.6 787.6 208.2 789.1 210.0 790.7 C 209.4 792.2 208.8 793.6 208.2 795.1 C 201.9 792.1 195.4 789.2 189.2 785.7 C 189.7 784.3 190.3 783.0 190.8 781.6 C 193.1 781.9 195.7 783.0 197.9 781.7 C 200.7 780.4 202.2 777.4 203.7 774.8 C 208.9 764.3 214.1 753.8 219.1 743.2 C 220.7 739.8 222.7 736.5 223.7 732.9 C 222.3 730.5 219.4 729.6 217.2 728.2 C 217.9 726.8 218.6 725.4 219.4 724.0 Z" />
<path fill="#ffffff" stroke="#ffffff" stroke-width="0.09375" d=" M 801.1 727.3 C 807.6 733.0 814.4 738.3 821.1 743.9 C 816.7 747.1 812.1 750.0 807.6 753.0 C 805.2 744.5 803.3 735.9 801.1 727.3 Z" />
<path fill="#0e5ea4" stroke="#0e5ea4" stroke-width="0.09375" d=" M 758.3 736.5 C 763.8 733.5 769.4 730.8 775.1 728.2 C 775.7 729.8 776.4 731.3 777.0 732.9 C 774.8 734.5 769.8 735.3 771.4 738.9 C 774.2 745.3 777.7 751.3 780.6 757.6 C 785.5 767.1 789.8 776.8 794.9 786.1 C 796.7 789.6 800.8 786.4 803.3 785.5 C 804.0 787.0 804.7 788.5 805.4 790.1 C 798.1 793.8 790.8 797.3 783.4 800.9 C 782.7 799.5 782.0 798.1 781.3 796.8 C 783.4 795.3 785.6 793.9 787.7 792.3 C 780.5 776.1 771.9 760.5 764.2 744.5 C 764.1 744.3 763.9 744.0 763.8 743.8 C 767.9 764.1 772.2 784.4 776.5 804.7 C 775.2 804.8 773.4 806.4 772.4 804.9 C 758.6 789.5 744.8 774.1 731.0 758.8 C 738.0 772.3 744.6 786.0 751.5 799.6 C 752.9 802.3 754.8 805.1 757.9 806.3 C 760.0 806.7 762.1 805.9 764.2 805.6 C 764.7 806.9 765.3 808.3 765.7 809.8 C 759.6 813.2 753.2 816.2 746.8 819.1 C 746.3 817.8 745.6 816.4 745.2 815.0 C 746.8 812.9 749.5 811.0 749.5 808.0 C 749.1 803.6 746.7 799.8 744.8 795.8 C 738.5 783.7 732.9 771.1 726.1 759.2 C 723.5 759.7 721.1 760.7 718.6 761.7 C 717.7 760.3 717.0 758.8 716.3 757.4 C 722.2 754.6 727.9 751.5 733.8 748.9 C 745.2 761.6 756.8 774.1 768.0 787.1 C 765.5 770.9 761.4 755.1 758.4 739.0 C 758.4 738.4 758.4 737.1 758.3 736.5 Z" />
<path fill="#0e5ea4" stroke="#0e5ea4" stroke-width="0.09375" d=" M 697.2 765.0 C 703.2 762.8 708.9 760.0 714.9 757.9 C 715.4 759.3 715.9 760.8 716.5 762.3 C 714.4 763.5 712.2 764.5 710.3 766.0 C 710.3 768.6 711.5 771.1 712.5 773.5 C 719.1 788.5 725.1 803.8 731.9 818.8 C 734.6 818.4 737.2 817.7 739.8 817.0 C 740.2 818.5 740.8 820.0 740.7 821.6 C 733.2 824.8 725.8 828.3 718.0 830.8 C 717.7 829.2 717.3 827.7 717.0 826.1 C 719.0 825.2 721.0 824.2 723.0 823.3 C 722.8 818.9 720.5 815.1 719.0 811.2 C 713.4 798.0 707.8 784.8 702.3 771.6 C 705.4 792.5 708.4 813.4 711.4 834.3 C 710.3 834.6 709.2 834.8 708.0 835.0 C 694.9 818.5 682.1 801.7 668.5 785.4 L 671.7 786.2 C 670.6 785.8 669.5 785.3 668.3 785.2 C 671.7 790.8 673.8 797.0 676.4 802.9 C 679.7 810.8 683.1 818.7 686.4 826.7 C 687.8 829.6 689.3 833.0 692.4 834.5 C 694.6 835.2 696.9 834.5 699.1 834.5 C 699.6 835.9 700.0 837.3 700.5 838.8 C 693.9 841.4 687.5 844.3 680.9 846.9 C 680.4 845.4 680.0 843.9 679.5 842.4 C 681.8 840.5 684.5 838.3 684.3 835.0 C 683.9 831.8 682.6 828.8 681.4 825.8 C 676.7 814.7 672.0 803.7 667.4 792.6 C 666.3 790.0 665.0 787.6 663.4 785.3 C 660.9 786.1 658.5 786.9 656.1 787.8 C 655.6 786.2 655.0 784.7 654.5 783.2 C 660.6 780.9 666.4 777.6 672.8 776.0 C 683.1 789.6 693.9 802.8 704.5 816.2 C 702.1 799.1 699.4 782.1 697.2 765.0 Z" />
<path fill="#0e5ea4" stroke="#0e5ea4" stroke-width="0.09375" d=" M 286.6 760.9 C 292.2 759.5 298.7 759.7 303.6 763.2 C 309.0 766.7 311.9 773.0 313.0 779.2 C 315.7 796.5 307.6 815.2 292.9 824.8 C 286.7 828.9 278.5 830.4 271.5 827.3 C 265.6 824.4 261.5 818.4 260.1 812.1 C 257.5 800.1 260.1 787.1 267.0 776.9 C 271.8 769.9 278.3 763.6 286.6 760.9 Z" />
<path fill="#ffffff" stroke="#ffffff" stroke-width="0.09375" d=" M 289.6 765.8 C 293.3 764.6 297.5 765.1 300.6 767.4 C 305.0 770.4 306.3 776.1 305.8 781.1 C 305.0 789.0 302.2 796.6 298.8 803.8 C 296.1 809.5 293.0 815.1 288.5 819.5 C 285.2 822.5 280.6 825.0 276.1 823.5 C 270.8 822.2 267.1 817.4 266.7 812.1 C 266.2 802.5 270.0 793.4 273.8 784.8 C 277.5 777.4 281.8 769.4 289.6 765.8 Z" />
<path fill="#0e5ea4" stroke="#0e5ea4" stroke-width="0.09375" d=" M 321.5 770.3 C 330.1 773.5 338.6 777.2 347.2 780.6 C 352.7 782.6 357.5 787.1 358.9 792.9 C 360.6 799.9 358.6 808.3 352.5 812.5 C 350.1 814.3 347.0 814.3 344.1 814.5 C 349.2 818.0 353.3 823.6 353.2 830.0 C 353.0 836.1 350.6 842.7 345.4 846.3 C 340.0 849.7 333.3 848.3 327.8 846.2 C 319.5 842.9 311.3 839.5 303.0 836.2 C 303.3 834.6 303.6 833.0 303.9 831.4 C 306.2 832.1 308.5 832.8 311.0 832.9 C 312.5 832.3 312.6 830.4 313.2 829.1 C 317.4 814.1 321.5 799.0 325.9 784.0 C 326.4 782.1 326.9 780.2 326.5 778.3 C 324.5 776.9 322.1 776.0 319.9 775.0 C 320.5 773.4 320.8 771.8 321.5 770.3 Z" />
<path fill="#ffffff" stroke="#ffffff" stroke-width="0.09375" d=" M 336.5 782.5 C 340.0 782.1 343.5 784.5 346.6 786.3 C 350.9 788.9 351.4 794.6 350.4 799.0 C 349.5 803.0 347.9 807.7 344.0 809.5 C 338.8 810.7 333.7 808.2 329.1 806.0 C 330.0 799.9 332.3 794.1 333.8 788.1 C 334.5 786.2 334.7 783.7 336.5 782.5 Z" />
<path fill="#0e5ea4" stroke="#0e5ea4" stroke-width="0.09375" d=" M 363.5 788.4 C 371.1 793.0 378.9 797.3 386.6 801.8 C 386.3 803.3 385.9 804.9 385.6 806.4 C 383.2 805.3 380.8 804.1 378.4 803.1 C 377.6 805.1 376.9 807.0 376.4 809.1 C 373.6 822.5 370.6 835.8 367.6 849.1 C 367.1 851.7 366.1 854.3 366.3 857.1 C 367.9 859.4 370.5 860.6 372.8 862.0 C 372.6 863.7 372.4 865.4 372.2 867.1 C 364.4 862.9 356.8 858.3 349.1 854.0 C 349.3 852.4 349.6 850.8 349.8 849.1 C 352.1 850.2 354.4 851.7 357.0 851.9 C 358.1 851.0 358.3 849.4 358.7 848.0 C 362.3 832.0 365.8 815.9 369.3 799.9 C 369.0 798.9 368.6 798.0 368.3 797.0 C 366.3 795.8 364.3 794.6 362.3 793.4 C 362.7 791.7 363.1 790.1 363.5 788.4 Z" />
<path fill="#0e5ea4" stroke="#0e5ea4" stroke-width="0.09375" d=" M 637.2 789.2 C 644.4 787.5 651.8 791.0 656.9 796.1 C 665.1 804.8 669.3 817.1 668.9 829.1 C 668.9 837.6 666.9 846.6 661.4 853.4 C 657.7 858.0 652.0 861.0 646.0 860.8 C 638.7 860.7 632.1 856.1 627.7 850.4 C 618.6 838.5 616.4 822.3 620.0 808.0 C 622.2 799.5 628.1 791.0 637.2 789.2 Z" />
<path fill="#ffffff" stroke="#ffffff" stroke-width="0.09375" d=" M 636.5 794.7 C 642.6 792.4 648.3 797.0 651.1 802.1 C 656.2 810.9 658.9 820.9 660.4 830.9 C 661.1 837.4 661.4 844.7 657.4 850.3 C 654.2 854.7 647.7 857.3 642.7 854.3 C 636.9 850.8 634.2 844.2 631.8 838.2 C 628.6 828.6 625.7 818.3 626.7 808.0 C 627.3 802.3 630.6 796.3 636.5 794.7 Z" />
<path fill="#0e5ea4" stroke="#0e5ea4" stroke-width="0.09375" d=" M 390.0 807.2 C 390.3 805.5 390.5 803.9 390.8 802.3 C 398.6 806.0 406.3 809.8 414.0 813.6 C 413.4 815.2 412.9 816.8 412.7 818.5 C 410.3 817.6 407.9 815.8 405.2 816.2 C 403.6 819.6 403.1 823.5 402.1 827.1 C 399.0 839.5 396.1 852.0 393.0 864.4 C 392.4 866.6 392.3 868.9 392.3 871.2 C 397.3 874.1 402.9 878.3 409.0 877.2 C 415.0 874.4 416.8 867.4 419.6 862.1 C 420.8 862.7 421.9 863.3 423.0 863.9 C 420.6 872.2 417.9 880.4 415.3 888.6 C 401.9 882.0 388.5 875.5 375.3 868.6 C 375.3 867.0 375.5 865.4 375.6 863.8 C 378.0 864.6 380.3 865.8 382.8 865.8 C 384.2 863.6 384.8 861.1 385.4 858.6 C 388.8 844.3 392.4 830.1 395.8 815.8 C 396.1 814.2 396.7 812.6 396.1 811.1 C 394.3 809.4 392.1 808.4 390.0 807.2 Z" />
<path fill="#0e5ea4" stroke="#0e5ea4" stroke-width="0.09375" d=" M 597.3 805.6 C 598.3 805.4 599.4 805.2 600.4 805.0 C 603.5 813.7 607.0 822.3 609.8 831.1 C 608.6 831.5 607.4 831.8 606.1 832.2 C 602.8 826.4 599.1 820.2 593.0 816.9 C 588.7 814.6 583.0 816.4 580.1 820.1 C 577.4 823.8 576.2 828.5 576.4 833.0 C 576.5 840.0 578.5 846.8 580.6 853.5 C 582.8 860.0 585.4 866.7 590.0 872.0 C 592.9 875.2 597.6 877.5 601.9 875.8 C 606.6 874.4 610.5 870.7 612.0 866.0 C 614.2 860.2 613.4 853.8 612.5 847.8 C 613.8 847.6 615.1 847.4 616.5 847.2 C 617.8 854.1 618.4 861.4 616.0 868.1 C 613.3 876.0 605.4 882.0 597.0 881.8 C 590.2 882.2 584.0 878.3 579.7 873.4 C 571.1 863.1 567.6 849.2 568.6 836.0 C 569.8 827.1 573.0 816.9 581.6 812.6 C 586.2 810.0 591.7 810.2 596.4 812.4 C 596.6 810.1 597.0 807.8 597.3 805.6 Z" />
<path fill="#ffffff" stroke="#ffffff" stroke-width="0.09375" d=" M 327.3 811.1 C 332.8 812.8 338.8 814.7 342.4 819.5 C 345.9 824.4 344.2 830.8 342.1 835.9 C 340.5 839.4 337.1 843.2 332.9 842.2 C 328.6 841.1 324.1 840.1 320.8 837.1 C 320.5 835.0 321.3 832.9 321.8 830.9 C 323.6 824.3 325.5 817.7 327.3 811.1 Z" />
<path fill="#0e5ea4" stroke="#0e5ea4" stroke-width="0.09375" d=" M 424.9 823.9 C 433.3 827.8 441.1 832.9 449.4 837.1 C 449.2 838.7 449.0 840.3 448.8 841.9 C 446.3 840.6 443.7 839.2 440.8 839.1 C 439.0 856.5 437.2 873.8 435.5 891.1 C 434.9 895.4 440.0 896.8 442.9 898.8 C 442.7 900.5 442.5 902.2 442.3 903.8 C 434.4 899.3 426.3 895.2 418.6 890.5 C 418.4 888.9 418.5 887.3 418.5 885.8 C 421.1 886.8 423.7 887.8 426.3 888.8 C 428.8 874.0 429.5 859.0 431.3 844.1 C 431.7 840.4 432.6 836.6 431.5 832.9 C 429.2 831.6 426.9 830.2 424.7 828.9 C 424.7 827.2 424.8 825.5 424.9 823.9 Z" />
<path fill="#0e5ea4" stroke="#0e5ea4" stroke-width="0.09375" d=" M 531.4 848.3 C 537.5 843.8 543.9 839.8 550.3 835.7 C 550.3 837.4 550.3 839.2 550.4 840.9 C 544.0 845.8 542.3 853.9 540.3 861.2 C 537.5 870.8 534.9 880.4 532.1 889.9 C 530.8 894.2 531.3 898.7 531.3 903.0 C 531.6 907.7 531.2 912.4 532.3 917.0 C 534.6 915.8 536.9 914.5 539.2 913.1 C 539.2 914.8 539.3 916.6 539.3 918.3 C 531.5 923.6 523.8 928.9 515.8 933.9 C 515.8 932.0 515.7 930.1 515.8 928.3 C 518.9 926.2 523.2 924.3 523.6 920.1 C 523.9 914.4 523.4 908.7 523.5 903.0 C 523.9 897.4 519.6 893.2 517.3 888.5 C 513.6 882.8 511.0 876.4 506.6 871.3 C 504.8 871.7 503.2 872.5 501.5 873.2 C 501.5 871.4 501.5 869.7 501.5 868.0 C 508.9 863.3 515.9 858.2 523.4 853.7 C 523.4 855.5 523.4 857.3 523.4 859.2 C 521.4 860.5 519.2 861.7 517.5 863.4 C 516.3 865.3 517.6 867.5 518.6 869.2 C 522.1 875.2 525.5 881.2 529.0 887.2 C 531.7 877.8 534.3 868.3 537.0 859.0 C 537.8 856.3 537.7 853.6 537.5 850.9 C 535.4 851.8 533.2 852.8 531.1 853.7 C 531.2 851.9 531.0 850.1 531.4 848.3 Z" />
<path fill="#0e5ea4" stroke="#0e5ea4" stroke-width="0.09375" d=" M 454.9 842.1 C 468.7 851.4 481.9 861.4 495.3 871.2 C 495.3 880.8 496.3 890.4 496.5 900.0 C 495.5 899.7 494.5 899.3 493.5 899.0 C 491.9 889.5 491.3 879.4 485.8 871.1 C 484.3 868.6 481.9 866.8 479.4 865.5 C 479.1 884.6 479.2 903.8 479.5 922.9 C 479.6 927.5 484.1 929.9 487.4 932.3 C 487.4 934.1 487.4 935.9 487.3 937.7 C 479.3 932.1 471.6 926.2 463.5 920.7 C 463.5 918.8 463.5 916.9 463.6 915.1 C 466.1 916.8 468.7 918.4 471.4 919.9 C 471.6 901.3 471.2 882.5 471.0 863.8 C 471.4 859.7 468.2 855.4 464.0 855.1 C 462.1 854.7 460.9 856.6 460.2 858.0 C 458.2 862.3 457.8 867.0 457.1 871.6 C 456.0 870.8 454.9 870.0 453.8 869.3 C 454.2 860.2 454.5 851.1 454.9 842.1 Z" />
</svg>
