<svg xmlns="http://www.w3.org/2000/svg" xmlns:svg="http://www.w3.org/2000/svg" id="svg2" width="902.295" height="902.205" version="1.1"><metadata id="metadata8"/><path style="fill:#f6d353;fill-opacity:1;stroke:#9f6f25;stroke-width:4.01648808;stroke-miterlimit:4;stroke-opacity:1;stroke-dasharray:none" id="path2839" d="m 901.95663,450.31311 a 449.62402,452.33261 0 1 1 -899.2480424,0 449.62402,452.33261 0 1 1 899.2480424,0 z" transform="matrix(0.99893977,0,0,0.99285937,-0.70571587,4.0050803)"/><path style="fill:#2f2c7b;fill-opacity:1;stroke:none" id="path3616" d="m 450.64781,30.900261 c -231.91625,0 -419.937502,187.844569 -419.937502,419.562499 0,231.71793 188.021252,419.5625 419.937502,419.5625 6.53115,0 13.01047,-0.17401 19.46875,-0.46875 l -4.625,-838.406249 c -4.93272,-0.171431 -9.8692,-0.25 -14.84375,-0.25 z"/><path style="fill:#c72b40;fill-opacity:1;stroke:none" id="path3613" d="m 452.83531,30.900261 0,839.124999 C 683.7403,868.84289 870.55406,681.44823 870.55406,450.46276 870.55406,219.47729 683.7403,32.082634 452.83531,30.900261 z"/><path style="fill:#959595;fill-opacity:1;stroke:none" id="path3772" d="m 311.2405,489.29909 -68.94915,102.46611 6.70339,69.90678 121.61864,8.61864 105.33899,48.83898 65.11864,-56.5 43.09322,21.0678 25.85593,-24.89831 60.33051,16.27967 -49.79661,-197.27119 -309.31356,11.49152 z"/><path style="fill:#fdffff;fill-opacity:1;stroke:none" id="path3626" d="m 621.17906,250.30651 c -13.23697,0.1124 -27.44155,1.65903 -42.25,4.65625 -15.50021,3.13724 -33.93798,9.1305 -41.0625,13.3125 -5.21832,3.06309 -29.18983,26.54025 -36.96875,36.21875 -3.09437,3.85 -8.51493,11.725 -12.0625,17.5 -3.54757,5.775 -8.38354,13.52958 -10.71875,17.21875 -2.33521,3.68917 -4.84076,8.74803 -5.59375,11.25 -0.75298,2.50197 -2.47381,5.99739 -3.8125,7.78125 -5.9065,7.87065 -11.53095,23.99148 -13.15625,37.75 -0.96525,8.17105 -6.14627,28.7322 -6.8125,27 -1.23351,-3.20714 -5.61179,-23.80766 -6.21875,-29.3125 -1.32392,-12.0072 -7.37696,-28.75298 -12.8125,-35.40625 -1.2523,-1.53286 -2.85874,-4.75869 -3.5625,-7.1875 -0.70375,-2.42881 -3.10535,-7.37881 -5.34375,-11 -2.23841,-3.62119 -6.91109,-11.22593 -10.375,-16.875 -9.16689,-14.94967 -14.07968,-20.98142 -30.84375,-37.84375 -16.42594,-16.52221 -19.64172,-18.67385 -36.03125,-24.15625 -21.54099,-7.2056 -43.83555,-10.64579 -68.5,-10.5625 -20.33977,0.0687 -32.95219,2.20756 -46.71875,7.90625 -4.57056,1.89199 -9.52519,3.43027 -11.03125,3.4375 -5.54186,0.0266 -21.24799,3.89843 -29.46875,7.25 -10.23649,4.17337 -19.60512,10.11258 -32.84375,20.84375 -10.39365,8.42504 -14.56547,13.87713 -15.625,20.40625 l -0.59375,3.6875 38.08393,102.49018 5.72857,5.72857 c 11.22643,11.23347 18.66744,29.31454 18.78125,45.59375 0.08,11.43876 -1.70912,18.20978 -7.84375,29.5 -9.25344,17.03008 -15.48433,36.20974 -31.46875,97 -12.59062,47.88332 -20.49015,68.11515 -30.53125,78.15625 -2.92491,2.92491 -5.02652,5.50438 -4.65625,5.71875 1.04855,0.60707 35.37611,-13.32543 48.1875,-19.5625 25.71541,-12.51925 42.18636,-26.88526 50.6875,-44.21875 2.96775,-6.05112 3.81231,-6.68254 4.8125,-3.53125 1.07228,3.37846 -3.06003,14.91279 -12.09375,33.6875 -14.74347,30.64124 -19.42255,42.90476 -20.84375,54.5625 -0.92263,7.56807 0.80514,14.79464 4.5,18.75 l 2.84375,3.0625 6.3125,-6.34375 c 7.76935,-7.81119 13.92744,-10.8812 36.96875,-18.375 23.70579,-7.70992 33.39741,-13.02106 39.03125,-21.40625 l 1.6875,-2.5 0.0312,2.65625 c 0.0831,4.19835 3.90289,25.565 6.125,34.34375 3.00037,11.85332 6.4545,22.21824 13.125,39.25 l 5.96875,15.28125 5.375,-8.9375 c 2.95566,-4.90279 9.8588,-15.1991 15.3125,-22.875 16.49143,-23.21113 22.21447,-34.82886 23.71875,-48.125 0.38253,-3.38109 0.90119,-5.94255 1.15625,-5.6875 0.25505,0.25506 1.96936,4.94382 3.8125,10.4375 9.02385,26.89646 21.14607,43.38192 46.96875,63.90625 15.16125,12.05043 20.56588,17.19553 26.09375,24.875 5.53002,7.68245 8.81029,15.05745 11.53125,25.90625 1.16998,4.66485 2.50748,8.46875 2.96875,8.46875 0.46127,0 1.31914,-1.9125 1.90625,-4.25 5.65309,-22.5071 15.38417,-36.24706 39.5,-55.75 26.02243,-21.04485 37.1959,-36.77172 44.875,-63.125 2.59091,-8.89152 2.75462,-8.87118 4.6875,0.9375 2.2246,11.28906 7.19868,20.29824 23.34375,42.1875 5.47653,7.425 12.40883,17.55 15.40625,22.5 2.99743,4.95 5.55372,9.11899 5.6875,9.28125 0.46434,0.5632 12.35421,-32.35946 15.84375,-43.875 3.19796,-10.55332 7.45101,-30.15019 9.125,-42.15625 l 0.65625,-4.78125 3.8125,4.84375 c 5.19682,6.57447 14.34577,11.18111 36.375,18.34375 9.8257,3.19476 20.76319,7.23681 24.28125,8.96875 6.25614,3.07989 13.27339,8.98244 16.53125,13.90625 l 1.625,2.46875 2.25,-2 c 3.96609,-3.56443 6.01594,-8.93642 6,-15.71875 -0.029,-12.38847 -4.50368,-25.11897 -20.4687,-58.28125 -9.273,-19.26173 -12.53125,-27.65986 -12.53125,-32.40625 0,-5.13604 1.69644,-4.32505 5.53125,2.65625 10.16249,18.50092 24.84726,30.9016 51.96875,43.84375 6.05,2.88701 14.15,6.43138 18,7.90625 21.0847,8.0772 27.81102,10.42126 28.59375,9.9375 0.47757,-0.29515 -0.69039,-1.89132 -2.59375,-3.5625 -10.06508,-8.83726 -17.90268,-28.54333 -39.90625,-100.375 -14.01782,-45.76181 -20.0916,-62.65456 -27.71875,-77.1875 -6.87372,-13.09735 -7.75634,-33.42852 -2.15625,-49.5625 3.66155,-10.549 8.21445,-18.42907 14.3125,-24.75 l 4.53125,-4.6875 39.1875,-103.53125 -0.71875,-3.125 c -1.99939,-8.7871 -9.65769,-17.1122 -27.53125,-29.90625 -13.17935,-9.43391 -31.74031,-16.67335 -47,-18.34375 -3.3,-0.36123 -8.96605,-1.91863 -12.59375,-3.4375 -14.13541,-5.91829 -31.43492,-8.82053 -50.78125,-8.65625 z m -218.4375,246.03125 c 0.81616,0.0875 1.15626,2.14347 1.6875,8.09375 1.10015,12.32241 -2.40589,29.00952 -8.4375,40.3125 -3.3807,6.33528 -3.71096,10.8966 -1.4375,19.625 2.43253,9.33912 8.60848,16.74952 23.8125,28.59375 l 6.8125,5.3125 4.03125,-3.90625 c 6.01084,-5.82385 12.77074,-15.12268 16.03125,-22.03125 l 2.90625,-6.125 0.6875,-32.28125 c 0.54586,-25.03217 0.99558,-32.38511 2,-32.71875 1.04382,-0.34673 1.27305,5.7969 1.15625,31.625 -0.14468,31.99435 -0.12413,32.04296 2.3125,37.34375 2.61589,5.69075 11.92771,17.86217 18.53125,24.1875 l 4.0625,3.875 3.09375,-2.1875 c 7.23515,-5.15189 16.36255,-13.21005 20.0625,-17.6875 4.92711,-5.96248 6.99387,-11.94708 7.125,-20.6875 0.087,-5.80202 -0.38535,-7.73977 -3.4375,-13.96875 -5.44314,-11.1086 -7.02714,-18.36817 -7.0625,-32.46875 -0.024,-9.55857 0.27496,-12.58746 1.4375,-13.75 1.32097,-1.32097 1.50005,-0.046 1.53125,11.25 0.0484,17.51196 3.28886,28.52623 12.21875,41.5 3.55733,5.16825 11.7779,12.97505 15.875,15.09375 2.96181,1.53161 3.05805,1.49536 9,-3.3125 6.74893,-5.46081 11.56744,-12.33998 13.34375,-19.03125 0.72625,-2.73574 1.06272,-9.16602 0.84375,-16.40625 -0.24569,-8.12355 -0.0381,-12.02413 0.71875,-12.28125 2.57867,-0.8764 3.265,20.50587 0.90625,28.28125 -1.83098,6.03568 -1.80886,5.91277 -0.0312,4.4375 1.20792,-1.00248 1.57126,-0.72514 2.09375,1.625 2.15102,9.67513 6.14524,18.10994 12.875,27.0625 5.2384,6.96861 17.12734,16.54459 19.75,15.90625 0.93613,-0.22784 1.928,0.0896 2.1875,0.71875 1.45018,3.51572 5.56874,-9.28137 9.125,-28.3125 2.26669,-12.13003 3.62799,-16.24702 4.90625,-14.96875 0.24007,0.24006 -0.68794,6.51423 -2.0625,13.9375 -2.2187,11.98206 -5.48738,23.40271 -9.3125,32.5 -1.131,2.68985 -0.90792,3.96008 2.1875,12.1875 4.57167,12.15118 8.99405,19.40737 16.375,26.875 5.82662,5.89504 15.08903,11.45226 21.5625,12.96875 2.47026,0.57869 2.78333,0.24617 4.78125,-5.09375 4.35574,-11.64175 3.88384,-16.79657 -3.125,-34.78125 -3.64073,-9.34193 -4.14277,-12.65625 -1.9688,-12.65625 1.27917,0 8.76768,19.47955 10.25,26.65625 1.57112,7.60657 0.29727,14.73783 -4.28125,23.9375 -3.81216,7.6598 -3.62025,7.63868 -16.40625,1.40625 -11.33712,-5.52618 -19.54143,-14.28932 -26.375,-28.21875 l -5.03125,-10.28125 -0.0312,5 c -0.0486,13.97475 -6.3378,29.53098 -16.21875,40.09375 -8.29942,8.87211 -9.00734,9.17373 -13.8125,5.84375 -5.87532,-4.0716 -18.15034,-17.31379 -22,-23.75 -3.67958,-6.15192 -4.9375,-7.00027 -4.9375,-3.34375 0,1.28715 -1.4347,5.22465 -3.1875,8.75 -2.61363,5.25669 -6.34629,9.49402 -20.75,23.625 -9.6597,9.47679 -17.7875,17.23256 -18.0625,17.21875 -0.275,-0.0138 -2.32314,-1.31862 -4.5625,-2.90625 -5.04849,-3.57919 -8.68866,-8.99716 -11.59375,-17.21875 -2.06263,-5.83738 -2.26002,-8.45315 -2.625,-34.15625 l -0.40625,-27.875 -7.65625,-8.875 c -4.21046,-4.88465 -9.3081,-11.8518 -11.3125,-15.5 -2.99847,-5.4575 -3.75356,-6.28761 -4.28125,-4.625 -1.1119,3.50329 -8.59077,14.4732 -14.40625,21.125 l -5.59375,6.40625 0.28125,22.09375 c 0.30701,23.60103 -0.4977,32.12029 -4.09375,42.5 -2.47872,7.15459 -8.8304,15.06893 -13.71875,17.09375 -2.98646,1.23704 -3.13908,1.12104 -13.78125,-8.78125 -22.06667,-20.53251 -27.09459,-26.95859 -29.53125,-37.6875 l -1.34375,-5.875 -3.09375,5.4375 c -1.7044,2.97939 -5.40638,8.10625 -8.21875,11.40625 -5.85936,6.87528 -17.91508,17.4805 -19.90625,17.5 -2.55108,0.025 -13.85515,-12.45939 -17.09375,-18.875 -3.99066,-7.90536 -7.06255,-19.70048 -7.06255,-27.125 0,-3.12035 -0.30314,-5.95939 -0.65625,-6.3125 -0.3531,-0.35311 -2.56906,3.29481 -4.9375,8.09375 -7.96804,16.14488 -18.58142,26.35411 -33,31.78125 -7.9517,2.99301 -7.8857,3.02458 -11.5,-6.5 -2.89159,-7.62005 -3.50537,-16.29003 -1.59375,-22.71875 2.27925,-7.66505 8.89141,-23.73192 10.09375,-24.53125 1.96102,-1.30369 1.6741,-0.0605 -1.78125,8.3125 -5.3817,13.04097 -6.93283,19.441 -6.34375,25.9375 0.6324,6.97416 5.28487,17.9375 7.625,17.9375 0.9029,0 4.97618,-1.58791 9.03125,-3.53125 10.82725,-5.18882 18.59056,-13.48656 24.96875,-26.6875 5.76577,-11.93342 8.65639,-20.78125 6.78125,-20.78125 -1.14736,0 -4.36447,-7.30113 -6.59375,-15 -0.5574,-1.925 -2.19922,-9.72164 -3.65625,-17.34375 -2.34279,-12.25579 -2.46941,-14.0306 -1.15625,-15.34375 1.31315,-1.31315 1.66587,-0.41904 3.125,7.84375 2.41455,13.67316 3.52355,18.59127 5.8125,25.84375 2.89769,9.18126 3.61442,10.37803 5.3125,8.96875 0.76255,-0.63286 1.88079,-0.8202 2.5,-0.4375 1.75139,1.08242 11.75119,-6.38672 16.96875,-12.65625 6.15052,-7.3906 10.38139,-14.94694 12.5,-22.375 0.94121,-3.3 2.0642,-6.6946 2.5,-7.5625 0.4358,-0.8679 0.57629,-6.31288 0.28125,-12.09375 -0.60617,-11.87703 0.26396,-21.44625 2.03125,-22.125 0.88339,-0.33928 1.1875,3.15844 1.1875,13.65625 0,13.34243 0.15835,14.40137 2.65625,19.125 2.47494,4.68021 9.79367,12.66618 16.09375,17.53125 l 2.75,2.125 3.3125,-2.0625 c 4.92357,-3.04293 13.86653,-12.83998 17.40625,-19.09375 6.52599,-11.52973 9.90771,-28.02119 8.4375,-41.28125 -0.564,-5.08685 -0.43841,-7.07024 0.53125,-7.875 0.40483,-0.33597 0.72795,-0.52918 1,-0.5 z m -53.4375,52.6875 -1.28125,4.71875 c -1.51051,5.56592 -6.10741,15.09664 -10,20.75 -4.20503,6.10712 -13.84918,15.31433 -19.1875,18.3125 -4.75592,2.67106 -4.76555,2.71886 -4.9375,8.1875 -0.52266,16.62234 1.77323,29.82937 6.875,39.28125 3.53886,6.55633 13.89296,17.71875 16.4375,17.71875 1.11782,0 5.84655,-3.94012 11.15625,-9.3125 11.66715,-11.80487 16.73082,-20.47955 20.625,-35.3125 1.57251,-5.9897 3.11727,-13.8 3.4375,-17.375 0.75122,-8.38632 -0.87167,-25.34264 -2.46875,-25.875 -2.75063,-0.91688 -13.6719,-11.13769 -17.03125,-15.9375 l -3.625,-5.15625 z m 201.40625,0.15625 c -0.26325,0.0748 -0.61294,0.50892 -1.15625,1.3125 -3.31848,4.9082 -8.40342,10.38371 -14.125,15.21875 l -6.1875,5.25 -0.71875,8.5625 c -1.17205,14.07035 0.39782,24.27961 6.34375,41.46875 3.62254,10.47244 12.99713,23.09564 24.21875,32.59375 l 6.21875,5.28125 2.9375,-2.15625 c 1.60991,-1.19026 4.66533,-4.46688 6.8125,-7.25 8.54703,-11.07855 11.91419,-22.49301 11.96875,-40.71875 l 0.0312,-11.71875 -6.4375,-4.0625 c -14.17207,-8.95047 -23.95611,-23.27852 -29.3125,-42.96875 -0.16395,-0.60269 -0.3305,-0.88728 -0.59375,-0.8125 z m -161.09375,5.90625 -5.53125,5.21875 c -3.0452,2.86692 -6.52568,5.87008 -7.75,6.6875 -2.16884,1.44805 -2.22288,1.74038 -1.28125,11.40625 1.12659,11.56444 0.004,24.27468 -3.15625,35.59375 -2.81193,10.07104 -2.19391,17.34273 2.15625,26 2.65115,5.27608 6.26119,9.42621 19.375,22.21875 8.86843,8.65116 16.46408,15.73866 16.875,15.75 0.41091,0.0113 2.47019,-1.55024 4.59375,-3.46875 4.76561,-4.30545 8.68483,-12.7778 10.15625,-22 1.47146,-9.22236 1.16726,-50.49383 -0.375,-50.5 -1.77505,-0.007 -21.87339,-16.28029 -25.4375,-20.59375 -4.68084,-5.66499 -7.30084,-11.62343 -8.53125,-19.4375 l -1.09375,-6.875 z m 121.59375,1.59375 c -0.73631,0.20826 -1.04282,2.20023 -1.5625,6.5625 -1.16676,9.79401 -8.33472,18.90848 -25.21875,31.96875 l -9.375,7.21875 0,21.53125 c 0.008,30.91799 2.10923,40.32049 11,49.28125 2.5921,2.6125 5.05318,4.75 5.46875,4.75 0.41558,0 7.24332,-6.13195 15.15625,-13.625 17.14893,-16.23897 21.66725,-22.48793 23.40625,-32.21875 1.15639,-6.47078 1.05604,-7.56567 -1.5625,-17.78125 -2.93483,-11.44946 -3.82021,-27.18364 -2.25,-39.375 l 0.6875,-5.5 -5.03125,-3.40625 c -2.76478,-1.88179 -6.31496,-5.00699 -7.90625,-6.9375 -1.39893,-1.69715 -2.23982,-2.63073 -2.8125,-2.46875 z"/><path style="fill:#f5d453;fill-opacity:1;stroke:#a07024;stroke-width:2;stroke-linecap:butt;stroke-linejoin:miter;stroke-miterlimit:4;stroke-opacity:1;stroke-dasharray:none" id="path3774" d="m 814.89427,482.6538 c 14.31755,-16.06419 22.99534,-33.30791 26.87166,-60.3886 3.03921,-20.57456 -3.24626,-38.21439 -13.71631,-54.24618 -8.74839,-11.84059 -19.36042,-22.3254 -30.81336,-31.46145 l -43.57203,-24.41949 c -6.09997,-3.0463 -12.56946,-4.29003 -19.63136,5.74576 -5.63453,8.00732 -28.48448,38.47367 -33.03813,44.52966 -4.55365,6.05599 -60.33051,20.11017 -60.33051,20.11017 -9.64788,1.71682 -19.1393,4.21595 -29.20763,3.83051 -3.01461,0.84167 -5.24774,2.32272 -3.35169,7.1822 11.17732,11.35027 19.16329,10.99895 27.77118,12.92797 9.41667,0.51471 18.83333,-0.66001 28.25,-1.91526 12.54565,-1.93169 18.46766,0.39469 24.89831,2.39407 l 41.17797,11.01271 c 6.09782,4.97061 15.24567,8.1497 24.89316,7.60177 8.76983,-0.49809 14.56985,1.50225 17.03612,2.80645 4.64028,2.45384 9.99503,4.15285 20.79529,3.95619 l 16.75848,2.87288 c 6.80093,15.32348 4.31233,32.18303 5.20885,47.46064 z"/><path style="fill:#f5d453;fill-opacity:1;stroke:#a07024;stroke-width:2;stroke-linecap:butt;stroke-linejoin:miter;stroke-miterlimit:4;stroke-opacity:1;stroke-dasharray:none" id="path3778" d="m 83.104635,481.76773 c -9.676684,-15.31718 -20.416836,-29.55765 -24.20792,-49.26228 -1.730952,-13.04424 -2.706407,-25.67737 0.04232,-38.38563 5.281508,-16.22339 13.819759,-27.59672 22.726667,-38.76653 12.420272,-14.8741 27.380378,-23.75419 42.575468,-32.07973 l 24.63114,-12.7811 c 4.40789,-1.24516 8.06519,-0.86025 11.0036,1.52357 12.25914,16.22326 22.86927,33.15324 36.77742,48.66977 2.01633,2.51328 5.36885,4.14495 7.91413,5.33252 19.75215,10.14823 42.55004,13.02054 64.11713,18.83308 4.94226,0.35941 10.43762,0.79783 16.16683,1.26965 5.77334,0.58882 7.5291,2.34574 5.96733,6.0943 -3.06328,4.19327 -7.12641,7.63937 -12.10396,10.36878 -6.76422,1.82761 -13.63581,3.18999 -20.73755,3.55501 l -32.84152,-2.62394 c -3.38798,0.11459 -5.99727,0.27599 -10.91895,1.77751 l -40.12082,12.01931 c -3.86606,0.16791 -8.84482,-1.8896 -10.32646,3.04715 -1.6752,3.08922 -5.39229,3.00187 -8.63359,3.55501 l -26.23936,2.5393 c -3.0002,0.47966 -4.16728,1.66509 -5.92501,2.87786 -2.1288,1.90715 -4.66073,1.66428 -7.11002,1.86215 -5.83108,0.39268 -11.70927,-0.20393 -17.436478,2.37 l -8.802881,0.16929 c -7.493319,15.29539 -4.417085,32.0136 -6.517517,48.03495 z"/><path style="fill:#1f191d;fill-opacity:1;stroke:none" id="path3786" d="m 295.81269,310.66174 c -6.48626,-3.7449 -10.97205,-2.48863 -15.23575,-0.67714 -1.27392,0.96842 -2.2804,0.7779 -2.87786,-1.185 -1.89732,2.01917 -3.97872,3.90027 -6.77145,5.24787 l -18.96005,10.66503 -0.33857,-1.94679 c -5.2009,1.50466 -8.86846,6.07599 -13.03503,9.6493 l 2.03143,0.25393 c -1.06186,2.16617 -2.29623,3.72861 -3.80894,4.3168 l 2.28536,1.77751 c 1.544,0.18379 2.2322,0.28328 3.55501,-1.52358 1.21044,0.0959 1.66703,0.69437 1.52358,1.69286 0.51845,2.55429 -1.32864,2.86889 -1.18501,4.9093 2.68026,6.22141 9.40185,8.61059 15.15112,11.5961 6.37168,-0.66963 5.90768,3.69481 20.39898,3.1318 6.13542,-2.06206 12.22175,-4.22229 16.59004,-9.8186 2.57969,-3.65852 4.58406,-8.13893 5.58644,-14.05075 0.94503,-3.61852 -2.23885,-9.27948 -0.25393,-11.51146 -1.57595,-2.29591 -2.52232,-4.43314 -6.43287,-6.26358 l 0.0846,-1.10036 1.94679,0.0846 c -0.16603,-0.79109 -1.24315,-1.27848 -2.03143,-1.86215 -2.47583,-1.2167 -5.673,-0.63003 -8.54895,-0.84643 -0.56428,-0.50786 -0.56429,-1.01572 0,-1.52358 1.69608,-1.86638 6.8796,-0.68126 10.32645,-1.01572 l 4e-5,0 0,4e-5 z"/><path style="fill:#000;fill-opacity:1;stroke:none" id="path3796" d="m 661.13222,337.4936 c -1.09363,-1.39914 -3.46938,-2.31748 -2.9625,-4.3168 l 2.28536,-0.67714 -12.78111,-9.39538 -1.35429,1.52357 -22.76898,-12.44253 -1.86215,-2.11608 c -0.61697,1.20553 -3.49538,0.49754 -7.02538,-0.76179 -5.77846,-1.2433 -8.4883,0.10992 -11.42681,1.26965 4.24646,0.11169 9.31753,-0.42452 10.58038,2.03143 -3.96583,0.66752 -8.9185,-0.14521 -11.25753,2.96251 0,0 3.72186,0.63177 3.30108,0.67715 -1.72663,0.1862 -9.87823,7.28782 -8.04109,7.02537 l 1.7775,0.93108 c -1.59567,0.9574 -2.71138,11.46601 -0.33857,16.08218 2.37281,4.61617 4.96946,9.40168 8.46431,12.35789 3.49485,2.95621 7.24484,4.50422 11.51146,5.24787 4.26662,0.74365 9.7806,-0.28015 13.28896,-1.10036 3.50836,-0.82021 7.70252,-3.04715 7.70252,-3.04715 l 0.16929,1.77751 c 0,0 11.26907,-5.13538 13.28896,-9.05681 2.0199,-3.92143 0.25393,-10.07253 0.25393,-10.07253 2.02656,1.41983 3.86691,3.36723 7.19466,1.10036 z"/><path style="fill:none;stroke:#a07024;stroke-width:2;stroke-linecap:butt;stroke-linejoin:miter;stroke-miterlimit:4;stroke-opacity:1;stroke-dasharray:none" id="path3776" d="m 612.5471,390.05695 c 5.78133,3.12339 13.72501,2.42109 20.82219,3.21644 l 51.97085,-3.89358 c 21.05997,0.48932 37.25901,4.72394 51.463,10.49574 l 42.82939,19.97577 c 10.00238,4.45649 20.5405,7.00811 29.62508,14.72789"/><path style="fill:none;stroke:#a07024;stroke-width:2;stroke-linecap:round;stroke-linejoin:miter;stroke-miterlimit:4;stroke-opacity:1;stroke-dasharray:none" id="path3780" d="M 89.854921,433.24608 C 112.45371,422.01625 136.84749,414.07725 157.04037,398.43661"/><path style="fill:none;stroke:#a07024;stroke-width:2;stroke-linecap:butt;stroke-linejoin:miter;stroke-miterlimit:4;stroke-opacity:1;stroke-dasharray:none" id="path3782" d="m 143.62444,407.832 c 16.58776,-7.94862 33.58977,-14.75807 51.97085,-17.77505 16.22215,-1.39272 31.91086,-0.91843 47.23084,0.84643 20.13167,3.3926 33.08922,2.21985 43.33725,-0.67714"/><path style="fill:none;stroke:#a07024;stroke-width:2;stroke-linecap:round;stroke-linejoin:miter;stroke-miterlimit:4;stroke-opacity:1;stroke-dasharray:none" id="path3784" d="m 753.73175,407.832 -12.52717,-9.48003"/><path style="fill:#f5d745;fill-opacity:1;stroke:none" id="path3794" d="m 259.41617,327.0825 c -2.48984,1.63566 -3.99791,3.83773 -9.22609,3.89358 -3.38323,10.16082 1.14648,14.68034 4.69769,18.40987 3.55121,3.72953 8.05528,5.26189 12.56949,6.00966 4.51421,0.74776 8.20741,0.36141 12.61182,-1.35428 4.40441,-1.7157 9.5551,-5.53241 12.31557,-9.14146 2.76047,-3.60904 3.65475,-7.19519 4.06287,-10.87664 0.40812,-3.68145 0.58548,-6.53524 -0.80411,-9.69163 -1.38959,-3.15639 -3.75338,-6.24842 -6.85609,-7.70252 -3.10271,-1.4541 -6.69859,-1.29174 -10.32645,-0.46553 -3.62786,0.82621 -10.87664,5.07858 -10.87664,5.07858 3.47,0.69168 6.7704,1.58381 9.01449,3.72429 2.97348,5.22012 1.32741,7.45112 0.67714,10.32646 -1.47542,2.24957 -2.92392,4.51461 -8.80288,4.23215 -4.05072,0.18494 -6.40265,-1.58373 -8.21038,-3.97822 -2.15231,-2.82144 -1.13848,-5.64287 -0.84643,-8.46431 z"/><path style="fill:#e7c549;fill-opacity:1;stroke:none" id="path3800" d="m 630.06821,320.31105 c 0,0 -8.65825,-4.46396 -12.44253,-4.82465 -3.78428,-0.36069 -6.72449,0.1714 -9.31074,1.69286 -2.58625,1.52146 -3.70442,3.44804 -4.82465,6.6868 -1.12023,3.23876 -1.32031,7.83867 -0.33858,11.93468 0.98173,4.09601 3.17121,8.47161 6.00966,11.5961 2.83845,3.12449 5.95227,4.96647 10.15717,6.26359 4.2049,1.29712 9.3615,1.67974 13.88147,0.50786 4.51997,-1.17188 8.76259,-4.0707 11.25753,-6.8561 2.49494,-2.7854 3.57247,-4.99678 4.06286,-7.78715 0.49039,-2.79037 -0.0846,-7.27931 -0.0846,-7.27931 -2.73621,-0.33301 -5.3826,0.18716 -8.54895,-4.23216 0.89736,3.1483 -0.66508,7.23405 -2.45465,8.88753 -1.78957,1.65348 -4.80558,2.80475 -7.53323,2.79322 -2.72765,-0.0115 -6.0152,-0.99952 -7.78717,-2.96251 -1.77197,-1.96299 -1.65126,-4.78438 -1.94679,-7.2793 -0.29553,-2.49492 2.40136,-5.35408 4.57073,-5.84037 2.16937,-0.48629 4.71791,-1.07827 5.33251,-3.30109 l -4e-5,0 z"/><path style="fill:#000;fill-opacity:1;stroke:none" id="path3802" d="m 760.84177,348.41256 c -7.67155,2.87869 -15.38939,5.55373 -22.51506,10.83431 -0.34549,0.32389 -1.06997,3.45666 2.24305,3.38572 4.33246,-0.95503 8.6411,-2.31095 13.33128,-7.95644 1.49139,-2.45328 4.54619,-4.21171 6.94073,-6.26359 z"/><path style="fill:#000;fill-opacity:1;stroke:none" id="path3804" d="m 138.29192,348.20095 c 7.98456,3.30985 16.63764,6.07973 21.83792,11.63842 0.6549,2.09338 -0.47296,2.30497 -1.81983,2.28537 -7.40737,-0.23904 -11.87459,-3.58786 -12.73878,-7.49092 l -7.27931,-6.43287 z"/></svg>