<?xml version="1.0" encoding="utf-8"?>
<!-- Generator: Adobe Illustrator 25.3.1, SVG Export Plug-In . SVG Version: 6.00 Build 0)  -->
<svg version="1.1" id="Layer_1" xmlns="http://www.w3.org/2000/svg" xmlns:xlink="http://www.w3.org/1999/xlink" x="0px" y="0px"
	 viewBox="0 0 389.5 168.5" style="enable-background:new 0 0 389.5 168.5;" xml:space="preserve">
<style type="text/css">
	.st0{fill:#242B64;}
	.st1{fill:#414042;}
	.st2{fill:#582831;}
	.st3{fill:#010101;}
</style>
<g>
	<g>
		<path class="st0" d="M197.28,21.24h-34.07v38.42h-37.07V21.24H92.22v5.21c3.02,2.24,5.72,4.84,8.07,7.79
			c4.34,5.48,7.52,11.92,9.46,19.14c1.89,7.02,2.84,14.55,2.84,22.37c0,12.4-1.42,21.86-4.33,28.92
			c-2.9,7.01-6.99,12.99-12.17,17.76c-1.26,1.16-2.55,2.23-3.87,3.21v5.38h33.92V86.61h37.07v44.41h6.97l27.1-72.1V21.24z"/>
		<path class="st0" d="M93.2,119.29c4.74-4.37,8.45-9.78,11.12-16.25c2.67-6.46,4.01-15.56,4.01-27.29c0-7.49-0.9-14.58-2.7-21.27
			c-1.8-6.69-4.69-12.55-8.69-17.6c-3.99-5.04-9.05-8.91-15.16-11.61c-6.12-2.7-14.14-4.04-24.07-4.04H7.31v109.78h50.4
			c1.51,0,3.06-0.06,4.66-0.19c4.79-0.37,9.98-1.31,15.56-2.81C83.37,126.57,88.46,123.66,93.2,119.29z M41.23,46.1h8.46
			c3.29,0,6.24,0.3,8.83,0.91c4.32,1.01,7.67,2.85,10.04,5.53c3.79,4.29,5.69,12.26,5.69,23.89c0,8.79-0.85,15.14-2.55,19.06
			c-1.7,3.92-4.04,6.66-7.04,8.24c-3,1.57-8.04,2.36-15.13,2.36h-8.31V46.1z"/>
		<path class="st0" d="M253,21.24h-37l-41.26,109.78h22.55h12.09l5.35-18.12h38.51l5.49,18.12h35.52L253,21.24z M243.84,79.72
			l5.77,17.75L234.49,86.5l-15.11,10.97l5.77-17.75l-15.08-10.98h18.65L234.49,51l5.77,17.75h18.65L243.84,79.72z"/>
		<g>
			<path class="st1" d="M8.83,157.84v-14.17h4.88c1.1,0,1.94,0.07,2.52,0.2c0.81,0.19,1.5,0.52,2.08,1.01
				c0.75,0.63,1.31,1.44,1.68,2.42c0.37,0.98,0.56,2.1,0.56,3.37c0,1.08-0.13,2.03-0.38,2.86c-0.25,0.83-0.57,1.52-0.97,2.06
				c-0.39,0.54-0.82,0.97-1.29,1.29c-0.47,0.31-1.03,0.55-1.69,0.71c-0.66,0.16-1.42,0.24-2.28,0.24H8.83z M10.71,156.17h3.03
				c0.93,0,1.67-0.09,2.2-0.26c0.53-0.17,0.96-0.42,1.27-0.73c0.44-0.44,0.79-1.04,1.04-1.79c0.25-0.75,0.37-1.66,0.37-2.73
				c0-1.48-0.24-2.62-0.73-3.42c-0.49-0.79-1.08-1.33-1.77-1.6c-0.5-0.19-1.31-0.29-2.43-0.29h-2.98V156.17z"/>
			<path class="st1" d="M33.89,154.54l1.8,0.22c-0.28,1.05-0.81,1.87-1.57,2.45c-0.77,0.58-1.75,0.87-2.94,0.87
				c-1.5,0-2.69-0.46-3.57-1.39c-0.88-0.93-1.32-2.22-1.32-3.89c0-1.73,0.44-3.07,1.33-4.02c0.89-0.95,2.04-1.43,3.46-1.43
				c1.37,0,2.49,0.47,3.36,1.4c0.87,0.93,1.31,2.25,1.31,3.94c0,0.1,0,0.26-0.01,0.46h-7.65c0.06,1.13,0.38,1.99,0.96,2.59
				c0.57,0.6,1.29,0.9,2.15,0.9c0.64,0,1.18-0.17,1.63-0.5C33.27,155.81,33.63,155.27,33.89,154.54z M28.18,151.73h5.73
				c-0.08-0.86-0.3-1.51-0.66-1.94c-0.55-0.67-1.27-1-2.16-1c-0.8,0-1.47,0.27-2.01,0.8C28.54,150.11,28.24,150.83,28.18,151.73z"/>
			<path class="st1" d="M42.25,157.84v-8.91h-1.54v-1.35h1.54v-1.09c0-0.69,0.06-1.2,0.18-1.54c0.17-0.45,0.46-0.82,0.88-1.1
				c0.42-0.28,1.01-0.42,1.77-0.42c0.49,0,1.03,0.06,1.62,0.17l-0.26,1.52c-0.36-0.07-0.7-0.1-1.02-0.1c-0.53,0-0.9,0.11-1.12,0.34
				c-0.22,0.22-0.33,0.65-0.33,1.27v0.95h2v1.35h-2v8.91H42.25z"/>
			<path class="st1" d="M58.31,154.54l1.8,0.22c-0.28,1.05-0.81,1.87-1.58,2.45c-0.77,0.58-1.75,0.87-2.94,0.87
				c-1.5,0-2.69-0.46-3.57-1.39c-0.88-0.93-1.32-2.22-1.32-3.89c0-1.73,0.44-3.07,1.33-4.02c0.89-0.95,2.04-1.43,3.46-1.43
				c1.37,0,2.49,0.47,3.36,1.4c0.87,0.93,1.3,2.25,1.3,3.94c0,0.1,0,0.26-0.01,0.46h-7.65c0.06,1.13,0.38,1.99,0.96,2.59
				c0.57,0.6,1.29,0.9,2.15,0.9c0.64,0,1.18-0.17,1.63-0.5C57.69,155.81,58.05,155.27,58.31,154.54z M52.6,151.73h5.73
				c-0.08-0.86-0.3-1.51-0.66-1.94c-0.55-0.67-1.27-1-2.16-1c-0.8,0-1.47,0.27-2.02,0.8C52.96,150.11,52.66,150.83,52.6,151.73z"/>
			<path class="st1" d="M66.25,157.84v-10.26h1.57v1.46c0.75-1.13,1.84-1.69,3.27-1.69c0.62,0,1.19,0.11,1.71,0.33
				c0.52,0.22,0.91,0.51,1.16,0.87c0.26,0.36,0.44,0.79,0.54,1.29c0.06,0.32,0.1,0.89,0.1,1.69v6.31h-1.74v-6.24
				c0-0.71-0.07-1.24-0.2-1.59c-0.13-0.35-0.38-0.63-0.72-0.84c-0.34-0.21-0.75-0.31-1.21-0.31c-0.74,0-1.38,0.23-1.92,0.71
				c-0.54,0.47-0.81,1.36-0.81,2.68v5.61H66.25z"/>
			<path class="st1" d="M80.53,154.78l1.72-0.27c0.1,0.69,0.37,1.22,0.81,1.58c0.44,0.37,1.06,0.55,1.85,0.55
				c0.8,0,1.39-0.16,1.78-0.49c0.39-0.33,0.58-0.71,0.58-1.14c0-0.39-0.17-0.7-0.51-0.93c-0.24-0.16-0.83-0.35-1.78-0.59
				c-1.28-0.32-2.16-0.6-2.65-0.84c-0.49-0.23-0.87-0.56-1.12-0.98c-0.25-0.42-0.38-0.88-0.38-1.38c0-0.46,0.11-0.88,0.31-1.27
				c0.21-0.39,0.49-0.71,0.86-0.97c0.27-0.2,0.64-0.37,1.11-0.51c0.47-0.14,0.97-0.21,1.5-0.21c0.81,0,1.51,0.12,2.12,0.35
				c0.61,0.23,1.06,0.55,1.35,0.94c0.29,0.4,0.49,0.93,0.6,1.59l-1.7,0.23c-0.08-0.53-0.3-0.94-0.67-1.24s-0.89-0.44-1.57-0.44
				c-0.8,0-1.37,0.13-1.71,0.4c-0.34,0.26-0.51,0.57-0.51,0.93c0,0.22,0.07,0.43,0.21,0.61c0.14,0.19,0.36,0.34,0.67,0.46
				c0.17,0.07,0.69,0.21,1.54,0.44c1.23,0.33,2.09,0.6,2.58,0.81c0.49,0.21,0.87,0.51,1.15,0.91c0.28,0.4,0.42,0.9,0.42,1.49
				c0,0.58-0.17,1.13-0.51,1.64c-0.34,0.51-0.83,0.91-1.46,1.19c-0.64,0.28-1.36,0.42-2.16,0.42c-1.33,0-2.35-0.28-3.05-0.83
				C81.16,156.69,80.72,155.87,80.53,154.78z"/>
			<path class="st1" d="M102.1,154.54l1.8,0.22c-0.28,1.05-0.81,1.87-1.57,2.45c-0.77,0.58-1.75,0.87-2.94,0.87
				c-1.5,0-2.69-0.46-3.57-1.39c-0.88-0.93-1.32-2.22-1.32-3.89c0-1.73,0.44-3.07,1.33-4.02c0.89-0.95,2.04-1.43,3.46-1.43
				c1.37,0,2.49,0.47,3.36,1.4c0.87,0.93,1.3,2.25,1.3,3.94c0,0.1,0,0.26-0.01,0.46h-7.65c0.06,1.13,0.38,1.99,0.96,2.59
				c0.57,0.6,1.29,0.9,2.15,0.9c0.64,0,1.18-0.17,1.63-0.5C101.48,155.81,101.84,155.27,102.1,154.54z M96.39,151.73h5.73
				c-0.08-0.86-0.3-1.51-0.66-1.94c-0.55-0.67-1.27-1-2.16-1c-0.8,0-1.47,0.27-2.02,0.8C96.75,150.11,96.45,150.83,96.39,151.73z"/>
			<path class="st1" d="M119.78,157.84v-14.17h1.88v5.82h7.36v-5.82h1.88v14.17h-1.88v-6.68h-7.36v6.68H119.78z"/>
			<path class="st1" d="M144.78,154.54l1.8,0.22c-0.28,1.05-0.81,1.87-1.58,2.45c-0.77,0.58-1.75,0.87-2.94,0.87
				c-1.5,0-2.69-0.46-3.57-1.39c-0.88-0.93-1.32-2.22-1.32-3.89c0-1.73,0.44-3.07,1.33-4.02c0.89-0.95,2.04-1.43,3.46-1.43
				c1.37,0,2.49,0.47,3.36,1.4c0.87,0.93,1.31,2.25,1.31,3.94c0,0.1,0,0.26-0.01,0.46h-7.65c0.06,1.13,0.38,1.99,0.96,2.59
				c0.57,0.6,1.29,0.9,2.15,0.9c0.64,0,1.18-0.17,1.63-0.5C144.16,155.81,144.51,155.27,144.78,154.54z M139.07,151.73h5.73
				c-0.08-0.86-0.3-1.51-0.66-1.94c-0.55-0.67-1.27-1-2.16-1c-0.8,0-1.47,0.27-2.02,0.8C139.43,150.11,139.13,150.83,139.07,151.73z
				"/>
			<path class="st1" d="M159.42,156.58c-0.64,0.55-1.26,0.93-1.86,1.16c-0.6,0.22-1.24,0.34-1.92,0.34c-1.13,0-1.99-0.28-2.6-0.83
				c-0.61-0.55-0.91-1.25-0.91-2.11c0-0.5,0.12-0.96,0.34-1.38c0.23-0.42,0.53-0.75,0.9-1c0.37-0.25,0.79-0.44,1.25-0.57
				c0.34-0.09,0.86-0.18,1.55-0.26c1.4-0.17,2.44-0.37,3.1-0.6c0.01-0.24,0.01-0.39,0.01-0.45c0-0.71-0.16-1.21-0.49-1.5
				c-0.44-0.39-1.11-0.59-1.98-0.59c-0.82,0-1.42,0.14-1.81,0.43c-0.39,0.29-0.68,0.8-0.86,1.52l-1.7-0.23
				c0.15-0.73,0.41-1.32,0.76-1.76c0.35-0.45,0.87-0.79,1.54-1.03c0.67-0.24,1.45-0.36,2.33-0.36c0.88,0,1.59,0.1,2.14,0.31
				c0.55,0.21,0.95,0.47,1.21,0.78c0.26,0.31,0.44,0.71,0.54,1.18c0.06,0.3,0.09,0.83,0.09,1.6v2.32c0,1.62,0.04,2.64,0.11,3.07
				c0.07,0.43,0.22,0.84,0.44,1.23h-1.82C159.59,157.48,159.47,157.06,159.42,156.58z M159.27,152.69
				c-0.63,0.26-1.58,0.48-2.84,0.66c-0.72,0.1-1.22,0.22-1.52,0.35c-0.3,0.13-0.53,0.32-0.69,0.56c-0.16,0.25-0.24,0.53-0.24,0.83
				c0,0.46,0.18,0.85,0.53,1.16c0.35,0.31,0.86,0.46,1.54,0.46c0.67,0,1.27-0.15,1.79-0.44c0.52-0.29,0.9-0.69,1.15-1.2
				c0.19-0.39,0.28-0.97,0.28-1.74V152.69z"/>
			<path class="st1" d="M167.65,157.84v-14.17h1.74v14.17H167.65z"/>
			<path class="st1" d="M179.84,156.29l0.25,1.54c-0.49,0.1-0.93,0.15-1.31,0.15c-0.63,0-1.12-0.1-1.47-0.3
				c-0.35-0.2-0.59-0.46-0.74-0.79c-0.14-0.33-0.21-1.01-0.21-2.05v-5.9h-1.28v-1.35h1.28v-2.54l1.73-1.04v3.59h1.75v1.35h-1.75v6
				c0,0.49,0.03,0.81,0.09,0.96c0.06,0.14,0.16,0.25,0.3,0.34c0.14,0.09,0.34,0.13,0.59,0.13
				C179.27,156.35,179.53,156.33,179.84,156.29z"/>
			<path class="st1" d="M185.5,157.84v-14.17h1.74v5.08c0.81-0.94,1.84-1.41,3.07-1.41c0.76,0,1.42,0.15,1.98,0.45
				c0.56,0.3,0.96,0.71,1.2,1.24c0.24,0.53,0.36,1.3,0.36,2.3v6.5h-1.74v-6.5c0-0.87-0.19-1.5-0.57-1.9
				c-0.38-0.4-0.91-0.59-1.6-0.59c-0.52,0-1,0.13-1.45,0.4c-0.45,0.27-0.78,0.63-0.97,1.09c-0.19,0.46-0.29,1.09-0.29,1.89v5.62
				H185.5z"/>
			<path class="st1" d="M207.5,157.84l5.44-14.17h2.02l5.8,14.17h-2.14l-1.65-4.29h-5.92l-1.56,4.29H207.5z M211.59,152.02h4.8
				l-1.48-3.92c-0.45-1.19-0.79-2.17-1.01-2.94c-0.18,0.91-0.43,1.81-0.76,2.71L211.59,152.02z"/>
			<path class="st1" d="M225.68,158.69l1.69,0.25c0.07,0.52,0.27,0.9,0.59,1.14c0.43,0.32,1.02,0.48,1.77,0.48
				c0.81,0,1.43-0.16,1.87-0.48c0.44-0.32,0.73-0.77,0.89-1.35c0.09-0.36,0.13-1.1,0.12-2.23c-0.76,0.9-1.71,1.34-2.84,1.34
				c-1.41,0-2.5-0.51-3.28-1.53s-1.16-2.24-1.16-3.66c0-0.98,0.18-1.88,0.53-2.71c0.35-0.83,0.87-1.47,1.54-1.92
				c0.67-0.45,1.46-0.68,2.37-0.68c1.21,0,2.21,0.49,3,1.47v-1.24h1.61v8.87c0,1.6-0.16,2.73-0.49,3.4
				c-0.33,0.67-0.84,1.19-1.55,1.58c-0.71,0.39-1.57,0.58-2.6,0.58c-1.22,0-2.21-0.28-2.97-0.83
				C226.01,160.63,225.65,159.8,225.68,158.69z M227.11,152.53c0,1.35,0.27,2.33,0.8,2.95c0.54,0.62,1.2,0.93,2.01,0.93
				c0.8,0,1.47-0.31,2.01-0.92c0.54-0.62,0.81-1.58,0.81-2.89c0-1.26-0.28-2.2-0.84-2.84c-0.56-0.64-1.23-0.96-2.02-0.96
				c-0.77,0-1.43,0.31-1.97,0.94C227.39,150.36,227.11,151.29,227.11,152.53z"/>
			<path class="st1" d="M247.99,154.54l1.8,0.22c-0.28,1.05-0.81,1.87-1.58,2.45c-0.77,0.58-1.75,0.87-2.94,0.87
				c-1.5,0-2.69-0.46-3.57-1.39c-0.88-0.93-1.32-2.22-1.32-3.89c0-1.73,0.44-3.07,1.33-4.02c0.89-0.95,2.04-1.43,3.46-1.43
				c1.37,0,2.49,0.47,3.36,1.4c0.87,0.93,1.3,2.25,1.3,3.94c0,0.1,0,0.26-0.01,0.46h-7.65c0.06,1.13,0.38,1.99,0.96,2.59
				c0.57,0.6,1.29,0.9,2.15,0.9c0.64,0,1.18-0.17,1.63-0.5C247.36,155.81,247.72,155.27,247.99,154.54z M242.28,151.73h5.73
				c-0.08-0.86-0.3-1.51-0.66-1.94c-0.55-0.67-1.27-1-2.16-1c-0.8,0-1.47,0.27-2.01,0.8C242.63,150.11,242.33,150.83,242.28,151.73z
				"/>
			<path class="st1" d="M255.93,157.84v-10.26h1.57v1.46c0.75-1.13,1.84-1.69,3.27-1.69c0.62,0,1.19,0.11,1.71,0.33
				c0.52,0.22,0.91,0.51,1.16,0.87c0.26,0.36,0.44,0.79,0.54,1.29c0.06,0.32,0.1,0.89,0.1,1.69v6.31h-1.74v-6.24
				c0-0.71-0.07-1.24-0.2-1.59c-0.13-0.35-0.38-0.63-0.72-0.84c-0.34-0.21-0.75-0.31-1.21-0.31c-0.74,0-1.38,0.23-1.92,0.71
				c-0.54,0.47-0.81,1.36-0.81,2.68v5.61H255.93z"/>
			<path class="st1" d="M277.59,154.08l1.71,0.22c-0.19,1.18-0.67,2.1-1.43,2.77c-0.77,0.67-1.72,1-2.84,1
				c-1.41,0-2.53-0.46-3.39-1.38c-0.85-0.92-1.28-2.23-1.28-3.95c0-1.11,0.18-2.08,0.55-2.91c0.37-0.83,0.93-1.45,1.68-1.87
				c0.75-0.42,1.57-0.62,2.45-0.62c1.12,0,2.03,0.28,2.74,0.85c0.71,0.56,1.16,1.36,1.36,2.4l-1.69,0.26
				c-0.16-0.69-0.45-1.21-0.86-1.56c-0.41-0.35-0.9-0.52-1.48-0.52c-0.88,0-1.59,0.31-2.14,0.94c-0.55,0.63-0.82,1.62-0.82,2.98
				c0,1.38,0.26,2.38,0.79,3.01c0.53,0.63,1.22,0.94,2.07,0.94c0.68,0,1.25-0.21,1.71-0.63
				C277.18,155.6,277.47,154.95,277.59,154.08z"/>
			<path class="st1" d="M284.67,161.8l-0.19-1.63c0.38,0.1,0.71,0.15,1,0.15c0.39,0,0.7-0.06,0.93-0.19
				c0.23-0.13,0.42-0.31,0.57-0.54c0.11-0.17,0.29-0.61,0.53-1.3c0.03-0.1,0.08-0.24,0.15-0.43l-3.89-10.28h1.88l2.14,5.94
				c0.28,0.75,0.53,1.55,0.74,2.38c0.2-0.8,0.44-1.58,0.71-2.34l2.19-5.98h1.74l-3.9,10.44c-0.42,1.13-0.74,1.9-0.98,2.33
				c-0.31,0.57-0.66,0.99-1.06,1.26c-0.4,0.27-0.88,0.4-1.43,0.4C285.46,162.01,285.08,161.94,284.67,161.8z"/>
		</g>
		<path class="st2" d="M360.71,89.3c9.08,1.86,6.54,8.88,19.82,7.7c1.02-0.09,1.95-0.18,2.84-0.26V80.55
			c-3.28,0.86-7.48,1.53-12.46,1.44c-16.23-0.31-22.2-12.92-31.66-7.87c-1.43,0.76-6.27,3.64-12.39,7.32
			c0.03,0.02,0.06,0.03,0.08,0.04l0,0c-0.03-0.02-0.06-0.03-0.09-0.04c-11.12,6.69-26.5,16.05-33.64,20.41l8.32,20.71
			C313.71,114.21,353.05,87.73,360.71,89.3z M357.65,84.92c-0.23,0.01-0.43-0.09-0.61-0.26C357.22,84.84,357.42,84.94,357.65,84.92z
			 M329.32,83.27c-0.84-0.47-1.64-1.02-2.34-1.76C327.67,82.24,328.47,82.8,329.32,83.27z"/>
		<path class="st2" d="M331.45,58.41c6.43-1.47,14.78,8.6,29.67,9.85c7.03,0.59,15.86-1.52,22.25-3.48V49.81
			c-6.12,1.89-15.43,4.5-21.75,5.05c-10.15,0.87-28.95-9.05-40.68-10.94c-8.8-1.41-32.01,12.59-43.08,19.69l8.11,20.18
			C295.63,76.57,316.71,61.77,331.45,58.41z"/>
		<path class="st2" d="M321.31,30.86c3.57,0.85,7,2.51,10.19,4.16c0.34,0.18,0.68,0.35,1.02,0.53c4.83,2.54,9.02,4.85,12.08,3.9
			c16.82-5.22,31.55-9.26,38.78-11.18V7.95c-2.41,0.08-6.11,0.37-11.72,1.18c-13.02,1.88-36.29,14.81-46.51,14.73
			c-10.23-0.08-17.05-8.86-30.37-8.15c-8.6,0.46-22.8,6.6-31.78,10.9l7.11,17.7C281.16,37.68,303.23,26.56,321.31,30.86z"/>
	</g>
	<g>
		<path class="st3" d="M371.8,142.67c1.58,0,3.13,0.41,4.64,1.22s2.69,1.98,3.53,3.49c0.84,1.51,1.26,3.09,1.26,4.74
			c0,1.63-0.41,3.19-1.24,4.69c-0.83,1.5-1.99,2.67-3.49,3.5s-3.06,1.24-4.7,1.24c-1.63,0-3.2-0.41-4.7-1.24
			c-1.5-0.83-2.66-2-3.5-3.5c-0.83-1.5-1.25-3.07-1.25-4.69c0-1.64,0.42-3.22,1.27-4.74c0.85-1.51,2.03-2.68,3.53-3.49
			C368.67,143.07,370.22,142.67,371.8,142.67z M371.8,144.23c-1.33,0-2.62,0.34-3.87,1.02c-1.26,0.68-2.24,1.65-2.95,2.92
			s-1.06,2.58-1.06,3.95c0,1.36,0.35,2.66,1.04,3.91s1.67,2.22,2.92,2.92c1.25,0.7,2.56,1.04,3.92,1.04s2.66-0.35,3.92-1.04
			c1.25-0.7,2.22-1.67,2.92-2.92c0.69-1.25,1.04-2.55,1.04-3.91c0-1.37-0.35-2.68-1.06-3.95c-0.71-1.26-1.69-2.24-2.95-2.92
			S373.12,144.23,371.8,144.23z M367.66,157.33v-10.16h3.49c1.19,0,2.06,0.09,2.59,0.28c0.53,0.19,0.96,0.51,1.28,0.98
			c0.32,0.47,0.48,0.96,0.48,1.49c0,0.74-0.26,1.39-0.79,1.94s-1.23,0.86-2.11,0.93c0.36,0.15,0.65,0.33,0.86,0.54
			c0.41,0.4,0.91,1.07,1.5,2.01l1.24,1.99h-2l-0.9-1.6c-0.71-1.26-1.28-2.05-1.71-2.36c-0.3-0.23-0.74-0.35-1.31-0.35h-0.96v4.32
			H367.66z M369.3,151.61h1.99c0.95,0,1.6-0.14,1.95-0.43c0.35-0.28,0.52-0.66,0.52-1.13c0-0.3-0.08-0.57-0.25-0.81
			c-0.17-0.24-0.4-0.41-0.69-0.53c-0.3-0.12-0.84-0.18-1.65-0.18h-1.86V151.61z"/>
	</g>
</g>
</svg>
