<?xml version="1.0" encoding="UTF-8"?><svg id="Layer_2" xmlns="http://www.w3.org/2000/svg" viewBox="0 0 341.22 336.79"><defs><style>.cls-1,.cls-2{fill:#fff;}.cls-3,.cls-4,.cls-5{stroke-linecap:round;}.cls-3,.cls-4,.cls-5,.cls-6,.cls-7,.cls-8,.cls-9,.cls-10{fill:none;}.cls-3,.cls-4,.cls-5,.cls-8{stroke:#6d98ac;}.cls-3,.cls-8,.cls-9{stroke-width:.61px;}.cls-11{fill:#ce1141;}.cls-4{stroke-width:.38px;}.cls-5,.cls-6{stroke-width:.3px;}.cls-12{fill:#00539f;}.cls-13{fill:#ffd740;}.cls-14{fill:#007cc2;}.cls-6,.cls-2,.cls-9,.cls-10{stroke:#000;}.cls-7{stroke:#fff;stroke-width:6px;}.cls-7,.cls-2{stroke-miterlimit:10;}.cls-15{fill:#cf7419;}.cls-10{stroke-width:2px;}</style></defs><g id="Layer_1-2"><path class="cls-1" d="m170.61,188.3H48.91v-8.1c0-4.1,1.5-10.1,1.5-10.1h0c8.9-35.8,8.4-48,8.4-48,0-55.4-21.3-85.8-21.3-85.8L72.41,1h196.4l34.9,35.3s-21.3,30.4-21.3,85.8c0,0-.5,12.2,8.4,48h0s1.5,6,1.5,10.1v8.1h-121.7"/><path class="cls-13" d="m170.61,336.79c15.5-13.7,38.7-24.09,38.7-24.09,30.8-13.7,123.4-44.4,119-93.5-.2-2.3,1.1-4.5,3.2-5.5,5.2-2.4,12.9-7.5,8.3-15.5-13.4-23.5-13.8-32.9-14.2-35.8-.4-2.3-2.9-13.7-14.8-12.7-12.5,1-18,15.8-19.4,20.6,18.3,72.4-78.1,73.2-120.8,116.6-42.7-43.4-139.1-44.2-120.8-116.6-1.4-4.8-6.9-19.6-19.4-20.6-11.9-1-14.4,10.4-14.8,12.7-.4,2.9-.8,12.3-14.2,35.8-4.6,8,3.1,13.1,8.3,15.5,2.1,1,3.4,3.2,3.2,5.5-4.4,49.1,88.2,79.8,119,93.5,0,0,23.2,10.39,38.7,24.09Z"/><path class="cls-1" d="m314.61,176.8l-6.3-10.2c-6.7,5.4-2.3,14.5,6.3,10.2Z"/><path class="cls-1" d="m326.51,212.2c-4.3-10.5-19.2-23.5-21.6-34.5,7.3,7.1,17.1-.7,18.8-8,1.5,5.5,4.9,14.7,12.7,28.2,5,8.9-5,12.9-9.9,14.3h0Z"/><path class="cls-2" d="m170.61,334.26c-14.93-13.96-37.8-24.06-37.8-24.06,0,0-6.9-3.7-40-17.1-13.5-5.4-26.5-12.1-38.7-20.2-45.2-29.9-41.1-52.1-33.5-64.5,15.4-19.5,27.4-36.2,11.2-46l-7.3,12.2c-19.5-14.2,13.7-42.3,24.5,2h0c0,70.94,85.3,66.25,121.6,105.95,36.3-39.7,121.6-36.05,121.6-105.95h0c10.8-44.3,44-16.2,24.5-2l-7.3-12.2c-16.2,9.8-4.2,26.5,11.2,46,7.6,12.4,11.7,34.6-33.5,64.5-12.2,8.1-25.2,14.8-38.7,20.2-33.1,13.4-40,17.1-40,17.1,0,0-22.87,10.1-37.8,24.06Z"/><path class="cls-11" d="m170.61,169.7h-38.2c0-6.7-11-6.7-11-6.7,0,0-12,0-12,6.7,0,6,3.3,6,3.3,11.4,0,7.2-10.2,7.2-10.2,7.2,0,0-11.2,0-11.2-7.2.1-5.5,3.3-5.5,3.3-11.4,0-6.7-11-6.7-11-6.7,0,0-12,0-12,6.7,0,6,3.3,6,3.3,11.4,0,7.2-11.2,7.2-11.2,7.2,0,0-10.29-.04-10.29-7.24h-3l-1.7-4.79c-1.8,12.9-.7,41.2,35.9,60.8.3.1.6.3.8.5,20.9,11.8,67.8,24.3,85.2,47,17.4-22.7,64.3-35.2,85.2-47,.2-.2.5-.4.8-.5,36.6-19.6,37.7-47.9,35.9-60.8l-1.7,4.79h-3c0,7.2-10.29,7.24-10.29,7.24,0,0-11.2,0-11.2-7.2,0-5.4,3.3-5.4,3.3-11.4,0-6.7-12-6.7-12-6.7,0,0-11,0-11,6.7,0,5.9,3.2,5.9,3.3,11.4,0,7.2-11.2,7.2-11.2,7.2,0,0-10.2,0-10.2-7.2,0-5.4,3.3-5.4,3.3-11.4,0-6.7-12-6.7-12-6.7,0,0-11,0-11,6.7h-38.2"/><path class="cls-14" d="m170.61,7.7h-95.6l-28.2,29.6s19.1,32.1,19.1,83.7c0,0,1,12.6-7.9,48.4,0,0-.66,3.05-1.03,4.94-.64,3.22-1.37,5.96-1.37,6.86,0,4.1,8.1,4.1,8.1,4.1,0,0,11.2,3,11.2-4.2,0-5.4-3.3-5.4-3.3-11.4,0-6.7,12-6.7,12-6.7,0,0,11,0,11,6.7,0,5.9-3.2,5.9-3.3,11.4,0,7.2,11.2,7.2,11.2,7.2,0,0,10.2,0,10.2-7.2,0-5.4-3.3-5.4-3.3-11.4,0-6.7,12-6.7,12-6.7,0,0,11,0,11,6.7h76.4c0-6.7,11-6.7,11-6.7,0,0,12,0,12,6.7,0,6-3.3,6-3.3,11.4,0,7.2,10.2,7.2,10.2,7.2,0,0,11.2,0,11.2-7.2-.1-5.5-3.3-5.5-3.3-11.4,0-6.7,11-6.7,11-6.7,0,0,12,0,12,6.7,0,6-3.3,6-3.3,11.4,0,7.2,11.2,4.2,11.2,4.2,0,0,8.1,0,8.1-4.1,0-.9-.73-3.65-1.37-6.86-.37-1.89-1.03-4.94-1.03-4.94-8.9-35.8-7.9-48.4-7.9-48.4,0-51.6,19.1-83.7,19.1-83.7l-28.2-29.6s-95.6,0-95.6,0Z"/><path class="cls-1" d="m26.61,176.8l6.3-10.2c6.7,5.4,2.3,14.5-6.3,10.2Z"/><path class="cls-1" d="m14.71,212.2c4.3-10.5,19.2-23.5,21.6-34.5-7.3,7.1-17.1-.7-18.8-8-1.5,5.5-4.9,14.7-12.7,28.2-5,8.9,5,12.9,9.9,14.3h0Z"/><path class="cls-12" d="m51.31,221.1l-11.7,19.7c-.7,1.2-.1,2,.5,2.8l-1.1.9-4.9-7.3,1.1-.9c1.4,2,1.9,2.8,2.9,1.2l2.4-4.1-4.4-6.4-2.6,1c-2.6,1-2.3,2.5-1.1,4.3l-1.1.9-4.3-6.3,1.1-.9c1.1,1.6,2.6,1.2,3.8.8l18.7-6.8.7,1.1Zm-13.7,5.4l3.7,5.5,5.3-8.8-9,3.3Z"/><path class="cls-12" d="m62.61,235.9l-.9,1.2c-.2-.2-.5-.5-.8-.7-.8-.8-1.6-1.6-2.5-.5l-10.2,14-.3.3c-.8.9.1,1.8,1.1,2.9l.5.5-.9,1.2-7.2-7,.9-1.2.6.6c1,1,1.9,1.7,2.7.5l10.2-14.1c.8-1.1.4-1.6-1.1-3l-.5-.5.9-1.2,7.5,7Z"/><path class="cls-12" d="m72.61,243.4c2.1,1.7,3.7,5,1.1,8.4-2.6,3.5-6,2.8-8.2,1.2v.1c.8.9,2,2.3.3,6-.5,1.1-1.4,2.8-1.4,2.8-1,1.9-1,2.5-.6,2.8.7.6,2.3-1.4,2.8-2l.8.6c-1.7,2.3-4,4.3-6,2.7-1.5-1.2-1.1-3.2.3-5.3,0,0,1.1-1.8,1.7-2.7,1.8-2.8,1.5-4.4.3-5.7-.5-.5-1.1-1-1.7-1.4l-5.4,7.1c-.8,1.1,0,1.7.7,2.3,0,0,.3.3.6.6l-.9,1.2-6.6-5.1.9-1.2c1.2.8,2,2.1,3.3.3l10.7-14.1c1-1.3.7-1.6-.4-2.5-.3-.2-.5-.5-.8-.6l.9-1.2,7.6,5.7Zm-3.3-.6c-.7-.5-1.2.1-1.6.7l-4.7,6.2c.4.4.9.8,1.3,1.1,2.6,2.1,4.5,2.6,7-.7,1.6-2.1,2-4,.5-5.2l-2-1.7c0-.1-.4-.3-.5-.4Z"/><path class="cls-12" d="m97.51,260.1l1.9-1.2.9.5-3.8,8.2-1.1-.6c1.3-4.6,1.3-8.3-1.7-10.1-1.7-1-3.8-.9-5.8.9-1.3,1.2-2.5,2.7-4.1,5.9-3,5.7-2.8,9.6.7,11.7,3.3,1.9,6.3.1,8.5-3.1l1,.9c-3,4.4-6.8,5.4-10.5,3.3-4.6-2.7-5.6-9.1-2.7-14.7,1.5-2.9,3.5-5,5.9-6.1,2.7-1.2,5.1-1.5,7.6-.1,1.9,1.2,2.9,3,3.2,4.5Z"/><path class="cls-12" d="m114.51,279.5c-2.6,5.2-8.4,8.7-12.8,5.4-4.4-3.3-4.6-10.8-1.8-16.3,2.5-5,8.3-8.9,12.9-5.5,4.3,3.4,4.5,10.8,1.7,16.4Zm-12-8.8c-2.3,4.4-4.1,10.1-.2,13,3.9,2.9,7.4-2.2,9.4-6.2,2-3.9,4.3-9.9.2-13-3.7-2.9-7.1,1.7-9.4,6.2Z"/><path class="cls-12" d="m128.61,270.6l-2.1,17.1,11.7-12.9,6.4,2.8-.6,1.2c-1-.4-1.9-.7-1.9-.7-.8-.3-1.2.1-1.7,1.1l-6.8,14.5c-.5,1-.3,1.4,1,2l1.2.5-.6,1.2-8.3-3.7.6-1.2.6.3c1.6.6,2.2,1,2.9-.5l7.5-15.8-14.5,16-.9-.4,2.6-21.2-.2.3-6.5,13.7c-1.1,2.3-.7,3.7,1.4,4.6l-.6,1.2-7.1-3.1.6-1.2c2.5.8,3.6,0,4.7-2.5l5.8-12.2c.6-1.3,0-1.8-.9-2.1-.4-.2-.9-.4-1.3-.6l.6-1.2,6.4,2.8Z"/><path class="cls-12" d="m156.31,283.3c3.8,1.9,4.1,5.3,2.9,7.5-1.5,3.1-4.4,3.6-6.7,2.7v.1c.4.3,1.7,1,2.7,2.9.6,1.1.9,2.8-.1,4.7-.8,1.5-2,2.6-3,3-2.1.8-4.3.3-7.1-1.2l-8-4.1.6-1.3c2.4,1.1,2.6,1.4,3.6-.5l7.3-14.4c.7-1.4.2-1.7-1-2.3-.2-.1-.7-.4-1-.5l.6-1.3,9.2,4.7Zm.7,3.2c-.2-1.3-1.7-2.2-3.1-3-.7-.4-1.9-1.3-2.7.4l-3.3,6.5s.7.4,1.2.6c3.1,1.6,5.4,2.5,7.3-1.3.6-1.3.7-2.4.6-3.2Zm-9.8,5.3l-3.3,6.5c-1,2.1-.8,2.1,1.1,3.1,2.1,1.1,3.6,1.4,4.6,1s1.8-1.2,2.5-2.6c2-4.1-.2-5.7-3-7.1-.6-.3-1.1-.6-1.9-.9Z"/><path class="cls-12" d="m167.21,291.7l2.4,23.8c.2,1.6.9,2,1.7,2.5l-.2,1.5-6.9-4.3.2-1.5c1.9,1.1,2.7,1.7,2.5-.4l-.5-5.5-6-3.8-1.2,2.5c-1.2,2.5-.2,3.8,1.5,4.9l-.2,1.5-5.9-3.7.2-1.5c1.5.9,2.3-.3,2.9-1.4l8.7-15.1.8.5Zm-6.2,10.8l5.2,3.2-1-9.4-4.2,6.2Z"/><path class="cls-12" d="m184.71,286.7l.7,9.7-.9.7c-.5-3.7-1.5-7.5-4.3-5.6-.7.5-1.1,1.1-1.1,2.4l.7,19.3c.1,1.6.6,1.3,1.8.5.3-.2.7-.5,1-.7l.1,1.6-8.1,5.7-.1-1.6c.3-.2.8-.7.9-.7,1.2-.9,1.9-1.3,1.8-2.8l-.7-19.6c0-1.1-.4-1.2-1.2-.6-2.7,1.9-3.3,6.4-3.6,11.1l-.9.6.1-10.2,13.8-9.8Z"/><path class="cls-12" d="m203.91,276.7l.2-2.2.9-.4,3.6,8.2-1,.5c-2.5-3.9-5.2-6.3-8.2-5.1-1.7.7-2.7,2.4-2.6,5.1.1,1.8.5,3.6,1.8,7,2.4,6,5.2,8.3,8.7,6.9,3.3-1.3,3.7-4.9,2.7-8.6l1.2-.2c1.4,5.1,0,8.8-3.7,10.3-4.6,1.9-9.6-1.4-12-7.2-1.2-3-1.6-6-1-8.5.6-2.9,1.8-5,4.3-6,2-.9,3.8-.5,5.1.2Z"/><path class="cls-12" d="m225.71,278.2c2.1,5.2,1.3,12-3.3,13.6-4.6,1.6-9.7-2.6-11.9-8.1-2-5-1.5-11.9,3.2-13.6,4.7-1.6,9.8,2.5,12,8.1Zm-12.3,4.5c1.8,4.5,4.6,9.2,8.6,7.8,4-1.4,2.5-7.3.9-11.3-1.5-3.9-4.4-9.3-8.6-7.8-4,1.3-2.7,6.8-.9,11.3Z"/><path class="cls-12" d="m227.21,264.8l11.6,14.3-2.4-17.9,6.1-2.4.6,1.3c-1,.4-1.7.8-1.7.8-.8.3-.7,1-.2,2l6.7,15.7c.5,1.1.9,1.3,2.1.8l1.1-.4.6,1.3-8,3.1-.6-1.3.6-.3c1.5-.6,2.1-.8,1.4-2.4l-7.3-17.1,3,22.2-.9.4-14.4-17.8.1.3,6.3,14.8c1,2.4,2.4,3.3,4.4,2.5l.6,1.3-6.8,2.7-.6-1.3c2.2-1.2,2.2-2.5,1.1-5.2l-5.7-13.2c-.6-1.4-1.3-1.3-2.2-1-.4.2-.9.3-1.2.5l-.6-1.3,6.3-2.4Z"/><path class="cls-12" d="m249.81,254.3l12.7,13.4-2.9-18.9,6.5-3.6.6,1.3c-1,.6-1.8,1.1-1.8,1.1-.8.5-.7,1.1-.2,2.2l7.4,15.7c.5,1.1.9,1.2,2.3.5l1.2-.6.6,1.3-8.5,4.7-.6-1.3.6-.4c1.5-.9,2.2-1.2,1.5-2.8l-8.1-17.2,3.7,23.4-1,.5-15.7-16.6.1.3,7,14.9c1.2,2.5,2.6,3.1,4.7,1.9l.6,1.3-7.2,4-.6-1.3c2.3-1.6,2.3-3.1,1-5.8l-6.3-13.3c-.7-1.4-1.5-1.2-2.4-.7-.4.2-.9.5-1.3.7l-.6-1.3,6.7-3.4Z"/><path class="cls-12" d="m273.21,241.9l17.6,11c1.1.7,1.8,0,2.6-.6l.8,1.1-6.9,5.3-.8-1.1c1.9-1.5,2.7-2.1,1.3-3l-3.7-2.3-6.1,4.7.8,2.6c.8,2.6,2.2,2.2,3.9.9l.8,1.1-6,4.6-.8-1.1c1.5-1.2,1.3-2.7.9-3.9l-5.3-18.7.9-.6Zm4.3,13.6l5.2-4-7.9-5,2.7,9Z"/><path class="cls-12" d="m281.71,235.6l21,1-9.5-6.6c-2.2-1.6-3.3-1.1-5,.4l-1.1-.8,5.3-5.9,1.1.8c-1.3,1.7-1.6,2.9.9,4.6l14.1,9.8-.7.8-23.7-1.1,11.1,7.7c2.1,1.5,3.4.9,5-.6l1.1.8-5.4,6.1-1.1-.8c1.5-2,1.4-3.1-1.1-4.8l-11.3-7.8c-.9-.6-2.2.5-2.9,1.4l-.4.4-1.1-.8,3.7-4.6Z"/><path class="cls-12" d="m297.61,214.4c1.3-2.6,3.1-5.9,7.8-4.1,1.5.6,3.1,1.6,4.7,3.1,3.4,3.2,5.5,7.5,5.3,11.1-.1,1.5-.4,3-1.1,4.4l-4.1,8.5-1-.9c1.1-2.6,1.6-2.3-.5-4.3l-10.9-10.2c-1.8-1.7-1.5-1.2-2.9,1.1l-1-.9,3.7-7.8Zm.8,4.7l11.8,11c1.2,1.1,1.2,1.4,2.5-1.2.9-1.8,1.4-3.2.9-4.9-.7-2.5-2.2-4.7-5.3-7.5-2.2-2.1-5.1-4.3-7.1-3.7-1.6.5-2.4,1.8-3.1,3.3-.5,1.2-1,1.8.3,3Z"/><path class="cls-10" d="m48.91,180.2c0-4.1,1.5-10.1,1.5-10.1h0c8.9-35.8,8.4-48,8.4-48,0-55.4-21.3-85.8-21.3-85.8L72.41,1h196.4l34.9,35.3s-21.3,30.4-21.3,85.8c0,0-.5,12.2,8.4,48h0s1.5,6,1.5,10.1"/><path class="cls-7" d="m132.41,169.7c0-6.7-11-6.7-11-6.7,0,0-12,0-12,6.7,0,6,3.3,6,3.3,11.4,0,7.2-10.2,7.2-10.2,7.2,0,0-11.2,0-11.2-7.2.1-5.5,3.3-5.5,3.3-11.4,0-6.7-11-6.7-11-6.7,0,0-12,0-12,6.7,0,6,3.3,6,3.3,11.4,0,7.2-11.2,7.2-11.2,7.2,0,0-13.29,0-13.29-8.24"/><path class="cls-7" d="m208.81,169.7c0-6.7,11-6.7,11-6.7,0,0,12,0,12,6.7,0,6-3.3,6-3.3,11.4,0,7.2,10.2,7.2,10.2,7.2,0,0,11.2,0,11.2-7.2-.1-5.5-3.3-5.5-3.3-11.4,0-6.7,11-6.7,11-6.7,0,0,12,0,12,6.7,0,6-3.3,6-3.3,11.4,0,7.2,11.2,7.2,11.2,7.2,0,0,13.29,0,13.29-8.24"/><g><g><polygon class="cls-15" points="99.11 24 94.54 16.47 91.71 24.5 105.81 55.6 90.51 33.5 89.01 45.4 104.91 68.2 89.31 49.9 89.01 61.7 106.41 81.2 89.01 67.7 90.71 80.6 106.71 93.6 92.11 85.6 95.51 100 112.61 106.8 96.91 104.1 101.71 115.5 116.71 120.4 103.01 119.4 107.01 128.6 124.21 133.5 108.31 133.1 112.31 142.5 129.11 148.8 113.91 148 115.91 155.1 131.31 154.7 117.01 156.4 122.11 167.5 134.81 165 124.11 170.5 127.61 178.2 137.81 174.6 133.51 178 129.41 182.1 134.31 188.7 143.51 180.7 135.51 190.7 140.91 198 149.91 188.5 146.21 193.2 142.91 200.1 147.11 204.1 154.41 195.8 152.51 199.8 150.11 207.8 156.21 212.4 165.01 199.8 151.01 185.5 145.01 174.8 133.51 159.3 129.31 146.9 122.21 129.1 114.51 111.4 113.41 103.7 106.71 86.4 107.81 71.9 107.51 60.4 107.61 50.3 99.11 24"/><path class="cls-13" d="m165.81,149.8s-18.8-4.6-17.7-24.6c0,0,.8-3.6,2.9-9.7,0,0,2.3-4.7-2.6-10.4L96.01,18.9l-2.4,5.7,13.1,30.2-14.3-18.6-.7,8.8,14.6,23.7-14.4-16-.3,7.9,14.8,18.9-14.2-9,.7,8.6,13.4,13.4-11.7-5.2,3,10.6,14.9,8-12.7-1.2,3.4,8.5,14.3,6.6-11.1-.1,2.5,6.6,14,5.9-12.4,1.1,4,7.3,12.3,7-9.9.6,1.5,4.2,11.1,2.4-9.1,1.7,3.7,8.4,10.7-.5-8.2,4.9,2.4,6.2,7.8-2-5.1,5.7,3.1,6.2,6.8-3.7-4.4,6.7,4.1,6.2,6.3-5-3.3,7.9,3.1,3.5,6.4-6.4-2.1,10.1,4.8,3.8,10.1-9.8-.8-48.9Z"/></g><path class="cls-15" d="m131.31,90.9s10,16.5,4,26.8c0,0-4,8.8,11.9,33.8-14.7-28-9.7-33.8-9.7-33.8,6-12.8-6.2-26.8-6.2-26.8Z"/><path class="cls-15" d="m121.91,66.7s-10.6,4-4.3,13.3c0,0-4.8-4-2.9-9,0,0,2.5-4.6,7.2-4.3Z"/><path class="cls-15" d="m116.41,81.9s-5.1,11.4,3.5,16.5c0,0-5.1-.7-6.2-7.1,0,0-.5-6.4,2.7-9.4Z"/><path class="cls-14" d="m117.61,102.3s-3.14,11.88,10.46,15.88c0,0-5.85,9.44,4.95,16.44,0,0-4.8,10.46,6.7,15.16,0,0-4.91,7.82,4.69,13.12,0,0-2.77,7.87,6.03,9.47,0,0,.37,7.23,9.87,10.33,0,0-9.72-1.43-10.62-9.63,0,0-7.88-1.77-6.38-9.57,0,0-8.84-4.33-5.04-13.33,0,0-10.28-4.68-6.88-14.98,0,0-8.38-5.8-5.28-16.4.1-.1-13.7-5.6-8.5-16.5Z"/><path class="cls-15" d="m117.61,102.3c-5.2,10.9,8.6,16.4,8.5,16.5-3.1,10.6,5.28,16.4,5.28,16.4-3.4,10.3,6.88,14.98,6.88,14.98-3.8,9,5.04,13.33,5.04,13.33-1.5,7.8,6.38,9.57,6.38,9.57.9,8.2,10.62,9.63,10.62,9.63,0,0-9.8.9-11.3-8.7,0,0-8.3-.5-7-10.1,0,0-8.6-4.5-4.8-13.4,0,0-10.2-4.7-6.8-15,0,0-9.8-6.2-6-16.1.2-.1-12.4-7-6.8-17.1Z"/><path class="cls-14" d="m147.21,151.5c-14.7-28-9.7-33.8-9.7-33.8,6-12.8-6.2-26.8-6.2-26.8,0,0,14.5,13.1,8.4,27,0,0-6,5,7.5,33.6Z"/><path class="cls-14" d="m119.91,98.4c-8.6-5.1-3.5-16.5-3.5-16.5,0,0-2.8,10.5,3.5,16.5Z"/><path class="cls-14" d="m121.91,66.7s-10.6,4-4.3,13.3c-3.5-8.3,4.3-13.3,4.3-13.3Z"/></g><g><g><polygon class="cls-15" points="242.11 24 246.68 16.47 249.51 24.5 235.41 55.6 250.71 33.5 252.21 45.4 236.31 68.2 251.91 49.9 252.21 61.7 234.81 81.2 252.21 67.7 250.51 80.6 234.51 93.6 249.11 85.6 245.71 100 228.61 106.8 244.31 104.1 239.51 115.5 224.51 120.4 238.21 119.4 234.21 128.6 217.01 133.5 232.91 133.1 228.91 142.5 212.11 148.8 227.31 148 225.31 155.1 209.91 154.7 224.21 156.4 219.11 167.5 206.41 165 217.11 170.5 213.61 178.2 203.41 174.6 207.71 178 211.81 182.1 206.91 188.7 197.71 180.7 205.71 190.7 200.31 198 191.31 188.5 195.01 193.2 198.31 200.1 194.11 204.1 186.81 195.8 188.71 199.8 191.11 207.8 185.01 212.4 176.21 199.8 190.21 185.5 196.21 174.8 207.71 159.3 211.91 146.9 219.01 129.1 226.71 111.4 227.81 103.7 234.51 86.4 233.41 71.9 233.71 60.4 233.61 50.3 242.11 24"/><path class="cls-13" d="m175.41,149.8s18.8-4.6,17.7-24.6c0,0-.8-3.6-2.9-9.7,0,0-2.3-4.7,2.6-10.4l52.4-86.2,2.4,5.7-13.1,30.2,14.3-18.6.7,8.8-14.6,23.7,14.4-16,.3,7.9-14.8,18.9,14.2-9-.7,8.6-13.4,13.4,11.7-5.2-3,10.6-14.9,8,12.7-1.2-3.4,8.5-14.3,6.6,11.1-.1-2.5,6.6-14,5.9,12.4,1.1-4,7.3-12.3,7,9.9.6-1.5,4.2-11.1,2.4,9.1,1.7-3.7,8.4-10.7-.5,8.2,4.9-2.4,6.2-7.8-2,5.1,5.7-3.1,6.2-6.8-3.7,4.4,6.7-4.1,6.2-6.3-5,3.3,7.9-3.1,3.5-6.4-6.4,2.1,10.1-4.8,3.8-10.1-9.8.8-48.9Z"/></g><path class="cls-15" d="m209.91,90.9s-10,16.5-4,26.8c0,0,4,8.8-11.9,33.8,14.7-28,9.7-33.8,9.7-33.8-6-12.8,6.2-26.8,6.2-26.8Z"/><path class="cls-15" d="m219.31,66.7s10.6,4,4.3,13.3c0,0,4.8-4,2.9-9,0,0-2.5-4.6-7.2-4.3Z"/><path class="cls-15" d="m224.81,81.9s5.1,11.4-3.5,16.5c0,0,5.1-.7,6.2-7.1,0,0,.5-6.4-2.7-9.4Z"/><path class="cls-14" d="m223.61,102.3s3.14,11.88-10.46,15.88c0,0,5.85,9.44-4.95,16.44,0,0,4.8,10.46-6.7,15.16,0,0,4.91,7.82-4.69,13.12,0,0,2.77,7.87-6.03,9.47,0,0-.37,7.23-9.87,10.33,0,0,9.72-1.43,10.62-9.63,0,0,7.88-1.77,6.38-9.57,0,0,8.84-4.33,5.04-13.33,0,0,10.28-4.68,6.88-14.98,0,0,8.38-5.8,5.28-16.4-.1-.1,13.7-5.6,8.5-16.5Z"/><path class="cls-15" d="m223.61,102.3c5.2,10.9-8.6,16.4-8.5,16.5,3.1,10.6-5.28,16.4-5.28,16.4,3.4,10.3-6.88,14.98-6.88,14.98,3.8,9-5.04,13.33-5.04,13.33,1.5,7.8-6.38,9.57-6.38,9.57-.9,8.2-10.62,9.63-10.62,9.63,0,0,9.8.9,11.3-8.7,0,0,8.3-.5,7-10.1,0,0,8.6-4.5,4.8-13.4,0,0,10.2-4.7,6.8-15,0,0,9.8-6.2,6-16.1-.2-.1,12.4-7,6.8-17.1Z"/><path class="cls-14" d="m194.01,151.5c14.7-28,9.7-33.8,9.7-33.8-6-12.8,6.2-26.8,6.2-26.8,0,0-14.5,13.1-8.4,27,0,0,6,5-7.5,33.6Z"/><path class="cls-14" d="m221.31,98.4c8.6-5.1,3.5-16.5,3.5-16.5,0,0,2.8,10.5-3.5,16.5Z"/><path class="cls-14" d="m219.31,66.7s10.6,4,4.3,13.3c3.5-8.3-4.3-13.3-4.3-13.3Z"/></g><g><path class="cls-1" d="m170.41,253.63c5.8-5.6,6.9-19.4,6.9-19.4V72.23s0-8.4-6.9-6.1c-6.9-2.3-6.9,6.1-6.9,6.1v162s1.1,13.8,6.9,19.4"/><g><path class="cls-11" d="m164.51,63.31l.1-39.3,12.1-.1v39.3c-.1.1-8.8.6-12.2.1Z"/><path class="cls-8" d="m174.31,73.31s-3.9-1.3-3.9,4.6c0-5.8-3.9-4.6-3.9-4.6"/><line class="cls-3" x1="170.41" y1="77.91" x2="170.41" y2="250.01"/><line class="cls-5" x1="171.31" y1="74.21" x2="171.31" y2="251.61"/><line class="cls-5" x1="172.31" y1="73.61" x2="172.31" y2="250.31"/><line class="cls-5" x1="173.11" y1="155.01" x2="173.21" y2="248.81"/><line class="cls-5" x1="174.21" y1="185.31" x2="174.21" y2="246.71"/><line class="cls-5" x1="174.31" y1="73.51" x2="174.21" y2="106.91"/><line class="cls-5" x1="175.21" y1="213.81" x2="175.21" y2="243.81"/><line class="cls-5" x1="175.21" y1="73.71" x2="175.21" y2="95.71"/><line class="cls-5" x1="176.11" y1="73.71" x2="176.11" y2="82.41"/><line class="cls-5" x1="173.21" y1="139.31" x2="173.21" y2="73.11"/><line class="cls-9" x1="172.61" y1="46.91" x2="176.41" y2="50.41"/><g><line class="cls-9" x1="176.21" y1="28.51" x2="164.71" y2="37.51"/><line class="cls-9" x1="164.71" y1="29.01" x2="170.31" y2="32.91"/><line class="cls-9" x1="164.61" y1="38.91" x2="169.51" y2="44.21"/><line class="cls-9" x1="166.61" y1="40.61" x2="176.41" y2="32.91"/><line class="cls-9" x1="170.81" y1="37.51" x2="174.01" y2="40.71"/><polyline class="cls-9" points="176.21 38.61 164.61 48.51 170.81 53.91"/><line class="cls-9" x1="176.21" y1="43.81" x2="170.11" y2="48.91"/><line class="cls-9" x1="164.71" y1="59.61" x2="173.21" y2="51.61"/><polyline class="cls-9" points="176.41 53.71 169.21 61.01 176.41 62.41"/><line class="cls-9" x1="167.61" y1="26.31" x2="173.81" y2="30.41"/></g><path class="cls-1" d="m170.51,27.31c4.5-.1,8.1-2.4,8.1-5.1s-3.7-4.9-8.2-4.8-8.1,2.4-8.1,5.1c.1,2.7,3.7,4.9,8.2,4.8Z"/><path class="cls-6" d="m176.61,25.51s-4.9,1.7-8.7-1.4"/></g><path class="cls-1" d="m170.41,68.81c7.7.1,15,.3,24.8,2.6,0,0-3.6,3.3,1,5.6,0,0,3.9.01,3.9-6.3,0,0,.01-8.6-29.7-8.6s-29.7,8.6-29.7,8.6c0,6.31,3.9,6.3,3.9,6.3,4.6-2.3,1-5.6,1-5.6,9.8-2.3,17.1-2.5,24.8-2.6h0Z"/><path class="cls-4" d="m195.21,71.41s.8-1.1,3.6-1.4"/><path class="cls-4" d="m145.61,71.41s-.8-1.1-3.6-1.4"/><path class="cls-4" d="m164.11,68.95c2.11-.08,4.19-.15,6.3-.15h0c2.1,0,4.19.06,6.3.15"/></g></g></svg>